<svg width="24" height="24" viewBox="0 0 24 24" fill="none" xmlns="http://www.w3.org/2000/svg">
<path d="M14 20C14 21.1046 13.1046 22 12 22C10.8954 22 10 21.1046 10 20C10 18.8954 10.8954 18 12 18C13.1046 18 14 18.8954 14 20Z" fill="#777E91"/>
<path d="M12.0001 2.99976C9.63629 2.99976 7.29564 3.46534 5.11178 4.36993C3.79803 4.9141 2.55649 5.61073 1.41185 6.44334C0.980692 6.75696 0.8714 7.35368 1.16341 7.79975L6.65681 16.1912C6.81352 16.4306 7.06528 16.5914 7.34838 16.6329C7.63148 16.6745 7.9188 16.5927 8.13765 16.4084C9.18179 15.529 10.5279 15.0001 12.0001 15.0001C13.4723 15.0001 14.8184 15.529 15.8625 16.4084C16.0814 16.5927 16.3687 16.6745 16.6518 16.6329C16.9349 16.5914 17.1866 16.4306 17.3434 16.1912L22.8367 7.79974C23.1288 7.35368 23.0195 6.75696 22.5883 6.44334C21.4437 5.61073 20.2021 4.9141 18.8884 4.36993C16.7045 3.46534 14.3639 2.99976 12.0001 2.99976Z" fill="#777E91"/>
</svg>
