<svg width="24" height="24" viewBox="0 0 24 24" fill="none" xmlns="http://www.w3.org/2000/svg">
<path d="M19 8C20.6569 8 22 9.34315 22 11V19C22 20.6569 20.6569 22 19 22H11C9.34315 22 8 20.6569 8 19C8 18.4477 8.44771 18 9 18C9.55229 18 10 18.4477 10 19C10 19.5523 10.4477 20 11 20H19C19.5523 20 20 19.5523 20 19V11C20 10.4477 19.5523 10 19 10C18.4477 10 18 9.55229 18 9C18 8.44771 18.4477 8 19 8Z" fill="#777E91"/>
<path fill-rule="evenodd" clip-rule="evenodd" d="M9 14C11.7614 14 14 11.7614 14 9C14 6.23858 11.7614 4 9 4C6.23858 4 4 6.23858 4 9C4 11.7614 6.23858 14 9 14ZM9 16C12.866 16 16 12.866 16 9C16 5.13401 12.866 2 9 2C5.13401 2 2 5.13401 2 9C2 12.866 5.13401 16 9 16Z" fill="#777E91"/>
</svg>
