<svg width="24" height="24" viewBox="0 0 24 24" fill="none" xmlns="http://www.w3.org/2000/svg">
<path fill-rule="evenodd" clip-rule="evenodd" d="M8 2C7.44772 2 7 2.44772 7 3V7H3C2.44772 7 2 7.44771 2 8C2 8.55228 2.44772 9 3 9H7V15H3C2.44772 15 2 15.4477 2 16C2 16.5523 2.44772 17 3 17H7V21C7 21.5523 7.44772 22 8 22C8.55228 22 9 21.5523 9 21V17H15V21C15 21.5523 15.4477 22 16 22C16.5523 22 17 21.5523 17 21V17H21C21.5523 17 22 16.5523 22 16C22 15.4477 21.5523 15 21 15H17V9H21C21.5523 9 22 8.55228 22 8C22 7.44772 21.5523 7 21 7H17V3C17 2.44772 16.5523 2 16 2C15.4477 2 15 2.44772 15 3V7H9V3C9 2.44772 8.55228 2 8 2ZM15 15V9L9 9V15L15 15Z" fill="#777E91"/>
<path fill-rule="evenodd" clip-rule="evenodd" d="M19 4H5C4.44771 4 4 4.44772 4 5V19C4 19.5523 4.44772 20 5 20H19C19.5523 20 20 19.5523 20 19V5C20 4.44771 19.5523 4 19 4ZM5 2C3.34315 2 2 3.34315 2 5V19C2 20.6569 3.34315 22 5 22H19C20.6569 22 22 20.6569 22 19V5C22 3.34315 20.6569 2 19 2H5Z" fill="#777E91"/>
</svg>
