<svg width="24" height="24" viewBox="0 0 24 24" fill="none" xmlns="http://www.w3.org/2000/svg">
<path fill-rule="evenodd" clip-rule="evenodd" d="M17.5 4C17.0478 4 16.4089 4.0625 15.7438 4.15359C15.4566 4.19293 15.2773 4.3928 15.2546 4.65495C15.1315 6.07946 15 8.43537 15 12C15 15.5646 15.1315 17.9205 15.2546 19.345C15.2773 19.6072 15.4566 19.8071 15.7438 19.8464C16.4089 19.9375 17.0478 20 17.5 20C17.9522 20 18.5911 19.9375 19.2562 19.8464C19.5434 19.8071 19.7227 19.6072 19.7454 19.345C19.8685 17.9205 20 15.5646 20 12C20 8.43537 19.8685 6.07946 19.7454 4.65495C19.7227 4.3928 19.5434 4.19293 19.2562 4.15359C18.5911 4.0625 17.9522 4 17.5 4ZM15.4724 2.17209C14.2725 2.33642 13.3664 3.27603 13.2621 4.48263C13.1332 5.97301 13 8.38715 13 12C13 15.6129 13.1332 18.027 13.2621 19.5174C13.3664 20.724 14.2725 21.6636 15.4724 21.8279C16.1606 21.9222 16.9082 22 17.5 22C18.0918 22 18.8394 21.9222 19.5276 21.8279C20.7275 21.6636 21.6336 20.724 21.7379 19.5174C21.8668 18.027 22 15.6129 22 12C22 8.38715 21.8668 5.97302 21.7379 4.48263C21.6336 3.27603 20.7275 2.33642 19.5276 2.17209C18.8394 2.07784 18.0918 2 17.5 2C16.9082 2 16.1606 2.07784 15.4724 2.17209Z" fill="#777E91"/>
<path fill-rule="evenodd" clip-rule="evenodd" d="M6.5 4C6.04782 4 5.40893 4.0625 4.74381 4.15359C4.45659 4.19293 4.27732 4.3928 4.25465 4.65495C4.13145 6.07946 4 8.43537 4 12C4 15.5646 4.13145 17.9205 4.25465 19.345C4.27732 19.6072 4.45659 19.8071 4.74381 19.8464C5.40893 19.9375 6.04782 20 6.5 20C6.95218 20 7.59107 19.9375 8.25619 19.8464C8.54341 19.8071 8.72268 19.6072 8.74535 19.345C8.86855 17.9205 9 15.5646 9 12C9 8.43537 8.86855 6.07946 8.74535 4.65495C8.72268 4.3928 8.54341 4.19293 8.25619 4.15359C7.59107 4.0625 6.95218 4 6.5 4ZM4.47244 2.17209C3.27253 2.33642 2.36644 3.27603 2.26209 4.48263C2.13319 5.97301 2 8.38715 2 12C2 15.6129 2.13319 18.027 2.26209 19.5174C2.36644 20.724 3.27253 21.6636 4.47244 21.8279C5.16065 21.9222 5.90816 22 6.5 22C7.09184 22 7.83935 21.9222 8.52756 21.8279C9.72747 21.6636 10.6336 20.724 10.7379 19.5174C10.8668 18.027 11 15.6129 11 12C11 8.38715 10.8668 5.97302 10.7379 4.48263C10.6336 3.27603 9.72747 2.33642 8.52756 2.17209C7.83935 2.07784 7.09184 2 6.5 2C5.90816 2 5.16065 2.07784 4.47244 2.17209Z" fill="#777E91"/>
</svg>
