<svg width="24" height="24" viewBox="0 0 24 24" fill="none" xmlns="http://www.w3.org/2000/svg">
<path d="M21 11C20.4477 11 20 11.4477 20 12V21C20 21.5523 20.4477 22 21 22C21.5523 22 22 21.5523 22 21V12C22 11.4477 21.5523 11 21 11Z" fill="#777E91"/>
<path d="M14 14C14 13.4477 14.4477 13 15 13C15.5523 13 16 13.4477 16 14V21C16 21.5523 15.5523 22 15 22C14.4477 22 14 21.5523 14 21V14Z" fill="#777E91"/>
<path d="M9 15C8.44772 15 8 15.4477 8 16V21C8 21.5523 8.44772 22 9 22C9.55228 22 10 21.5523 10 21V16C10 15.4477 9.55228 15 9 15Z" fill="#777E91"/>
<path d="M3 17C2.44772 17 2 17.4477 2 18V21C2 21.5523 2.44772 22 3 22C3.55228 22 4 21.5523 4 21V18C4 17.4477 3.55228 17 3 17Z" fill="#777E91"/>
<path d="M3 2C2.44772 2 2 2.44772 2 3V14C2 14.5523 2.44772 15 3 15C3.55228 15 4 14.5523 4 14V3C4 2.44772 3.55228 2 3 2Z" fill="#777E91"/>
<path d="M9 2C8.44772 2 8 2.44772 8 3V12C8 12.5523 8.44772 13 9 13C9.55228 13 10 12.5523 10 12V3C10 2.44772 9.55228 2 9 2Z" fill="#777E91"/>
<path d="M14 3C14 2.44772 14.4477 2 15 2C15.5523 2 16 2.44772 16 3V10C16 10.5523 15.5523 11 15 11C14.4477 11 14 10.5523 14 10V3Z" fill="#777E91"/>
<path d="M21 2C20.4477 2 20 2.44772 20 3V8C20 8.55228 20.4477 9 21 9C21.5523 9 22 8.55228 22 8V3C22 2.44772 21.5523 2 21 2Z" fill="#777E91"/>
</svg>
