<svg width="24" height="24" viewBox="0 0 24 24" fill="none" xmlns="http://www.w3.org/2000/svg">
<path fill-rule="evenodd" clip-rule="evenodd" d="M12 20C16.4183 20 20 16.4183 20 12C20 7.58172 16.4183 4 12 4C7.58172 4 4 7.58172 4 12C4 16.4183 7.58172 20 12 20ZM12 22C17.5228 22 22 17.5228 22 12C22 6.47715 17.5228 2 12 2C6.47715 2 2 6.47715 2 12C2 17.5228 6.47715 22 12 22Z" fill="#777E91"/>
<path d="M5.99995 20.0007C8.42884 18.1763 9.99995 15.2716 9.99995 12C9.99995 8.72836 8.42884 5.82368 5.99995 3.99927C5.45406 4.4093 4.9515 4.8739 4.50037 5.38496C6.6129 6.82498 7.99995 9.25051 7.99995 12C7.99995 14.7495 6.6129 17.175 4.50037 18.615C4.9515 19.1261 5.45406 19.5907 5.99995 20.0007Z" fill="#777E91"/>
<path d="M17.9999 3.99927C15.5711 5.82368 13.9999 8.72837 13.9999 12C13.9999 15.2716 15.5711 18.1763 17.9999 20.0007C18.5458 19.5907 19.0484 19.1261 19.4995 18.615C17.387 17.175 15.9999 14.7495 15.9999 12C15.9999 9.25051 17.387 6.82498 19.4995 5.38497C19.0484 4.8739 18.5458 4.4093 17.9999 3.99927Z" fill="#777E91"/>
</svg>
