<svg width="24" height="24" viewBox="0 0 24 24" fill="none" xmlns="http://www.w3.org/2000/svg">
<path fill-rule="evenodd" clip-rule="evenodd" d="M18 7H6C5.44772 7 5 7.44772 5 8V20C5 20.5523 5.44772 21 6 21H18C18.5523 21 19 20.5523 19 20V8C19 7.44772 18.5523 7 18 7ZM6 5C4.34315 5 3 6.34315 3 8L3 20C3 21.6569 4.34315 23 6 23H18C19.6569 23 21 21.6569 21 20V8C21 6.34315 19.6569 5 18 5H6Z" fill="#777E91"/>
<path d="M6 2C6 2.55228 6.44772 3 7 3H17C17.5523 3 18 2.55228 18 2C18 1.44772 17.5523 1 17 1H7C6.44772 1 6 1.44772 6 2Z" fill="#777E91"/>
<path fill-rule="evenodd" clip-rule="evenodd" d="M12 17C13.6569 17 15 15.6569 15 14C15 12.3431 13.6569 11 12 11C10.3431 11 9 12.3431 9 14C9 15.6569 10.3431 17 12 17ZM12 19C14.7614 19 17 16.7614 17 14C17 11.2386 14.7614 9 12 9C9.23858 9 7 11.2386 7 14C7 16.7614 9.23858 19 12 19Z" fill="#777E91"/>
</svg>
