<svg width="24" height="24" viewBox="0 0 24 24" fill="none" xmlns="http://www.w3.org/2000/svg">
<path fill-rule="evenodd" clip-rule="evenodd" d="M21 4.39637C21 2.52466 19.3049 1.10994 17.4633 1.44476L10.4633 2.71749C9.03687 2.97685 8 4.21924 8 5.6691V19.5H10V9.83455L19 8.19818V17.5H21V4.39637ZM17.8211 3.4125C18.435 3.3009 19 3.77247 19 4.39637V6.16537L10 7.80173V5.6691C10 5.18581 10.3456 4.77168 10.8211 4.68523L17.8211 3.4125Z" fill="#777E91"/>
<path fill-rule="evenodd" clip-rule="evenodd" d="M21 17.5C21 19.433 19.433 21 17.5 21C15.567 21 14 19.433 14 17.5C14 15.567 15.567 14 17.5 14C19.433 14 21 15.567 21 17.5ZM19 17.5C19 18.3284 18.3284 19 17.5 19C16.6716 19 16 18.3284 16 17.5C16 16.6716 16.6716 16 17.5 16C18.3284 16 19 16.6716 19 17.5Z" fill="#777E91"/>
<path fill-rule="evenodd" clip-rule="evenodd" d="M10 19.5C10 21.433 8.433 23 6.5 23C4.567 23 3 21.433 3 19.5C3 17.567 4.567 16 6.5 16C8.433 16 10 17.567 10 19.5ZM8 19.5C8 20.3284 7.32843 21 6.5 21C5.67157 21 5 20.3284 5 19.5C5 18.6716 5.67157 18 6.5 18C7.32843 18 8 18.6716 8 19.5Z" fill="#777E91"/>
</svg>
