<svg width="24" height="24" viewBox="0 0 24 24" fill="none" xmlns="http://www.w3.org/2000/svg">
<path fill-rule="evenodd" clip-rule="evenodd" d="M21 18V6C21 5.44772 20.5523 5 20 5C19.4477 5 19 5.44772 19 6V18C19 18.5523 19.4477 19 20 19C20.5523 19 21 18.5523 21 18ZM20 3C18.3431 3 17 4.34315 17 6V18C17 19.6569 18.3431 21 20 21C21.6569 21 23 19.6569 23 18V6C23 4.34315 21.6569 3 20 3Z" fill="#777E91"/>
<path fill-rule="evenodd" clip-rule="evenodd" d="M13 18V15C13 14.4477 12.5523 14 12 14C11.4477 14 11 14.4477 11 15V18C11 18.5523 11.4477 19 12 19C12.5523 19 13 18.5523 13 18ZM12 12C10.3431 12 9 13.3431 9 15V18C9 19.6569 10.3431 21 12 21C13.6569 21 15 19.6569 15 18V15C15 13.3431 13.6569 12 12 12Z" fill="#777E91"/>
<path fill-rule="evenodd" clip-rule="evenodd" d="M5 18V11C5 10.4477 4.55228 10 4 10C3.44772 10 3 10.4477 3 11V18C3 18.5523 3.44772 19 4 19C4.55228 19 5 18.5523 5 18ZM4 8C2.34315 8 1 9.34315 1 11V18C1 19.6569 2.34315 21 4 21C5.65685 21 7 19.6569 7 18V11C7 9.34315 5.65685 8 4 8Z" fill="#777E91"/>
</svg>
