<svg width="24" height="24" viewBox="0 0 24 24" fill="none" xmlns="http://www.w3.org/2000/svg">
<path d="M10.2044 3.12663C10.4135 2.76069 10.1039 2.31608 9.6881 2.38537L7.74467 2.70927C7.44762 2.75878 7.26142 3.0577 7.34795 3.34614L7.95328 5.36391C8.07954 5.78478 8.64831 5.84982 8.86632 5.46831L10.2044 3.12663Z" fill="#777E91"/>
<path d="M5.63352 4.59146C5.52204 4.21987 5.05 4.11293 4.79682 4.40687C4.0117 5.31839 3.27017 6.27606 2.50228 7.19753C2.45955 7.24881 2.41878 7.30117 2.37997 7.35453C2.17173 7.64081 2.40832 7.99994 2.76233 7.99994H5.98404C6.31898 7.99994 6.5592 7.67707 6.46296 7.35626L5.63352 4.59146Z" fill="#777E91"/>
<path d="M2.61589 10C2.27956 10 2.04076 10.3278 2.20917 10.6189C2.26321 10.7123 2.32272 10.8036 2.38771 10.8922L9.58094 20.7011C9.70121 20.8652 9.83398 21.0127 9.97676 21.1438C10.2874 21.429 10.6767 21.1003 10.5525 20.6973L7.36474 10.3527C7.30013 10.143 7.10634 10 6.88692 10H2.61589Z" fill="#777E91"/>
<path d="M13.4475 20.6975C13.3233 21.1005 13.7125 21.4293 14.0232 21.1441C14.1661 21.0129 14.299 20.8653 14.4194 20.7011L21.6126 10.8922C21.6776 10.8036 21.7371 10.7123 21.7911 10.6189C21.9595 10.3278 21.7207 10 21.3844 10H17.1133C16.8938 10 16.7 10.143 16.6354 10.3527L13.4475 20.6975Z" fill="#777E91"/>
<path d="M21.2379 7.99984C21.5919 7.99984 21.8285 7.64071 21.6203 7.35442C21.5814 7.30107 21.5407 7.24871 21.4979 7.19743C20.73 6.27591 19.9885 5.31817 19.2033 4.40662C18.9501 4.11269 18.4781 4.21963 18.3666 4.59121L17.5371 7.35616C17.4409 7.67697 17.6811 7.99984 18.0161 7.99984H21.2379Z" fill="#777E91"/>
<path d="M16.2555 2.7093C16.5525 2.75881 16.7387 3.05773 16.6522 3.34617L16.0468 5.36409C15.9206 5.78496 15.3518 5.84999 15.1338 5.46848L13.7956 3.12664C13.5865 2.76069 13.8962 2.31608 14.3119 2.38537L16.2555 2.7093Z" fill="#777E91"/>
<path d="M12 4.01562L13.8494 7.252C14.0399 7.58531 13.7992 8.00006 13.4153 8.00006H10.5848C10.2009 8.00006 9.96024 7.58533 10.1507 7.252L12 4.01562Z" fill="#777E91"/>
<path d="M12.4779 17.0464C12.3331 17.5171 11.6669 17.5171 11.5221 17.0464L9.55309 10.647C9.45416 10.3255 9.69458 10 10.031 10H13.9691C14.3055 10 14.5459 10.3255 14.447 10.647L12.4779 17.0464Z" fill="#777E91"/>
</svg>
