<svg width="24" height="24" viewBox="0 0 24 24" fill="none" xmlns="http://www.w3.org/2000/svg">
<path fill-rule="evenodd" clip-rule="evenodd" d="M4.00048 9.70927L11.1937 19.5182C11.5933 20.0631 12.407 20.0631 12.8065 19.5182L19.9998 9.70927C20.2715 9.33873 20.2557 8.83071 19.9616 8.47772L17.1766 5.13579C17.0233 4.9518 16.809 4.82895 16.5728 4.78958L12.1645 4.05487C12.0557 4.03672 11.9446 4.03672 11.8357 4.05487L7.42743 4.78958C7.1912 4.82895 6.97693 4.9518 6.82361 5.13579L4.03867 8.47772C3.74451 8.83071 3.72876 9.33873 4.00048 9.70927ZM2.38768 10.892L9.58091 20.7009C10.7796 22.3355 13.2207 22.3355 14.4193 20.7009L21.6126 10.892C22.4277 9.78039 22.3805 8.25632 21.498 7.19735L18.7131 3.85542C18.2531 3.30346 17.6103 2.93491 16.9016 2.81679L12.4933 2.08208C12.1668 2.02765 11.8335 2.02765 11.5069 2.08208L7.09864 2.81679C6.38992 2.93491 5.74714 3.30346 5.28717 3.85542L2.50222 7.19735C1.61975 8.25632 1.5725 9.78039 2.38768 10.892Z" fill="#777E91"/>
<path fill-rule="evenodd" clip-rule="evenodd" d="M16.7208 10H20C20.5523 10 21 9.55228 21 9C21 8.44772 20.5523 8 20 8H17.3442L18.1705 5.24541C18.3292 4.71642 18.0291 4.15894 17.5001 4.00024C16.9711 3.84154 16.4136 4.14172 16.2549 4.67072L15.6531 6.67682L13.2936 3.13762C13.0052 2.7051 12.5198 2.44531 12 2.44531C11.4802 2.44531 10.9948 2.7051 10.7064 3.13762L8.34703 6.6767L7.74524 4.67072C7.58654 4.14172 7.02906 3.84154 6.50006 4.00024C5.97107 4.15894 5.67089 4.71642 5.82958 5.24541L6.65596 8H4C3.44772 8 3 8.44772 3 9C3 9.55228 3.44772 10 4 10H7.27924L10.7513 20.4162C10.9305 20.9537 11.4335 21.3162 12 21.3162C12.5665 21.3162 13.0695 20.9537 13.2487 20.4162L16.7208 10ZM14.1315 8L12 4.80279L9.86853 8H14.1315ZM9.38743 10L12 17.8377L14.6126 10H9.38743Z" fill="#777E91"/>
</svg>
