<svg width="24" height="24" viewBox="0 0 24 24" fill="none" xmlns="http://www.w3.org/2000/svg">
<path d="M4 5H20C20.5523 5 21 5.44772 21 6V10C21 10.5523 20.5523 11 20 11H18C17.4477 11 17 11.4477 17 12C17 12.5523 17.4477 13 18 13H20C21.6569 13 23 11.6569 23 10V6C23 4.34315 21.6569 3 20 3H4C2.34315 3 1 4.34315 1 6V10C1 11.6569 2.34315 13 4 13H6C6.55228 13 7 12.5523 7 12C7 11.4477 6.55228 11 6 11H4C3.44772 11 3 10.5523 3 10V6C3 5.44772 3.44772 5 4 5Z" fill="#777E91"/>
<path fill-rule="evenodd" clip-rule="evenodd" d="M19 8V18C19 19.6569 17.6569 21 16 21H8C6.34315 21 5 19.6569 5 18V8H19ZM14 10H17V18C17 18.5523 16.5523 19 16 19H14V10ZM12 19H8C7.44772 19 7 18.5523 7 18V10H12V19Z" fill="#777E91"/>
</svg>
