<svg width="24" height="24" viewBox="0 0 24 24" fill="none" xmlns="http://www.w3.org/2000/svg">
<path d="M10 4C10 3.44772 10.4477 3 11 3C11.5523 3 12 3.44772 12 4V11H15V5C15 4.44772 15.4477 4 16 4C16.5523 4 17 4.44772 17 5V11H20C20.5523 11 21 11.4477 21 12C21 12.5523 20.5523 13 20 13H17V19C17 19.5523 16.5523 20 16 20C15.4477 20 15 19.5523 15 19V13L12 13V20C12 20.5523 11.5523 21 11 21C10.4477 21 10 20.5523 10 20V13H4C3.44772 13 3 12.5523 3 12C3 11.4477 3.44772 11 4 11H10V4Z" fill="#777E91"/>
<path fill-rule="evenodd" clip-rule="evenodd" d="M18.2169 6.43047L6.21693 3.7638C5.59242 3.62502 5 4.10024 5 4.73999V19.2603C5 19.9 5.59242 20.3753 6.21693 20.2365L18.2169 17.5698C18.6745 17.4681 19 17.0623 19 16.5936V7.40665C19 6.93796 18.6745 6.53214 18.2169 6.43047ZM6.65079 1.81143C4.77725 1.39508 3 2.82074 3 4.73999V19.2603C3 21.1795 4.77725 22.6052 6.65079 22.1889L18.6508 19.5222C20.0234 19.2172 21 17.9997 21 16.5936V7.40665C21 6.00056 20.0234 4.78312 18.6508 4.47809L6.65079 1.81143Z" fill="#777E91"/>
</svg>
