<svg width="24" height="24" viewBox="0 0 24 24" fill="none" xmlns="http://www.w3.org/2000/svg">
<path fill-rule="evenodd" clip-rule="evenodd" d="M5 9C5.55228 9 6 9.44771 6 10V11C6 14.3137 8.68629 17 12 17C15.3137 17 18 14.3137 18 11V10C18 9.44771 18.4477 9 19 9C19.5523 9 20 9.44771 20 10V11C20 15.0796 16.9463 18.446 13 18.9381V22H16C16.5523 22 17 22.4477 17 23C17 23.5523 16.5523 24 16 24H13H11H8C7.44772 24 7 23.5523 7 23C7 22.4477 7.44772 22 8 22H11V18.9381C7.05369 18.446 4 15.0796 4 11V10C4 9.44771 4.44772 9 5 9Z" fill="#777E91"/>
<path fill-rule="evenodd" clip-rule="evenodd" d="M14 11V4C14 2.89543 13.1046 2 12 2C10.8954 2 10 2.89543 10 4V11C10 12.1046 10.8954 13 12 13C13.1046 13 14 12.1046 14 11ZM12 0C9.79086 0 8 1.79086 8 4V11C8 13.2091 9.79086 15 12 15C14.2091 15 16 13.2091 16 11V4C16 1.79086 14.2091 0 12 0Z" fill="#777E91"/>
</svg>
