<svg width="24" height="24" viewBox="0 0 24 24" fill="none" xmlns="http://www.w3.org/2000/svg">
<path fill-rule="evenodd" clip-rule="evenodd" d="M21.4318 13.4267C21.8871 12.7253 22 12.2291 22 12C22 11.7709 21.8871 11.2747 21.4318 10.5733C20.9941 9.89901 20.3157 9.15623 19.4101 8.46372C17.6007 7.08004 15.0208 6 12 6C8.97923 6 6.39932 7.08004 4.5899 8.46372C3.68431 9.15623 3.00589 9.89901 2.56818 10.5733C2.11293 11.2747 2 11.7709 2 12C2 12.2291 2.11293 12.7253 2.56818 13.4267C3.00589 14.101 3.68431 14.8438 4.5899 15.5363C6.39932 16.92 8.97923 18 12 18C15.0208 18 17.6007 16.92 19.4101 15.5363C20.3157 14.8438 20.9941 14.101 21.4318 13.4267ZM12 20C19 20 24 15 24 12C24 9 19 4 12 4C5 4 0 9 0 12C0 15 5 20 12 20Z" fill="#777E91"/>
<path d="M6 5.30322C5.27844 5.63375 4.60941 6.01334 4 6.42542V17.5745C4.60941 17.9865 5.27844 18.3661 6 18.6967V5.30322Z" fill="#777E91"/>
<path d="M20 17.5745C19.3906 17.9865 18.7216 18.3661 18 18.6967V5.30322C18.7216 5.63375 19.3906 6.01334 20 6.42542V17.5745Z" fill="#777E91"/>
<path d="M9 10C9 9.44772 9.44771 9 10 9C10.5523 9 11 9.44772 11 10V11H13V10C13 9.44772 13.4477 9 14 9C14.5523 9 15 9.44772 15 10V11C15.5523 11 16 11.4477 16 12C16 12.5523 15.5523 13 15 13V14C15 14.5523 14.5523 15 14 15C13.4477 15 13 14.5523 13 14V13H11V14C11 14.5523 10.5523 15 10 15C9.44771 15 9 14.5523 9 14V13C8.44771 13 8 12.5523 8 12C8 11.4477 8.44771 11 9 11V10Z" fill="#777E91"/>
</svg>
