<svg width="24" height="24" viewBox="0 0 24 24" fill="none" xmlns="http://www.w3.org/2000/svg">
<path fill-rule="evenodd" clip-rule="evenodd" d="M6 4C4.89543 4 4 4.89543 4 6V18C4 19.1046 4.89543 20 6 20H18C19.1046 20 20 19.1046 20 18V13C20 12.4477 20.4477 12 21 12C21.5523 12 22 12.4477 22 13V18C22 20.2091 20.2091 22 18 22H6C3.79086 22 2 20.2091 2 18V6C2 3.79086 3.79086 2 6 2H11C11.5523 2 12 2.44772 12 3C12 3.55228 11.5523 4 11 4H6Z" fill="#777E91"/>
<path fill-rule="evenodd" clip-rule="evenodd" d="M20 7C20 7.55229 20.4477 8 21 8C21.5523 8 22 7.55229 22 7V3C22 2.44772 21.5523 2 21 2H17C16.4477 2 16 2.44772 16 3C16 3.55228 16.4477 4 17 4L18.5858 4L10 12.5858V11C10 10.4477 9.55228 10 9 10C8.44772 10 8 10.4477 8 11V15C8 15.5523 8.44772 16 9 16H13C13.5523 16 14 15.5523 14 15C14 14.4477 13.5523 14 13 14H11.4142L20 5.41424V7Z" fill="#777E91"/>
</svg>
