<svg width="24" height="24" viewBox="0 0 24 24" fill="none" xmlns="http://www.w3.org/2000/svg">
<path d="M3.27596 16.071C3.03138 15.9409 2.72456 16.0213 2.58578 16.261L2.53982 16.3404C1.63184 17.9087 1.95853 19.8586 3.63141 20.5555C5.38651 21.2865 8.09875 22 12.0001 22C15.9014 22 18.6137 21.2865 20.3688 20.5555C22.0416 19.8586 22.3683 17.9087 21.4603 16.3404L21.4144 16.261C21.2756 16.0213 20.9687 15.9409 20.7242 16.0709C20.5148 16.1822 20.2883 16.2952 20.0441 16.408C18.2907 17.2172 15.648 18 12 18C8.35195 18 5.70925 17.2172 3.95594 16.408C3.71179 16.2953 3.48524 16.1822 3.27596 16.071Z" fill="#777E91"/>
<path fill-rule="evenodd" clip-rule="evenodd" d="M4.08873 13.6651C3.95089 13.9032 4.03085 14.2089 4.27456 14.3365C4.43488 14.4205 4.60799 14.5061 4.79411 14.592C6.2908 15.2828 8.6481 16 12.0001 16C15.352 16 17.7093 15.2828 19.206 14.592C19.3922 14.5061 19.5653 14.4205 19.7257 14.3365C19.9694 14.2088 20.0493 13.9031 19.9115 13.6651L18.7222 11.6108C17.8235 12.0395 16.7946 12.1185 15.8376 11.8279C14.8226 11.5196 13.9715 10.8207 13.4717 9.88489C12.972 8.94913 12.8644 7.85315 13.1727 6.83807C13.4366 5.96915 13.9867 5.22043 14.7266 4.70935L13.731 2.98962C12.9607 1.65905 11.0396 1.65906 10.2693 2.98963L4.08873 13.6651ZM11.0001 13C11.0001 13.5523 10.5523 14 10.0001 14C9.44777 14 9.00005 13.5523 9.00005 13C9.00005 12.4477 9.44777 12 10.0001 12C10.5523 12 11.0001 12.4477 11.0001 13Z" fill="#777E91"/>
<path d="M15.7351 6.45117C15.4298 6.70046 15.2025 7.03649 15.0863 7.41914C14.9322 7.92668 14.986 8.47467 15.2358 8.94256C15.4857 9.41044 15.9113 9.75989 16.4188 9.91404C16.8457 10.0437 17.3012 10.0262 17.7136 9.86871L15.7351 6.45117Z" fill="#777E91"/>
</svg>
