<svg width="24" height="24" viewBox="0 0 24 24" fill="none" xmlns="http://www.w3.org/2000/svg">
<path fill-rule="evenodd" clip-rule="evenodd" d="M11.4 11.2001L19.4 5.20008C20.0592 4.70565 21 5.17603 21 6.00008V18.0001C21 18.8241 20.0592 19.2945 19.4 18.8001L11.4 12.8001C10.8667 12.4001 10.8667 11.6001 11.4 11.2001ZM18.2 3.60008C20.1777 2.11679 23 3.52794 23 6.00008V18.0001C23 20.4722 20.1777 21.8834 18.2 20.4001L10.2 14.4001C8.6 13.2001 8.6 10.8001 10.2 9.60008L18.2 3.60008Z" fill="#777E91"/>
<path fill-rule="evenodd" clip-rule="evenodd" d="M3 18V6C3 5.44772 3.44772 5 4 5C4.55228 5 5 5.44772 5 6V18C5 18.5523 4.55228 19 4 19C3.44772 19 3 18.5523 3 18ZM4 3C5.65685 3 7 4.34315 7 6V18C7 19.6569 5.65685 21 4 21C2.34315 21 1 19.6569 1 18V6C1 4.34315 2.34315 3 4 3Z" fill="#777E91"/>
</svg>
