<svg width="24" height="24" viewBox="0 0 24 24" fill="none" xmlns="http://www.w3.org/2000/svg">
<path d="M2.1587 19.9101L3.69576 15.8112C3.89626 15.2766 4.20889 14.791 4.61265 14.3873L4.64646 14.3535C4.84172 14.1582 5.1583 14.1582 5.35357 14.3535L9.64646 18.6464C9.84172 18.8416 9.84172 19.1582 9.64646 19.3535L9.61265 19.3873C9.20889 19.791 8.72337 20.1037 8.18872 20.3042L4.08988 21.8412C2.88405 22.2934 1.70651 21.1159 2.1587 19.9101Z" fill="#777E91"/>
<path d="M11.1465 17.1464C11.3417 17.3416 11.6583 17.3416 11.8536 17.1464L17.6465 11.3535C17.8417 11.1582 17.8417 10.8416 17.6465 10.6464L13.3536 6.35348C13.1583 6.15822 12.8417 6.15822 12.6465 6.35348L6.85357 12.1464C6.6583 12.3416 6.6583 12.6582 6.85357 12.8535L11.1465 17.1464Z" fill="#777E91"/>
<path d="M14.8536 4.14646C14.6583 4.34172 14.6583 4.6583 14.8536 4.85357L19.1465 9.14646C19.3418 9.34172 19.6583 9.34172 19.8536 9.14646L20.8787 8.12136C22.0503 6.94978 22.0503 5.05029 20.8787 3.87872L20.1213 3.12136C18.9498 1.94978 17.0503 1.94978 15.8787 3.12135L14.8536 4.14646Z" fill="#777E91"/>
</svg>
