<svg width="24" height="24" viewBox="0 0 24 24" fill="none" xmlns="http://www.w3.org/2000/svg">
<path fill-rule="evenodd" clip-rule="evenodd" d="M16 7H8C7.44772 7 7 7.44772 7 8V16C7 16.5523 7.44772 17 8 17H16C16.5523 17 17 16.5523 17 16V8C17 7.44772 16.5523 7 16 7ZM8 5C6.34315 5 5 6.34315 5 8V16C5 17.6569 6.34315 19 8 19H16C17.6569 19 19 17.6569 19 16V8C19 6.34315 17.6569 5 16 5H8Z" fill="#777E91"/>
<path fill-rule="evenodd" clip-rule="evenodd" d="M11 11V13H13V11H11ZM10 9C9.44772 9 9 9.44772 9 10V14C9 14.5523 9.44772 15 10 15H14C14.5523 15 15 14.5523 15 14V10C15 9.44772 14.5523 9 14 9H10Z" fill="#777E91"/>
<path d="M9 2C8.44772 2 8 2.44772 8 3V5H10V3C10 2.44772 9.55228 2 9 2Z" fill="#777E91"/>
<path d="M10 21V19H8V21C8 21.5523 8.44772 22 9 22C9.55228 22 10 21.5523 10 21Z" fill="#777E91"/>
<path d="M14 3C14 2.44772 14.4477 2 15 2C15.5523 2 16 2.44772 16 3V5H14V3Z" fill="#777E91"/>
<path d="M16 21V19H14V21C14 21.5523 14.4477 22 15 22C15.5523 22 16 21.5523 16 21Z" fill="#777E91"/>
<path d="M21 8C21.5523 8 22 8.44772 22 9C22 9.55229 21.5523 10 21 10H19V8H21Z" fill="#777E91"/>
<path d="M3 10H5V8H3C2.44772 8 2 8.44771 2 9C2 9.55229 2.44772 10 3 10Z" fill="#777E91"/>
<path d="M21 14C21.5523 14 22 14.4477 22 15C22 15.5523 21.5523 16 21 16H19V14H21Z" fill="#777E91"/>
<path d="M3 16H5V14H3C2.44772 14 2 14.4477 2 15C2 15.5523 2.44772 16 3 16Z" fill="#777E91"/>
</svg>
