<svg width="24" height="24" viewBox="0 0 24 24" fill="none" xmlns="http://www.w3.org/2000/svg">
<path fill-rule="evenodd" clip-rule="evenodd" d="M2 5.2699C2 2.72639 4.96657 1.33691 6.92055 2.96523L8.93565 4.64447C9.1593 4.83085 9.45306 4.91051 9.74023 4.86265L14.0555 4.14344C14.8073 4.01814 15.5786 4.18369 16.2128 4.60647L20.6641 7.57403C21.4987 8.13043 22 9.06712 22 10.0702V18.9998C22 20.6567 20.6569 21.9998 19 21.9998H5C3.34315 21.9998 2 20.6567 2 18.9998V5.2699ZM5.64018 4.50167C4.98886 3.9589 4 4.42205 4 5.2699V10.3819L8.8655 12.8146C9.05453 12.9091 9.26864 12.9413 9.47711 12.9066L14.1941 12.1204C14.8195 12.0162 15.4618 12.1128 16.0289 12.3963L20 14.3819V10.0702C20 9.73583 19.8329 9.4236 19.5547 9.23813L15.1034 6.27057C14.892 6.12965 14.6349 6.07446 14.3843 6.11623L10.069 6.83544C9.20753 6.97902 8.32623 6.74004 7.65528 6.18092L5.64018 4.50167ZM20 16.6179L15.1345 14.1852C14.9455 14.0907 14.7313 14.0585 14.5229 14.0932L9.80591 14.8794C9.18051 14.9836 8.53816 14.887 7.97107 14.6035L4 12.6179V18.9998C4 19.5521 4.44772 19.9998 5 19.9998H19C19.5523 19.9998 20 19.5521 20 18.9998V16.6179Z" fill="#777E91"/>
</svg>
