<svg width="24" height="24" viewBox="0 0 24 24" fill="none" xmlns="http://www.w3.org/2000/svg">
<path fill-rule="evenodd" clip-rule="evenodd" d="M10 6C10 8.20914 8.20914 10 6 10C3.79086 10 2 8.20914 2 6C2 3.79086 3.79086 2 6 2C8.20914 2 10 3.79086 10 6ZM8 6C8 7.10457 7.10457 8 6 8C4.89543 8 4 7.10457 4 6C4 4.89543 4.89543 4 6 4C7.10457 4 8 4.89543 8 6Z" fill="#777E91"/>
<path fill-rule="evenodd" clip-rule="evenodd" d="M22 18C22 20.2091 20.2091 22 18 22C15.7909 22 14 20.2091 14 18C14 15.7909 15.7909 14 18 14C20.2091 14 22 15.7909 22 18ZM20 18C20 19.1046 19.1046 20 18 20C16.8954 20 16 19.1046 16 18C16 16.8954 16.8954 16 18 16C19.1046 16 20 16.8954 20 18Z" fill="#777E91"/>
<path fill-rule="evenodd" clip-rule="evenodd" d="M19.614 2.21069C20.0499 2.54976 20.1285 3.17804 19.7894 3.61399L5.7894 21.614C5.45033 22.0499 4.82205 22.1285 4.38611 21.7894C3.95016 21.4503 3.87162 20.8221 4.21069 20.3861L18.2107 2.38611C18.5498 1.95016 19.178 1.87162 19.614 2.21069Z" fill="#777E91"/>
</svg>
