<svg width="24" height="24" viewBox="0 0 24 24" fill="none" xmlns="http://www.w3.org/2000/svg">
<g clip-path="url(#clip0_602:8451)">
<path d="M21.3902 19.5804L19.4852 21.4853C19.4852 21.4853 14.5355 23.6066 7.46441 16.5356C0.39334 9.46451 2.51466 4.51476 2.51466 4.51476L4.41959 2.60983C5.28021 1.74921 6.70355 1.85036 7.43381 2.82404L9.25208 5.24841C9.84926 6.04465 9.77008 7.15884 9.06629 7.86262L7.46441 9.46451C7.46441 9.46451 7.46441 10.8787 10.2928 13.7071C13.1213 16.5356 14.5355 16.5356 14.5355 16.5356L16.1374 14.9337C16.8411 14.2299 17.9553 14.1507 18.7516 14.7479L21.1759 16.5662C22.1496 17.2964 22.2508 18.7198 21.3902 19.5804Z" fill="#777E91"/>
</g>
<defs>
<clipPath id="clip0_602:8451">
<rect width="24" height="24" fill="white"/>
</clipPath>
</defs>
</svg>
