<svg width="24" height="24" viewBox="0 0 24 24" fill="none" xmlns="http://www.w3.org/2000/svg">
<path d="M8.59426 10.0085C8.40876 9.82298 8.11078 9.81159 7.91972 9.99136C6.79382 11.0507 5.75122 12.4401 4.86474 13.9262C4.74893 14.1204 4.7821 14.3679 4.94196 14.5277L5.70711 15.2929C6.09763 15.6834 6.09763 16.3166 5.70711 16.7071C5.31658 17.0976 4.68342 17.0976 4.29289 16.7071L4.20334 16.6176C3.95858 16.3728 3.54526 16.4451 3.4065 16.7622C2.63193 18.5323 2.13202 20.2365 2.02262 21.5038C1.99887 21.7789 2.22107 22.0011 2.49618 21.9773C4.71808 21.7856 8.28262 20.3935 11.1916 18.4254C11.4471 18.2525 11.4764 17.8906 11.2582 17.6725L10.2929 16.7071C9.90237 16.3166 9.90237 15.6834 10.2929 15.2929C10.6834 14.9024 11.3166 14.9024 11.7071 15.2929L12.9068 16.4925C13.0953 16.6811 13.3995 16.6891 13.591 16.5036C15.0378 15.1019 15.9999 13.5509 15.9999 12C15.9999 10 13.9999 8 11.9999 8C11.5254 8 11.0508 8.09009 10.5805 8.2566C10.2588 8.37046 10.1924 8.77819 10.4337 9.01945L10.7071 9.29289C11.0976 9.68342 11.0976 10.3166 10.7071 10.7071C10.3166 11.0976 9.68342 11.0976 9.29289 10.7071L8.59426 10.0085Z" fill="#777E91"/>
<path d="M17 3C17 2.44772 16.5523 2 16 2C15.4477 2 15 2.44772 15 3V6.35361C15 6.69738 15.18 7.01258 15.4555 7.21821C15.9629 7.59697 16.403 8.03707 16.7818 8.54451C16.9874 8.81999 17.3026 9 17.6464 9H21C21.5523 9 22 8.55228 22 8C22 7.44772 21.5523 7 21 7H18.4142L20.7071 4.70711C21.0976 4.31658 21.0976 3.68342 20.7071 3.29289C20.3166 2.90237 19.6834 2.90237 19.2929 3.29289L17 5.58579V3Z" fill="#777E91"/>
</svg>
