<svg width="24" height="24" viewBox="0 0 24 24" fill="none" xmlns="http://www.w3.org/2000/svg">
<path d="M19.5876 9.44234C19.5434 9.17742 19.2975 8.99799 19.029 8.9999C19.0193 8.99997 19.0097 9 19 9C16.9599 9 15.2764 7.47264 15.0308 5.49901C14.9967 5.22498 14.7762 5 14.5 5H9.50001C9.22387 5 9.00329 5.22498 8.96919 5.49901C8.72358 7.47264 7.04016 9 5.00001 9C4.99038 9 4.98075 8.99997 4.97113 8.9999C4.70258 8.998 4.45669 9.17743 4.41254 9.44234L3.56753 14.5124C3.52065 14.7936 3.71952 15.0542 3.99572 15.1249C5.56665 15.5274 6.76499 16.8599 6.9692 18.501C7.00329 18.7751 7.22387 19 7.50001 19H16.5C16.7762 19 16.9967 18.7751 17.0308 18.501C17.235 16.8599 18.4334 15.5273 20.0044 15.1249C20.2806 15.0541 20.4794 14.7936 20.4326 14.5124L19.5876 9.44234Z" fill="#777E91"/>
<path d="M19 7C20.1046 7 21 6.10457 21 5C21 3.89543 20.1046 3 19 3C17.8954 3 17 3.89543 17 5C17 6.10457 17.8954 7 19 7Z" fill="#777E91"/>
<path d="M21 21C22.1046 21 23 20.1046 23 19C23 17.8954 22.1046 17 21 17C19.8954 17 19 17.8954 19 19C19 20.1046 19.8954 21 21 21Z" fill="#777E91"/>
<path d="M5 19C5 20.1046 4.10457 21 3 21C1.89543 21 1 20.1046 1 19C1 17.8954 1.89543 17 3 17C4.10457 17 5 17.8954 5 19Z" fill="#777E91"/>
<path d="M5 7C6.10457 7 7 6.10457 7 5C7 3.89543 6.10457 3 5 3C3.89543 3 3 3.89543 3 5C3 6.10457 3.89543 7 5 7Z" fill="#777E91"/>
</svg>
