<svg width="24" height="24" viewBox="0 0 24 24" fill="none" xmlns="http://www.w3.org/2000/svg">
<path d="M8 5C7.44772 5 7 5.44772 7 6C7 6.55228 7.44772 7 8 7H16C16.5523 7 17 6.55228 17 6C17 5.44772 16.5523 5 16 5H8Z" fill="#777E91"/>
<path d="M6 17C5.44772 17 5 17.4477 5 18C5 18.5523 5.44772 19 6 19H18C18.5523 19 19 18.5523 19 18C19 17.4477 18.5523 17 18 17H6Z" fill="#777E91"/>
<path d="M5.8104 7.0131C6.35553 7.10168 6.72564 7.61541 6.63706 8.16055L5.33706 16.1605C5.24847 16.7057 4.73474 17.0758 4.18961 16.9872C3.64447 16.8986 3.27437 16.3849 3.36295 15.8398L4.66295 7.83976C4.75154 7.29462 5.26527 6.92451 5.8104 7.0131Z" fill="#777E91"/>
<path d="M17.3628 8.16055C17.2742 7.61541 17.6443 7.10168 18.1895 7.0131C18.7346 6.92451 19.2483 7.29462 19.3369 7.83976L20.6369 15.8398C20.7255 16.3849 20.3554 16.8986 19.8103 16.9872C19.2651 17.0758 18.7514 16.7057 18.6628 16.1605L17.3628 8.16055Z" fill="#777E91"/>
<path fill-rule="evenodd" clip-rule="evenodd" d="M21 6C21 7.65685 19.6569 9 18 9C16.3431 9 15 7.65685 15 6C15 4.34315 16.3431 3 18 3C19.6569 3 21 4.34315 21 6ZM19 6C19 6.55228 18.5523 7 18 7C17.4477 7 17 6.55228 17 6C17 5.44772 17.4477 5 18 5C18.5523 5 19 5.44772 19 6Z" fill="#777E91"/>
<path fill-rule="evenodd" clip-rule="evenodd" d="M23 18C23 19.6569 21.6569 21 20 21C18.3431 21 17 19.6569 17 18C17 16.3431 18.3431 15 20 15C21.6569 15 23 16.3431 23 18ZM21 18C21 18.5523 20.5523 19 20 19C19.4477 19 19 18.5523 19 18C19 17.4477 19.4477 17 20 17C20.5523 17 21 17.4477 21 18Z" fill="#777E91"/>
<path fill-rule="evenodd" clip-rule="evenodd" d="M4 21C5.65685 21 7 19.6569 7 18C7 16.3431 5.65685 15 4 15C2.34315 15 1 16.3431 1 18C1 19.6569 2.34315 21 4 21ZM4 19C4.55228 19 5 18.5523 5 18C5 17.4477 4.55228 17 4 17C3.44772 17 3 17.4477 3 18C3 18.5523 3.44772 19 4 19Z" fill="#777E91"/>
<path fill-rule="evenodd" clip-rule="evenodd" d="M9 6C9 7.65685 7.65685 9 6 9C4.34315 9 3 7.65685 3 6C3 4.34315 4.34315 3 6 3C7.65685 3 9 4.34315 9 6ZM7 6C7 6.55228 6.55228 7 6 7C5.44772 7 5 6.55228 5 6C5 5.44772 5.44772 5 6 5C6.55228 5 7 5.44772 7 6Z" fill="#777E91"/>
</svg>
