<svg width="24" height="24" viewBox="0 0 24 24" fill="none" xmlns="http://www.w3.org/2000/svg">
<path fill-rule="evenodd" clip-rule="evenodd" d="M5.53445 9C5.24521 9 5.01631 9.24467 5.03555 9.53326L5.87554 22.133C5.94558 23.1836 6.81818 24 7.87111 24H16.1289C17.1818 24 18.0544 23.1836 18.1245 22.133L18.9645 9.53326C18.9837 9.24467 18.7548 9 18.4656 9H5.53445ZM12 18C13.1046 18 14 17.1046 14 16C14 14.8954 13.1046 14 12 14C10.8954 14 10 14.8954 10 16C10 17.1046 10.8954 18 12 18Z" fill="#777E91"/>
<path fill-rule="evenodd" clip-rule="evenodd" d="M17.2279 0.683772C17.0918 0.27543 16.7097 0 16.2792 0H7.72076C7.29033 0 6.90819 0.27543 6.77208 0.683772L6.22792 2.31623C6.09181 2.72457 5.70967 3 5.27924 3H5C4.44772 3 4 3.44772 4 4V6C4 6.55228 4.44772 7 5 7H19C19.5523 7 20 6.55228 20 6V4C20 3.44772 19.5523 3 19 3H18.7208C18.2903 3 17.9082 2.72457 17.7721 2.31623L17.2279 0.683772Z" fill="#777E91"/>
</svg>
