<svg width="24" height="24" viewBox="0 0 24 24" fill="none" xmlns="http://www.w3.org/2000/svg">
<path fill-rule="evenodd" clip-rule="evenodd" d="M13 19H11C10.4477 19 10 19.4477 10 20C10 20.5523 10.4477 21 11 21H13C13.5523 21 14 20.5523 14 20C14 19.4477 13.5523 19 13 19ZM11 17C9.34315 17 8 18.3431 8 20C8 21.6569 9.34315 23 11 23H13C14.6569 23 16 21.6569 16 20C16 18.3431 14.6569 17 13 17H11Z" fill="#777E91"/>
<path fill-rule="evenodd" clip-rule="evenodd" d="M16 11H8C7.44772 11 7 11.4477 7 12C7 12.5523 7.44772 13 8 13H16C16.5523 13 17 12.5523 17 12C17 11.4477 16.5523 11 16 11ZM8 9C6.34315 9 5 10.3431 5 12C5 13.6569 6.34315 15 8 15H16C17.6569 15 19 13.6569 19 12C19 10.3431 17.6569 9 16 9H8Z" fill="#777E91"/>
<path fill-rule="evenodd" clip-rule="evenodd" d="M19 3H5C4.44772 3 4 3.44772 4 4C4 4.55229 4.44772 5 5 5H19C19.5523 5 20 4.55228 20 4C20 3.44771 19.5523 3 19 3ZM5 1C3.34315 1 2 2.34315 2 4C2 5.65685 3.34315 7 5 7H19C20.6569 7 22 5.65685 22 4C22 2.34315 20.6569 1 19 1H5Z" fill="#777E91"/>
</svg>
