<svg width="24" height="24" viewBox="0 0 24 24" fill="none" xmlns="http://www.w3.org/2000/svg">
<path d="M9 10C8.44772 10 8 10.4477 8 11V21C8 21.5523 8.44772 22 9 22C9.55228 22 10 21.5523 10 21V11C10 10.4477 9.55228 10 9 10Z" fill="#777E91"/>
<path d="M3 12C2.44772 12 2 12.4477 2 13V21C2 21.5523 2.44772 22 3 22C3.55228 22 4 21.5523 4 21V13C4 12.4477 3.55228 12 3 12Z" fill="#777E91"/>
<path d="M20 12C20 11.4477 20.4477 11 21 11C21.5523 11 22 11.4477 22 12V21C22 21.5523 21.5523 22 21 22C20.4477 22 20 21.5523 20 21V12Z" fill="#777E91"/>
<path d="M15 13C14.4477 13 14 13.4477 14 14V21C14 21.5523 14.4477 22 15 22C15.5523 22 16 21.5523 16 21V14C16 13.4477 15.5523 13 15 13Z" fill="#777E91"/>
<path d="M3 2C2.44772 2 2 2.44772 2 3V9C2 9.55228 2.44772 10 3 10C3.55228 10 4 9.55228 4 9V3C4 2.44772 3.55228 2 3 2Z" fill="#777E91"/>
<path d="M9 2C8.44772 2 8 2.44772 8 3V7C8 7.55228 8.44772 8 9 8C9.55228 8 10 7.55228 10 7V3C10 2.44772 9.55228 2 9 2Z" fill="#777E91"/>
<path d="M20 3C20 2.44772 20.4477 2 21 2C21.5523 2 22 2.44772 22 3V8C22 8.55228 21.5523 9 21 9C20.4477 9 20 8.55228 20 8V3Z" fill="#777E91"/>
<path d="M15 2C14.4477 2 14 2.44772 14 3V10C14 10.5523 14.4477 11 15 11C15.5523 11 16 10.5523 16 10V3C16 2.44772 15.5523 2 15 2Z" fill="#777E91"/>
</svg>
