<svg width="24" height="24" viewBox="0 0 24 24" fill="none" xmlns="http://www.w3.org/2000/svg">
<path fill-rule="evenodd" clip-rule="evenodd" d="M16 12C16 11.4477 16.4477 11 17 11H23C23.5523 11 24 11.4477 24 12C24 12.5523 23.5523 13 23 13H17C16.4477 13 16 12.5523 16 12Z" fill="#777E91"/>
<path fill-rule="evenodd" clip-rule="evenodd" d="M5.82843 9.99995H3C2.44772 9.99995 2 10.4477 2 10.9999V12.9999C2 13.5522 2.44772 13.9999 3 13.9999H5.82843L9.29289 17.4644C9.92286 18.0944 11 17.6482 11 16.7573V7.24259C11 6.35168 9.92286 5.90552 9.29289 6.53548L5.82843 9.99995ZM5 15.9999L7.87868 18.8786C9.76857 20.7685 13 19.43 13 16.7573V7.24259C13 4.56987 9.76858 3.23137 7.87868 5.12127L5 7.99995H3C1.34315 7.99995 0 9.34309 0 10.9999V12.9999C0 14.6568 1.34315 15.9999 3 15.9999H5Z" fill="#777E91"/>
</svg>
