<svg width="24" height="24" viewBox="0 0 24 24" fill="none" xmlns="http://www.w3.org/2000/svg">
<path fill-rule="evenodd" clip-rule="evenodd" d="M16 18.8293C17.1652 18.4175 18 17.3062 18 16V9H6V16C6 17.3062 6.83481 18.4175 8 18.8293V21C8 21.5523 8.44772 22 9 22C9.55228 22 10 21.5523 10 21V19H14V21C14 21.5523 14.4477 22 15 22C15.5523 22 16 21.5523 16 21V18.8293ZM16 11H8V16C8 16.5523 8.44772 17 9 17H15C15.5523 17 16 16.5523 16 16V11Z" fill="#777E91"/>
<path d="M3 9C2.44772 9 2 9.44772 2 10V14C2 14.5523 2.44772 15 3 15C3.55228 15 4 14.5523 4 14V10C4 9.44772 3.55228 9 3 9Z" fill="#777E91"/>
<path d="M21 9C20.4477 9 20 9.44772 20 10V14C20 14.5523 20.4477 15 21 15C21.5523 15 22 14.5523 22 14V10C22 9.44772 21.5523 9 21 9Z" fill="#777E91"/>
<path fill-rule="evenodd" clip-rule="evenodd" d="M7.55276 2.10579C8.04674 1.8588 8.64741 2.05903 8.8944 2.55301L9.41083 3.58586C10.1947 3.21032 11.0728 3 12 3C12.9272 3 13.8053 3.21032 14.5892 3.58586L15.1056 2.55301C15.3526 2.05903 15.9533 1.8588 16.4472 2.10579C16.9412 2.35278 17.1414 2.95345 16.8945 3.44743L16.2405 4.75526C17.3276 5.84121 18 7.34208 18 9V11H6V9C6 7.34208 6.67244 5.84121 7.75946 4.75526L7.10555 3.44743C6.85856 2.95345 7.05878 2.35278 7.55276 2.10579ZM14.3749 5.78098C14.3905 5.79346 14.4065 5.80552 14.423 5.81714C15.3815 6.5479 16 7.70172 16 9H8C8 7.70172 8.61852 6.5479 9.57696 5.81715C9.59346 5.80552 9.60952 5.79346 9.62514 5.78098C10.2893 5.29016 11.1108 5 12 5C12.8892 5 13.7107 5.29017 14.3749 5.78098Z" fill="#777E91"/>
</svg>
