<svg width="24" height="24" viewBox="0 0 24 24" fill="none" xmlns="http://www.w3.org/2000/svg">
<path fill-rule="evenodd" clip-rule="evenodd" d="M3 5C3 2.79086 4.79086 1 7 1H15.3431C16.404 1 17.4214 1.42143 18.1716 2.17157L19.8284 3.82843C20.5786 4.57857 21 5.59599 21 6.65685V19C21 21.2091 19.2091 23 17 23H7C4.79086 23 3 21.2091 3 19V5ZM19 8V19C19 20.1046 18.1046 21 17 21H7C5.89543 21 5 20.1046 5 19V5C5 3.89543 5.89543 3 7 3H14V5C14 6.65685 15.3431 8 17 8H19ZM18.8891 6C18.7909 5.7176 18.6296 5.45808 18.4142 5.24264L16.7574 3.58579C16.5419 3.37035 16.2824 3.20914 16 3.11094V5C16 5.55228 16.4477 6 17 6H18.8891Z" fill="#777E91"/>
<path d="M11 10.2808C11 9.6302 11.6114 9.15284 12.2425 9.31062L14.2425 9.81062C14.6877 9.92192 15 10.3219 15 10.7808V11.7192C15 12.3698 14.3886 12.8471 13.7575 12.6894L13 12.5V17C13 18.1046 12.1046 19 11 19C9.89543 19 9 18.1046 9 17C9 15.8954 9.89543 15 11 15V10.2808Z" fill="#777E91"/>
</svg>
