<svg width="24" height="24" viewBox="0 0 24 24" fill="none" xmlns="http://www.w3.org/2000/svg">
<path d="M9 5V3C9 2.44772 9.44772 2 10 2L14 2C14.5523 2 15 2.44772 15 3V5H17V3C17 1.34315 15.6569 0 14 0H10C8.34315 0 7 1.34315 7 3V5L9 5Z" fill="#777E91"/>
<path d="M9 19V21C9 21.5523 9.44772 22 10 22H14C14.5523 22 15 21.5523 15 21V19H17V21C17 22.6569 15.6569 24 14 24H10C8.34315 24 7 22.6569 7 21V19H9Z" fill="#777E91"/>
<path fill-rule="evenodd" clip-rule="evenodd" d="M6 8L6 16C6 17.1046 6.89543 18 8 18L16 18C17.1046 18 18 17.1046 18 16L18 8C18 6.89543 17.1046 6 16 6L8 6C6.89543 6 6 6.89543 6 8ZM4 16C4 18.2091 5.79086 20 8 20L16 20C18.2091 20 20 18.2091 20 16L20 8C20 5.79086 18.2091 4 16 4L8 4C5.79086 4 4 5.79086 4 8L4 16Z" fill="#777E91"/>
<path d="M20 10C20.5523 10 21 10.4477 21 11V13C21 13.5523 20.5523 14 20 14V10Z" fill="#777E91"/>
</svg>
