<svg width="24" height="24" viewBox="0 0 24 24" fill="none" xmlns="http://www.w3.org/2000/svg">
<path fill-rule="evenodd" clip-rule="evenodd" d="M22 5.2699C22 2.72639 19.0334 1.33691 17.0794 2.96523L15.0644 4.64447C14.8407 4.83085 14.5469 4.91051 14.2598 4.86265L9.94453 4.14344C9.19272 4.01814 8.42141 4.18369 7.78724 4.60647L3.3359 7.57403C2.5013 8.13043 2 9.06712 2 10.0702V18.9998C2 20.6567 3.34315 21.9998 5 21.9998H19C20.6569 21.9998 22 20.6567 22 18.9998V5.2699ZM18.3598 4.50167C19.0111 3.9589 20 4.42205 20 5.2699V10.3819L15.1345 12.8146C14.9455 12.9091 14.7313 12.9413 14.5229 12.9066L9.80591 12.1204C9.18051 12.0162 8.53817 12.1128 7.97107 12.3963L4 14.3819V10.0702C4 9.73583 4.1671 9.4236 4.4453 9.23813L8.89664 6.27057C9.10803 6.12965 9.36513 6.07446 9.61574 6.11623L13.931 6.83544C14.7925 6.97902 15.6738 6.74004 16.3447 6.18092L18.3598 4.50167ZM4 16.6179V18.9998C4 19.5521 4.44772 19.9998 5 19.9998H19C19.5523 19.9998 20 19.5521 20 18.9998V12.6179L16.0289 14.6035C15.4618 14.887 14.8195 14.9836 14.1941 14.8794L9.47711 14.0932C9.26865 14.0585 9.05453 14.0907 8.8655 14.1852L4 16.6179Z" fill="#777E91"/>
</svg>
