<svg width="24" height="24" viewBox="0 0 24 24" fill="none" xmlns="http://www.w3.org/2000/svg">
<path d="M15.7056 15.471C15.9526 15.5945 16.0527 15.8948 15.9292 16.1418L13.8292 20.3417C13.321 21.3581 12.2822 22.0001 11.1459 22.0001H4.2361C3.47856 22.0001 2.78603 21.5721 2.44725 20.8945C1.78235 19.5647 2.74934 18.0001 4.2361 18.0001H10.1459C11.2822 18.0001 12.321 17.3581 12.8292 16.3417L13.5292 14.9418C13.6527 14.6948 13.953 14.5947 14.2 14.7182L15.7056 15.471Z" fill="#777E91"/>
<path d="M16.5999 13.6821C16.8469 13.8056 17.1473 13.7055 17.2708 13.4585L21.5675 4.86496C21.8258 4.34844 21.7246 3.72462 21.3162 3.31627C20.6687 2.66874 19.5771 2.84589 19.1675 3.66496L14.8708 12.2585C14.7473 12.5055 14.8474 12.8058 15.0944 12.9293L16.5999 13.6821Z" fill="#777E91"/>
<path d="M2 11C2 10.4477 2.44772 10 3 10H5C5.55228 10 6 10.4477 6 11C6 11.5523 5.55228 12 5 12H3C2.44772 12 2 11.5523 2 11Z" fill="#777E91"/>
</svg>
