<svg width="24" height="24" viewBox="0 0 24 24" fill="none" xmlns="http://www.w3.org/2000/svg">
<path fill-rule="evenodd" clip-rule="evenodd" d="M13.8695 17.7889L20.0073 5.51333C20.2192 5.08948 20.0691 4.57392 19.6627 4.33011C19.2097 4.05832 18.6212 4.22969 18.385 4.70219L13.618 14.2361C12.7711 15.9301 11.0397 17.0001 9.14587 17.0001H4.97717C4.31279 17.0001 3.83312 17.636 4.01564 18.2748L4.30136 19.2748C4.42401 19.7041 4.8164 20.0001 5.26288 20.0001H10.2918C11.8069 20.0001 13.1919 19.1441 13.8695 17.7889ZM21.7961 6.40776L15.6583 18.6834C14.642 20.7161 12.5644 22.0001 10.2918 22.0001H5.26288C3.92344 22.0001 2.74628 21.1122 2.37831 19.8242L2.0926 18.8242C1.54504 16.9078 2.98403 15.0001 4.97717 15.0001H9.14587C10.2822 15.0001 11.321 14.3581 11.8292 13.3417L16.5961 3.80776C17.3534 2.29324 19.2397 1.74393 20.6917 2.61513C21.9942 3.39662 22.4754 5.04917 21.7961 6.40776Z" fill="#777E91"/>
<path d="M11.7485 13.4925C11.7768 13.4432 11.8037 13.393 11.8293 13.3418L12.6473 11.7058L17.8473 14.3058L16.9529 16.0947L11.7485 13.4925Z" fill="#777E91"/>
<path d="M2 11C2 10.4477 2.44772 10 3 10H5C5.55228 10 6 10.4477 6 11C6 11.5523 5.55228 12 5 12H3C2.44772 12 2 11.5523 2 11Z" fill="#777E91"/>
</svg>
