<svg width="24" height="24" viewBox="0 0 24 24" fill="none" xmlns="http://www.w3.org/2000/svg">
<path fill-rule="evenodd" clip-rule="evenodd" d="M3 5C3 2.79086 4.79086 1 7 1H15.3431C16.404 1 17.4214 1.42143 18.1716 2.17157L19.8284 3.82843C20.5786 4.57857 21 5.59599 21 6.65685V19C21 21.2091 19.2091 23 17 23H7C4.79086 23 3 21.2091 3 19V5ZM19 8V19C19 20.1046 18.1046 21 17 21H7C5.89543 21 5 20.1046 5 19V5C5 3.89543 5.89543 3 7 3H14V5C14 6.65685 15.3431 8 17 8H19ZM18.8891 6C18.7909 5.7176 18.6296 5.45808 18.4142 5.24264L16.7574 3.58579C16.5419 3.37035 16.2824 3.20914 16 3.11094V5C16 5.55228 16.4477 6 17 6H18.8891Z" fill="#777E91"/>
<path d="M11.5351 9.17546C11.7018 8.75401 12.2982 8.75401 12.465 9.17546L13.2766 11.2272C13.3464 11.4038 13.5103 11.5256 13.6995 11.5415L15.8494 11.7227C16.2857 11.7595 16.4673 12.2995 16.142 12.5925L14.4679 14.1004C14.3333 14.2216 14.2748 14.406 14.3149 14.5825L14.8198 16.8084C14.9189 17.2449 14.4386 17.5816 14.062 17.3398L12.2702 16.189C12.1056 16.0833 11.8944 16.0833 11.7298 16.189L9.93797 17.3398C9.56142 17.5816 9.08116 17.2449 9.18017 16.8084L9.68514 14.5825C9.7252 14.406 9.66668 14.2216 9.53216 14.1004L7.85798 12.5925C7.53267 12.2995 7.71434 11.7595 8.1506 11.7227L10.3005 11.5415C10.4897 11.5256 10.6536 11.4038 10.7235 11.2272L11.5351 9.17546Z" fill="#777E91"/>
</svg>
