<svg width="24" height="24" viewBox="0 0 24 24" fill="none" xmlns="http://www.w3.org/2000/svg">
<path fill-rule="evenodd" clip-rule="evenodd" d="M12 20C16.4183 20 20 16.4183 20 12C20 7.58172 16.4183 4 12 4C7.58172 4 4 7.58172 4 12C4 16.4183 7.58172 20 12 20ZM12 22C17.5228 22 22 17.5228 22 12C22 6.47715 17.5228 2 12 2C6.47715 2 2 6.47715 2 12C2 17.5228 6.47715 22 12 22Z" fill="#777E91"/>
<path d="M9 8.80433C9 8.0189 9.86395 7.54005 10.53 7.95633L15.6432 11.1521C16.2699 11.5438 16.2699 12.4564 15.6432 12.8481L10.53 16.0438C9.86395 16.4601 9 15.9813 9 15.1958V8.80433Z" fill="#777E91"/>
</svg>
