<svg width="24" height="24" viewBox="0 0 24 24" fill="none" xmlns="http://www.w3.org/2000/svg">
<path fill-rule="evenodd" clip-rule="evenodd" d="M13.4579 11.1597L20.4241 6.66536C21.0895 6.23605 21.9662 6.71375 21.9662 7.50565V16.4943C21.9662 17.2862 21.0895 17.764 20.4241 17.3346L13.4579 12.8403C12.8474 12.4464 12.8474 11.5536 13.4579 11.1597ZM19.3399 4.98476C21.3362 3.69683 23.9662 5.12995 23.9662 7.50565V16.4943C23.9662 18.87 21.3362 20.3032 19.3399 19.0152L12.3736 14.5209C10.5421 13.3393 10.5421 10.6607 12.3736 9.47911L19.3399 4.98476Z" fill="#777E91"/>
<path fill-rule="evenodd" clip-rule="evenodd" d="M2.45787 11.1597L9.42411 6.66536C10.0895 6.23605 10.9662 6.71375 10.9662 7.50565V16.4943C10.9662 17.2862 10.0895 17.764 9.42411 17.3346L2.45787 12.8403C1.84738 12.4464 1.84737 11.5536 2.45787 11.1597ZM8.33986 4.98476C10.3362 3.69683 12.9662 5.12995 12.9662 7.50565V16.4943C12.9662 18.87 10.3362 20.3032 8.33986 19.0152L1.37362 14.5209C-0.457874 13.3393 -0.457873 10.6607 1.37362 9.47911L8.33986 4.98476Z" fill="#777E91"/>
</svg>
