<svg width="24" height="24" viewBox="0 0 24 24" fill="none" xmlns="http://www.w3.org/2000/svg">
<path fill-rule="evenodd" clip-rule="evenodd" d="M18 17C19.6569 17 21 18.3431 21 20C21 21.6569 19.6569 23 18 23L8 23C7.44771 23 7 22.5523 7 22C7 21.4477 7.44771 21 8 21L18 21C18.5523 21 19 20.5523 19 20C19 19.4477 18.5523 19 18 19L8 19C7.44771 19 7 18.5523 7 18C7 17.4477 7.44771 17 8 17L18 17Z" fill="#777E91"/>
<path fill-rule="evenodd" clip-rule="evenodd" d="M13 9C14.6569 9 16 10.3431 16 12C16 13.6569 14.6569 15 13 15L8 15C7.44772 15 7 14.5523 7 14C7 13.4477 7.44772 13 8 13L13 13C13.5523 13 14 12.5523 14 12C14 11.4477 13.5523 11 13 11L8 11C7.44772 11 7 10.5523 7 10C7 9.44771 7.44772 9 8 9L13 9Z" fill="#777E91"/>
<path fill-rule="evenodd" clip-rule="evenodd" d="M9 1C10.6569 1 12 2.34315 12 4C12 5.65685 10.6569 7 9 7L8 7C7.44772 7 7 6.55228 7 6C7 5.44772 7.44772 5 8 5L9 5C9.55228 5 10 4.55228 10 4C10 3.44772 9.55228 3 9 3L8 3C7.44771 3 7 2.55228 7 2C7 1.44772 7.44771 1 8 1L9 1Z" fill="#777E91"/>
<path fill-rule="evenodd" clip-rule="evenodd" d="M4 1C4.55228 1 5 1.44772 5 2V22C5 22.5523 4.55228 23 4 23C3.44772 23 3 22.5523 3 22V2C3 1.44772 3.44772 1 4 1Z" fill="#777E91"/>
</svg>
