<svg width="24" height="24" viewBox="0 0 24 24" fill="none" xmlns="http://www.w3.org/2000/svg">
<path d="M21 3H3C1.89543 3 1 3.89543 1 5V16C1 17.1046 1.89543 18 3 18H5.48184C5.80677 18 6.11143 17.8421 6.29881 17.5767L9.5491 12.9721C10.7443 11.2788 13.2557 11.2788 14.4509 12.9721L17.7012 17.5767C17.8886 17.8421 18.1932 18 18.5182 18H21C22.1046 18 23 17.1046 23 16V5C23 3.89543 22.1046 3 21 3Z" fill="#777E91"/>
<path d="M7.19998 19.4001L11.2 14.0667C11.6 13.5334 12.4 13.5334 12.8 14.0667L16.8 19.4001C17.2944 20.0593 16.824 21.0001 16 21.0001H7.99998C7.17594 21.0001 6.70556 20.0593 7.19998 19.4001Z" fill="#777E91"/>
</svg>
