<svg width="24" height="24" viewBox="0 0 24 24" fill="none" xmlns="http://www.w3.org/2000/svg">
<path fill-rule="evenodd" clip-rule="evenodd" d="M15 17.7083C15.2298 17.6398 15.4564 17.5594 15.6788 17.4673C16.5281 17.1155 17.2997 16.5999 17.9497 15.9499C18.5998 15.2998 19.1154 14.5282 19.4672 13.6789C19.8189 12.8296 20 11.9194 20 11.0001C20 10.0809 19.8189 9.1706 19.4672 8.32132C19.1154 7.47204 18.5998 6.70037 17.9497 6.05036C17.2997 5.40035 16.5281 4.88473 15.6788 4.53295C15.4564 4.44083 15.2298 4.36042 15 4.2919L15 17.7083ZM13.9979 19.9446C13.4491 20.0058 13 19.5524 13 19.0001L13 3.00011C13 2.44782 13.4491 1.99436 13.9979 2.0556C14.8372 2.14925 15.6609 2.36074 16.4442 2.68519C17.5361 3.13748 18.5282 3.80042 19.364 4.63614C20.1997 5.47187 20.8626 6.46402 21.3149 7.55595C21.7672 8.64788 22 9.81821 22 11.0001C22 12.182 21.7672 13.3523 21.3149 14.4443C20.8626 15.5362 20.1997 16.5283 19.364 17.3641C18.5282 18.1998 17.5361 18.8627 16.4442 19.315C15.6609 19.6395 14.8372 19.851 13.9979 19.9446Z" fill="#777E91"/>
<path fill-rule="evenodd" clip-rule="evenodd" d="M9 6.29193C8.77018 6.36045 8.54361 6.44086 8.32122 6.53298C7.47194 6.88476 6.70026 7.40038 6.05025 8.05039C5.40024 8.7004 4.88463 9.47207 4.53284 10.3214C4.18106 11.1706 4 12.0809 4 13.0001C4 13.9194 4.18106 14.8296 4.53284 15.6789C4.88463 16.5282 5.40024 17.2999 6.05025 17.9499C6.70026 18.5999 7.47194 19.1155 8.32122 19.4673C8.54361 19.5594 8.77018 19.6398 9 19.7083L9 6.29193ZM10.002 4.05564C10.5509 3.9944 11 4.44785 11 5.00014L11 21.0001C11 21.5524 10.5509 22.0059 10.0021 21.9446C9.16275 21.851 8.33913 21.6395 7.55585 21.3151C6.46392 20.8628 5.47177 20.1998 4.63604 19.3641C3.80031 18.5284 3.13738 17.5362 2.68508 16.4443C2.23279 15.3524 2 14.182 2 13.0001C2 11.8182 2.23279 10.6479 2.68508 9.55599C3.13738 8.46406 3.80031 7.4719 4.63604 6.63618C5.47177 5.80045 6.46392 5.13751 7.55585 4.68522C8.33913 4.36077 9.16275 4.14928 10.002 4.05564Z" fill="#777E91"/>
</svg>
