<svg width="24" height="24" viewBox="0 0 24 24" fill="none" xmlns="http://www.w3.org/2000/svg">
<path d="M4 17C4 17.5523 3.55228 18 3 18C2.44772 18 2 17.5523 2 17C2 16.4477 2.44772 16 3 16C3.55228 16 4 16.4477 4 17Z" fill="#777E91"/>
<path d="M4 21C4 21.5523 3.55228 22 3 22C2.44772 22 2 21.5523 2 21C2 20.4477 2.44772 20 3 20C3.55228 20 4 20.4477 4 21Z" fill="#777E91"/>
<path d="M7 21C7.55228 21 8 20.5523 8 20C8 19.4477 7.55228 19 7 19C6.44772 19 6 19.4477 6 20C6 20.5523 6.44772 21 7 21Z" fill="#777E91"/>
<path d="M13.8964 16.6035C14.0917 16.4082 14.0917 16.0916 13.8964 15.8964L8.1035 10.1035C7.90823 9.90822 7.59165 9.90822 7.39639 10.1035L5.91416 11.5857C5.13311 12.3668 5.13311 13.6331 5.91416 14.4141L9.58573 18.0857C10.3668 18.8668 11.6331 18.8668 12.4142 18.0857L13.8964 16.6035Z" fill="#777E91"/>
<path d="M17.4141 2.91416C16.6331 2.13311 15.3668 2.13311 14.5857 2.91416L9.60348 7.89639C9.40822 8.09165 9.40822 8.40823 9.60348 8.6035L15.3964 14.3964C15.5916 14.5917 15.9082 14.5917 16.1035 14.3964L21.0857 9.41416C21.8668 8.63311 21.8668 7.36678 21.0857 6.58573L17.4141 2.91416Z" fill="#777E91"/>
</svg>
