<svg width="24" height="24" viewBox="0 0 24 24" fill="none" xmlns="http://www.w3.org/2000/svg">
<path d="M1.79273 13.7253L0.364158 18.7253C0.181639 19.3641 0.661303 20 1.32568 20H9.67422C10.3386 20 10.8183 19.3641 10.6357 18.7253L9.20717 13.7253C9.08452 13.296 8.69213 13 8.24565 13H2.75425C2.30777 13 1.91539 13.296 1.79273 13.7253Z" fill="#777E91"/>
<path d="M14.7927 13.7253L13.3642 18.7253C13.1816 19.3641 13.6613 20 14.3257 20H22.6742C23.3386 20 23.8183 19.3641 23.6357 18.7253L22.2072 13.7253C22.0845 13.296 21.6921 13 21.2456 13H15.7543C15.3078 13 14.9154 13.296 14.7927 13.7253Z" fill="#777E91"/>
<path d="M8.29273 4.72528L6.86416 9.72528C6.68164 10.3641 7.1613 11 7.82568 11H16.1742C16.8386 11 17.3183 10.3641 17.1357 9.72528L15.7072 4.72528C15.5845 4.29598 15.1921 4 14.7456 4H9.25425C8.80777 4 8.41539 4.29598 8.29273 4.72528Z" fill="#777E91"/>
</svg>
