<svg width="24" height="24" viewBox="0 0 24 24" fill="none" xmlns="http://www.w3.org/2000/svg">
<path fill-rule="evenodd" clip-rule="evenodd" d="M4.76558 13C4.26126 13 3.83585 13.3755 3.7733 13.876L3.2733 17.876C3.19869 18.4728 3.66408 19 4.26558 19H9.73445C10.3359 19 10.8013 18.4728 10.7267 17.876L10.2267 13.876C10.1642 13.3755 9.73877 13 9.23445 13H4.76558ZM1.78875 13.6279C1.97641 12.1266 3.25261 11 4.76558 11H9.23445C10.7474 11 12.0236 12.1266 12.2113 13.6279L12.7113 17.6279C12.9351 19.4185 11.5389 21 9.73445 21H4.26558C2.46108 21 1.06493 19.4185 1.28875 17.6279L1.78875 13.6279Z" fill="#777E91"/>
<path fill-rule="evenodd" clip-rule="evenodd" d="M14.7656 13C14.2613 13 13.8359 13.3755 13.7733 13.876L13.2733 17.876C13.1987 18.4728 13.6641 19 14.2656 19H19.7344C20.3359 19 20.8013 18.4728 20.7267 17.876L20.2267 13.876C20.1642 13.3755 19.7388 13 19.2344 13H14.7656ZM11.7887 13.6279C11.9764 12.1266 13.2526 11 14.7656 11H19.2344C20.7474 11 22.0236 12.1266 22.2113 13.6279L22.7113 17.6279C22.9351 19.4185 21.5389 21 19.7344 21H14.2656C12.4611 21 11.0649 19.4185 11.2887 17.6279L11.7887 13.6279Z" fill="#777E91"/>
<path fill-rule="evenodd" clip-rule="evenodd" d="M9.76558 5C9.26126 5 8.83585 5.37554 8.7733 5.87597L8.2733 9.87597C8.19869 10.4728 8.66408 11 9.26558 11H14.7344C15.3359 11 15.8013 10.4728 15.7267 9.87597L15.2267 5.87597C15.1642 5.37554 14.7388 5 14.2344 5H9.76558ZM6.78875 5.6279C6.97641 4.12661 8.25261 3 9.76558 3H14.2344C15.7474 3 17.0236 4.12661 17.2113 5.6279L17.7113 9.6279C17.9351 11.4185 16.5389 13 14.7344 13H9.26558C7.46108 13 6.06493 11.4185 6.28875 9.6279L6.78875 5.6279Z" fill="#777E91"/>
</svg>
