<svg width="24" height="24" viewBox="0 0 24 24" fill="none" xmlns="http://www.w3.org/2000/svg">
<path d="M12 18C11.4477 18 11 18.4477 11 19V22H9C8.44771 22 8 22.4477 8 23C8 23.5523 8.44771 24 9 24H15C15.5523 24 16 23.5523 16 23C16 22.4477 15.5523 22 15 22H13V19C13 18.4477 12.5523 18 12 18Z" fill="#777E91"/>
<path d="M6.58884 1.30718C6.83041 0.510134 7.57261 0 8.40546 0H15.5947C16.4275 0 17.1697 0.510135 17.4113 1.30718C18.5688 5.12651 21.068 16 12.0001 16C2.9321 16 5.4313 5.12651 6.58884 1.30718Z" fill="#777E91"/>
</svg>
