<svg width="24" height="24" viewBox="0 0 24 24" fill="none" xmlns="http://www.w3.org/2000/svg">
<path fill-rule="evenodd" clip-rule="evenodd" d="M5 22C3.34315 22 2 20.6569 2 19V12.8541C2 11.8746 2.48659 10.9105 2.94129 10.0096C3.0141 9.86537 3.0861 9.72271 3.15515 9.58188C3.59842 8.6778 4 7.24048 4 5C4 3.34315 5.34315 2 7 2H9.5C9.77614 2 10 2.22386 10 2.5V4C10 5.10457 10.8954 6 12 6C13.1046 6 14 5.10457 14 4V2.5C14 2.22386 14.2239 2 14.5 2H17C18.6569 2 20 3.34315 20 5C20 7.24048 20.4016 8.6778 20.8448 9.58188C20.9139 9.72271 20.9859 9.86537 21.0587 10.0096C21.5134 10.9105 22 11.8746 22 12.8541V19C22 20.6569 20.6569 22 19 22H5ZM7 4H7.5C7.77614 4 7.99672 4.22498 8.03082 4.49901C8.27643 6.47264 9.95985 8 12 8C14.0402 8 15.7236 6.47264 15.9692 4.49901C16.0033 4.22498 16.2239 4 16.5 4H17C17.5523 4 18 4.44772 18 5C18 7.47741 18.4443 9.22885 19.0491 10.4623C19.1232 10.6135 19.1996 10.7648 19.2707 10.9058L19.2732 10.9108C19.7813 11.9175 20 12.4396 20 12.8541V19C20 19.5523 19.5523 20 19 20H5C4.44772 20 4 19.5523 4 19V12.8541C4 12.4396 4.21866 11.9175 4.72677 10.9108L4.72929 10.9058C4.80037 10.7649 4.87685 10.6134 4.95092 10.4623C5.5557 9.22885 6 7.47741 6 5C6 4.44772 6.44772 4 7 4Z" fill="#777E91"/>
<path d="M12 10C12.5523 10 13 10.4477 13 11V16C13.5523 16 14 16.4477 14 17C14 17.5523 13.5523 18 13 18H11C10.4477 18 10 17.5523 10 17C10 16.4477 10.4477 16 11 16V12C10.4477 12 10 11.5523 10 11C10 10.4477 10.4477 10 11 10H12Z" fill="#777E91"/>
</svg>
