<svg width="24" height="24" viewBox="0 0 24 24" fill="none" xmlns="http://www.w3.org/2000/svg">
<path d="M4.25724 17.7427L2.46426 19.5357C1.91198 20.0879 1.91198 20.9834 2.46426 21.5357C3.01655 22.0879 3.91198 22.0879 4.46426 21.5357L6.25724 19.7427L4.25724 17.7427Z" fill="#777E91"/>
<path fill-rule="evenodd" clip-rule="evenodd" d="M20.9643 8.03554L13.0519 15.948C12.6674 16.3324 12.1857 16.6052 11.6582 16.7371L9.00175 17.4012C8.65008 17.4891 8.32892 17.6709 8.07261 17.9272L7.67151 18.3283L5.67151 16.3283L6.07261 15.9272C6.32892 15.6709 6.51076 15.3498 6.59868 14.9981L7.26278 12.3417C7.39466 11.8142 7.66742 11.3324 8.05189 10.948L15.9643 3.03553C17.345 1.65482 19.5836 1.65482 20.9643 3.03553C22.345 4.41625 22.345 6.65482 20.9643 8.03554ZM17.4643 8.53555L15.4643 10.5356C14.912 11.0878 14.0166 11.0878 13.4643 10.5356C12.912 9.98327 12.912 9.08784 13.4643 8.53555L15.4643 6.53555C16.0166 5.98327 16.912 5.98327 17.4643 6.53555C18.0166 7.08784 18.0166 7.98327 17.4643 8.53555Z" fill="#777E91"/>
</svg>
