<svg width="24" height="24" viewBox="0 0 24 24" fill="none" xmlns="http://www.w3.org/2000/svg">
<path fill-rule="evenodd" clip-rule="evenodd" d="M5.41249 14.5876C5.79696 14.2031 6.06972 13.7214 6.20159 13.1939L6.79852 10.8062C6.9304 10.2787 7.20315 9.79695 7.58763 9.41247L13.5001 3.50004C15.4331 1.56704 18.5671 1.56704 20.5001 3.50004C22.4331 5.43304 22.4331 8.56704 20.5001 10.5L14.5876 16.4125C14.2032 16.7969 13.7214 17.0697 13.1939 17.2016L10.8062 17.7985C10.2787 17.9304 9.79696 18.2031 9.41249 18.5876L7.00006 21C5.89549 22.1046 4.10463 22.1046 3.00006 21C1.89549 19.8955 1.89549 18.1046 3.00006 17L5.41249 14.5876ZM12.7088 15.2613L10.3211 15.8582C9.44198 16.078 8.63907 16.5326 7.99827 17.1734L5.58585 19.5858C5.26232 19.9093 4.73779 19.9093 4.41427 19.5858C4.09075 19.2623 4.09075 18.7378 4.41427 18.4143L6.8267 16.0018C7.46749 15.361 7.92209 14.5581 8.14188 13.679L8.73881 11.2913C8.78277 11.1154 8.87369 10.9548 9.00184 10.8267L14.9143 4.91425C16.0662 3.76231 17.9339 3.76231 19.0858 4.91425C20.2378 6.0662 20.2378 7.93388 19.0858 9.08582L13.1734 14.9983C13.0453 15.1264 12.8847 15.2173 12.7088 15.2613Z" fill="#777E91"/>
<path d="M16.9999 8.99991L14.9999 10.9999C14.4476 11.5522 13.5522 11.5522 12.9999 10.9999C12.4476 10.4476 12.4476 9.55219 12.9999 8.99991L14.9999 6.99991C15.5522 6.44762 16.4476 6.44762 16.9999 6.99991C17.5522 7.55219 17.5522 8.44762 16.9999 8.99991Z" fill="#777E91"/>
<path fill-rule="evenodd" clip-rule="evenodd" d="M8.99992 18.9999C8.6094 19.3904 7.97624 19.3904 7.58571 18.9999L4.99992 16.4141C4.6094 16.0236 4.6094 15.3904 4.99992 14.9999C5.39045 14.6094 6.02361 14.6094 6.41414 14.9999L8.99992 17.5857C9.39045 17.9762 9.39045 18.6094 8.99992 18.9999Z" fill="#777E91"/>
</svg>
