<svg width="24" height="24" viewBox="0 0 24 24" fill="none" xmlns="http://www.w3.org/2000/svg">
<path d="M12.2125 3.79831L20.2019 11.7878C22.2071 9.56712 22.1398 6.1398 20.0001 4.00012C17.8604 1.86043 14.4331 1.79316 12.2125 3.79831Z" fill="#777E91"/>
<path fill-rule="evenodd" clip-rule="evenodd" d="M10.793 5.20725L18.793 13.2073L13.2072 18.793L5.20719 10.793L10.793 5.20725ZM13 10.0001C13 10.5524 12.5523 11.0001 12 11.0001C11.4477 11.0001 11 10.5524 11 10.0001C11 9.44784 11.4477 9.00012 12 9.00012C12.5523 9.00012 13 9.44784 13 10.0001ZM13 14.0001C13 14.5524 12.5523 15.0001 12 15.0001C11.4477 15.0001 11 14.5524 11 14.0001C11 13.4478 11.4477 13.0001 12 13.0001C12.5523 13.0001 13 13.4478 13 14.0001ZM11 12.0001C11 12.5524 10.5523 13.0001 10 13.0001C9.44771 13.0001 9 12.5524 9 12.0001C9 11.4478 9.44771 11.0001 10 11.0001C10.5523 11.0001 11 11.4478 11 12.0001ZM15 12.0001C15 12.5524 14.5523 13.0001 14 13.0001C13.4477 13.0001 13 12.5524 13 12.0001C13 11.4478 13.4477 11.0001 14 11.0001C14.5523 11.0001 15 11.4478 15 12.0001Z" fill="#777E91"/>
<path d="M4.00012 20.0001C1.86045 17.8604 1.79316 14.4332 3.79825 12.2125L11.7877 20.202C9.56706 22.2071 6.13978 22.1398 4.00012 20.0001Z" fill="#777E91"/>
</svg>
