<svg width="24" height="24" viewBox="0 0 24 24" fill="none" xmlns="http://www.w3.org/2000/svg">
<path fill-rule="evenodd" clip-rule="evenodd" d="M12.0001 20.0001L20.0001 12.0001C22.2093 9.79097 22.2093 6.20926 20.0001 4.00012C17.791 1.79098 14.2093 1.79098 12.0001 4.00012L4.00011 12.0001C1.79097 14.2093 1.79098 17.791 4.00012 20.0001C6.20926 22.2093 9.79098 22.2093 12.0001 20.0001ZM11.793 17.3788L17.3788 11.793L12.2072 6.62147L6.62141 12.2073L11.793 17.3788ZM10.3706 18.7849L5.21537 13.6296C3.98964 15.0664 4.05596 17.2275 5.41433 18.5859C6.7727 19.9443 8.93384 20.0106 10.3706 18.7849ZM13.6296 5.21543L18.7848 10.3707C20.0106 8.9339 19.9443 6.77272 18.5859 5.41433C17.2275 4.05594 15.0663 3.98964 13.6296 5.21543Z" fill="#777E91"/>
<path d="M12 11C12.5523 11 13 10.5523 13 10C13 9.44771 12.5523 9 12 9C11.4477 9 11 9.44771 11 10C11 10.5523 11.4477 11 12 11Z" fill="#777E91"/>
<path d="M12 15C12.5523 15 13 14.5523 13 14C13 13.4477 12.5523 13 12 13C11.4477 13 11 13.4477 11 14C11 14.5523 11.4477 15 12 15Z" fill="#777E91"/>
<path d="M11 12C11 12.5523 10.5523 13 10 13C9.44771 13 9 12.5523 9 12C9 11.4477 9.44771 11 10 11C10.5523 11 11 11.4477 11 12Z" fill="#777E91"/>
<path d="M14 13C14.5523 13 15 12.5523 15 12C15 11.4477 14.5523 11 14 11C13.4477 11 13 11.4477 13 12C13 12.5523 13.4477 13 14 13Z" fill="#777E91"/>
</svg>
