<svg width="24" height="24" viewBox="0 0 24 24" fill="none" xmlns="http://www.w3.org/2000/svg">
<path fill-rule="evenodd" clip-rule="evenodd" d="M15.7929 4.79288C17.0118 3.57392 18.9881 3.57392 20.2071 4.79288C21.426 6.01183 21.426 7.98814 20.2071 9.20709L8.20709 21.2071C6.98814 22.426 5.01183 22.426 3.79288 21.2071C2.57392 19.9881 2.57392 18.0118 3.79288 16.7929L15.7929 4.79288ZM18.7929 6.20709C18.355 5.76919 17.645 5.76919 17.2071 6.20709L5.20709 18.2071C4.76919 18.645 4.76919 19.355 5.20709 19.7929C5.64499 20.2308 6.35497 20.2308 6.79287 19.7929L18.7929 7.79288C19.2308 7.35497 19.2308 6.64499 18.7929 6.20709Z" fill="#777E91"/>
<path d="M13.2929 1.29289C13.6834 0.902369 14.3166 0.902369 14.7071 1.29289L17.7071 4.29289C18.0976 4.68342 18.0976 5.31658 17.7071 5.70711C17.3166 6.09763 16.6834 6.09763 16.2929 5.70711L13.2929 2.70711C12.9024 2.31658 12.9024 1.68342 13.2929 1.29289Z" fill="#777E91"/>
<path d="M11.2929 4.29289C11.6834 3.90237 12.3166 3.90237 12.7071 4.29289L15.2071 6.79289C15.5976 7.18342 15.5976 7.81658 15.2071 8.20711C14.8166 8.59763 14.1834 8.59763 13.7929 8.20711L11.2929 5.70711C10.9024 5.31658 10.9024 4.68342 11.2929 4.29289Z" fill="#777E91"/>
<path d="M9.70711 6.29289C9.31658 5.90237 8.68342 5.90237 8.29289 6.29289C7.90237 6.68342 7.90237 7.31658 8.29289 7.70711L11.2929 10.7071C11.6834 11.0976 12.3166 11.0976 12.7071 10.7071C13.0976 10.3166 13.0976 9.68342 12.7071 9.29289L9.70711 6.29289Z" fill="#777E91"/>
</svg>
