<svg width="24" height="24" viewBox="0 0 24 24" fill="none" xmlns="http://www.w3.org/2000/svg">
<path d="M20.9999 7.5C21.4999 15 15.9999 21 8.99995 21C6.58804 21 4.17613 20.6768 2.28389 19.7706C1.85051 19.5631 2.01991 18.985 2.49936 18.9532C4.82944 18.7987 6.75765 18.2423 7.99995 17C2.58355 15.1945 1.64925 8.4995 2.62224 5.00719C2.73648 4.59713 3.26961 4.59499 3.4845 4.96246C5.14598 7.80371 8.30515 9.39003 12.2645 9.02396C12.0932 8.54804 11.9999 8.03492 11.9999 7.5C11.9999 5.01472 14.0146 3 16.4999 3C18.0181 3 19.3607 3.75182 20.1757 4.90346L21.8928 4.65815C22.3207 4.59703 22.6193 5.07087 22.3796 5.43047L20.9999 7.5Z" fill="#777E91"/>
</svg>
