<svg width="24" height="24" viewBox="0 0 24 24" fill="none" xmlns="http://www.w3.org/2000/svg">
<path fill-rule="evenodd" clip-rule="evenodd" d="M12.6669 6.61496C12.2872 6.95478 11.7128 6.95478 11.3331 6.61496L10.6662 6.01806C9.95717 5.38348 9.02575 5 8 5C5.79086 5 4 6.79086 4 9C4 12.1035 5.93951 14.5906 8.24936 16.4384C9.37774 17.3411 10.5169 18.0258 11.3786 18.4853C11.7672 18.6925 12.2328 18.6925 12.6213 18.4853C13.483 18.0257 14.6222 17.341 15.7506 16.4383C18.0605 14.5905 20 12.1037 20 9.00016C20 6.79102 18.2091 5 16 5C14.9742 5 14.0428 5.38348 13.3338 6.01806L12.6669 6.61496ZM12 4.52779C10.9385 3.57771 9.53671 3 8 3C4.68629 3 2 5.68629 2 9C2 15.6814 8.97508 19.5727 11.2745 20.674C11.7377 20.8958 12.2623 20.8958 12.7255 20.674C15.0249 19.5727 22 15.6815 22 9.00016C22 5.68645 19.3137 3 16 3C14.4633 3 13.0615 3.57771 12 4.52779Z" fill="#777E91"/>
<path fill-rule="evenodd" clip-rule="evenodd" d="M7.97225 7.00039C8.34091 6.99015 8.68527 7.18366 8.86824 7.50386L11.9923 12.9709C12.0623 13.0935 12.2339 13.1069 12.3221 12.9966L15.2191 9.37531C15.3968 9.15319 15.6607 9.01726 15.9447 9.00153C16.2287 8.9858 16.506 9.09176 16.7071 9.29289L18.2678 10.8536C18.3615 10.9473 18.4887 11 18.6213 11H22C22.5523 11 23 11.4477 23 12C23 12.5523 22.5523 13 22 13H18C17.7348 13 17.4804 12.8946 17.2929 12.7071L16.2409 11.6551C16.1566 11.5709 16.0178 11.5785 15.9433 11.6716L12.7809 15.6247C12.574 15.8833 12.2525 16.0227 11.9223 15.997C11.5921 15.9712 11.2961 15.7837 11.1318 15.4961L8.24421 10.4429C8.16496 10.3042 7.96311 10.3098 7.89168 10.4527L6.89443 12.4472C6.72504 12.786 6.37877 13 6 13H2C1.44772 13 1 12.5523 1 12C1 11.4477 1.44772 11 2 11H5.07295C5.26233 11 5.43547 10.893 5.52016 10.7236L7.10557 7.55279C7.2705 7.22293 7.6036 7.01062 7.97225 7.00039Z" fill="#777E91"/>
</svg>
