<svg width="24" height="24" viewBox="0 0 24 24" fill="none" xmlns="http://www.w3.org/2000/svg">
<path fill-rule="evenodd" clip-rule="evenodd" d="M18.1637 9.84485L17.9103 8.74138C17.5495 7.17032 16.1398 6 14.4615 6C14.2066 6 14 6.20664 14 6.46154V17C14 17.5523 14.4477 18 15 18H18C20.2091 18 22 16.2091 22 14C22 12.2266 20.8446 10.7179 19.2403 10.1954L18.1637 9.84485ZM19.8596 8.29374C19.2948 5.8343 17.0924 4 14.4615 4C13.1021 4 12 5.10207 12 6.46154V17C12 18.6569 13.3431 20 15 20H18C21.3137 20 24 17.3137 24 14C24 11.3354 22.263 9.07646 19.8596 8.29374Z" fill="#777E91"/>
<path d="M8 9C8 8.44771 8.44772 8 9 8C9.55228 8 10 8.44772 10 9V19C10 19.5523 9.55228 20 9 20C8.44772 20 8 19.5523 8 19V9Z" fill="#777E91"/>
<path d="M4 12C4 11.4477 4.44772 11 5 11C5.55228 11 6 11.4477 6 12V19C6 19.5523 5.55228 20 5 20C4.44772 20 4 19.5523 4 19V12Z" fill="#777E91"/>
<path d="M1 14C0.447715 14 0 14.4477 0 15V19C0 19.5523 0.447715 20 1 20C1.55228 20 2 19.5523 2 19V15C2 14.4477 1.55228 14 1 14Z" fill="#777E91"/>
</svg>
