<svg width="24" height="24" viewBox="0 0 24 24" fill="none" xmlns="http://www.w3.org/2000/svg">
<path d="M18.7858 12.3929L14.9724 10.4862C14.5903 10.2951 14.1601 10.6402 14.2637 11.0547L14.9443 13.7769C14.9797 13.9185 15.0752 14.0376 15.2057 14.1029L17.3858 15.1929C18.2378 15.6189 19.2695 15.1915 19.5708 14.2879C19.8171 13.5489 19.4825 12.7413 18.7858 12.3929Z" fill="#777E91"/>
<path d="M6.81063 8.75746C6.92192 8.3123 7.3219 8 7.78077 8H10.2192C10.6781 8 11.0781 8.3123 11.1894 8.75746L13.8444 19.3775C13.9392 19.7568 13.8042 20.1566 13.4989 20.4009L9.62469 23.5002C9.25947 23.7924 8.74052 23.7924 8.3753 23.5002L4.50108 20.4009C4.19575 20.1566 4.0608 19.7568 4.15563 19.3775L6.81063 8.75746Z" fill="#777E91"/>
<path d="M5.72361 0.552786C5.89301 0.214002 6.23927 0 6.61804 0H11.382C11.7607 0 12.107 0.214002 12.2764 0.552786L12.7764 1.55279C12.9172 1.83431 12.9172 2.16569 12.7764 2.44721L11.2764 5.44721C11.107 5.786 10.7607 6 10.382 6H7.61804C7.23927 6 6.89301 5.786 6.72361 5.44721L5.22361 2.44721C5.08285 2.16569 5.08285 1.83431 5.22361 1.55279L5.72361 0.552786Z" fill="#777E91"/>
</svg>
