<svg width="24" height="24" viewBox="0 0 24 24" fill="none" xmlns="http://www.w3.org/2000/svg">
<path d="M5 12C5 12.5523 4.55228 13 4 13C3.44772 13 3 12.5523 3 12C3 11.4477 3.44772 11 4 11C4.55228 11 5 11.4477 5 12Z" fill="#777E91"/>
<path d="M5 16C5 16.5523 4.55228 17 4 17C3.44772 17 3 16.5523 3 16C3 15.4477 3.44772 15 4 15C4.55228 15 5 15.4477 5 16Z" fill="#777E91"/>
<path d="M5 20C5 20.5523 4.55228 21 4 21C3.44772 21 3 20.5523 3 20C3 19.4477 3.44772 19 4 19C4.55228 19 5 19.4477 5 20Z" fill="#777E91"/>
<path d="M12 17C12.5523 17 13 16.5523 13 16C13 15.4477 12.5523 15 12 15C11.4477 15 11 15.4477 11 16C11 16.5523 11.4477 17 12 17Z" fill="#777E91"/>
<path d="M12 21C12.5523 21 13 20.5523 13 20C13 19.4477 12.5523 19 12 19C11.4477 19 11 19.4477 11 20C11 20.5523 11.4477 21 12 21Z" fill="#777E91"/>
<path d="M21 20C21 20.5523 20.5523 21 20 21C19.4477 21 19 20.5523 19 20C19 19.4477 19.4477 19 20 19C20.5523 19 21 19.4477 21 20Z" fill="#777E91"/>
<path fill-rule="evenodd" clip-rule="evenodd" d="M1 6C1 7.65685 2.34315 9 4 9C5.65685 9 7 7.65685 7 6C7 4.34315 5.65685 3 4 3C2.34315 3 1 4.34315 1 6ZM3 6C3 6.55228 3.44772 7 4 7C4.55228 7 5 6.55228 5 6C5 5.44772 4.55228 5 4 5C3.44772 5 3 5.44772 3 6Z" fill="#777E91"/>
<path fill-rule="evenodd" clip-rule="evenodd" d="M12 13C10.3431 13 9 11.6569 9 10C9 8.34315 10.3431 7 12 7C13.6569 7 15 8.34315 15 10C15 11.6569 13.6569 13 12 13ZM12 11C11.4477 11 11 10.5523 11 10C11 9.44772 11.4477 9 12 9C12.5523 9 13 9.44772 13 10C13 10.5523 12.5523 11 12 11Z" fill="#777E91"/>
<path fill-rule="evenodd" clip-rule="evenodd" d="M20 17C18.3431 17 17 15.6569 17 14C17 12.3431 18.3431 11 20 11C21.6569 11 23 12.3431 23 14C23 15.6569 21.6569 17 20 17ZM20 15C19.4477 15 19 14.5523 19 14C19 13.4477 19.4477 13 20 13C20.5523 13 21 13.4477 21 14C21 14.5523 20.5523 15 20 15Z" fill="#777E91"/>
</svg>
