<svg width="800" height="800" viewBox="0 0 800 800" fill="none" xmlns="http://www.w3.org/2000/svg">
<path d="M400 700C565.685 700 700 565.685 700 400C700 234.315 565.685 100 400 100C234.315 100 100 234.315 100 400C100 565.685 234.315 700 400 700Z" fill="url(#paint0_linear_1411:44907)"/>
<path fill-rule="evenodd" clip-rule="evenodd" d="M116.168 302.592C146.252 318.427 181.958 314.803 223.288 291.721C291.856 253.428 311.159 228.308 377.604 278.847C444.05 329.386 492.883 282.057 546.511 244.449C569.832 228.095 603.281 215.32 635.884 214.619C676.043 265.648 700 330.027 700 400.001C700 453.743 685.869 504.185 661.119 547.813C394.642 519.556 211.626 498.459 112.071 484.521C104.214 457.713 100 429.349 100 400.001C100 365.903 105.688 333.135 116.168 302.592Z" fill="url(#paint1_linear_1411:44907)"/>
<path fill-rule="evenodd" clip-rule="evenodd" d="M612.44 321.511L527.372 256.988L506.22 223.641L472.53 247.23L410.866 369.074L626.849 385.041L612.44 321.511Z" fill="url(#paint2_linear_1411:44907)"/>
<path opacity="0.1" d="M400.5 485C460.975 485 510 435.975 510 375.5C510 315.025 460.975 266 400.5 266C340.025 266 291 315.025 291 375.5C291 435.975 340.025 485 400.5 485Z" fill="url(#paint3_linear_1411:44907)"/>
<path d="M400 448C440.317 448 473 415.317 473 375C473 334.683 440.317 302 400 302C359.683 302 327 334.683 327 375C327 415.317 359.683 448 400 448Z" fill="url(#paint4_linear_1411:44907)"/>
<path fill-rule="evenodd" clip-rule="evenodd" d="M528.883 344.981L495.476 279.434L506.22 223.641L472.53 247.23L410.866 369.074L626.849 385.041L528.883 344.981Z" fill="url(#paint5_linear_1411:44907)"/>
<path fill-rule="evenodd" clip-rule="evenodd" d="M160.348 437.748C147.235 382.514 149.859 335.119 168.218 295.563L165.208 292.936C139.904 328.678 129.336 370.83 133.504 419.393L148.257 431.504L160.348 437.748Z" fill="url(#paint6_linear_1411:44907)"/>
<path fill-rule="evenodd" clip-rule="evenodd" d="M160.347 437.747C147.235 382.513 149.858 335.118 168.218 295.562C146.907 331.586 140.253 376.899 148.257 431.503C148.257 431.503 152.287 433.585 160.347 437.747Z" fill="url(#paint7_linear_1411:44907)"/>
<path fill-rule="evenodd" clip-rule="evenodd" d="M165.046 295.591C175.559 303.874 180.002 311.823 178.376 319.439C184.022 316.711 186.845 312.785 186.845 307.66C186.845 299.972 178.031 291.106 166.132 293.858L165.628 294.717L165.046 295.591Z" fill="url(#paint8_linear_1411:44907)"/>
<path fill-rule="evenodd" clip-rule="evenodd" d="M164.258 292.275C180.981 282.588 193.515 284.7 201.859 298.614C192.087 294.859 184.244 293.543 178.332 294.665C172.42 295.787 167.696 295.457 164.16 293.674L164.258 292.275Z" fill="url(#paint9_linear_1411:44907)"/>
<path fill-rule="evenodd" clip-rule="evenodd" d="M165.187 296.016C166.005 285.365 169.047 278.107 174.312 274.241C179.577 270.375 187.237 271.451 197.29 277.47C184.17 278.85 175.815 282.721 172.226 289.082C168.637 295.443 166.29 297.755 165.187 296.016Z" fill="url(#paint10_linear_1411:44907)"/>
<path fill-rule="evenodd" clip-rule="evenodd" d="M164.538 292.85C157.346 279.681 149.806 275.395 141.918 279.991C144.124 272.603 148.408 268.989 154.769 269.148C161.131 269.306 165.176 277.313 166.904 293.167L164.538 292.85Z" fill="url(#paint11_linear_1411:44907)"/>
<path fill-rule="evenodd" clip-rule="evenodd" d="M164.478 295.052C152.478 291.191 144.42 294.333 140.305 304.48C136.641 296.327 138.453 290.212 145.744 286.136C153.034 282.06 160.265 284.73 167.436 294.145L164.478 295.052Z" fill="url(#paint12_linear_1411:44907)"/>
<path d="M164 297C165.657 297 167 295.657 167 294C167 292.343 165.657 291 164 291C162.343 291 161 292.343 161 294C161 295.657 162.343 297 164 297Z" fill="url(#paint13_linear_1411:44907)"/>
<path d="M168 298C169.657 298 171 296.657 171 295C171 293.343 169.657 292 168 292C166.343 292 165 293.343 165 295C165 296.657 166.343 298 168 298Z" fill="url(#paint14_linear_1411:44907)"/>
<path fill-rule="evenodd" clip-rule="evenodd" d="M666.48 262.066C687.899 303.362 700 350.268 700 400C700 421.725 697.691 442.911 693.304 463.325C667.883 462.576 652.439 460.022 646.974 455.665C636.465 447.287 554.141 419.771 400 373.116C461.394 348.595 504.937 331.929 530.629 323.116L606.775 262.441L637.945 275.922L666.48 262.066Z" fill="url(#paint15_linear_1411:44907)"/>
<path fill-rule="evenodd" clip-rule="evenodd" d="M670.397 269.896C689.368 309.253 700 353.385 700 400.001C700 421.726 697.691 442.912 693.304 463.326C667.883 462.577 652.439 460.023 646.974 455.666C636.465 447.288 554.141 419.772 400 373.117L549.473 347.678L639.893 358.056L634.534 309.571L670.397 269.896Z" fill="url(#paint16_linear_1411:44907)"/>
<path fill-rule="evenodd" clip-rule="evenodd" d="M103.27 355.552C179.817 342.495 271.332 347.362 377.815 370.153C254.163 409.922 165.505 447.782 111.841 483.734C104.132 457.158 100 429.061 100 400C100 384.897 101.116 370.055 103.27 355.552Z" fill="url(#paint17_linear_1411:44907)"/>
<path fill-rule="evenodd" clip-rule="evenodd" d="M263.314 460.107L250.817 454.722L235.255 443.669C227.71 395.516 235.312 352.729 258.061 315.309L261.247 317.72C245.691 358.46 246.38 405.922 263.314 460.107Z" fill="url(#paint18_linear_1411:44907)"/>
<path fill-rule="evenodd" clip-rule="evenodd" d="M263.314 460.108C254.983 456.518 250.817 454.723 250.817 454.723C239.024 400.81 242.501 355.143 261.247 317.721C245.691 358.461 246.38 405.923 263.314 460.108Z" fill="url(#paint19_linear_1411:44907)"/>
<path fill-rule="evenodd" clip-rule="evenodd" d="M258.084 317.97L258.604 317.058L259.047 316.166C270.725 312.59 280.136 320.82 280.672 328.489C281.03 333.601 278.488 337.715 273.046 340.83C274.137 333.12 269.149 325.5 258.084 317.97Z" fill="url(#paint20_linear_1411:44907)"/>
<path fill-rule="evenodd" clip-rule="evenodd" d="M258.901 315.783C271.812 301.401 284.385 299.537 296.621 310.191C286.167 309.64 278.301 310.812 273.025 313.706C267.749 316.6 263.154 317.746 259.241 317.143L258.901 315.783Z" fill="url(#paint21_linear_1411:44907)"/>
<path fill-rule="evenodd" clip-rule="evenodd" d="M258.288 317.62C256.874 307.032 258.34 299.299 262.686 294.423C267.033 289.546 274.749 289.007 285.834 292.804C273.287 296.882 265.92 302.405 263.732 309.373C261.544 316.342 259.729 319.091 258.288 317.62Z" fill="url(#paint22_linear_1411:44907)"/>
<path fill-rule="evenodd" clip-rule="evenodd" d="M257.387 315.271C249.294 302.637 241.473 298.887 233.925 304.021C235.61 296.498 239.631 292.594 245.989 292.308C252.346 292.023 256.939 299.728 259.769 315.422L257.387 315.271Z" fill="url(#paint23_linear_1411:44907)"/>
<path fill-rule="evenodd" clip-rule="evenodd" d="M257.48 317.471C245.24 314.456 237.422 318.153 234.024 328.562C229.8 320.685 231.182 314.459 238.17 309.884C245.158 305.309 252.557 307.468 260.368 316.36L257.48 317.471Z" fill="url(#paint24_linear_1411:44907)"/>
<path d="M256.93 319.457C258.587 319.457 259.93 318.114 259.93 316.457C259.93 314.8 258.587 313.457 256.93 313.457C255.273 313.457 253.93 314.8 253.93 316.457C253.93 318.114 255.273 319.457 256.93 319.457Z" fill="url(#paint25_linear_1411:44907)"/>
<path d="M260.99 320.176C262.647 320.176 263.99 318.833 263.99 317.176C263.99 315.519 262.647 314.176 260.99 314.176C259.333 314.176 257.99 315.519 257.99 317.176C257.99 318.833 259.333 320.176 260.99 320.176Z" fill="url(#paint26_linear_1411:44907)"/>
<path fill-rule="evenodd" clip-rule="evenodd" d="M101.689 432.021C107.424 422.751 118.098 417.06 133.712 414.947C175.059 409.353 164.199 362.112 217.446 369.248C270.693 376.383 335.983 367.142 377.287 370.273L270.701 455.628L105.88 459.398C104.075 450.411 102.671 441.279 101.689 432.021Z" fill="url(#paint27_linear_1411:44907)"/>
<path fill-rule="evenodd" clip-rule="evenodd" d="M103.896 448.474C284.151 351.598 482.561 343.13 699.126 423.069C687.347 577.976 557.924 700.001 400 700.001C250.818 700.001 127.068 591.11 103.896 448.474Z" fill="url(#paint28_linear_1411:44907)"/>
<path fill-rule="evenodd" clip-rule="evenodd" d="M276.132 673.314C305.759 655.992 325.611 618.823 333.66 568.443C352.438 450.908 400.312 409.174 545.978 450.654C634.528 475.869 685.208 470.547 698.016 434.688C680.821 584.033 553.953 699.999 400 699.999C355.831 699.999 313.892 690.454 276.132 673.314V673.314Z" fill="url(#paint29_linear_1411:44907)"/>
<path fill-rule="evenodd" clip-rule="evenodd" d="M144.693 557.618C149.173 522.449 175.368 497.354 223.278 482.335C322.928 451.095 347.808 362.915 434.016 401.67C491.488 427.507 532.437 444.714 556.863 453.291C445.622 421.916 380.511 436.641 361.529 497.465C337.746 573.677 325.156 655.663 284.928 677.138C226.604 652.893 177.58 610.774 144.693 557.618Z" fill="url(#paint30_linear_1411:44907)"/>
<path fill-rule="evenodd" clip-rule="evenodd" d="M284.665 677.029C360.658 684.964 370.182 606.82 424.128 606.82C478.194 606.82 546.417 620.856 572.452 556.929C587.817 519.202 627.156 491.997 690.468 475.314C657.056 604.547 539.675 700.001 400 700.001C359.131 700.001 320.171 691.829 284.665 677.029H284.665Z" fill="url(#paint31_linear_1411:44907)"/>
<path fill-rule="evenodd" clip-rule="evenodd" d="M189 209.879C195.152 194.424 204.559 187.981 217.221 190.549C236.214 194.4 230.639 211.228 254.18 199.939C277.721 188.651 296 209.879 296 209.879C296 209.879 260.333 209.879 189 209.879Z" fill="url(#paint32_linear_1411:44907)"/>
<path fill-rule="evenodd" clip-rule="evenodd" d="M543.417 166.557C462.472 166.557 422 166.557 422 166.557C422 166.557 442.741 142.469 469.454 155.279C496.168 168.088 489.842 148.993 511.393 144.623C525.761 141.709 536.435 149.021 543.417 166.557Z" fill="url(#paint33_linear_1411:44907)"/>
<defs>
<linearGradient id="paint0_linear_1411:44907" x1="329.605" y1="100" x2="271.045" y2="641.492" gradientUnits="userSpaceOnUse">
<stop stop-color="#EEFFFD"/>
<stop offset="1" stop-color="#B7FFF6"/>
</linearGradient>
<linearGradient id="paint1_linear_1411:44907" x1="329.605" y1="329.84" x2="335.403" y2="355.826" gradientUnits="userSpaceOnUse">
<stop stop-color="#EEFFFD"/>
<stop offset="1" stop-color="#B7FFF6"/>
</linearGradient>
<linearGradient id="paint2_linear_1411:44907" x1="541.9" y1="271.764" x2="504.346" y2="373.971" gradientUnits="userSpaceOnUse">
<stop stop-color="#30A0DE"/>
<stop offset="1" stop-color="#194383"/>
</linearGradient>
<linearGradient id="paint3_linear_1411:44907" x1="400.5" y1="266" x2="383.971" y2="420.844" gradientUnits="userSpaceOnUse">
<stop stop-color="#F9BB49"/>
<stop offset="1" stop-color="#F08523"/>
</linearGradient>
<linearGradient id="paint4_linear_1411:44907" x1="400" y1="302" x2="388.98" y2="405.229" gradientUnits="userSpaceOnUse">
<stop stop-color="#F9BB49"/>
<stop offset="1" stop-color="#F08523"/>
</linearGradient>
<linearGradient id="paint5_linear_1411:44907" x1="510.328" y1="281.892" x2="490.658" y2="386.795" gradientUnits="userSpaceOnUse">
<stop stop-color="#30A0DE"/>
<stop offset="1" stop-color="#194383"/>
</linearGradient>
<linearGradient id="paint6_linear_1411:44907" x1="150.258" y1="392.193" x2="141.209" y2="284.761" gradientUnits="userSpaceOnUse">
<stop stop-color="#DB593D"/>
<stop offset="1" stop-color="#F88461"/>
</linearGradient>
<linearGradient id="paint7_linear_1411:44907" x1="156.534" y1="356.017" x2="165.077" y2="287.442" gradientUnits="userSpaceOnUse">
<stop stop-color="#CD4C30"/>
<stop offset="1" stop-color="#F88461" stop-opacity="0"/>
</linearGradient>
<linearGradient id="paint8_linear_1411:44907" x1="170.901" y1="323.289" x2="176.988" y2="299.429" gradientUnits="userSpaceOnUse">
<stop stop-color="#13DBBF"/>
<stop offset="1" stop-color="#08B58B"/>
</linearGradient>
<linearGradient id="paint9_linear_1411:44907" x1="170.511" y1="293.311" x2="176.127" y2="287.309" gradientUnits="userSpaceOnUse">
<stop stop-color="#13DBBF"/>
<stop offset="1" stop-color="#08B58B"/>
</linearGradient>
<linearGradient id="paint10_linear_1411:44907" x1="200.177" y1="275.98" x2="174.188" y2="291.257" gradientUnits="userSpaceOnUse">
<stop stop-color="#13DBBF"/>
<stop offset="1" stop-color="#08B58B"/>
</linearGradient>
<linearGradient id="paint11_linear_1411:44907" x1="146.127" y1="295.537" x2="152.748" y2="274.691" gradientUnits="userSpaceOnUse">
<stop stop-color="#13DBBF"/>
<stop offset="1" stop-color="#08B58B"/>
</linearGradient>
<linearGradient id="paint12_linear_1411:44907" x1="170.511" y1="300.739" x2="149.791" y2="281.407" gradientUnits="userSpaceOnUse">
<stop stop-color="#13DBBF"/>
<stop offset="1" stop-color="#08B58B"/>
</linearGradient>
<linearGradient id="paint13_linear_1411:44907" x1="160.574" y1="293.032" x2="165.62" y2="295.565" gradientUnits="userSpaceOnUse">
<stop stop-color="#E3F35C"/>
<stop offset="1" stop-color="#C3E22F"/>
</linearGradient>
<linearGradient id="paint14_linear_1411:44907" x1="164.574" y1="294.032" x2="169.62" y2="296.565" gradientUnits="userSpaceOnUse">
<stop stop-color="#E3F35C"/>
<stop offset="1" stop-color="#C3E22F"/>
</linearGradient>
<linearGradient id="paint15_linear_1411:44907" x1="575.142" y1="326.311" x2="529.737" y2="436.225" gradientUnits="userSpaceOnUse">
<stop stop-color="#30A0DE"/>
<stop offset="1" stop-color="#194383"/>
</linearGradient>
<linearGradient id="paint16_linear_1411:44907" x1="568.789" y1="352.847" x2="531.929" y2="436.457" gradientUnits="userSpaceOnUse">
<stop stop-color="#30A0DE"/>
<stop offset="1" stop-color="#194383"/>
</linearGradient>
<linearGradient id="paint17_linear_1411:44907" x1="368.884" y1="400.025" x2="214.068" y2="476.897" gradientUnits="userSpaceOnUse">
<stop stop-color="#68C179"/>
<stop offset="1" stop-color="#25A062"/>
</linearGradient>
<linearGradient id="paint18_linear_1411:44907" x1="247.77" y1="414.557" x2="239.909" y2="306.967" gradientUnits="userSpaceOnUse">
<stop stop-color="#DB593D"/>
<stop offset="1" stop-color="#F88461"/>
</linearGradient>
<linearGradient id="paint19_linear_1411:44907" x1="253.613" y1="378.262" x2="260.751" y2="309.276" gradientUnits="userSpaceOnUse">
<stop stop-color="#CD4C30"/>
<stop offset="1" stop-color="#F88461" stop-opacity="0"/>
</linearGradient>
<linearGradient id="paint20_linear_1411:44907" x1="263.505" y1="344.596" x2="269.846" y2="321.165" gradientUnits="userSpaceOnUse">
<stop stop-color="#13DBBF"/>
<stop offset="1" stop-color="#08B58B"/>
</linearGradient>
<linearGradient id="paint21_linear_1411:44907" x1="265.256" y1="311.569" x2="270.487" y2="305.253" gradientUnits="userSpaceOnUse">
<stop stop-color="#13DBBF"/>
<stop offset="1" stop-color="#08B58B"/>
</linearGradient>
<linearGradient id="paint22_linear_1411:44907" x1="288.357" y1="288.681" x2="263.188" y2="307.73" gradientUnits="userSpaceOnUse">
<stop stop-color="#13DBBF"/>
<stop offset="1" stop-color="#08B58B"/>
</linearGradient>
<linearGradient id="paint23_linear_1411:44907" x1="238.279" y1="315.846" x2="244.317" y2="298.156" gradientUnits="userSpaceOnUse">
<stop stop-color="#13DBBF"/>
<stop offset="1" stop-color="#08B58B"/>
</linearGradient>
<linearGradient id="paint24_linear_1411:44907" x1="263.418" y1="325.336" x2="242.554" y2="304.912" gradientUnits="userSpaceOnUse">
<stop stop-color="#13DBBF"/>
<stop offset="1" stop-color="#08B58B"/>
</linearGradient>
<linearGradient id="paint25_linear_1411:44907" x1="253.504" y1="315.489" x2="258.55" y2="318.022" gradientUnits="userSpaceOnUse">
<stop stop-color="#E3F35C"/>
<stop offset="1" stop-color="#C3E22F"/>
</linearGradient>
<linearGradient id="paint26_linear_1411:44907" x1="257.564" y1="316.208" x2="262.61" y2="318.741" gradientUnits="userSpaceOnUse">
<stop stop-color="#E3F35C"/>
<stop offset="1" stop-color="#C3E22F"/>
</linearGradient>
<linearGradient id="paint27_linear_1411:44907" x1="354.259" y1="409.442" x2="226.69" y2="441.839" gradientUnits="userSpaceOnUse">
<stop stop-color="#68C179"/>
<stop offset="1" stop-color="#25A062"/>
</linearGradient>
<linearGradient id="paint28_linear_1411:44907" x1="426.227" y1="459.301" x2="345.946" y2="634.568" gradientUnits="userSpaceOnUse">
<stop stop-color="#77EBFF"/>
<stop offset="1" stop-color="#4D86DE"/>
</linearGradient>
<linearGradient id="paint29_linear_1411:44907" x1="689.356" y1="514.88" x2="340.91" y2="813.935" gradientUnits="userSpaceOnUse">
<stop stop-color="#91F6FF"/>
<stop offset="1" stop-color="#4D86DE"/>
</linearGradient>
<linearGradient id="paint30_linear_1411:44907" x1="401.661" y1="426.146" x2="287.591" y2="692.54" gradientUnits="userSpaceOnUse">
<stop stop-color="#77EBFF"/>
<stop offset="1" stop-color="#4D86DE"/>
</linearGradient>
<linearGradient id="paint31_linear_1411:44907" x1="552.338" y1="559.416" x2="317.634" y2="789.237" gradientUnits="userSpaceOnUse">
<stop stop-color="#91F6FF"/>
<stop offset="1" stop-color="#4D86DE"/>
</linearGradient>
<linearGradient id="paint32_linear_1411:44907" x1="255.999" y1="199.596" x2="188.416" y2="222.557" gradientUnits="userSpaceOnUse">
<stop stop-color="#C1FFF7"/>
<stop offset="1" stop-color="#93E9DE"/>
</linearGradient>
<linearGradient id="paint33_linear_1411:44907" x1="498.026" y1="154.889" x2="421.337" y2="180.944" gradientUnits="userSpaceOnUse">
<stop stop-color="#C1FFF7"/>
<stop offset="1" stop-color="#93E9DE"/>
</linearGradient>
</defs>
</svg>
