<svg width="800" height="800" viewBox="0 0 800 800" fill="none" xmlns="http://www.w3.org/2000/svg">
<path d="M400 700C565.685 700 700 565.685 700 400C700 234.315 565.685 100 400 100C234.315 100 100 234.315 100 400C100 565.685 234.315 700 400 700Z" fill="url(#paint0_linear_1411:44910)"/>
<path d="M400 700C565.685 700 700 565.685 700 400C700 234.315 565.685 100 400 100C234.315 100 100 234.315 100 400C100 565.685 234.315 700 400 700Z" fill="url(#paint1_linear_1411:44910)"/>
<path d="M400 700C565.685 700 700 565.685 700 400C700 234.315 565.685 100 400 100C234.315 100 100 234.315 100 400C100 565.685 234.315 700 400 700Z" fill="url(#paint2_linear_1411:44910)"/>
<path fill-rule="evenodd" clip-rule="evenodd" d="M115.538 351.85C108.346 338.681 100.806 334.395 92.918 338.991C95.1239 331.603 99.4078 327.989 105.769 328.148C112.131 328.306 116.176 336.313 117.904 352.167L115.538 351.85Z" fill="url(#paint3_linear_1411:44910)"/>
<path fill-rule="evenodd" clip-rule="evenodd" d="M115.478 354.052C103.478 350.191 95.4204 353.333 91.305 363.48C87.6405 355.327 89.4535 349.212 96.7438 345.136C104.034 341.06 111.265 343.73 118.436 353.145L115.478 354.052Z" fill="url(#paint4_linear_1411:44910)"/>
<path fill-rule="evenodd" clip-rule="evenodd" d="M103.639 446.867C101.244 431.596 100 415.944 100 400.001C100 392.693 100.261 385.446 100.775 378.27C105.101 369.136 110.245 360.358 116.208 351.936L119.218 354.563C106.644 381.654 101.451 412.422 103.639 446.867Z" fill="url(#paint5_linear_1411:44910)"/>
<path fill-rule="evenodd" clip-rule="evenodd" d="M103.639 446.866C101.507 433.275 100.287 419.381 100.045 405.25C103.815 386.692 110.205 369.797 119.218 354.562C106.644 381.653 101.451 412.421 103.639 446.866Z" fill="url(#paint6_linear_1411:44910)"/>
<path fill-rule="evenodd" clip-rule="evenodd" d="M100.938 423.897C152.535 375.643 221.474 367.677 307.756 399.999C446.553 451.993 494.388 422.578 560.357 385.459C607.45 358.962 641.682 335.83 694.844 344.323C698.229 362.364 700 380.975 700 399.999C700 565.684 565.685 699.999 400 699.999C242.358 699.999 113.116 578.41 100.938 423.897Z" fill="url(#paint7_linear_1411:44910)"/>
<path fill-rule="evenodd" clip-rule="evenodd" d="M101.581 430.987C120.805 418.129 146.512 413.722 178.703 417.767C279.077 430.381 290.827 431.415 361.383 376.02C431.939 320.626 489.746 317.209 578.91 367.488C627.025 394.621 666.835 394.866 698.337 368.226C699.436 378.667 700 389.268 700 400C700 565.685 565.685 700 400 700C244.777 700 117.088 582.113 101.581 430.987Z" fill="url(#paint8_linear_1411:44910)"/>
<path fill-rule="evenodd" clip-rule="evenodd" d="M128.346 272.537C176.266 170.585 279.89 100 400 100C561.167 100 692.651 227.089 699.702 386.517C669.355 405.751 617.641 393.256 544.561 349.033C381.982 250.652 348.548 206.419 248.277 268.457C205.133 295.15 165.156 296.51 128.346 272.537L128.346 272.537Z" fill="url(#paint9_linear_1411:44910)"/>
<path fill-rule="evenodd" clip-rule="evenodd" d="M234.12 502.858C281.243 558.963 333.161 556.213 389.874 494.609C474.943 402.204 595.184 424.042 687.317 486.784L518.438 560.681C356.652 621.639 275.758 650 275.758 645.763C275.758 639.407 215.732 583.062 215.732 575.157C215.732 569.887 221.861 545.787 234.12 502.858Z" fill="url(#paint10_linear_1411:44910)"/>
<path fill-rule="evenodd" clip-rule="evenodd" d="M101.584 431.023C157.288 411.788 199.244 431.351 227.451 489.712C275.47 589.061 366.294 641.47 446.383 545.731C502.569 478.566 607.599 462.161 687.297 486.647C650.119 610.088 535.56 700 400 700C244.79 700 117.109 582.132 101.584 431.023H101.584Z" fill="url(#paint11_linear_1411:44910)"/>
<path fill-rule="evenodd" clip-rule="evenodd" d="M617.761 606.35C563.088 664.027 485.745 699.999 400 699.999C308.445 699.999 226.47 658.987 171.442 594.332C214.891 585.298 260.99 596.668 309.74 628.44C406.74 691.66 440.353 673.281 504.199 628.44C539.75 603.472 580.408 599.273 617.761 606.35Z" fill="url(#paint12_linear_1411:44910)"/>
<path fill-rule="evenodd" clip-rule="evenodd" d="M669.244 532.469C651.019 569.441 625.403 602.116 594.325 628.564C545.975 577.686 555.84 500.507 584.663 417.621C608.295 349.661 596.479 290.675 549.214 240.663L569.742 228.627C633.772 269.522 660.521 332.52 649.986 417.621C643.433 470.563 649.852 508.846 669.244 532.469V532.469Z" fill="url(#paint13_linear_1411:44910)"/>
<path fill-rule="evenodd" clip-rule="evenodd" d="M669.244 532.47C660.424 550.362 649.873 567.248 637.809 582.909C616.231 563.091 603.218 529.524 619.791 469.334C650.078 359.338 643.713 345.285 629.3 289.377C649.348 324.328 656.243 367.076 649.987 417.622C643.433 470.564 649.852 508.846 669.244 532.47V532.47Z" fill="url(#paint14_linear_1411:44910)"/>
<path fill-rule="evenodd" clip-rule="evenodd" d="M572.561 242.325C502.892 296.153 481.173 347.044 507.404 394.997C466.455 399.08 441.875 382.398 433.665 344.952C421.349 288.782 510.551 221.467 578.168 234.737L572.561 242.325Z" fill="url(#paint15_linear_1411:44910)"/>
<path fill-rule="evenodd" clip-rule="evenodd" d="M473.98 141.157C459.369 139.509 449.91 135.895 445.602 130.316C439.141 121.948 425.969 109.586 410.893 119.951C395.817 130.316 388.341 134.98 368.088 123.094C354.585 115.171 340.556 121.192 326 141.157H473.98Z" fill="url(#paint16_linear_1411:44910)"/>
<path fill-rule="evenodd" clip-rule="evenodd" d="M562.723 249.946C458.428 237.855 402.418 261.228 394.692 320.064C346.127 262.381 358.085 224.944 430.565 207.752C492.741 193.005 543.531 203.405 579.765 235.186C573.014 242.281 573.014 242.281 562.723 249.946Z" fill="url(#paint17_linear_1411:44910)"/>
<path fill-rule="evenodd" clip-rule="evenodd" d="M568.123 245.731C617.57 206.826 662.004 194.885 701.427 209.909C709.841 167.11 691.378 148.675 646.04 154.604C600.701 160.533 571.354 188.254 558 237.768L568.123 245.731Z" fill="url(#paint18_linear_1411:44910)"/>
<path fill-rule="evenodd" clip-rule="evenodd" d="M378.361 194.105C437.439 164.393 494.575 180.076 549.769 241.153L571.405 229.375C550.373 173.503 518.954 142.27 477.146 135.677C435.338 129.083 402.41 148.559 378.361 194.105Z" fill="url(#paint19_linear_1411:44910)"/>
<path fill-rule="evenodd" clip-rule="evenodd" d="M572.332 222.436C576.636 156.137 604.755 121.492 656.689 118.502C644.232 88.2247 620.611 79.1012 585.826 91.131C533.649 109.176 527.864 188.836 554.725 236.876L572.123 229.351L572.332 222.436Z" fill="url(#paint20_linear_1411:44910)"/>
<path d="M553.5 278C567.583 278 579 266.583 579 252.5C579 238.417 567.583 227 553.5 227C539.417 227 528 238.417 528 252.5C528 266.583 539.417 278 553.5 278Z" fill="url(#paint21_linear_1411:44910)"/>
<path d="M578 251C590.15 251 600 241.15 600 229C600 216.85 590.15 207 578 207C565.85 207 556 216.85 556 229C556 241.15 565.85 251 578 251Z" fill="url(#paint22_linear_1411:44910)"/>
<path fill-rule="evenodd" clip-rule="evenodd" d="M175 217.354C179.624 199.785 189.823 191 205.597 191C229.258 191 227.439 221.668 257.602 204.078C287.765 186.487 290.47 217.354 313 217.354H175Z" fill="url(#paint23_linear_1411:44910)"/>
<path fill-rule="evenodd" clip-rule="evenodd" d="M193.358 532.899C197.286 521.883 208.703 516.375 227.61 516.375C255.97 516.375 261.862 527.478 261.862 532.899C261.862 540.507 250.444 544.311 227.61 544.311C204.775 544.311 193.358 540.507 193.358 532.899Z" fill="url(#paint24_linear_1411:44910)"/>
<path fill-rule="evenodd" clip-rule="evenodd" d="M282 591.804C284.568 584.601 292.033 581 304.395 581C322.938 581 326.79 588.26 326.79 591.804C326.79 596.778 319.325 599.265 304.395 599.265C289.465 599.265 282 596.778 282 591.804Z" fill="url(#paint25_linear_1411:44910)"/>
<path fill-rule="evenodd" clip-rule="evenodd" d="M116.045 354.591C126.558 362.874 131.002 370.823 129.376 378.439C135.021 375.711 137.844 371.785 137.844 366.66C137.844 358.972 129.031 350.106 117.132 352.858L116.628 353.717L116.045 354.591Z" fill="url(#paint26_linear_1411:44910)"/>
<path fill-rule="evenodd" clip-rule="evenodd" d="M117.013 352.465C130.896 339.019 143.568 338.037 155.031 349.518C144.64 348.24 136.713 348.86 131.247 351.379C125.782 353.898 121.119 354.72 117.257 353.846L117.013 352.465Z" fill="url(#paint27_linear_1411:44910)"/>
<path fill-rule="evenodd" clip-rule="evenodd" d="M116.273 354.255C115.601 343.594 117.603 335.982 122.279 331.421C126.955 326.86 134.69 326.86 145.483 331.421C132.683 334.613 124.948 339.609 122.279 346.408C119.61 353.207 117.608 355.822 116.273 354.255Z" fill="url(#paint28_linear_1411:44910)"/>
<path d="M115 356C116.657 356 118 354.657 118 353C118 351.343 116.657 350 115 350C113.343 350 112 351.343 112 353C112 354.657 113.343 356 115 356Z" fill="url(#paint29_linear_1411:44910)"/>
<path d="M119 357C120.657 357 122 355.657 122 354C122 352.343 120.657 351 119 351C117.343 351 116 352.343 116 354C116 355.657 117.343 357 119 357Z" fill="url(#paint30_linear_1411:44910)"/>
<defs>
<linearGradient id="paint0_linear_1411:44910" x1="370.855" y1="168.494" x2="191.013" y2="400" gradientUnits="userSpaceOnUse">
<stop stop-color="#C1FFF7"/>
<stop offset="1" stop-color="#93E9DE"/>
</linearGradient>
<linearGradient id="paint1_linear_1411:44910" x1="370.855" y1="168.494" x2="191.013" y2="400" gradientUnits="userSpaceOnUse">
<stop stop-color="#C1FFF7"/>
<stop offset="1" stop-color="#93E9DE"/>
</linearGradient>
<linearGradient id="paint2_linear_1411:44910" x1="370.855" y1="168.494" x2="191.013" y2="400" gradientUnits="userSpaceOnUse">
<stop stop-color="#C1FFF7"/>
<stop offset="1" stop-color="#93E9DE"/>
</linearGradient>
<linearGradient id="paint3_linear_1411:44910" x1="97.1274" y1="354.537" x2="103.748" y2="333.691" gradientUnits="userSpaceOnUse">
<stop stop-color="#13DBBF"/>
<stop offset="1" stop-color="#08B58B"/>
</linearGradient>
<linearGradient id="paint4_linear_1411:44910" x1="94.3468" y1="359.736" x2="99.0327" y2="349.041" gradientUnits="userSpaceOnUse">
<stop stop-color="#13DBBF"/>
<stop offset="1" stop-color="#08B58B"/>
</linearGradient>
<linearGradient id="paint5_linear_1411:44910" x1="109.55" y1="417.004" x2="104.655" y2="346.433" gradientUnits="userSpaceOnUse">
<stop stop-color="#DB593D"/>
<stop offset="1" stop-color="#F88461"/>
</linearGradient>
<linearGradient id="paint6_linear_1411:44910" x1="110.141" y1="368.353" x2="81.3144" y2="418.183" gradientUnits="userSpaceOnUse">
<stop stop-color="#CD4C30"/>
<stop offset="1" stop-color="#F88461" stop-opacity="0"/>
</linearGradient>
<linearGradient id="paint7_linear_1411:44910" x1="418.31" y1="448.017" x2="390.64" y2="601.662" gradientUnits="userSpaceOnUse">
<stop stop-color="#77EBFF"/>
<stop offset="1" stop-color="#4D86DE"/>
</linearGradient>
<linearGradient id="paint8_linear_1411:44910" x1="474.988" y1="451.481" x2="467.976" y2="517.194" gradientUnits="userSpaceOnUse">
<stop stop-color="#5A93EA"/>
<stop offset="1" stop-color="#3768B4"/>
</linearGradient>
<linearGradient id="paint9_linear_1411:44910" x1="373.913" y1="264.912" x2="423.981" y2="191.192" gradientUnits="userSpaceOnUse">
<stop stop-color="#D3FFFA"/>
<stop offset="1" stop-color="#B7FFF6"/>
</linearGradient>
<linearGradient id="paint10_linear_1411:44910" x1="422.664" y1="510.062" x2="427.269" y2="541.64" gradientUnits="userSpaceOnUse">
<stop stop-color="#5A93EA"/>
<stop offset="1" stop-color="#3768B4"/>
</linearGradient>
<linearGradient id="paint11_linear_1411:44910" x1="394.441" y1="531.25" x2="382.939" y2="582.048" gradientUnits="userSpaceOnUse">
<stop stop-color="#F9BB49"/>
<stop offset="1" stop-color="#F08523"/>
</linearGradient>
<linearGradient id="paint12_linear_1411:44910" x1="394.602" y1="642.445" x2="387.495" y2="658.653" gradientUnits="userSpaceOnUse">
<stop stop-color="#F9BB49"/>
<stop offset="1" stop-color="#F08523"/>
</linearGradient>
<linearGradient id="paint13_linear_1411:44910" x1="608.422" y1="502.753" x2="578" y2="206.918" gradientUnits="userSpaceOnUse">
<stop stop-color="#DB593D"/>
<stop offset="1" stop-color="#F88461"/>
</linearGradient>
<linearGradient id="paint14_linear_1411:44910" x1="640.348" y1="547.652" x2="637.456" y2="251.242" gradientUnits="userSpaceOnUse">
<stop stop-color="#CD4C30"/>
<stop offset="1" stop-color="#F88461" stop-opacity="0"/>
</linearGradient>
<linearGradient id="paint15_linear_1411:44910" x1="466.574" y1="419.582" x2="507.44" y2="270.226" gradientUnits="userSpaceOnUse">
<stop stop-color="#13DBBF"/>
<stop offset="1" stop-color="#08B58B"/>
</linearGradient>
<linearGradient id="paint16_linear_1411:44910" x1="381.193" y1="128.215" x2="380.651" y2="131.736" gradientUnits="userSpaceOnUse">
<stop stop-color="white"/>
<stop offset="1" stop-color="#CDFFF9"/>
</linearGradient>
<linearGradient id="paint17_linear_1411:44910" x1="778.488" y1="260.616" x2="368.404" y2="218.82" gradientUnits="userSpaceOnUse">
<stop stop-color="#13DBBF"/>
<stop offset="1" stop-color="#08B58B"/>
</linearGradient>
<linearGradient id="paint18_linear_1411:44910" x1="721.152" y1="186.455" x2="593.805" y2="224.396" gradientUnits="userSpaceOnUse">
<stop stop-color="#13DBBF"/>
<stop offset="1" stop-color="#08B58B"/>
</linearGradient>
<linearGradient id="paint19_linear_1411:44910" x1="410.883" y1="208.913" x2="436.583" y2="162.385" gradientUnits="userSpaceOnUse">
<stop stop-color="#13DBBF"/>
<stop offset="1" stop-color="#08B58B"/>
</linearGradient>
<linearGradient id="paint20_linear_1411:44910" x1="555.052" y1="325.206" x2="642.458" y2="98.0817" gradientUnits="userSpaceOnUse">
<stop stop-color="#13DBBF"/>
<stop offset="1" stop-color="#08B58B"/>
</linearGradient>
<linearGradient id="paint21_linear_1411:44910" x1="524.38" y1="244.275" x2="575.341" y2="258.429" gradientUnits="userSpaceOnUse">
<stop stop-color="#E3F35C"/>
<stop offset="1" stop-color="#C3E22F"/>
</linearGradient>
<linearGradient id="paint22_linear_1411:44910" x1="583.328" y1="202.886" x2="563.137" y2="240.437" gradientUnits="userSpaceOnUse">
<stop stop-color="#E3F35C"/>
<stop offset="1" stop-color="#C3E22F"/>
</linearGradient>
<linearGradient id="paint23_linear_1411:44910" x1="226.471" y1="203.696" x2="225.937" y2="207.589" gradientUnits="userSpaceOnUse">
<stop stop-color="white"/>
<stop offset="1" stop-color="#CDFFF9"/>
</linearGradient>
<linearGradient id="paint24_linear_1411:44910" x1="176.888" y1="534.607" x2="246.082" y2="507.037" gradientUnits="userSpaceOnUse">
<stop stop-color="#D85842"/>
<stop offset="1" stop-color="#E45E19"/>
</linearGradient>
<linearGradient id="paint25_linear_1411:44910" x1="271.231" y1="592.921" x2="316.473" y2="574.894" gradientUnits="userSpaceOnUse">
<stop stop-color="#D85842"/>
<stop offset="1" stop-color="#E45E19"/>
</linearGradient>
<linearGradient id="paint26_linear_1411:44910" x1="121.901" y1="382.289" x2="127.988" y2="358.429" gradientUnits="userSpaceOnUse">
<stop stop-color="#13DBBF"/>
<stop offset="1" stop-color="#08B58B"/>
</linearGradient>
<linearGradient id="paint27_linear_1411:44910" x1="123.418" y1="348.781" x2="129.027" y2="342.694" gradientUnits="userSpaceOnUse">
<stop stop-color="#13DBBF"/>
<stop offset="1" stop-color="#08B58B"/>
</linearGradient>
<linearGradient id="paint28_linear_1411:44910" x1="148.121" y1="328.66" x2="123.054" y2="346.156" gradientUnits="userSpaceOnUse">
<stop stop-color="#13DBBF"/>
<stop offset="1" stop-color="#08B58B"/>
</linearGradient>
<linearGradient id="paint29_linear_1411:44910" x1="111.574" y1="352.032" x2="116.62" y2="354.565" gradientUnits="userSpaceOnUse">
<stop stop-color="#E3F35C"/>
<stop offset="1" stop-color="#C3E22F"/>
</linearGradient>
<linearGradient id="paint30_linear_1411:44910" x1="115.574" y1="353.032" x2="120.62" y2="355.565" gradientUnits="userSpaceOnUse">
<stop stop-color="#E3F35C"/>
<stop offset="1" stop-color="#C3E22F"/>
</linearGradient>
</defs>
</svg>
