<svg width="800" height="800" viewBox="0 0 800 800" fill="none" xmlns="http://www.w3.org/2000/svg">
<path d="M400 700C565.685 700 700 565.685 700 400C700 234.315 565.685 100 400 100C234.315 100 100 234.315 100 400C100 565.685 234.315 700 400 700Z" fill="url(#paint0_linear_1411:44396)"/>
<path fill-rule="evenodd" clip-rule="evenodd" d="M102.405 438.17C165.164 420.888 236.39 424.191 316.083 448.08C454.805 489.662 556.959 369.662 673.826 448.08C680.727 452.71 687.279 457.515 693.482 462.494C664.729 598.184 544.255 700 400 700C247.245 700 121.156 585.832 102.405 438.17H102.405Z" fill="url(#paint1_linear_1411:44396)"/>
<path fill-rule="evenodd" clip-rule="evenodd" d="M118.144 502.985C170.291 468.599 223.278 460.441 277.104 478.512C360.545 506.525 406.538 440.735 519.747 506.525C598.521 552.303 640.356 495.078 682.508 501.184C640.992 617.084 530.179 699.999 400 699.999C270.497 699.999 160.159 617.942 118.144 502.985L118.144 502.985Z" fill="url(#paint2_linear_1411:44396)"/>
<path fill-rule="evenodd" clip-rule="evenodd" d="M113.529 489.345C273.706 468.879 264.619 531.544 433.534 553.203C538.838 566.705 624.636 533.635 674.945 520.211C628.604 626.052 522.937 699.999 400 699.999C265.43 699.999 151.554 611.396 113.529 489.345Z" fill="url(#paint3_linear_1411:44396)"/>
<path fill-rule="evenodd" clip-rule="evenodd" d="M210.808 632.835C204.941 628.062 199.259 623.072 193.772 617.877C210.994 610.432 264.796 605 328.5 605C406.096 605 469 613.059 469 623C469 632.941 406.096 641 328.5 641C279.234 641 235.89 637.751 210.808 632.835Z" fill="url(#paint4_linear_1411:44396)"/>
<path opacity="0.2" d="M634 315C688.676 315 733 270.676 733 216C733 161.324 688.676 117 634 117C579.324 117 535 161.324 535 216C535 270.676 579.324 315 634 315Z" fill="url(#paint5_linear_1411:44396)"/>
<path fill-rule="evenodd" clip-rule="evenodd" d="M102.764 359.106C122.71 212.766 248.186 100 400 100C459.07 100 514.152 117.072 560.583 146.551C530.692 163.08 509.4 186.068 496.707 215.516C466.856 284.77 413.202 321.28 311.613 298.267C230.346 279.857 150.004 305.743 102.764 359.106Z" fill="url(#paint6_linear_1411:44396)"/>
<path fill-rule="evenodd" clip-rule="evenodd" d="M75.1802 345.92C78.54 350.154 83.455 353.556 89.9251 356.125C96.3953 358.693 100.886 358.693 103.397 356.125C103.491 360.691 106.079 364.002 111.161 366.057C118.785 369.14 185.868 392.618 196.577 382.884C196.896 387.261 203.157 390.799 215.359 393.497C233.662 397.544 312.277 413.778 317.98 403.637C320.326 408.834 325.54 411.904 333.621 412.849C345.743 414.267 407.332 422.028 414.421 411.495C416.369 414.282 419.559 415.675 423.991 415.675C430.641 415.675 444.829 415.598 447.656 412.849C449.541 411.017 432.602 395.775 396.838 367.124L307.64 325.402L154.443 306.119L75.1802 345.92Z" fill="url(#paint7_linear_1411:44396)"/>
<path fill-rule="evenodd" clip-rule="evenodd" d="M276.301 263.8C276.615 261.613 278.642 260.095 280.829 260.408C283.016 260.722 284.534 262.749 284.22 264.936L278.959 301.605C278.646 303.792 276.619 305.311 274.432 304.997C272.245 304.683 270.727 302.656 271.04 300.469L276.301 263.8ZM261.197 352.664C261.578 350.488 263.651 349.032 265.827 349.413C268.003 349.794 269.458 351.867 269.077 354.043L221.741 624.471C221.36 626.647 219.287 628.102 217.111 627.721C214.935 627.34 213.48 625.267 213.861 623.091L261.197 352.664Z" fill="url(#paint8_linear_1411:44396)"/>
<path fill-rule="evenodd" clip-rule="evenodd" d="M77.9142 334.507C74.2956 337.921 72.4863 341.307 72.4863 344.665C72.4863 349.701 73.3643 349.15 86.9774 349.15C96.0527 349.15 118.695 348.737 154.904 347.912C162.09 347.653 167.39 342.451 170.804 332.304C172.189 346.205 178.205 353.697 188.853 354.78C204.826 356.405 259.307 358.346 297.405 368.716C335.503 379.086 350.219 389.443 358.39 365.443C360.005 375.653 364.963 382.543 373.263 386.113C381.564 389.682 404.551 398.527 442.225 412.649C445.283 414.181 447.514 413.585 448.918 410.862C451.025 406.778 443.436 392.071 435.26 381.22C427.084 370.37 399.472 312.037 320.853 287.449C313.151 278.697 303.449 274.321 291.747 274.321C274.195 274.321 254.69 260.754 234.555 271.563C206.542 270.29 181.96 274.641 160.809 284.616C139.658 294.591 112.026 311.221 77.9142 334.507Z" fill="url(#paint9_linear_1411:44396)"/>
<path fill-rule="evenodd" clip-rule="evenodd" d="M336.342 611.811L311.668 574.679C310.925 573.561 311.233 572.054 312.356 571.314C313.479 570.574 314.992 570.88 315.735 571.999L340.41 609.13C341.153 610.249 340.845 611.756 339.722 612.496C338.599 613.236 337.086 612.929 336.342 611.811Z" fill="url(#paint10_linear_1411:44396)"/>
<path fill-rule="evenodd" clip-rule="evenodd" d="M283.78 626.878C282.874 627.871 281.332 627.944 280.335 627.043C279.339 626.141 279.265 624.605 280.17 623.612L332.014 566.79C332.919 565.797 334.462 565.723 335.459 566.625C336.455 567.527 336.529 569.063 335.623 570.056L283.78 626.878Z" fill="url(#paint11_linear_1411:44396)"/>
<path fill-rule="evenodd" clip-rule="evenodd" d="M352.645 569.627H412.167C407.287 584.95 398.28 592.389 385.145 591.943C385.145 591.943 363.328 591.943 319.693 591.943L352.645 569.627Z" fill="url(#paint12_linear_1411:44396)"/>
<path fill-rule="evenodd" clip-rule="evenodd" d="M274.762 509.207H344.384C350.556 557.523 364.143 585.102 385.145 591.943H319.693C305.69 590.252 295.493 582.137 289.102 567.598C282.712 553.059 277.931 533.595 274.762 509.207Z" fill="url(#paint13_linear_1411:44396)"/>
<path fill-rule="evenodd" clip-rule="evenodd" d="M341.934 513.692C341.199 512.569 341.517 511.064 342.645 510.332C343.774 509.599 345.284 509.917 346.02 511.04L411.114 610.495C411.849 611.618 411.531 613.123 410.402 613.855C409.274 614.588 407.763 614.27 407.028 613.147L341.934 513.692Z" fill="url(#paint14_linear_1411:44396)"/>
<path fill-rule="evenodd" clip-rule="evenodd" d="M360.091 627.202C359.185 628.195 357.643 628.269 356.646 627.367C355.649 626.465 355.575 624.929 356.481 623.936L408.324 567.114C409.23 566.121 410.772 566.048 411.769 566.95C412.766 567.852 412.84 569.387 411.934 570.38L360.091 627.202Z" fill="url(#paint15_linear_1411:44396)"/>
<path opacity="0.2" d="M634 315C688.676 315 733 270.676 733 216C733 161.324 688.676 117 634 117C579.324 117 535 161.324 535 216C535 270.676 579.324 315 634 315Z" fill="url(#paint16_linear_1411:44396)"/>
<path d="M634 286C672.66 286 704 254.66 704 216C704 177.34 672.66 146 634 146C595.34 146 564 177.34 564 216C564 254.66 595.34 286 634 286Z" fill="url(#paint17_linear_1411:44396)"/>
<defs>
<linearGradient id="paint0_linear_1411:44396" x1="370.855" y1="168.494" x2="191.013" y2="400" gradientUnits="userSpaceOnUse">
<stop stop-color="#C1FFF7"/>
<stop offset="1" stop-color="#93E9DE"/>
</linearGradient>
<linearGradient id="paint1_linear_1411:44396" x1="471.231" y1="531.539" x2="411.497" y2="613.344" gradientUnits="userSpaceOnUse">
<stop stop-color="#5A93EA"/>
<stop offset="1" stop-color="#3768B4"/>
</linearGradient>
<linearGradient id="paint2_linear_1411:44396" x1="365.788" y1="558.899" x2="318.759" y2="626.385" gradientUnits="userSpaceOnUse">
<stop stop-color="#5A93EA"/>
<stop offset="1" stop-color="#3768B4"/>
</linearGradient>
<linearGradient id="paint3_linear_1411:44396" x1="394.237" y1="576.946" x2="385.425" y2="608.517" gradientUnits="userSpaceOnUse">
<stop stop-color="#F9BB49"/>
<stop offset="1" stop-color="#F08523"/>
</linearGradient>
<linearGradient id="paint4_linear_1411:44396" x1="287.823" y1="641" x2="287.823" y2="605" gradientUnits="userSpaceOnUse">
<stop stop-color="#E87E1E" stop-opacity="0"/>
<stop offset="1" stop-color="#F07023"/>
</linearGradient>
<linearGradient id="paint5_linear_1411:44396" x1="634" y1="117" x2="619.056" y2="256.996" gradientUnits="userSpaceOnUse">
<stop stop-color="#F9BB49"/>
<stop offset="1" stop-color="#F08523"/>
</linearGradient>
<linearGradient id="paint6_linear_1411:44396" x1="362.151" y1="246.113" x2="305.249" y2="149.94" gradientUnits="userSpaceOnUse">
<stop stop-color="#D3FFFA"/>
<stop offset="1" stop-color="#B7FFF6"/>
</linearGradient>
<linearGradient id="paint7_linear_1411:44396" x1="257.036" y1="364.538" x2="258.98" y2="353.545" gradientUnits="userSpaceOnUse">
<stop stop-color="#5A93EA"/>
<stop offset="1" stop-color="#3768B4"/>
</linearGradient>
<linearGradient id="paint8_linear_1411:44396" x1="248.837" y1="512.202" x2="230.881" y2="238.947" gradientUnits="userSpaceOnUse">
<stop stop-color="#DB593D"/>
<stop offset="1" stop-color="#F88461"/>
</linearGradient>
<linearGradient id="paint9_linear_1411:44396" x1="272.102" y1="327.789" x2="266.954" y2="355.271" gradientUnits="userSpaceOnUse">
<stop stop-color="#77EBFF"/>
<stop offset="1" stop-color="#4D86DE"/>
</linearGradient>
<linearGradient id="paint10_linear_1411:44396" x1="324.946" y1="599.691" x2="317.594" y2="569.202" gradientUnits="userSpaceOnUse">
<stop stop-color="#DB593D"/>
<stop offset="1" stop-color="#F88461"/>
</linearGradient>
<linearGradient id="paint11_linear_1411:44396" x1="304.318" y1="608.271" x2="290.005" y2="562.85" gradientUnits="userSpaceOnUse">
<stop stop-color="#DB593D"/>
<stop offset="1" stop-color="#F88461"/>
</linearGradient>
<linearGradient id="paint12_linear_1411:44396" x1="364.825" y1="581.195" x2="365.245" y2="579.268" gradientUnits="userSpaceOnUse">
<stop stop-color="#5A93EA"/>
<stop offset="1" stop-color="#3768B4"/>
</linearGradient>
<linearGradient id="paint13_linear_1411:44396" x1="333.241" y1="523.823" x2="328.477" y2="572.988" gradientUnits="userSpaceOnUse">
<stop stop-color="#77EBFF"/>
<stop offset="1" stop-color="#4D86DE"/>
</linearGradient>
<linearGradient id="paint14_linear_1411:44396" x1="374.174" y1="581.435" x2="356.763" y2="505.684" gradientUnits="userSpaceOnUse">
<stop stop-color="#DB593D"/>
<stop offset="1" stop-color="#F88461"/>
</linearGradient>
<linearGradient id="paint15_linear_1411:44396" x1="380.628" y1="608.595" x2="366.316" y2="563.174" gradientUnits="userSpaceOnUse">
<stop stop-color="#DB593D"/>
<stop offset="1" stop-color="#F88461"/>
</linearGradient>
<linearGradient id="paint16_linear_1411:44396" x1="634" y1="117" x2="619.056" y2="256.996" gradientUnits="userSpaceOnUse">
<stop stop-color="#F9BB49"/>
<stop offset="1" stop-color="#F08523"/>
</linearGradient>
<linearGradient id="paint17_linear_1411:44396" x1="634" y1="146" x2="623.433" y2="244.987" gradientUnits="userSpaceOnUse">
<stop stop-color="#F9BB49"/>
<stop offset="1" stop-color="#F08523"/>
</linearGradient>
</defs>
</svg>
