<svg width="800" height="800" viewBox="0 0 800 800" fill="none" xmlns="http://www.w3.org/2000/svg">
<path d="M400 700C565.685 700 700 565.685 700 400C700 234.315 565.685 100 400 100C234.315 100 100 234.315 100 400C100 565.685 234.315 700 400 700Z" fill="url(#paint0_linear_1411:44904)"/>
<path fill-rule="evenodd" clip-rule="evenodd" d="M233.582 150.351C246.233 141.901 259.563 134.387 273.472 127.908H433.841L233.582 150.351Z" fill="url(#paint1_linear_1411:44904)"/>
<path fill-rule="evenodd" clip-rule="evenodd" d="M484.148 199.42C481.834 199.42 443.202 201.016 368.252 204.208L546.779 220.631C507.339 206.49 486.462 199.42 484.148 199.42Z" fill="url(#paint2_linear_1411:44904)"/>
<path fill-rule="evenodd" clip-rule="evenodd" d="M370.267 300.207L480.2 126.855L509.688 142.64H542.251L681.472 316.26L502.374 370.186L360.262 328.917L370.267 300.207Z" fill="url(#paint3_linear_1411:44904)"/>
<path fill-rule="evenodd" clip-rule="evenodd" d="M438.126 342.459L502.374 292.531L486.91 208.745L529.441 173.728L509.688 142.639H542.25L681.471 316.259L502.374 370.185L438.126 342.459Z" fill="url(#paint4_linear_1411:44904)"/>
<path fill-rule="evenodd" clip-rule="evenodd" d="M100.007 397.914C189.864 313.575 251.143 262.291 283.844 244.061L347.906 246.561L474.653 364.044L312.835 462.99H106.624C102.284 442.679 100 421.606 100 399.999C100 399.304 100.002 398.608 100.007 397.914V397.914Z" fill="url(#paint5_linear_1411:44904)"/>
<path fill-rule="evenodd" clip-rule="evenodd" d="M106.624 462.989C105.698 458.656 104.865 454.287 104.129 449.887L142.845 438.979L283.132 294.758L347.906 246.561L474.653 364.044L312.835 462.989H106.624Z" fill="url(#paint6_linear_1411:44904)"/>
<path fill-rule="evenodd" clip-rule="evenodd" d="M313.454 356.312H322.148L323.352 407.879H312.25L313.454 356.312Z" fill="url(#paint7_linear_1411:44904)"/>
<path fill-rule="evenodd" clip-rule="evenodd" d="M286.862 366.458L316.775 361.815L349.883 366.458L343.224 332.66C325.591 327.44 316.775 324.83 316.775 324.83C316.775 324.83 308.579 328.207 292.186 334.962L286.862 366.458Z" fill="url(#paint8_linear_1411:44904)"/>
<path fill-rule="evenodd" clip-rule="evenodd" d="M346.06 347.049L344.967 341.504L330.362 343.69L346.06 347.049Z" fill="url(#paint9_linear_1411:44904)"/>
<path fill-rule="evenodd" clip-rule="evenodd" d="M286.913 337.357L317.057 330.89L349.487 337.357L344.746 308.06L317.057 296.338L291.53 305.438L288.117 329.035H291.53L287.675 332.088L286.913 337.357Z" fill="url(#paint10_linear_1411:44904)"/>
<path fill-rule="evenodd" clip-rule="evenodd" d="M285.15 308.921L316.77 302.479L349.57 308.921L346.586 296.245L334.651 293.45H345.928L317.36 172.072L299.868 246.39H309.894L298.238 253.317L285.15 308.921Z" fill="url(#paint11_linear_1411:44904)"/>
<path fill-rule="evenodd" clip-rule="evenodd" d="M119 373H128V428H119V373Z" fill="url(#paint12_linear_1411:44904)"/>
<path fill-rule="evenodd" clip-rule="evenodd" d="M132.143 264.752L157 388.999L122.377 382.146L100.29 386.681C102.2 342.957 113.469 301.663 132.143 264.752Z" fill="url(#paint13_linear_1411:44904)"/>
<path fill-rule="evenodd" clip-rule="evenodd" d="M239 353H248V408H239V353Z" fill="url(#paint14_linear_1411:44904)"/>
<path fill-rule="evenodd" clip-rule="evenodd" d="M209 369L242.378 362.147L277 369L242.19 195L209 369Z" fill="url(#paint15_linear_1411:44904)"/>
<path fill-rule="evenodd" clip-rule="evenodd" d="M101.797 433.026C134.417 408.904 182.538 401.017 246.158 409.364C376.271 426.437 407.563 301.744 547.701 301.744C599.659 301.744 638.016 286.211 662.774 255.145C686.497 298.088 700 347.467 700 399.999C700 565.685 565.685 699.999 400 699.999C245.476 699.999 118.239 583.172 101.797 433.026Z" fill="url(#paint16_linear_1411:44904)"/>
<path fill-rule="evenodd" clip-rule="evenodd" d="M106.771 463.671C125.92 452.858 152.284 457.085 167.778 464.957C188.067 475.265 210.585 474.186 260.752 456.487C294.197 444.688 327.249 458.114 359.908 496.766C324.23 491.761 300.137 497.975 287.629 515.41C268.867 541.562 243.526 545.937 192.57 539.333C164.367 535.677 150.177 544.959 142.762 554.453C126.114 526.785 113.803 496.21 106.771 463.671H106.771Z" fill="url(#paint17_linear_1411:44904)"/>
<path fill-rule="evenodd" clip-rule="evenodd" d="M650.594 359.207C615.017 345.184 585.904 345.184 563.255 359.207C540.606 373.231 513.163 377.515 480.926 372.06L486.336 415.504L663.24 411.292L650.594 359.207Z" fill="url(#paint18_linear_1411:44904)"/>
<path fill-rule="evenodd" clip-rule="evenodd" d="M634 587.751C629.833 592.938 625.497 597.984 621 602.879V550H634V587.751Z" fill="url(#paint19_linear_1411:44904)"/>
<path fill-rule="evenodd" clip-rule="evenodd" d="M667.693 535.57C662.188 546.419 656.042 556.888 649.307 566.928L626.121 562.351L579 572L625.856 327L667.693 535.57Z" fill="url(#paint20_linear_1411:44904)"/>
<path fill-rule="evenodd" clip-rule="evenodd" d="M414 699.679C409.69 699.877 405.356 699.984 401 699.998V660H414V699.679Z" fill="url(#paint21_linear_1411:44904)"/>
<path fill-rule="evenodd" clip-rule="evenodd" d="M359 682L406.121 672.351L455 682L405.856 437L359 682Z" fill="url(#paint22_linear_1411:44904)"/>
<path fill-rule="evenodd" clip-rule="evenodd" d="M253 661.578C250.307 660.061 247.64 658.504 245 656.908V643H253V661.578Z" fill="url(#paint23_linear_1411:44904)"/>
<path fill-rule="evenodd" clip-rule="evenodd" d="M221.095 640.841L248.261 499L280 657L248.432 650.777L238.434 652.822C232.509 649.027 226.726 645.03 221.095 640.841H221.095Z" fill="url(#paint24_linear_1411:44904)"/>
<path fill-rule="evenodd" clip-rule="evenodd" d="M684.724 494.77C679.705 509.856 673.52 524.409 666.277 538.324V471.926H684.724V494.77V494.77Z" fill="url(#paint25_linear_1411:44904)"/>
<path fill-rule="evenodd" clip-rule="evenodd" d="M698.808 426.921C697.09 446.244 693.539 465.039 688.332 483.133L673.796 481.09L624.095 488.821L632.94 436.372L673.796 419.5L698.808 426.921Z" fill="url(#paint26_linear_1411:44904)"/>
<path fill-rule="evenodd" clip-rule="evenodd" d="M699.513 382.768C699.836 388.471 700 394.216 700 399.999C700 411.615 699.339 423.076 698.055 434.347L674.263 429.592L624.178 440.361L625.444 431.588L631.848 426.504H626.177L631.848 387.208L674.263 372.055L699.513 382.768Z" fill="url(#paint27_linear_1411:44904)"/>
<path fill-rule="evenodd" clip-rule="evenodd" d="M656.26 243.932C681.96 286.041 697.573 334.979 699.74 387.389L673.789 382.28L621.251 393.008L642.996 300.413L662.363 288.877H645.705L656.26 243.932Z" fill="url(#paint28_linear_1411:44904)"/>
<path fill-rule="evenodd" clip-rule="evenodd" d="M579.712 640.238C575.854 643.128 571.925 645.928 567.927 648.634V604.027H579.712V640.238Z" fill="url(#paint29_linear_1411:44904)"/>
<path fill-rule="evenodd" clip-rule="evenodd" d="M540.978 614.817L572.731 609.879L607.876 614.817L600.808 578.871C582.09 573.319 572.731 570.543 572.731 570.543C572.731 570.543 564.03 574.135 546.629 581.319L540.978 614.817Z" fill="url(#paint30_linear_1411:44904)"/>
<path fill-rule="evenodd" clip-rule="evenodd" d="M603.818 594.177L602.658 588.279L587.154 590.605L603.818 594.177Z" fill="url(#paint31_linear_1411:44904)"/>
<path fill-rule="evenodd" clip-rule="evenodd" d="M541.03 583.868L573.029 576.99L607.455 583.868L602.422 552.709L573.029 540.242L545.931 549.92L542.308 575.018H545.931L541.839 578.265L541.03 583.868Z" fill="url(#paint32_linear_1411:44904)"/>
<path fill-rule="evenodd" clip-rule="evenodd" d="M539.16 553.623L572.726 546.772L607.544 553.623L604.376 540.141L591.707 537.168H603.678L573.352 408.076L554.784 487.117H565.426L553.053 494.485L539.16 553.623Z" fill="url(#paint33_linear_1411:44904)"/>
<path fill-rule="evenodd" clip-rule="evenodd" d="M191.719 615.914L200.125 612.898L223.554 622.882L227.147 645.227C214.592 636.362 202.749 626.557 191.719 615.914Z" fill="url(#paint34_linear_1411:44904)"/>
<path fill-rule="evenodd" clip-rule="evenodd" d="M178.185 601.987L184.201 576.257L194.064 570.356H185.581L200.382 507.061L224.555 610.437H215.012L225.111 612.818L227.636 623.614L199.883 618.127L195.084 619.111C189.226 613.631 183.588 607.918 178.185 601.987Z" fill="url(#paint35_linear_1411:44904)"/>
<path fill-rule="evenodd" clip-rule="evenodd" d="M303 683.972C299.3 682.708 295.633 681.375 292 679.972V650H303V683.972Z" fill="url(#paint36_linear_1411:44904)"/>
<path fill-rule="evenodd" clip-rule="evenodd" d="M268 659L296.954 654.539L329 659L322.555 626.524C305.487 621.508 296.954 619 296.954 619C296.954 619 289.02 622.245 273.153 628.735L268 659Z" fill="url(#paint37_linear_1411:44904)"/>
<path fill-rule="evenodd" clip-rule="evenodd" d="M325 640L323.956 635L310 636.971L325 640Z" fill="url(#paint38_linear_1411:44904)"/>
<path fill-rule="evenodd" clip-rule="evenodd" d="M268 632L297.386 625.694L329 632L324.378 603.431L297.386 592L272.5 600.874L269.173 623.885H272.5L268.743 626.862L268 632Z" fill="url(#paint39_linear_1411:44904)"/>
<path fill-rule="evenodd" clip-rule="evenodd" d="M266 604L296.432 597.739L328 604L325.128 591.68L313.641 588.964H324.495L297 471L280.165 543.227H289.814L278.596 549.96L266 604Z" fill="url(#paint40_linear_1411:44904)"/>
<path fill-rule="evenodd" clip-rule="evenodd" d="M491.724 685.718C485.657 687.664 479.506 689.422 473.277 690.985V633.926H491.724V685.718V685.718Z" fill="url(#paint41_linear_1411:44904)"/>
<path fill-rule="evenodd" clip-rule="evenodd" d="M431.095 650.821L480.796 643.09L535.806 650.821L524.742 594.539C495.444 585.846 480.796 581.5 480.796 581.5C480.796 581.5 467.177 587.124 439.94 598.372L431.095 650.821Z" fill="url(#paint42_linear_1411:44904)"/>
<path fill-rule="evenodd" clip-rule="evenodd" d="M529.453 618.504L527.638 609.27L503.371 612.91L529.453 618.504Z" fill="url(#paint43_linear_1411:44904)"/>
<path fill-rule="evenodd" clip-rule="evenodd" d="M431.178 602.361L481.263 591.592L535.147 602.361L527.269 553.575L481.263 534.055L438.848 549.208L433.177 588.504H438.848L432.444 593.588L431.178 602.361Z" fill="url(#paint44_linear_1411:44904)"/>
<path fill-rule="evenodd" clip-rule="evenodd" d="M428.251 555.01L480.789 544.282L535.286 555.01L530.328 533.9L510.497 529.246H529.235L481.768 327.121L452.705 450.878H469.363L449.996 462.415L428.251 555.01Z" fill="url(#paint45_linear_1411:44904)"/>
<path fill-rule="evenodd" clip-rule="evenodd" d="M173.276 340.926H187.723L189.256 406.386C185.245 406.595 182.022 406.792 179.588 406.977C177.153 407.162 174.56 407.407 171.809 407.713L173.276 340.926Z" fill="url(#paint46_linear_1411:44904)"/>
<path fill-rule="evenodd" clip-rule="evenodd" d="M129.095 357.821L178.796 350.09L233.806 357.821L222.742 301.539C193.444 292.846 178.796 288.5 178.796 288.5C178.796 288.5 165.177 294.124 137.94 305.372L129.095 357.821Z" fill="url(#paint47_linear_1411:44904)"/>
<path fill-rule="evenodd" clip-rule="evenodd" d="M227.453 325.504L225.638 316.27L201.371 319.91L227.453 325.504Z" fill="url(#paint48_linear_1411:44904)"/>
<path fill-rule="evenodd" clip-rule="evenodd" d="M129.178 309.361L179.263 298.592L233.147 309.361L225.269 260.575L179.263 241.055L136.848 256.208L131.177 295.504H136.848L130.444 300.588L129.178 309.361Z" fill="url(#paint49_linear_1411:44904)"/>
<path fill-rule="evenodd" clip-rule="evenodd" d="M126.251 262.009L178.789 251.281L233.286 262.009L228.328 240.899L208.497 236.245H227.235L179.768 34.1201L150.705 157.877H167.363L147.996 169.414L126.251 262.009Z" fill="url(#paint50_linear_1411:44904)"/>
<path d="M373.5 402C375.433 402 377 400.433 377 398.5C377 396.567 375.433 395 373.5 395C371.567 395 370 396.567 370 398.5C370 400.433 371.567 402 373.5 402Z" fill="url(#paint51_linear_1411:44904)"/>
<path opacity="0.3" d="M163.5 142C165.433 142 167 140.433 167 138.5C167 136.567 165.433 135 163.5 135C161.567 135 160 136.567 160 138.5C160 140.433 161.567 142 163.5 142Z" fill="url(#paint52_linear_1411:44904)"/>
<path opacity="0.56" d="M433.5 292C435.433 292 437 290.433 437 288.5C437 286.567 435.433 285 433.5 285C431.567 285 430 286.567 430 288.5C430 290.433 431.567 292 433.5 292Z" fill="url(#paint53_linear_1411:44904)"/>
<path opacity="0.56" d="M638.5 365C640.433 365 642 363.433 642 361.5C642 359.567 640.433 358 638.5 358C636.567 358 635 359.567 635 361.5C635 363.433 636.567 365 638.5 365Z" fill="url(#paint54_linear_1411:44904)"/>
<path d="M363.5 222C365.433 222 367 220.433 367 218.5C367 216.567 365.433 215 363.5 215C361.567 215 360 216.567 360 218.5C360 220.433 361.567 222 363.5 222Z" fill="url(#paint55_linear_1411:44904)"/>
<path opacity="0.8" d="M255.5 265C257.433 265 259 263.433 259 261.5C259 259.567 257.433 258 255.5 258C253.567 258 252 259.567 252 261.5C252 263.433 253.567 265 255.5 265Z" fill="url(#paint56_linear_1411:44904)"/>
<path opacity="0.8" d="M563 463C565.761 463 568 460.761 568 458C568 455.239 565.761 453 563 453C560.239 453 558 455.239 558 458C558 460.761 560.239 463 563 463Z" fill="url(#paint57_linear_1411:44904)"/>
<path opacity="0.8" d="M501.5 598C502.881 598 504 596.881 504 595.5C504 594.119 502.881 593 501.5 593C500.119 593 499 594.119 499 595.5C499 596.881 500.119 598 501.5 598Z" fill="url(#paint58_linear_1411:44904)"/>
<path opacity="0.3" d="M193.5 539C194.881 539 196 537.881 196 536.5C196 535.119 194.881 534 193.5 534C192.119 534 191 535.119 191 536.5C191 537.881 192.119 539 193.5 539Z" fill="url(#paint59_linear_1411:44904)"/>
<path opacity="0.6" d="M385 554C387.761 554 390 551.761 390 549C390 546.239 387.761 544 385 544C382.239 544 380 546.239 380 549C380 551.761 382.239 554 385 554Z" fill="url(#paint60_linear_1411:44904)"/>
<path d="M244 463C246.761 463 249 460.761 249 458C249 455.239 246.761 453 244 453C241.239 453 239 455.239 239 458C239 460.761 241.239 463 244 463Z" fill="url(#paint61_linear_1411:44904)"/>
<path d="M274 583C275.657 583 277 581.657 277 580C277 578.343 275.657 577 274 577C272.343 577 271 578.343 271 580C271 581.657 272.343 583 274 583Z" fill="url(#paint62_linear_1411:44904)"/>
<defs>
<linearGradient id="paint0_linear_1411:44904" x1="370.855" y1="168.494" x2="191.013" y2="400" gradientUnits="userSpaceOnUse">
<stop stop-color="#C1FFF7"/>
<stop offset="1" stop-color="#93E9DE"/>
</linearGradient>
<linearGradient id="paint1_linear_1411:44904" x1="408.609" y1="138.863" x2="266.965" y2="159.633" gradientUnits="userSpaceOnUse">
<stop stop-color="#C1FFF7"/>
<stop offset="1" stop-color="#93E9DE"/>
</linearGradient>
<linearGradient id="paint2_linear_1411:44904" x1="448.844" y1="209.91" x2="396.538" y2="217.909" gradientUnits="userSpaceOnUse">
<stop stop-color="#C1FFF7"/>
<stop offset="1" stop-color="#93E9DE"/>
</linearGradient>
<linearGradient id="paint3_linear_1411:44904" x1="530.183" y1="190.78" x2="503.78" y2="339.676" gradientUnits="userSpaceOnUse">
<stop stop-color="#77EBFF"/>
<stop offset="1" stop-color="#4D86DE"/>
</linearGradient>
<linearGradient id="paint4_linear_1411:44904" x1="567.046" y1="141.905" x2="540.879" y2="369.599" gradientUnits="userSpaceOnUse">
<stop stop-color="#77EBFF"/>
<stop offset="1" stop-color="#4D86DE"/>
</linearGradient>
<linearGradient id="paint5_linear_1411:44904" x1="298.484" y1="310.5" x2="281.79" y2="401.281" gradientUnits="userSpaceOnUse">
<stop stop-color="#77EBFF"/>
<stop offset="1" stop-color="#4D86DE"/>
</linearGradient>
<linearGradient id="paint6_linear_1411:44904" x1="302.047" y1="330.451" x2="284.247" y2="403.743" gradientUnits="userSpaceOnUse">
<stop stop-color="#77EBFF"/>
<stop offset="1" stop-color="#4D86DE"/>
</linearGradient>
<linearGradient id="paint7_linear_1411:44904" x1="317.801" y1="298.215" x2="317.801" y2="377.516" gradientUnits="userSpaceOnUse">
<stop stop-color="#77EBFF"/>
<stop offset="1" stop-color="#4D86DE"/>
</linearGradient>
<linearGradient id="paint8_linear_1411:44904" x1="320.89" y1="312.964" x2="318.911" y2="350.587" gradientUnits="userSpaceOnUse">
<stop stop-color="#77EBFF"/>
<stop offset="1" stop-color="#4D86DE"/>
</linearGradient>
<linearGradient id="paint9_linear_1411:44904" x1="355.424" y1="340.349" x2="349.738" y2="350.925" gradientUnits="userSpaceOnUse">
<stop stop-color="#77EBFF"/>
<stop offset="1" stop-color="#4D86DE"/>
</linearGradient>
<linearGradient id="paint10_linear_1411:44904" x1="322.845" y1="278.351" x2="318.728" y2="325.291" gradientUnits="userSpaceOnUse">
<stop stop-color="#77EBFF"/>
<stop offset="1" stop-color="#4D86DE"/>
</linearGradient>
<linearGradient id="paint11_linear_1411:44904" x1="317.785" y1="161.736" x2="309.893" y2="317.747" gradientUnits="userSpaceOnUse">
<stop stop-color="#77EBFF"/>
<stop offset="1" stop-color="#4D86DE"/>
</linearGradient>
<linearGradient id="paint12_linear_1411:44904" x1="123.5" y1="311.035" x2="123.5" y2="395.616" gradientUnits="userSpaceOnUse">
<stop stop-color="#77EBFF"/>
<stop offset="1" stop-color="#4D86DE"/>
</linearGradient>
<linearGradient id="paint13_linear_1411:44904" x1="128.997" y1="255.368" x2="122.049" y2="397.024" gradientUnits="userSpaceOnUse">
<stop stop-color="#77EBFF"/>
<stop offset="1" stop-color="#4D86DE"/>
</linearGradient>
<linearGradient id="paint14_linear_1411:44904" x1="243.5" y1="291.035" x2="243.5" y2="375.616" gradientUnits="userSpaceOnUse">
<stop stop-color="#77EBFF"/>
<stop offset="1" stop-color="#4D86DE"/>
</linearGradient>
<linearGradient id="paint15_linear_1411:44904" x1="243.309" y1="181.858" x2="234.975" y2="380.32" gradientUnits="userSpaceOnUse">
<stop stop-color="#77EBFF"/>
<stop offset="1" stop-color="#4D86DE"/>
</linearGradient>
<linearGradient id="paint16_linear_1411:44904" x1="617.503" y1="381.284" x2="458.023" y2="801.263" gradientUnits="userSpaceOnUse">
<stop stop-color="#91F6FF"/>
<stop offset="1" stop-color="#4D86DE"/>
</linearGradient>
<linearGradient id="paint17_linear_1411:44904" x1="219.687" y1="503.4" x2="219.687" y2="436.453" gradientUnits="userSpaceOnUse">
<stop stop-color="#78CEF3" stop-opacity="0"/>
<stop offset="1" stop-color="#4D86DE"/>
</linearGradient>
<linearGradient id="paint18_linear_1411:44904" x1="562.377" y1="384.156" x2="560.675" y2="372.001" gradientUnits="userSpaceOnUse">
<stop stop-color="#91F6FF" stop-opacity="0"/>
<stop offset="1" stop-color="#4D86DE"/>
</linearGradient>
<linearGradient id="paint19_linear_1411:44904" x1="627.5" y1="490.424" x2="627.5" y2="571.744" gradientUnits="userSpaceOnUse">
<stop stop-color="#77EBFF"/>
<stop offset="1" stop-color="#4D86DE"/>
</linearGradient>
<linearGradient id="paint20_linear_1411:44904" x1="623.693" y1="308.495" x2="612.82" y2="587.988" gradientUnits="userSpaceOnUse">
<stop stop-color="#77EBFF"/>
<stop offset="1" stop-color="#4D86DE"/>
</linearGradient>
<linearGradient id="paint21_linear_1411:44904" x1="407.5" y1="614.936" x2="407.5" y2="676.447" gradientUnits="userSpaceOnUse">
<stop stop-color="#77EBFF"/>
<stop offset="1" stop-color="#4D86DE"/>
</linearGradient>
<linearGradient id="paint22_linear_1411:44904" x1="411.491" y1="419.673" x2="373.909" y2="694.011" gradientUnits="userSpaceOnUse">
<stop stop-color="#7BD3F4"/>
<stop offset="1" stop-color="#4D86DE"/>
</linearGradient>
<linearGradient id="paint23_linear_1411:44904" x1="249" y1="622.07" x2="249" y2="650.639" gradientUnits="userSpaceOnUse">
<stop stop-color="#77EBFF"/>
<stop offset="1" stop-color="#4D86DE"/>
</linearGradient>
<linearGradient id="paint24_linear_1411:44904" x1="253.042" y1="487.826" x2="229.954" y2="664.963" gradientUnits="userSpaceOnUse">
<stop stop-color="#7BD3F4"/>
<stop offset="1" stop-color="#4D86DE"/>
</linearGradient>
<linearGradient id="paint25_linear_1411:44904" x1="675.5" y1="397.12" x2="675.5" y2="499.228" gradientUnits="userSpaceOnUse">
<stop stop-color="#77EBFF"/>
<stop offset="1" stop-color="#4D86DE"/>
</linearGradient>
<linearGradient id="paint26_linear_1411:44904" x1="664.436" y1="346.79" x2="659.822" y2="469.988" gradientUnits="userSpaceOnUse">
<stop stop-color="#77EBFF"/>
<stop offset="1" stop-color="#4D86DE"/>
</linearGradient>
<linearGradient id="paint27_linear_1411:44904" x1="667.718" y1="285.132" x2="658.381" y2="431.423" gradientUnits="userSpaceOnUse">
<stop stop-color="#77EBFF"/>
<stop offset="1" stop-color="#4D86DE"/>
</linearGradient>
<linearGradient id="paint28_linear_1411:44904" x1="661.144" y1="232.672" x2="651.531" y2="402.568" gradientUnits="userSpaceOnUse">
<stop stop-color="#77EBFF"/>
<stop offset="1" stop-color="#4D86DE"/>
</linearGradient>
<linearGradient id="paint29_linear_1411:44904" x1="573.819" y1="553.772" x2="573.819" y2="622.369" gradientUnits="userSpaceOnUse">
<stop stop-color="#77EBFF"/>
<stop offset="1" stop-color="#4D86DE"/>
</linearGradient>
<linearGradient id="paint30_linear_1411:44904" x1="574.427" y1="545.525" x2="573.496" y2="597.835" gradientUnits="userSpaceOnUse">
<stop stop-color="#77EBFF"/>
<stop offset="1" stop-color="#4D86DE"/>
</linearGradient>
<linearGradient id="paint31_linear_1411:44904" x1="613.759" y1="587.035" x2="607.726" y2="598.276" gradientUnits="userSpaceOnUse">
<stop stop-color="#77EBFF"/>
<stop offset="1" stop-color="#4D86DE"/>
</linearGradient>
<linearGradient id="paint32_linear_1411:44904" x1="579.088" y1="498.384" x2="574.762" y2="570.905" gradientUnits="userSpaceOnUse">
<stop stop-color="#77EBFF"/>
<stop offset="1" stop-color="#4D86DE"/>
</linearGradient>
<linearGradient id="paint33_linear_1411:44904" x1="573.801" y1="397.083" x2="565.424" y2="563.011" gradientUnits="userSpaceOnUse">
<stop stop-color="#77EBFF"/>
<stop offset="1" stop-color="#4D86DE"/>
</linearGradient>
<linearGradient id="paint34_linear_1411:44904" x1="212.017" y1="537.976" x2="207.581" y2="641.279" gradientUnits="userSpaceOnUse">
<stop stop-color="#77EBFF"/>
<stop offset="1" stop-color="#4D86DE"/>
</linearGradient>
<linearGradient id="paint35_linear_1411:44904" x1="204.598" y1="437.528" x2="190.683" y2="630.574" gradientUnits="userSpaceOnUse">
<stop stop-color="#77EBFF"/>
<stop offset="1" stop-color="#4D86DE"/>
</linearGradient>
<linearGradient id="paint36_linear_1411:44904" x1="297.5" y1="611.726" x2="297.5" y2="663.969" gradientUnits="userSpaceOnUse">
<stop stop-color="#77EBFF"/>
<stop offset="1" stop-color="#4D86DE"/>
</linearGradient>
<linearGradient id="paint37_linear_1411:44904" x1="298.5" y1="597.174" x2="297.666" y2="643.574" gradientUnits="userSpaceOnUse">
<stop stop-color="#77EBFF"/>
<stop offset="1" stop-color="#4D86DE"/>
</linearGradient>
<linearGradient id="paint38_linear_1411:44904" x1="333.949" y1="634.347" x2="328.38" y2="644.119" gradientUnits="userSpaceOnUse">
<stop stop-color="#77EBFF"/>
<stop offset="1" stop-color="#4D86DE"/>
</linearGradient>
<linearGradient id="paint39_linear_1411:44904" x1="302.95" y1="553.805" x2="298.989" y2="620.091" gradientUnits="userSpaceOnUse">
<stop stop-color="#77EBFF"/>
<stop offset="1" stop-color="#4D86DE"/>
</linearGradient>
<linearGradient id="paint40_linear_1411:44904" x1="299.555" y1="391.656" x2="282.119" y2="611.8" gradientUnits="userSpaceOnUse">
<stop stop-color="#77EBFF"/>
<stop offset="1" stop-color="#4D86DE"/>
</linearGradient>
<linearGradient id="paint41_linear_1411:44904" x1="482.5" y1="569.64" x2="482.5" y2="657.388" gradientUnits="userSpaceOnUse">
<stop stop-color="#77EBFF"/>
<stop offset="1" stop-color="#4D86DE"/>
</linearGradient>
<linearGradient id="paint42_linear_1411:44904" x1="491.939" y1="538.579" x2="486.736" y2="624.604" gradientUnits="userSpaceOnUse">
<stop stop-color="#77EBFF"/>
<stop offset="1" stop-color="#4D86DE"/>
</linearGradient>
<linearGradient id="paint43_linear_1411:44904" x1="545.013" y1="607.317" x2="535.571" y2="624.916" gradientUnits="userSpaceOnUse">
<stop stop-color="#77EBFF"/>
<stop offset="1" stop-color="#4D86DE"/>
</linearGradient>
<linearGradient id="paint44_linear_1411:44904" x1="493.432" y1="490.38" x2="485.451" y2="582.441" gradientUnits="userSpaceOnUse">
<stop stop-color="#77EBFF"/>
<stop offset="1" stop-color="#4D86DE"/>
</linearGradient>
<linearGradient id="paint45_linear_1411:44904" x1="482.472" y1="309.909" x2="469.359" y2="569.708" gradientUnits="userSpaceOnUse">
<stop stop-color="#77EBFF"/>
<stop offset="1" stop-color="#4D86DE"/>
</linearGradient>
<linearGradient id="paint46_linear_1411:44904" x1="180.532" y1="265.681" x2="180.532" y2="368.388" gradientUnits="userSpaceOnUse">
<stop stop-color="#77EBFF"/>
<stop offset="1" stop-color="#4D86DE"/>
</linearGradient>
<linearGradient id="paint47_linear_1411:44904" x1="185.634" y1="268.497" x2="182.331" y2="331.425" gradientUnits="userSpaceOnUse">
<stop stop-color="#77EBFF"/>
<stop offset="1" stop-color="#4D86DE"/>
</linearGradient>
<linearGradient id="paint48_linear_1411:44904" x1="243.013" y1="314.317" x2="233.571" y2="331.916" gradientUnits="userSpaceOnUse">
<stop stop-color="#77EBFF"/>
<stop offset="1" stop-color="#4D86DE"/>
</linearGradient>
<linearGradient id="paint49_linear_1411:44904" x1="188.881" y1="210.815" x2="182.01" y2="289.323" gradientUnits="userSpaceOnUse">
<stop stop-color="#77EBFF"/>
<stop offset="1" stop-color="#4D86DE"/>
</linearGradient>
<linearGradient id="paint50_linear_1411:44904" x1="180.472" y1="16.9078" x2="167.359" y2="276.707" gradientUnits="userSpaceOnUse">
<stop stop-color="#77EBFF"/>
<stop offset="1" stop-color="#4D86DE"/>
</linearGradient>
<linearGradient id="paint51_linear_1411:44904" x1="370" y1="396.526" x2="377" y2="402" gradientUnits="userSpaceOnUse">
<stop stop-color="#CBF1FF"/>
<stop offset="1" stop-color="#7BD2F4"/>
</linearGradient>
<linearGradient id="paint52_linear_1411:44904" x1="160" y1="136.526" x2="167" y2="142" gradientUnits="userSpaceOnUse">
<stop stop-color="#CBF1FF"/>
<stop offset="1" stop-color="#7BD2F4"/>
</linearGradient>
<linearGradient id="paint53_linear_1411:44904" x1="430" y1="286.526" x2="437" y2="292" gradientUnits="userSpaceOnUse">
<stop stop-color="#CBF1FF"/>
<stop offset="1" stop-color="#7BD2F4"/>
</linearGradient>
<linearGradient id="paint54_linear_1411:44904" x1="635" y1="359.526" x2="642" y2="365" gradientUnits="userSpaceOnUse">
<stop stop-color="#CBF1FF"/>
<stop offset="1" stop-color="#7BD2F4"/>
</linearGradient>
<linearGradient id="paint55_linear_1411:44904" x1="360" y1="216.526" x2="372.54" y2="227.637" gradientUnits="userSpaceOnUse">
<stop stop-color="#E4FFFC"/>
<stop offset="1" stop-color="#B8FBF3"/>
</linearGradient>
<linearGradient id="paint56_linear_1411:44904" x1="252" y1="259.526" x2="264.54" y2="270.637" gradientUnits="userSpaceOnUse">
<stop stop-color="#E4FFFC"/>
<stop offset="1" stop-color="#B8FBF3"/>
</linearGradient>
<linearGradient id="paint57_linear_1411:44904" x1="558" y1="455.179" x2="568" y2="463" gradientUnits="userSpaceOnUse">
<stop stop-color="#CBF1FF"/>
<stop offset="1" stop-color="#7BD2F4"/>
</linearGradient>
<linearGradient id="paint58_linear_1411:44904" x1="499" y1="594.09" x2="504" y2="598" gradientUnits="userSpaceOnUse">
<stop stop-color="#CBF1FF"/>
<stop offset="1" stop-color="#7BD2F4"/>
</linearGradient>
<linearGradient id="paint59_linear_1411:44904" x1="191" y1="535.09" x2="196" y2="539" gradientUnits="userSpaceOnUse">
<stop stop-color="#CBF1FF"/>
<stop offset="1" stop-color="#7BD2F4"/>
</linearGradient>
<linearGradient id="paint60_linear_1411:44904" x1="380" y1="546.179" x2="390" y2="554" gradientUnits="userSpaceOnUse">
<stop stop-color="#CBF1FF"/>
<stop offset="1" stop-color="#7BD2F4"/>
</linearGradient>
<linearGradient id="paint61_linear_1411:44904" x1="239" y1="455.179" x2="249" y2="463" gradientUnits="userSpaceOnUse">
<stop stop-color="#CBF1FF"/>
<stop offset="1" stop-color="#7BD2F4"/>
</linearGradient>
<linearGradient id="paint62_linear_1411:44904" x1="271" y1="578.308" x2="277" y2="583" gradientUnits="userSpaceOnUse">
<stop stop-color="#CBF1FF"/>
<stop offset="1" stop-color="#7BD2F4"/>
</linearGradient>
</defs>
</svg>
