<svg width="800" height="800" viewBox="0 0 800 800" fill="none" xmlns="http://www.w3.org/2000/svg">
<path d="M400 700C565.685 700 700 565.685 700 400C700 234.315 565.685 100 400 100C234.315 100 100 234.315 100 400C100 565.685 234.315 700 400 700Z" fill="url(#paint0_linear_1411:44906)"/>
<path fill-rule="evenodd" clip-rule="evenodd" d="M101.546 369.361C111.332 272.893 166.823 189.933 246.025 142.476C262.013 135.286 278.525 129.468 283.241 126.356C290.525 121.548 305.704 122.911 315.43 117.847C325.157 112.784 339.319 112.62 351.372 116.456C363.424 120.292 368.846 119.526 378.401 116.456C387.955 113.386 398.95 116.164 411.092 117.847C423.234 119.531 421.403 128.646 429.742 137.251C438.081 145.855 434.337 153.818 432.987 162.25C431.636 170.682 421.892 181.934 411.092 180.571C400.292 179.208 397.065 193.1 387.402 196.083C377.738 199.067 378.936 202.113 373.451 211.619C367.966 221.126 364.818 224.468 358.17 216.398C351.522 208.329 345.373 209.066 345.373 198.98C345.373 188.893 336.966 189.477 336.966 178.247C336.966 167.016 350.238 171.603 339.319 162.25C328.4 152.897 340.889 157.832 336.966 145.576C333.042 133.32 325.383 142.45 317.86 142.45C310.337 142.45 309.328 137.1 301.304 142.45C293.281 147.799 289.411 155.224 295.331 155.224C301.252 155.224 295.331 168.023 303.025 168.023C310.718 168.023 303.025 178.984 311.077 184.289C319.128 189.593 308.538 193.1 303.025 193.1C297.512 193.1 299.866 206.782 295.331 204.176C290.797 201.569 286.446 213.242 280.744 209.066C275.041 204.891 273.221 205.059 269.368 198.98C265.515 192.9 264.568 194.049 271.244 189.477C277.92 184.905 273.221 181.257 267.132 175.957C261.042 170.657 258.469 178.139 251.494 186C244.519 193.86 246.707 189.27 246.707 198.98C246.707 208.689 239.94 205.909 232.015 202.113C224.089 198.316 218.665 205.909 210.502 213.242C202.34 220.575 198.13 227.493 204.188 232.183C210.245 236.873 206.87 239.14 217.065 244.306C227.261 249.471 220.566 258.695 226.366 251.166C232.167 243.636 232.195 241.132 239.94 237.257C247.684 233.381 242.363 226.408 246.707 213.242C251.05 200.076 268.224 208.745 271.244 217.959C274.264 227.173 278.405 229.758 286.446 224.468C294.487 219.178 297.934 225.511 297.934 237.257C297.934 249.002 304.122 251.445 315.43 253.585C326.739 255.724 318.11 267.877 315.43 272.955C312.751 278.032 323.575 276.737 326.838 286.503C330.102 296.269 312.426 290.138 305.704 284.674C298.982 279.21 295.595 283.506 301.304 276.737C307.014 269.968 294.09 273.751 286.446 276.737C278.802 279.724 278.864 273.751 275.957 280.881C273.05 288.011 271.813 292.366 280.744 292.366C289.674 292.366 291.276 293.919 286.446 298.898C281.616 303.878 267.478 308.119 264.568 303C261.658 297.882 262.533 299.677 254.184 304.818C245.835 309.958 246.823 311.785 244.432 320.566C242.041 329.347 236.746 321.109 228.045 326.055C219.345 331.002 218.665 336.84 218.665 346.162C218.665 355.484 212.725 353.115 202.332 362.448C191.94 371.781 199.265 378.472 202.332 387.163C205.4 395.854 199.265 407.43 195.319 398.115C191.374 388.799 186.673 387.762 186.673 378.472C186.673 369.182 174.592 372.216 168.548 378.472C162.504 384.728 156.268 374.125 144.471 385.008C132.675 395.891 144.471 413.572 144.471 422.501C144.471 431.429 156.591 431.115 165.337 422.501C174.084 413.886 175.552 429.762 171.785 436.758C168.019 443.755 175.552 444.501 186.673 444.501C197.794 444.501 194.262 455.246 191.891 463.279C189.52 471.312 195.679 473.513 202.332 471.323C208.985 469.132 213.091 473.513 218.665 469.683C224.239 465.852 225.481 464.739 239.94 464.739C254.399 464.739 244.179 459.634 254.184 464.739C264.189 469.844 266.544 468.049 280.744 469.683C294.944 471.316 297.075 474.411 299.866 483.56C302.657 492.71 317.243 490.261 325.383 490.261C333.524 490.261 339.319 503.86 339.319 509.187C339.319 514.514 338.962 517.125 347.857 515.219C356.751 513.312 358.17 523.491 366.161 521.312C374.152 519.133 378.544 529.043 387.402 526.76C396.26 524.478 391.55 535.793 403.346 539.266C415.143 542.739 396.833 561.71 389.899 564.025C382.965 566.34 390.379 576.599 387.402 586.055C384.425 595.512 383.81 588.863 380.545 599.842C377.28 610.821 366.224 605.137 358.17 607.783C350.116 610.429 353.315 631.188 343.888 637.235C334.461 643.282 347.226 639.491 334.323 649.624C321.419 659.756 334.323 662.771 334.323 673.468C334.323 680.599 340.653 686.144 353.315 690.103C349.676 691.242 343.345 690.196 334.323 686.965C320.788 682.119 315.43 669.614 303.025 653.824C290.619 638.033 286.446 639.071 286.446 627.862C286.446 616.654 275.957 618.724 273.734 595.194C271.511 571.664 259.653 577.256 244.432 573.225C229.21 569.194 228.045 552.577 218.665 539.266C209.284 525.956 207.85 526.76 214.218 511.906C220.585 497.052 210.502 498.72 214.218 488.124C217.933 477.527 195.319 478.431 186.673 474.621C178.027 470.811 174.94 459.003 165.337 455.183C155.734 451.364 157.877 446.237 139.635 442.493C121.393 438.749 117.068 420.643 117.068 404.439C117.068 391.243 105.748 382.318 101.546 369.361H101.546Z" fill="url(#paint1_linear_1411:44906)"/>
<path fill-rule="evenodd" clip-rule="evenodd" d="M665.425 260.049C687.501 301.831 700 349.456 700 399.999C700 439.097 692.521 476.448 678.915 510.699C678.197 512.081 677.511 513.51 676.866 514.999C664.032 544.625 628.397 574.862 616.268 582.765C604.139 590.669 598.468 602.29 584.363 608.337C570.259 614.384 571.277 618.098 551.964 630.299C532.652 642.501 551.922 612.591 559.849 602.29C567.777 591.988 566.619 591.472 569.014 579.023C571.409 566.574 578.452 555.448 588.815 545.92C599.177 536.393 584.669 526.376 591.662 510.235C598.655 494.094 588.815 494.131 580.537 485.374C572.26 476.617 569.014 481.055 559.849 487.826C550.684 494.597 546.221 488.162 531.584 491.082C516.946 494.001 513.956 472.652 509.56 463.688C505.164 454.723 497.032 443.84 503.861 437.321C510.691 430.801 503.861 424.744 503.861 410.309C503.861 395.875 507.566 404.096 509.56 390.264C511.554 376.433 519.277 378.192 531.584 374.773C543.89 371.354 537.502 360.652 541.131 352.269C544.761 343.886 549.528 346.711 563.559 346.711C577.589 346.711 571.277 342.359 584.669 339.79C598.061 337.222 605.661 337.577 605.661 346.711C605.661 355.845 608.253 352.171 618.157 360.652C628.062 369.133 629.632 363.348 635.607 357.597C641.581 351.845 649.966 363.348 662.139 363.348C674.312 363.348 663.305 342.359 653.17 342.359C643.035 342.359 644.582 331.009 640.125 339.79C635.668 348.571 630.213 324.478 618.157 324.478C606.101 324.478 598.506 311.745 588.815 306.504C579.124 301.263 579.156 306.171 571.277 311.745C563.398 317.319 566.619 318.03 563.559 326.893C560.498 335.757 551.63 339.79 541.131 339.79C530.632 339.79 531.584 331.53 527.763 315.023C523.943 298.517 534.189 303.662 549.528 303.662C564.867 303.662 546.221 288.712 541.131 284.56C536.041 280.409 549.528 278.605 546.221 271.633C542.915 264.662 536.452 270.935 531.584 262.582C526.715 254.229 524.777 257.235 513.956 262.582C503.136 267.93 507.688 253.827 513.956 245.734C520.224 237.642 519.277 242.507 519.277 232.313C519.277 222.118 529.794 229.812 534.189 240.648C538.584 251.484 542.397 245.225 549.528 257.235C556.659 269.244 557.407 264.46 563.559 257.235C569.71 250.01 574.991 248.796 588.815 248.796C602.639 248.796 594.239 238.922 594.239 225.553C594.239 212.184 581.024 216.298 588.815 229.812C596.605 243.326 576.211 236.965 569.014 227.466C561.818 217.966 558.426 230.191 549.528 221.468C540.631 212.745 543.535 203.122 549.528 194.245C555.521 185.367 546.221 183.147 546.221 171.448C546.221 159.749 556.749 167.097 566.619 171.448C576.49 175.798 580.2 176.929 588.815 185.622C594.558 191.417 604.339 195.217 618.157 197.021C636.713 217.904 652.469 238.913 665.425 260.049Z" fill="url(#paint2_linear_1411:44906)"/>
<path fill-rule="evenodd" clip-rule="evenodd" d="M197 239L305.148 219L400.5 239L507 219L604 239V552L507 582L400.5 562L305.148 582L197 552V239Z" fill="url(#paint3_linear_1411:44906)"/>
<path fill-rule="evenodd" clip-rule="evenodd" d="M209 255.017L304.567 237L400.5 255.017L507 237L592 255.017V536.975L507 564L400.5 545.888L304.567 564L209 536.975V255.017Z" fill="url(#paint4_linear_1411:44906)"/>
<path fill-rule="evenodd" clip-rule="evenodd" d="M507 237L592 255.017V536.975L507 564V237Z" fill="url(#paint5_linear_1411:44906)"/>
<path fill-rule="evenodd" clip-rule="evenodd" d="M304.567 237L400.5 255.017V545.888L304.567 564V237Z" fill="url(#paint6_linear_1411:44906)"/>
<path fill-rule="evenodd" clip-rule="evenodd" d="M565.983 249.502L592 255.017V319.045C588.932 321.727 587.399 320.771 587.399 316.178C587.399 309.289 589.958 308.642 584.475 302.098C578.991 295.554 582.065 299.373 580.528 290.659C578.991 281.945 579.369 281.782 575.947 276.208C572.525 270.634 576.543 272.435 574.534 267.028C572.525 261.621 565.983 263.116 565.983 259.067C565.983 255.017 567.122 255.36 564.143 252.431C562.156 250.478 562.77 249.502 565.983 249.502ZM592 536.975L507 564L400.5 545.888L304.568 564L228.427 542.469C226.574 538.598 227.721 536.1 231.868 534.973C238.089 533.284 236.86 525.869 244.262 523.969C251.665 522.069 246.643 514.85 252.636 510.389C258.629 505.929 264.614 495.814 259.473 487.617C254.331 479.419 255.349 480.591 257.411 473.673C259.473 466.754 253.577 455.298 259.473 449.864C265.368 444.431 262.75 434.267 272.277 436.801C281.805 439.335 280.507 438.394 283.597 436.801C286.687 435.208 289.707 434.706 294.339 437.908C298.971 441.11 298.47 439.815 302.517 438.861C306.563 437.908 299.825 443.872 304.568 446.199C309.31 448.525 310.59 451.063 306.154 453.624C301.718 456.185 305.308 455.593 302.517 458.965C299.725 462.336 301.954 468.052 304.568 464.365C307.181 460.678 310.074 457.828 312.722 459.892C315.371 461.956 319.508 462.013 325.258 464.365C331.009 466.716 331.527 472.033 337.375 471.053C343.224 470.074 343.57 470.077 346.421 475.025C349.273 479.973 356.316 475.251 361.002 479.061C365.688 482.871 370.914 482.828 374.173 479.915C377.433 477.002 380.521 480.629 384.381 480.629C388.24 480.629 391.346 476.138 397.018 478.384C402.69 480.629 408.847 471.132 413.667 472.402C418.487 473.673 419.463 469.122 425.502 470.088C431.542 471.053 429.756 468.644 434.703 467.044C439.65 465.443 450.714 470.112 446.762 461.868C442.81 453.624 443.302 448.193 449.307 442.497C455.312 436.801 445.674 429.954 451.454 423.365C457.233 416.776 451.766 409.582 455.572 403.16C459.378 396.739 446.657 374.65 459.897 377.341C473.136 380.033 474.086 372.617 480.602 377.341C487.118 382.066 491.405 373.505 483.087 370.043C474.768 366.581 484.116 355.614 474.843 357.014C465.57 358.414 465.523 354.443 465.546 346.901C465.57 339.358 450.665 324.072 464.265 326.686C477.865 329.301 475.505 331.361 485.032 326.686C494.559 322.012 500.521 330.291 494.257 336.174C487.992 342.057 483.451 344.343 494.257 348.821C505.062 353.3 503.406 350.51 517.098 353.762C530.789 357.014 530.222 352.13 538.166 358.38C546.109 364.63 550.755 356.898 557.495 360.764C564.235 364.63 572.98 360.624 570.364 353.762C567.748 346.901 568.68 335.67 574.71 341.285C580.74 346.901 582.335 358.38 586.158 358.38H592V478.384C586.776 479.436 584.165 478.316 584.165 475.025C584.165 470.088 580.246 468.562 577.478 472.402C574.71 476.243 570.08 473.504 568.221 478.384C566.362 483.263 565.166 478.996 562.678 475.025C560.189 471.053 557.059 471.053 550.856 471.053C544.654 471.053 542.269 461.686 532.776 464.365C523.284 467.044 511.173 461.792 514.135 470.088C517.098 478.384 516.723 475.391 511.861 483.817C507 492.243 503.617 500.486 511.861 495.517C520.106 490.549 521.97 493.699 525.093 486.38C528.216 479.061 530.737 477.243 532.776 486.38C534.816 495.517 540.704 484.9 543.91 491.077C547.117 497.253 555.27 490.582 557.495 498.445C559.719 506.309 561.732 498.553 568.221 499.877C574.71 501.201 577.171 510.389 582.39 510.389H592V536.975ZM209.219 386.75V255.268C210.23 256.537 212.87 257.172 217.137 257.172C223.539 257.172 220.775 258.55 222.525 266.489C224.275 274.428 238.019 274.084 250.73 270.097C263.44 266.11 252.197 286.591 261.234 292.285C270.271 297.978 265.267 301.568 269.63 311.119C273.992 320.67 280.979 339.385 261.234 342.791C241.489 346.198 251.249 358.583 243.294 363.192C235.34 367.8 238.5 377.385 241.468 384.055C244.436 390.724 244.041 394.083 233.867 389.904C223.693 385.724 222.204 392.102 217.137 386.75C213.76 383.182 211.12 383.182 209.219 386.75Z" fill="url(#paint7_linear_1411:44906)"/>
<path fill-rule="evenodd" clip-rule="evenodd" d="M400.5 545.889L304.567 564.001V464.365C307.181 460.678 310.073 457.829 312.722 459.893C315.371 461.957 319.508 462.014 325.258 464.365C331.009 466.717 331.527 472.033 337.375 471.054C343.224 470.075 343.57 470.078 346.421 475.026C349.272 479.973 356.316 475.251 361.002 479.062C365.688 482.872 370.914 482.828 374.173 479.915C377.433 477.002 380.521 480.63 384.38 480.63C388.24 480.63 391.346 476.139 397.018 478.384C398.164 478.838 399.33 478.812 400.5 478.493V545.889ZM304.567 446.199C309.31 448.526 310.59 451.063 306.154 453.625C305.434 454.04 304.926 454.373 304.567 454.653V446.199Z" fill="url(#paint8_linear_1411:44906)"/>
<path fill-rule="evenodd" clip-rule="evenodd" d="M565.982 249.502L592 255.017V319.045C588.932 321.727 587.398 320.771 587.398 316.178C587.398 309.289 589.958 308.642 584.474 302.098C578.991 295.554 582.065 299.373 580.528 290.659C578.991 281.945 579.369 281.782 575.947 276.208C572.525 270.634 576.543 272.435 574.534 267.028C572.525 261.621 565.982 263.116 565.982 259.067C565.982 255.017 567.121 255.36 564.142 252.431C562.156 250.478 562.77 249.502 565.982 249.502ZM507 351.98C509.246 352.206 512.183 352.595 517.098 353.762C530.789 357.014 530.222 352.13 538.165 358.38C546.109 364.63 550.754 356.898 557.494 360.764C564.234 364.63 572.979 360.624 570.363 353.762C567.748 346.901 568.679 335.67 574.71 341.285C580.74 346.901 582.335 358.38 586.158 358.38H592V478.384C586.776 479.436 584.164 478.316 584.164 475.025C584.164 470.088 580.245 468.562 577.478 472.402C574.71 476.243 570.079 473.504 568.221 478.384C566.362 483.263 565.166 478.996 562.678 475.025C560.189 471.053 557.058 471.053 550.856 471.053C544.654 471.053 542.269 461.686 532.776 464.365C523.284 467.044 511.173 461.792 514.135 470.088C517.098 478.384 516.722 475.391 511.861 483.817C509.52 487.875 507.522 491.89 507 494.407V351.98ZM507 496.343C507.422 497.383 508.883 497.312 511.861 495.517C520.106 490.549 521.97 493.699 525.093 486.38C528.216 479.061 530.737 477.243 532.776 486.38C534.815 495.517 540.703 484.9 543.91 491.077C547.117 497.253 555.27 490.582 557.494 498.445C559.719 506.309 561.731 498.553 568.221 499.877C574.71 501.201 577.171 510.389 582.39 510.389H592V536.975L507 564V496.344V496.343Z" fill="url(#paint9_linear_1411:44906)"/>
<path fill-rule="evenodd" clip-rule="evenodd" d="M525.5 373C531.743 373 543 349.213 543 339.531C543 329.849 535.165 322 525.5 322C515.835 322 508 329.849 508 339.531C508 349.213 519.257 373 525.5 373Z" fill="url(#paint10_linear_1411:44906)"/>
<path d="M525.5 349.094C530.771 349.094 535.045 344.812 535.045 339.531C535.045 334.25 530.771 329.969 525.5 329.969C520.228 329.969 515.954 334.25 515.954 339.531C515.954 344.812 520.228 349.094 525.5 349.094Z" fill="url(#paint11_linear_1411:44906)"/>
<path d="M295.965 520.348L290.035 519.436C290.567 515.978 291.188 512.638 291.899 509.414L297.758 510.706C297.076 513.802 296.478 517.016 295.965 520.348ZM300.8 499.39L295.089 497.55C296.173 494.185 297.376 490.974 298.699 487.916L304.206 490.299C302.961 493.176 301.825 496.206 300.8 499.39ZM309.516 480.015L304.401 476.879C306.259 473.848 308.272 471.018 310.441 468.389L315.069 472.208C313.08 474.618 311.229 477.22 309.516 480.015ZM323.166 464.07L319.336 459.451C322.029 457.219 324.892 455.213 327.923 453.435L330.959 458.611C328.206 460.225 325.609 462.045 323.166 464.07ZM341.291 453.775L339.241 448.136C342.429 446.977 345.76 446.017 349.233 445.256L350.518 451.116C347.301 451.822 344.226 452.708 341.291 453.775ZM362.035 449.414L361.54 443.434C364.853 443.16 368.275 443.037 371.805 443.064L371.759 449.064C368.407 449.038 365.166 449.155 362.035 449.414ZM383.588 449.668L384.054 443.687C387.205 443.932 390.469 444.206 394.045 444.523L393.515 450.5C389.96 450.185 386.716 449.912 383.588 449.668ZM405.448 451.596L406.007 445.622C411.217 446.109 413.248 446.297 415.955 446.541L415.417 452.517C412.701 452.272 410.665 452.084 405.448 451.596ZM427.422 453.52L427.87 447.537C431.409 447.802 434.677 448.011 437.775 448.169L437.471 454.161C434.322 454.001 431.007 453.788 427.422 453.52ZM449.614 454.514L449.637 448.514C453.093 448.528 456.354 448.451 459.456 448.279L459.788 454.269C456.563 454.448 453.184 454.528 449.614 454.514ZM472.048 452.985L471.091 447.062C474.417 446.524 477.544 445.831 480.49 444.971L482.17 450.731C478.979 451.663 475.611 452.409 472.048 452.985ZM493.859 446.077L491.077 440.761C493.902 439.283 496.525 437.572 498.959 435.612L502.722 440.285C499.98 442.494 497.028 444.419 493.859 446.077ZM511.606 431.198L506.863 427.523C508.734 425.109 510.453 422.452 512.022 419.54L517.304 422.387C515.58 425.585 513.682 428.519 511.606 431.198ZM522.303 411.023L516.651 409.011C517.687 406.101 518.619 403.002 519.448 399.709L525.267 401.173C524.392 404.648 523.404 407.929 522.303 411.023ZM527.719 389.141L521.796 388.186C522.186 385.763 522.533 383.255 522.835 380.66L528.795 381.354C528.482 384.035 528.124 386.63 527.719 389.141Z" fill="#D65644"/>
<path fill-rule="evenodd" clip-rule="evenodd" d="M293.5 530C299.743 530 311 506.213 311 496.531C311 486.849 303.165 479 293.5 479C283.835 479 276 486.849 276 496.531C276 506.213 287.257 530 293.5 530Z" fill="url(#paint12_linear_1411:44906)"/>
<path d="M293.5 506.094C298.771 506.094 303.045 501.812 303.045 496.531C303.045 491.25 298.771 486.969 293.5 486.969C288.228 486.969 283.954 491.25 283.954 496.531C283.954 501.812 288.228 506.094 293.5 506.094Z" fill="url(#paint13_linear_1411:44906)"/>
<path d="M248.096 326.607L245.143 321.384C248.25 319.627 251.267 318.05 254.192 316.654L256.776 322.069C253.979 323.404 251.086 324.916 248.096 326.607ZM267.542 317.648L265.624 311.963C269.147 310.774 272.52 309.896 275.742 309.332L276.776 315.243C273.865 315.752 270.786 316.553 267.542 317.648ZM287.879 314.794L288.589 308.836C292.406 309.29 295.941 310.335 299.178 311.972L296.47 317.327C293.87 316.012 291.012 315.167 287.879 314.794ZM304.735 324.071L309.365 320.255C311.512 322.86 313.412 325.888 315.069 329.333L309.662 331.934C308.207 328.909 306.563 326.289 304.735 324.071ZM313.6 342.76L319.39 341.187C319.407 341.248 319.407 341.248 319.423 341.31C320.351 344.743 321.237 347.854 322.105 350.717L316.363 352.458C315.476 349.533 314.574 346.364 313.631 342.875C313.615 342.818 313.615 342.818 313.6 342.76ZM320.263 364.027L325.871 361.893C327.127 365.197 328.407 368.131 329.743 370.769L324.391 373.481C322.954 370.645 321.591 367.519 320.263 364.027ZM331.19 384.131L335.844 380.345C337.838 382.796 340.031 384.942 342.505 386.865L338.822 391.602C335.989 389.4 333.47 386.934 331.19 384.131ZM349.633 398.121L352.19 392.693C354.857 393.949 357.823 395.134 361.171 396.285L359.221 401.959C355.676 400.74 352.51 399.476 349.633 398.121ZM370.934 405.486L372.488 399.69C375.386 400.468 378.553 401.262 382.104 402.106L380.716 407.944C377.112 407.087 373.891 406.279 370.934 405.486ZM392.49 410.629L393.785 404.77C395.849 405.226 398.068 405.711 400.636 406.268C401.7 406.499 402.73 406.76 403.728 407.052L402.046 412.811C401.185 412.559 400.291 412.333 399.364 412.132C396.789 411.573 394.563 411.087 392.49 410.629ZM411.713 417.642L415.437 412.937C418.327 415.225 420.732 417.989 422.726 421.238L417.613 424.376C415.977 421.711 414.036 419.48 411.713 417.642ZM421.973 434.687L427.734 433.009C428.603 435.993 429.341 439.244 430.042 443.052L424.142 444.14C423.474 440.516 422.78 437.455 421.973 434.687ZM426.035 455.845L431.966 454.937C432.625 459.248 433.059 461.919 433.574 464.717L427.673 465.802C427.145 462.931 426.703 460.211 426.035 455.845ZM430.429 477.847L436.197 476.195C437.125 479.436 438.183 482.434 439.409 485.243L433.909 487.642C432.572 484.578 431.427 481.332 430.429 477.847ZM440.11 498.621L444.977 495.112C446.809 497.654 448.877 499.999 451.208 502.157L447.132 506.56C444.505 504.129 442.174 501.483 440.11 498.621ZM457.287 514.03L460.308 508.846C462.941 510.38 465.804 511.768 468.911 513.007L466.689 518.581C463.31 517.233 460.18 515.715 457.287 514.03ZM478.54 522.355L479.989 516.532C482.998 517.281 486.18 517.926 489.54 518.464L488.592 524.388C485.066 523.824 481.718 523.145 478.54 522.355ZM500.766 525.829L501.247 519.848C504.395 520.102 507.672 520.278 511.079 520.378L510.904 526.375C507.396 526.273 504.018 526.091 500.766 525.829ZM523.063 526.418L522.941 520.419C525.52 520.367 528.164 520.276 530.873 520.147L531.159 526.14C528.396 526.272 525.697 526.364 523.063 526.418Z" fill="#D65644"/>
<path fill-rule="evenodd" clip-rule="evenodd" d="M526 536C529.924 536 537 520.609 537 514.344C537 508.079 532.075 503 526 503C519.925 503 515 508.079 515 514.344C515 520.609 522.076 536 526 536Z" fill="url(#paint14_linear_1411:44906)"/>
<path d="M526 520.531C529.314 520.531 532 517.761 532 514.344C532 510.926 529.314 508.156 526 508.156C522.686 508.156 520 510.926 520 514.344C520 517.761 522.686 520.531 526 520.531Z" fill="url(#paint15_linear_1411:44906)"/>
<path fill-rule="evenodd" clip-rule="evenodd" d="M250 332C253.924 332 261 316.609 261 310.344C261 304.079 256.075 299 250 299C243.925 299 239 304.079 239 310.344C239 316.609 246.076 332 250 332Z" fill="url(#paint16_linear_1411:44906)"/>
<path d="M250 316.531C253.314 316.531 256 313.761 256 310.344C256 306.926 253.314 304.156 250 304.156C246.686 304.156 244 306.926 244 310.344C244 313.761 246.686 316.531 250 316.531Z" fill="url(#paint17_linear_1411:44906)"/>
<path fill-rule="evenodd" clip-rule="evenodd" d="M575 154H577C579.209 154 581 155.791 581 158V170C581 172.209 579.209 174 577 174H575C572.791 174 571 172.209 571 170V158C571 155.791 572.791 154 575 154Z" fill="url(#paint18_linear_1411:44906)"/>
<path d="M576 304C614.66 304 646 272.66 646 234C646 195.34 614.66 164 576 164C537.34 164 506 195.34 506 234C506 272.66 537.34 304 576 304Z" fill="url(#paint19_linear_1411:44906)"/>
<path fill-rule="evenodd" clip-rule="evenodd" d="M570 135H582C584.209 135 586 136.791 586 139V155C586 157.209 584.209 159 582 159H570C567.791 159 566 157.209 566 155V139C566 136.791 567.791 135 570 135Z" fill="url(#paint20_linear_1411:44906)"/>
<path d="M576 290C606.928 290 632 264.928 632 234C632 203.072 606.928 178 576 178C545.072 178 520 203.072 520 234C520 264.928 545.072 290 576 290Z" fill="#80D2FF"/>
<path fill-rule="evenodd" clip-rule="evenodd" d="M549.009 184.922C556.023 181.76 563.806 180 572 180C602.928 180 628 205.072 628 236C628 257.142 616.284 275.547 598.991 285.078C591.977 288.24 584.194 290 576 290C545.072 290 520 264.928 520 234C520 212.858 531.716 194.453 549.009 184.922Z" fill="url(#paint21_linear_1411:44906)"/>
<path opacity="0.5" fill-rule="evenodd" clip-rule="evenodd" d="M586 234.5L576.5 274L567 234.5L576.5 195L586 234.5Z" fill="#80D2FF"/>
<path opacity="0.5" fill-rule="evenodd" clip-rule="evenodd" d="M576.5 225L616 234.5L576.5 244L537 234.5L576.5 225Z" fill="#80D2FF"/>
<path fill-rule="evenodd" clip-rule="evenodd" d="M583.218 241.217L548.569 262.43L569.783 227.782L604.431 206.568L583.218 241.217Z" fill="#F7CB4A"/>
<path fill-rule="evenodd" clip-rule="evenodd" d="M583.217 241.217L569.782 227.782L604.43 206.568L583.217 241.217Z" fill="#DF6038"/>
<path fill-rule="evenodd" clip-rule="evenodd" d="M136 540H286V620H136V540Z" fill="url(#paint22_linear_1411:44906)"/>
<path opacity="0.5" fill-rule="evenodd" clip-rule="evenodd" d="M242 560H276V584H242V560Z" fill="url(#paint23_linear_1411:44906)"/>
<path d="M233.5 620H230.5V617H233.5V620ZM233.5 608H230.5V605H233.5V608ZM233.5 596H230.5V593H233.5V596ZM233.5 584H230.5V581H233.5V584ZM233.5 572H230.5V569H233.5V572ZM233.5 560H230.5V557H233.5V560ZM233.5 548H230.5V545H233.5V548Z" fill="#BBDBE3"/>
<path fill-rule="evenodd" clip-rule="evenodd" d="M136 540H286V554H136V540Z" fill="url(#paint24_linear_1411:44906)"/>
<path fill-rule="evenodd" clip-rule="evenodd" d="M142 560H183V566H142V560Z" fill="url(#paint25_linear_1411:44906)"/>
<path fill-rule="evenodd" clip-rule="evenodd" d="M189 560H210V566H189V560Z" fill="url(#paint26_linear_1411:44906)"/>
<path fill-rule="evenodd" clip-rule="evenodd" d="M142 572H163V578H142V572Z" fill="url(#paint27_linear_1411:44906)"/>
<path fill-rule="evenodd" clip-rule="evenodd" d="M169 572H210V578H169V572Z" fill="url(#paint28_linear_1411:44906)"/>
<path fill-rule="evenodd" clip-rule="evenodd" d="M142 584H173V590H142V584Z" fill="url(#paint29_linear_1411:44906)"/>
<path fill-rule="evenodd" clip-rule="evenodd" d="M179 584H210V590H179V584Z" fill="url(#paint30_linear_1411:44906)"/>
<path fill-rule="evenodd" clip-rule="evenodd" d="M142 596H153V602H142V596Z" fill="url(#paint31_linear_1411:44906)"/>
<path fill-rule="evenodd" clip-rule="evenodd" d="M159 596H210V602H159V596Z" fill="url(#paint32_linear_1411:44906)"/>
<path fill-rule="evenodd" clip-rule="evenodd" d="M142 608H163V614H142V608Z" fill="url(#paint33_linear_1411:44906)"/>
<path fill-rule="evenodd" clip-rule="evenodd" d="M169 608H210V614H169V608Z" fill="url(#paint34_linear_1411:44906)"/>
<defs>
<linearGradient id="paint0_linear_1411:44906" x1="617.255" y1="165.164" x2="354.747" y2="1094.76" gradientUnits="userSpaceOnUse">
<stop stop-color="#91F6FF"/>
<stop offset="1" stop-color="#4D86DE"/>
</linearGradient>
<linearGradient id="paint1_linear_1411:44906" x1="288.269" y1="-120.003" x2="157.218" y2="952.342" gradientUnits="userSpaceOnUse">
<stop stop-color="#91F6FF"/>
<stop offset="1" stop-color="#4D86DE"/>
</linearGradient>
<linearGradient id="paint2_linear_1411:44906" x1="607.048" y1="-24.5797" x2="528.674" y2="848.472" gradientUnits="userSpaceOnUse">
<stop stop-color="#91F6FF"/>
<stop offset="1" stop-color="#4D86DE"/>
</linearGradient>
<linearGradient id="paint3_linear_1411:44906" x1="424.321" y1="544.878" x2="405.337" y2="321.946" gradientUnits="userSpaceOnUse">
<stop stop-color="#B7D7DF"/>
<stop offset="1" stop-color="#D2EEF6"/>
</linearGradient>
<linearGradient id="paint4_linear_1411:44906" x1="422.916" y1="519.683" x2="398.48" y2="218.455" gradientUnits="userSpaceOnUse">
<stop stop-color="#B7D7DF"/>
<stop offset="1" stop-color="#D2EEF6"/>
</linearGradient>
<linearGradient id="paint5_linear_1411:44906" x1="549.5" y1="446.898" x2="549.5" y2="85.2347" gradientUnits="userSpaceOnUse">
<stop stop-color="#B7D7DF"/>
<stop offset="1" stop-color="#D2EEF6"/>
</linearGradient>
<linearGradient id="paint6_linear_1411:44906" x1="352.534" y1="447.889" x2="386.253" y2="83.8166" gradientUnits="userSpaceOnUse">
<stop stop-color="#B7D7DF"/>
<stop offset="1" stop-color="#D2EEF6"/>
</linearGradient>
<linearGradient id="paint7_linear_1411:44906" x1="506.568" y1="287.034" x2="221.328" y2="591.786" gradientUnits="userSpaceOnUse">
<stop stop-color="#13DBBF"/>
<stop offset="1" stop-color="#08B58B"/>
</linearGradient>
<linearGradient id="paint8_linear_1411:44906" x1="384.344" y1="318.602" x2="322.433" y2="552.914" gradientUnits="userSpaceOnUse">
<stop stop-color="#13DBBF"/>
<stop offset="1" stop-color="#08B58B"/>
</linearGradient>
<linearGradient id="paint9_linear_1411:44906" x1="551.219" y1="229.405" x2="497.94" y2="571.087" gradientUnits="userSpaceOnUse">
<stop stop-color="#13DBBF"/>
<stop offset="1" stop-color="#08B58B"/>
</linearGradient>
<linearGradient id="paint10_linear_1411:44906" x1="517.258" y1="316.168" x2="539.878" y2="352.395" gradientUnits="userSpaceOnUse">
<stop stop-color="#F9BB49"/>
<stop offset="1" stop-color="#F08523"/>
</linearGradient>
<linearGradient id="paint11_linear_1411:44906" x1="525.5" y1="339.531" x2="495.086" y2="398.781" gradientUnits="userSpaceOnUse">
<stop stop-color="#FFCF78"/>
<stop offset="1" stop-color="#FFB877"/>
</linearGradient>
<linearGradient id="paint12_linear_1411:44906" x1="285.258" y1="472.62" x2="308.935" y2="507.465" gradientUnits="userSpaceOnUse">
<stop stop-color="#F9BB49"/>
<stop offset="1" stop-color="#F08523"/>
</linearGradient>
<linearGradient id="paint13_linear_1411:44906" x1="293.5" y1="496.531" x2="263.086" y2="555.781" gradientUnits="userSpaceOnUse">
<stop stop-color="#FFCF78"/>
<stop offset="1" stop-color="#FFB877"/>
</linearGradient>
<linearGradient id="paint14_linear_1411:44906" x1="521.111" y1="499.227" x2="535.312" y2="522.639" gradientUnits="userSpaceOnUse">
<stop stop-color="#F9BB49"/>
<stop offset="1" stop-color="#F08523"/>
</linearGradient>
<linearGradient id="paint15_linear_1411:44906" x1="526" y1="514.344" x2="507.096" y2="552.254" gradientUnits="userSpaceOnUse">
<stop stop-color="#FFCF78"/>
<stop offset="1" stop-color="#FFB877"/>
</linearGradient>
<linearGradient id="paint16_linear_1411:44906" x1="245.111" y1="295.227" x2="259.312" y2="318.639" gradientUnits="userSpaceOnUse">
<stop stop-color="#F9BB49"/>
<stop offset="1" stop-color="#F08523"/>
</linearGradient>
<linearGradient id="paint17_linear_1411:44906" x1="250" y1="310.344" x2="231.096" y2="348.254" gradientUnits="userSpaceOnUse">
<stop stop-color="#FFCF78"/>
<stop offset="1" stop-color="#FFB877"/>
</linearGradient>
<linearGradient id="paint18_linear_1411:44906" x1="577.25" y1="151.427" x2="561.763" y2="187.897" gradientUnits="userSpaceOnUse">
<stop stop-color="#30A0DE"/>
<stop offset="1" stop-color="#194383"/>
</linearGradient>
<linearGradient id="paint19_linear_1411:44906" x1="580.097" y1="186.088" x2="551.093" y2="328.506" gradientUnits="userSpaceOnUse">
<stop stop-color="#30A0DE"/>
<stop offset="1" stop-color="#194383"/>
</linearGradient>
<linearGradient id="paint20_linear_1411:44906" x1="582.944" y1="131.913" x2="551.529" y2="176.3" gradientUnits="userSpaceOnUse">
<stop stop-color="#30A0DE"/>
<stop offset="1" stop-color="#194383"/>
</linearGradient>
<linearGradient id="paint21_linear_1411:44906" x1="580.093" y1="290" x2="573.773" y2="205.249" gradientUnits="userSpaceOnUse">
<stop stop-color="#B7D7DF"/>
<stop offset="1" stop-color="#D2EEF6"/>
</linearGradient>
<linearGradient id="paint22_linear_1411:44906" x1="316.055" y1="615.863" x2="260.246" y2="538.947" gradientUnits="userSpaceOnUse">
<stop stop-color="#D1E9EF"/>
<stop offset="1" stop-color="#EBFAFF"/>
</linearGradient>
<linearGradient id="paint23_linear_1411:44906" x1="287.49" y1="602.937" x2="264.815" y2="552.355" gradientUnits="userSpaceOnUse">
<stop stop-color="#B7D7DF"/>
<stop offset="1" stop-color="#D2EEF6"/>
</linearGradient>
<linearGradient id="paint24_linear_1411:44906" x1="136" y1="546.921" x2="283.717" y2="565.365" gradientUnits="userSpaceOnUse">
<stop stop-color="#F9BB49"/>
<stop offset="1" stop-color="#F08523"/>
</linearGradient>
<linearGradient id="paint25_linear_1411:44906" x1="196.855" y1="563.332" x2="157.989" y2="545.358" gradientUnits="userSpaceOnUse">
<stop stop-color="#B7D7DF"/>
<stop offset="1" stop-color="#D2EEF6"/>
</linearGradient>
<linearGradient id="paint26_linear_1411:44906" x1="217.097" y1="564.267" x2="202.963" y2="551.506" gradientUnits="userSpaceOnUse">
<stop stop-color="#B7D7DF"/>
<stop offset="1" stop-color="#D2EEF6"/>
</linearGradient>
<linearGradient id="paint27_linear_1411:44906" x1="170.097" y1="576.267" x2="155.963" y2="563.506" gradientUnits="userSpaceOnUse">
<stop stop-color="#B7D7DF"/>
<stop offset="1" stop-color="#D2EEF6"/>
</linearGradient>
<linearGradient id="paint28_linear_1411:44906" x1="223.855" y1="575.332" x2="184.989" y2="557.358" gradientUnits="userSpaceOnUse">
<stop stop-color="#B7D7DF"/>
<stop offset="1" stop-color="#D2EEF6"/>
</linearGradient>
<linearGradient id="paint29_linear_1411:44906" x1="183.476" y1="587.581" x2="157.272" y2="571.554" gradientUnits="userSpaceOnUse">
<stop stop-color="#B7D7DF"/>
<stop offset="1" stop-color="#D2EEF6"/>
</linearGradient>
<linearGradient id="paint30_linear_1411:44906" x1="220.476" y1="587.581" x2="194.272" y2="571.554" gradientUnits="userSpaceOnUse">
<stop stop-color="#B7D7DF"/>
<stop offset="1" stop-color="#D2EEF6"/>
</linearGradient>
<linearGradient id="paint31_linear_1411:44906" x1="156.717" y1="603.618" x2="150.74" y2="593.314" gradientUnits="userSpaceOnUse">
<stop stop-color="#B7D7DF"/>
<stop offset="1" stop-color="#D2EEF6"/>
</linearGradient>
<linearGradient id="paint32_linear_1411:44906" x1="227.234" y1="599.215" x2="175.812" y2="580.097" gradientUnits="userSpaceOnUse">
<stop stop-color="#B7D7DF"/>
<stop offset="1" stop-color="#D2EEF6"/>
</linearGradient>
<linearGradient id="paint33_linear_1411:44906" x1="170.097" y1="612.267" x2="155.963" y2="599.506" gradientUnits="userSpaceOnUse">
<stop stop-color="#B7D7DF"/>
<stop offset="1" stop-color="#D2EEF6"/>
</linearGradient>
<linearGradient id="paint34_linear_1411:44906" x1="223.855" y1="611.332" x2="184.989" y2="593.358" gradientUnits="userSpaceOnUse">
<stop stop-color="#B7D7DF"/>
<stop offset="1" stop-color="#D2EEF6"/>
</linearGradient>
</defs>
</svg>
