<svg width="800" height="800" viewBox="0 0 800 800" fill="none" xmlns="http://www.w3.org/2000/svg">
<path d="M400 700C565.685 700 700 565.685 700 400C700 234.315 565.685 100 400 100C234.315 100 100 234.315 100 400C100 565.685 234.315 700 400 700Z" fill="url(#paint0_linear_1411:44909)"/>
<path fill-rule="evenodd" clip-rule="evenodd" d="M699.816 410.609C599.609 403.227 494.509 405.794 384.514 418.309C274.824 430.789 184.031 452.932 112.135 484.739C104.237 457.867 100 429.429 100 400.001C100 375.743 102.879 352.158 108.314 329.568C131.765 312.972 163.917 322.812 188.705 346.501C226.999 383.097 257.157 401.077 311.44 346.501C365.724 291.925 398.173 304.546 430.508 346.501C462.844 388.455 493.32 377.814 561.37 367.621C602.186 361.507 648.395 372.872 699.995 401.718C699.979 404.692 699.919 407.656 699.816 410.609V410.609Z" fill="url(#paint1_linear_1411:44909)"/>
<path fill-rule="evenodd" clip-rule="evenodd" d="M100.05 405.545C127.608 372.276 161.255 362.879 200.989 377.353C281.48 406.673 288.49 400.706 322.566 377.353C356.642 353.999 355.186 338.863 400 365.813C444.814 392.762 479.621 407.458 517.933 394.26C556.246 381.063 602.861 356.277 647.303 406.112C545.427 402.698 457.073 407.471 382.24 420.43C296.972 435.196 175.848 489.202 122.547 514.312C108.681 480.693 100.747 444.003 100.05 405.545Z" fill="url(#paint2_linear_1411:44909)"/>
<path fill-rule="evenodd" clip-rule="evenodd" d="M112.14 484.757C256.143 413.1 452.05 387.94 699.859 409.277C694.957 570.67 562.582 700 400 700C263.749 700 148.713 609.169 112.14 484.757Z" fill="url(#paint3_linear_1411:44909)"/>
<path fill-rule="evenodd" clip-rule="evenodd" d="M111.918 484C234.557 419.258 401.035 392.579 611.354 403.961C579.352 403.961 457.149 403.961 382.033 443.244C306.917 482.527 323.899 507.591 377.267 529.51C430.635 551.428 397.923 585.932 377.267 585.932C363.496 585.932 338.542 581.618 302.405 572.992C262.65 565.859 218.005 571.79 168.469 590.785C142.905 559.797 123.442 523.589 111.918 484Z" fill="url(#paint4_linear_1411:44909)"/>
<path fill-rule="evenodd" clip-rule="evenodd" d="M165.519 587.151C231.828 558.886 293.631 555.693 350.928 577.571C470.912 623.387 531.645 538.254 562.079 467.69C585.509 413.364 664.721 404.997 699.934 406.345C696.557 569.101 563.565 700 400 700C305.1 700 220.492 655.936 165.519 587.151H165.519Z" fill="url(#paint5_linear_1411:44909)"/>
<path fill-rule="evenodd" clip-rule="evenodd" d="M347.204 695.37C346.773 695.293 346.342 695.216 345.912 695.137V695.08C346.344 695.178 346.775 695.275 347.204 695.37H347.204Z" fill="url(#paint6_linear_1411:44909)"/>
<path fill-rule="evenodd" clip-rule="evenodd" d="M386.291 699.692C400.344 699.06 410.715 695.184 417.404 688.065C435.393 668.92 391.314 623.421 459.763 619.651C528.213 615.881 613.918 624.321 587.373 567.947C560.842 511.606 593.161 406.83 699.926 406.707C696.36 569.295 563.444 700 400 700C395.405 700 390.835 699.897 386.291 699.692Z" fill="url(#paint7_linear_1411:44909)"/>
<path fill-rule="evenodd" clip-rule="evenodd" d="M376.344 311.156C383.618 289.475 394.167 269.846 400 254.022C414.245 215.377 447.251 208.937 447.251 175.785C447.251 142.633 475.985 135.883 491.47 107C506.954 78.1178 521.372 109.882 538.15 135.883C554.929 161.884 573.385 159.1 573.385 208.937C573.385 258.774 608.095 259.312 628.677 304.579C639.934 329.338 655.835 357.998 676.378 390.558C634.192 370.767 595.856 363.454 561.37 368.62C493.32 378.813 462.844 389.455 430.508 347.5C413.533 325.475 396.526 311.533 376.344 311.156Z" fill="url(#paint8_linear_1411:44909)"/>
<path fill-rule="evenodd" clip-rule="evenodd" d="M538.15 135.883C554.929 161.884 573.385 159.1 573.385 208.937C573.385 258.774 608.095 259.312 628.677 304.579C639.934 329.338 655.834 357.998 676.377 390.558C634.192 370.767 595.856 363.454 561.369 368.62C493.32 378.813 475 328.208 498.219 308.255C521.438 288.302 565.552 256.649 545.872 235.398C526.192 214.147 530.428 197.597 538.15 179.64C541.397 172.044 543.02 164.72 543.02 157.67C543.02 147.094 538.15 135.883 538.15 135.883Z" fill="url(#paint9_linear_1411:44909)"/>
<path fill-rule="evenodd" clip-rule="evenodd" d="M566.763 367.917C564.955 368.118 563.157 368.352 561.37 368.62C493.32 378.813 462.844 389.455 430.508 347.5C398.173 305.546 365.724 292.924 311.44 347.5C257.157 402.076 226.999 384.096 188.705 347.5C176.799 336.123 163.195 327.939 149.671 324.346C155.493 313.331 161.167 301.757 164.111 290.005C171.647 259.916 170.116 242.2 194.316 229.891C218.516 217.582 225.833 206.405 225.833 171.06C225.833 135.714 268.924 136.564 263.798 102.43C258.673 68.295 282.053 69.1096 303.707 47.8083C325.362 26.507 350.379 85.6352 370.114 102.43C389.849 119.224 373.907 134.678 391.956 147.867C410.005 161.056 410.387 160.395 416.835 189.148C421.133 208.316 431.989 221.897 449.402 229.891C457.874 233.533 471.194 235.354 489.362 235.354C516.615 235.354 511.561 263.401 511.561 290.005C511.561 316.61 538.228 328.921 558.259 353.863C561.973 358.488 564.808 363.173 566.763 367.917H566.763Z" fill="url(#paint10_linear_1411:44909)"/>
<path fill-rule="evenodd" clip-rule="evenodd" d="M284.311 79.2063C268.473 97.2966 319.167 121.877 294.943 162.171C270.72 202.464 355.536 229.891 309.409 269.78C278.657 296.373 279.335 322.279 311.44 347.5C257.157 402.077 226.999 384.096 188.705 347.5C176.799 336.123 163.195 327.94 149.671 324.346C155.493 313.332 161.167 301.758 164.111 290.006C171.647 259.917 170.116 242.2 194.316 229.891C218.516 217.583 225.833 206.405 225.833 171.06C225.833 135.714 268.924 136.564 263.798 102.43C258.673 68.2953 282.053 69.1099 303.707 47.8086C301.336 56.6802 294.87 67.1461 284.311 79.2063Z" fill="url(#paint11_linear_1411:44909)"/>
<path fill-rule="evenodd" clip-rule="evenodd" d="M228.139 404.743C208.374 408.699 197.414 404.243 195.26 391.373C192.028 372.069 220.279 361.779 206.154 341.702C192.028 321.626 217.506 304.895 214.688 285.838C211.87 266.781 220.715 258.131 239.519 299.773C258.322 341.415 229.632 337.057 247.279 367.073C259.044 387.083 252.664 399.64 228.139 404.743Z" fill="url(#paint12_linear_1411:44909)"/>
<path fill-rule="evenodd" clip-rule="evenodd" d="M224.372 317.717C231.333 329.745 225.41 339.387 223.244 346.578C221.079 353.768 222.608 365.5 224.372 371.106C226.135 376.711 223.975 389.55 223.244 394.313C222.514 399.077 224.811 405.36 223.244 405.575C206.557 407.872 197.229 403.138 195.26 391.373C192.028 372.068 220.279 361.779 206.154 341.702C192.028 321.625 217.506 304.895 214.688 285.838C216.503 299.073 219.731 309.699 224.372 317.717Z" fill="url(#paint13_linear_1411:44909)"/>
<path fill-rule="evenodd" clip-rule="evenodd" d="M214.79 441.651C221.267 413.914 222.195 397.167 217.576 391.409C210.647 382.773 209.676 374.235 214.79 381.622C219.903 389.009 225.25 391.196 221.834 370.446C218.419 349.696 229.059 327.541 227.243 335.896C225.427 344.252 221.232 358.052 225.591 370.446C229.95 382.839 219.114 394.285 233.869 388.559C248.625 382.833 239.229 388.629 232.352 394.194C225.476 399.759 225.344 399.808 228.15 413.457C230.021 422.557 230.621 430.436 229.95 437.095L214.79 441.651Z" fill="url(#paint14_linear_1411:44909)"/>
<path fill-rule="evenodd" clip-rule="evenodd" d="M348.14 390.173C335.532 392.703 328.54 389.853 327.166 381.622C325.104 369.276 343.126 362.696 334.115 349.856C325.104 337.016 341.357 326.317 339.56 314.129C337.762 301.942 343.404 296.409 355.4 323.041C367.395 349.673 349.093 346.885 360.35 366.081C367.855 378.879 363.785 386.909 348.14 390.173Z" fill="url(#paint15_linear_1411:44909)"/>
<path fill-rule="evenodd" clip-rule="evenodd" d="M345.737 334.517C350.178 342.209 346.4 348.375 345.018 352.974C343.636 357.573 344.612 365.076 345.737 368.661C346.862 372.245 345.484 380.456 345.018 383.503C344.552 386.549 346.017 390.567 345.018 390.705C334.373 392.174 328.422 389.146 327.166 381.622C325.104 369.276 343.126 362.696 334.115 349.856C325.104 337.016 341.357 326.316 339.56 314.129C340.717 322.593 342.776 329.389 345.737 334.517Z" fill="url(#paint16_linear_1411:44909)"/>
<path fill-rule="evenodd" clip-rule="evenodd" d="M339.624 413.777C343.756 396.038 344.348 385.328 341.402 381.645C336.982 376.122 336.362 370.662 339.624 375.386C342.886 380.11 346.297 381.509 344.118 368.239C341.939 354.968 348.727 340.799 347.568 346.143C346.41 351.486 343.734 360.312 346.515 368.239C349.295 376.165 342.383 383.484 351.796 379.823C361.209 376.161 355.215 379.867 350.828 383.426C346.441 386.985 346.357 387.016 348.147 395.746C349.341 401.566 349.75 407.099 349.376 412.346L339.624 413.777Z" fill="url(#paint17_linear_1411:44909)"/>
<path d="M324.168 415.551L325.057 416.01C302.008 460.612 286.706 488.41 279.134 499.431L278.31 498.865C285.848 487.892 301.14 460.111 324.168 415.551Z" fill="#123874"/>
<path fill-rule="evenodd" clip-rule="evenodd" d="M430.373 484.365L442.112 487.815C432.078 492.408 424.968 497.212 420.783 502.227C399.196 505.403 380.739 509.773 365.412 515.335C328.276 511.802 302.64 504.52 288.503 493.489L323.514 445.83L430.373 484.365Z" fill="url(#paint18_linear_1411:44909)"/>
<path fill-rule="evenodd" clip-rule="evenodd" d="M418.562 497.273C427.575 490.931 435.466 487.76 442.235 487.76C425.069 467.818 410.013 445.899 397.067 422.002L355.8 440.852L388.574 493.188L403.258 489.52H413.638L418.562 497.273Z" fill="url(#paint19_linear_1411:44909)"/>
<path fill-rule="evenodd" clip-rule="evenodd" d="M288.495 492.956C306.887 502.806 332.341 508.736 364.856 510.749C380.794 504.039 394.884 500.684 407.126 500.684C401.061 483.488 397.67 457.128 396.953 421.605C379.516 422.245 365.388 422.245 354.57 421.605C343.752 420.965 333.708 418.971 324.438 415.623C318.383 433.479 312.353 448.019 306.348 459.243C300.343 470.466 294.392 481.704 288.495 492.956Z" fill="url(#paint20_linear_1411:44909)"/>
<path fill-rule="evenodd" clip-rule="evenodd" d="M288.495 492.956C306.887 502.806 332.341 508.736 364.856 510.749C377.847 484.06 388.546 454.346 396.953 421.605C379.516 422.245 365.388 422.245 354.57 421.605C343.752 420.965 333.708 418.971 324.438 415.623C318.383 433.479 312.353 448.019 306.348 459.243C300.343 470.466 294.392 481.704 288.495 492.956Z" fill="url(#paint21_linear_1411:44909)"/>
<path fill-rule="evenodd" clip-rule="evenodd" d="M418.562 497.273C427.575 490.931 435.466 487.76 442.235 487.76C425.069 467.818 410.013 445.899 397.067 422.002C399.49 440.038 401.71 453.164 403.726 461.379C405.392 468.168 408.696 477.548 413.639 489.52L418.562 497.273Z" fill="url(#paint22_linear_1411:44909)"/>
<path d="M369.441 521.899L368.539 521.467C374.968 508.048 384.345 475.063 396.648 422.558L396.91 421.439L397.55 422.393C417.924 452.762 437.193 475.112 455.35 489.444L454.731 490.229C436.672 475.975 417.551 453.866 397.359 423.903C385.167 475.835 375.868 508.486 369.441 521.899Z" fill="#123874"/>
<path fill-rule="evenodd" clip-rule="evenodd" d="M457.597 486.68L454.747 490.229L454.544 489.684L456.173 486.008L457.597 486.68Z" fill="#123874"/>
<path fill-rule="evenodd" clip-rule="evenodd" d="M365.632 520.504L366.589 519.113L369.631 521.35L369.427 521.896L365.632 520.504Z" fill="#123874"/>
<path fill-rule="evenodd" clip-rule="evenodd" d="M275.435 497.647L276.349 496.266L279.304 498.912L279.136 499.423L275.435 497.647Z" fill="#123874"/>
<defs>
<linearGradient id="paint0_linear_1411:44909" x1="384.185" y1="347.576" x2="480.819" y2="109.424" gradientUnits="userSpaceOnUse">
<stop stop-color="#D5EDF3"/>
<stop offset="1" stop-color="#A2DBD8"/>
</linearGradient>
<linearGradient id="paint1_linear_1411:44909" x1="497.019" y1="391.933" x2="340.158" y2="518.521" gradientUnits="userSpaceOnUse">
<stop stop-color="#2FAC6D"/>
<stop offset="1" stop-color="#007846"/>
</linearGradient>
<linearGradient id="paint2_linear_1411:44909" x1="637.749" y1="425.677" x2="266.837" y2="555.972" gradientUnits="userSpaceOnUse">
<stop stop-color="#2FAC6D"/>
<stop offset="1" stop-color="#007846"/>
</linearGradient>
<linearGradient id="paint3_linear_1411:44909" x1="680.964" y1="512.634" x2="355.692" y2="680.806" gradientUnits="userSpaceOnUse">
<stop stop-color="#68C179"/>
<stop offset="1" stop-color="#25A062"/>
</linearGradient>
<linearGradient id="paint4_linear_1411:44909" x1="569.622" y1="483.659" x2="381.222" y2="572.905" gradientUnits="userSpaceOnUse">
<stop stop-color="#68C179"/>
<stop offset="1" stop-color="#25A062"/>
</linearGradient>
<linearGradient id="paint5_linear_1411:44909" x1="448.642" y1="502.01" x2="427.133" y2="612.045" gradientUnits="userSpaceOnUse">
<stop stop-color="#77EBFF"/>
<stop offset="1" stop-color="#4D86DE"/>
</linearGradient>
<linearGradient id="paint6_linear_1411:44909" x1="347.025" y1="695.157" x2="346.92" y2="695.596" gradientUnits="userSpaceOnUse">
<stop stop-color="#91F6FF"/>
<stop offset="1" stop-color="#4D86DE"/>
</linearGradient>
<linearGradient id="paint7_linear_1411:44909" x1="656.673" y1="452.969" x2="427.035" y2="787.721" gradientUnits="userSpaceOnUse">
<stop stop-color="#91F6FF"/>
<stop offset="1" stop-color="#4D86DE"/>
</linearGradient>
<linearGradient id="paint8_linear_1411:44909" x1="535.142" y1="145.44" x2="453.302" y2="386.515" gradientUnits="userSpaceOnUse">
<stop stop-color="#30A0DE"/>
<stop offset="1" stop-color="#194383"/>
</linearGradient>
<linearGradient id="paint9_linear_1411:44909" x1="545.85" y1="489.609" x2="694.788" y2="-77.0879" gradientUnits="userSpaceOnUse">
<stop stop-color="#30A0DE"/>
<stop offset="1" stop-color="#194383"/>
</linearGradient>
<linearGradient id="paint10_linear_1411:44909" x1="370.424" y1="136.137" x2="311.676" y2="370.438" gradientUnits="userSpaceOnUse">
<stop stop-color="#30A0DE"/>
<stop offset="1" stop-color="#194383"/>
</linearGradient>
<linearGradient id="paint11_linear_1411:44909" x1="245.715" y1="140.896" x2="182.949" y2="430.722" gradientUnits="userSpaceOnUse">
<stop stop-color="#30A0DE"/>
<stop offset="1" stop-color="#194383"/>
</linearGradient>
<linearGradient id="paint12_linear_1411:44909" x1="224" y1="270" x2="224" y2="373.516" gradientUnits="userSpaceOnUse">
<stop stop-color="#68C179"/>
<stop offset="1" stop-color="#1FA063"/>
</linearGradient>
<linearGradient id="paint13_linear_1411:44909" x1="211.622" y1="294.118" x2="203.092" y2="405.533" gradientUnits="userSpaceOnUse">
<stop stop-color="#68C179"/>
<stop offset="1" stop-color="#1FA063"/>
</linearGradient>
<linearGradient id="paint14_linear_1411:44909" x1="226.403" y1="457.651" x2="229.241" y2="376.487" gradientUnits="userSpaceOnUse">
<stop stop-color="#006239"/>
<stop offset="1" stop-color="#007846"/>
</linearGradient>
<linearGradient id="paint15_linear_1411:44909" x1="345.5" y1="304" x2="345.5" y2="370.202" gradientUnits="userSpaceOnUse">
<stop stop-color="#68C179"/>
<stop offset="1" stop-color="#1FA063"/>
</linearGradient>
<linearGradient id="paint16_linear_1411:44909" x1="337.603" y1="319.424" x2="332.161" y2="390.68" gradientUnits="userSpaceOnUse">
<stop stop-color="#68C179"/>
<stop offset="1" stop-color="#1FA063"/>
</linearGradient>
<linearGradient id="paint17_linear_1411:44909" x1="346.799" y1="456.838" x2="351.59" y2="379.656" gradientUnits="userSpaceOnUse">
<stop stop-color="#006239"/>
<stop offset="1" stop-color="#008D52"/>
</linearGradient>
<linearGradient id="paint18_linear_1411:44909" x1="603.726" y1="476.566" x2="343.255" y2="524.601" gradientUnits="userSpaceOnUse">
<stop stop-color="#68C179"/>
<stop offset="1" stop-color="#139553"/>
</linearGradient>
<linearGradient id="paint19_linear_1411:44909" x1="399.017" y1="431.096" x2="403.321" y2="465.813" gradientUnits="userSpaceOnUse">
<stop stop-color="#F9BB49"/>
<stop offset="1" stop-color="#CD6709"/>
</linearGradient>
<linearGradient id="paint20_linear_1411:44909" x1="357.154" y1="420.841" x2="378.788" y2="511.898" gradientUnits="userSpaceOnUse">
<stop stop-color="#F9BB49"/>
<stop offset="1" stop-color="#F08523"/>
</linearGradient>
<linearGradient id="paint21_linear_1411:44909" x1="342.724" y1="426.598" x2="336.399" y2="478.564" gradientUnits="userSpaceOnUse">
<stop stop-color="#F9BB49"/>
<stop offset="1" stop-color="#F08523"/>
</linearGradient>
<linearGradient id="paint22_linear_1411:44909" x1="419.651" y1="422.002" x2="416.251" y2="475.083" gradientUnits="userSpaceOnUse">
<stop stop-color="#F9BB49"/>
<stop offset="1" stop-color="#F08523"/>
</linearGradient>
</defs>
</svg>
