<svg width="800" height="800" viewBox="0 0 800 800" fill="none" xmlns="http://www.w3.org/2000/svg">
<path d="M400 700C565.685 700 700 565.685 700 400C700 234.315 565.685 100 400 100C234.315 100 100 234.315 100 400C100 565.685 234.315 700 400 700Z" fill="url(#paint0_linear_1411:44911)"/>
<path opacity="0.5" fill-rule="evenodd" clip-rule="evenodd" d="M106.711 336.606C135.559 302.122 183.186 296.073 217.72 313.441C264.499 336.965 307.671 320.421 340.97 263.091C374.27 205.762 456.378 210.716 539.462 246.938C585.487 267.003 622.875 263.551 651.625 236.581C682.223 283.597 700 339.722 700 400C700 565.685 565.685 700 400 700C234.315 700 100 565.685 100 400C100 378.25 102.314 357.041 106.711 336.606Z" fill="url(#paint1_linear_1411:44911)"/>
<path fill-rule="evenodd" clip-rule="evenodd" d="M101.971 365.426C122.192 357.122 150.283 357.404 186.243 366.275C323.455 400.121 297.82 335.452 328.676 279.909C359.532 224.365 427.571 185.178 519.163 234.575C605.091 280.918 572.768 300.656 683.944 302.92C694.352 333.369 700 366.025 700 400C700 565.685 565.685 700 400 700C234.315 700 100 565.685 100 400C100 388.307 100.669 376.771 101.971 365.426Z" fill="url(#paint2_linear_1411:44911)"/>
<path d="M332.5 475C411.201 475 475 411.201 475 332.5C475 253.799 411.201 190 332.5 190C253.799 190 190 253.799 190 332.5C190 411.201 253.799 475 332.5 475Z" fill="url(#paint3_linear_1411:44911)"/>
<path fill-rule="evenodd" clip-rule="evenodd" d="M192.224 307.286C199.71 265.358 225.534 229.781 261.104 209.149C265.691 208.434 264.663 209.97 262.232 211.576C258.96 213.738 256.167 216.805 252.297 221.738C248.426 226.672 252.297 223.697 254.16 223.697C256.023 223.697 258.999 222.753 258.999 219.405C258.999 216.057 263.605 214.656 268.19 211.576C272.775 208.497 273.753 210.934 271.011 212.411C268.27 213.887 266.703 214.331 264.508 216.805C262.312 219.279 264.508 219.532 263.605 222.753C262.702 225.974 265.504 224.561 268.19 221.738C270.876 218.916 272.473 221.633 271.011 222.753C269.55 223.873 270.589 226.695 264.508 228.044C258.426 229.392 260.609 230.574 256.167 232.736C251.725 234.897 250.229 236.02 245.494 240.096C240.758 244.172 239.458 248.915 242.086 250.818C244.715 252.721 243.916 255.895 248.763 255.895C253.611 255.895 250.229 259.003 250.229 263.05C250.229 267.097 254.16 265.389 255.32 261.737C256.479 258.086 255.272 258.718 258.999 255.895C262.725 253.072 263.358 251.721 262.232 248.007C261.105 244.292 264.13 244.533 265.504 240.096C266.877 235.658 269.005 238.539 273.753 238.539C278.501 238.539 277.885 240.355 277.885 242.694C277.885 245.033 277.885 250.27 284.251 246.647C290.616 243.024 289.307 247.171 289.307 251.721C289.307 256.272 292.699 256.892 298.121 260.086C303.542 263.28 296.33 265.129 291.79 267.231C287.25 269.332 284.74 268.773 277.455 268.773C270.17 268.773 269.005 274.189 273.753 272.196C278.501 270.204 279.478 271.098 278.816 273.423C278.153 275.748 277.455 278.901 283.028 278.901C288.6 278.901 284.644 281.353 280.205 282.603C275.766 283.852 273.249 286.733 274.53 283.434C275.811 280.135 275.818 281.81 269.005 283.434C262.192 285.057 266.032 288.813 260.609 291.118C255.186 293.424 253.102 298.917 252.297 302.508C251.491 306.098 247.456 309.53 242.086 312.32C236.716 315.109 242.086 325.112 242.086 328.098C242.086 331.085 237.8 331.618 237.8 326.63C237.8 321.642 236.388 320.509 233.346 319.143C230.304 317.777 228.517 317.946 225.973 319.882C223.428 321.817 223.94 320.509 219.127 320.509C214.313 320.509 213.468 323.566 213.468 331.618C213.468 339.67 214.724 344.495 217.802 345.955C220.88 347.416 222.755 347.042 223.94 342.994C225.125 338.946 223.968 339.156 228.517 339.156C233.067 339.156 229.94 341.82 228.517 347.042C227.095 352.264 227.09 352.893 232.442 352.094C237.794 351.295 237.161 358.177 237.161 362.354C237.161 366.531 240.217 367.43 242.892 367.43C245.567 367.43 244.398 365.319 248.763 367.43C253.129 369.542 251.301 368.002 254.16 363.197C257.018 358.393 259.633 363.536 262.232 362.354C264.83 361.172 266.543 361.818 269.005 364.335C271.467 366.853 273.205 365.693 277.885 364.335C282.566 362.977 283.711 366.751 287.46 369.597C291.209 372.444 292.986 374.463 300.955 374.463C308.924 374.463 311.922 382.092 308.993 385.251C306.065 388.409 308.993 389.124 315.095 387.606C321.196 386.088 323.676 393.152 328.853 391.755C334.029 390.357 333.997 394.373 338.955 396.359C343.914 398.344 340.717 405.249 335.818 408.532C330.919 411.815 332.395 419.719 331.319 423.383C330.243 427.046 327.497 428.991 322.784 428.991C318.071 428.991 317.076 431.854 317.076 436.885C317.076 441.917 316.612 441.251 310.733 445.926C304.854 450.601 308.224 452.924 304.36 455.093C300.495 457.262 304.239 460.541 306.177 462.907C308.115 465.273 307.316 465.749 310.733 468.53C313.011 470.385 312.432 470.801 308.993 469.779C305.904 468.582 303.225 466.876 300.955 464.661C297.55 461.338 295.444 461.055 294.634 457.361C293.825 453.668 291.79 454.747 288.547 451.657C285.303 448.568 286.803 445.926 285.333 442.999C283.864 440.072 279.561 431.219 278.816 424.719C278.07 418.219 273.036 418.146 269.856 417.629C266.676 417.112 264.508 414.645 261.514 409.931C258.521 405.217 255.688 404.124 253.688 401.704C251.687 399.285 247.736 396.359 249.115 393.827C250.494 391.296 249.189 391.36 248.345 390.702C247.501 390.044 247.409 385.605 250.229 381.721C253.05 377.836 249.19 371.665 247.736 368.669C246.283 365.673 244.638 368.989 241.718 370.022C238.798 371.055 237.161 367.43 233.346 362.354C229.53 357.278 225.973 358.976 222.576 356.117C219.179 353.258 217.802 352.094 213.468 352.094C209.135 352.094 203.837 347.042 203.837 339.156C203.837 331.27 199.906 335.265 197.707 332.918C196.087 331.189 193.976 316.945 192.224 307.286ZM272.018 203.435C280.84 199.294 290.156 196.031 299.854 193.758C302.548 193.864 306.006 193.966 308.217 193.648C311.564 193.166 314.023 194.495 307.629 196.726C301.235 198.956 297.219 198.127 294.755 200.862C292.291 203.596 290.287 206.51 286.461 205.603C282.634 204.696 281.371 204.419 284.414 202.818C287.458 201.217 291.052 199.66 287.018 199.66C282.985 199.66 281.115 200.907 278.325 202.216C275.536 203.525 276.043 204.66 278.96 205.603C281.877 206.545 287.416 207.23 284.096 208.03C280.776 208.83 280.471 206.976 276.404 206.976C272.337 206.976 276.413 204.978 273.73 204.12C273.182 203.945 272.599 203.705 272.018 203.435ZM419.896 219.939C453.427 246.012 475 286.737 475 332.501C475 348.355 472.411 363.604 467.632 377.849C464.16 382.617 461.578 386.281 459.888 388.84C456.502 393.966 459.425 392.254 455.538 398.488C451.652 404.723 449.483 412.525 446.416 414.682C443.348 416.84 439.122 419.696 437.349 423.01C435.577 426.323 434.857 430.018 429.268 432.922C423.68 435.825 424.942 436.112 419.603 439.831C414.264 443.55 412.591 445.409 408.967 445.409C405.344 445.409 403.108 447.733 406.693 442.253C410.279 436.772 407.761 436.037 411.624 431.547C415.487 427.056 413.591 421.33 417.555 416.759C421.519 412.188 422.051 412.706 424.353 408.043C426.655 403.381 428.422 403.758 427.539 398.488C426.655 393.219 425.809 388.938 427.539 385.103C429.268 381.269 432.26 377.329 427.539 377.329C422.818 377.329 424.287 370.43 419.603 372.675C414.92 374.921 413.388 373.787 410.371 375.155C407.354 376.523 408.282 372.981 403.681 375.155C399.081 377.329 398.166 377.634 395.592 375.155C393.019 372.675 395.854 375.205 392.182 372.675C388.51 370.146 389.344 370.197 388.927 367.215C388.51 364.232 386.762 362.445 384.934 360.949C383.107 359.453 381.671 357.776 382.88 354.574C384.088 351.373 385.78 348.553 384.934 344.939C384.088 341.325 383.002 339.748 384.934 336.927C386.867 334.107 385.295 330.487 388.198 328.209C391.102 325.93 390.162 323.302 393.402 323.302C396.642 323.302 398.708 320.564 398.708 317.37C398.708 314.176 398.299 312.702 400.99 310.704C403.681 308.707 402.629 305.508 407.489 306.211C412.35 306.914 412.758 307.121 416.18 304.909C419.603 302.696 421.168 302.434 424.353 302.434C427.539 302.434 432.865 299.96 432.865 302.434C432.865 304.909 430.717 307.049 434.984 309.481C439.251 311.912 439.887 310.548 443.152 314.489C446.416 318.43 450.872 321.498 450.872 317.37C450.872 313.241 451.189 311.608 455.538 314.489C459.888 317.37 461.758 318.279 464.501 316.384C467.245 314.489 468.155 310.821 466.678 306.211C465.2 301.6 466.937 303.269 462.238 302.434C457.539 301.6 457.111 301.966 456.324 297.959C455.538 293.952 459.272 291.425 454.583 292.059C449.895 292.694 449.197 291.408 450.872 296.115C452.547 300.822 453.665 304.173 450.872 301.066C448.079 297.959 449.806 297.853 447.704 296.115C445.602 294.378 444.372 293.159 444.372 291.338C444.372 289.516 443.302 288.636 440.492 286.027C437.682 283.418 436.369 280.456 434.617 280.456C432.865 280.456 431.132 281.421 433.798 284.224C436.464 287.026 435.793 288.135 438.437 289.421C441.081 290.706 442.752 291.554 442.752 294.18C442.752 296.805 441.319 298.819 440.905 300.627C440.492 302.434 439.248 302.418 437.349 300.627C435.451 298.835 436.382 299.048 438.437 298.503C440.492 297.959 443.714 296.832 439.166 293.8C434.617 290.768 431.427 288.915 430.865 286.57C430.304 284.224 428.513 282.663 426.053 284.616C423.593 286.57 424.066 285.008 421.032 286.027C417.998 287.047 420.546 287.622 417.555 291.338C414.564 295.053 415.475 294.852 414.307 297.959C413.14 301.066 413.175 301.527 408.967 302.764C404.76 304.001 406.654 303.802 402.866 302.434C399.077 301.066 397.81 302.479 397.81 298.503C397.81 294.528 399.03 293.177 397.311 290.539C395.592 287.901 393.734 284.129 398.708 285.078C403.681 286.027 409.187 287.412 409.523 285.078C409.859 282.744 410.685 279.647 407.489 277.649C404.293 275.651 406.648 275.35 402.866 274.476C399.084 273.601 399.873 271.99 403.681 271.99C407.489 271.99 407.068 272.073 408.967 270.05C410.867 268.026 413.039 268.554 413.673 265.203C414.307 261.851 414.183 260.202 417.214 259.732C420.246 259.262 420.006 259.069 417.555 256.781C415.104 254.493 417.007 251.013 419.603 255.352C422.199 259.691 422.839 259.312 426.053 257.914C429.268 256.516 428.489 257.628 430.865 256.781C433.241 255.934 434.864 255.865 432.865 253.974C430.865 252.083 430.534 249.822 432.166 249.822C433.798 249.822 434.864 249.71 432.865 248.243C430.865 246.776 429.348 245.71 432.166 245.286C434.984 244.862 435.064 241.387 432.166 243.124C429.268 244.862 429.05 245.589 426.931 243.124C424.812 240.66 425.433 240.25 423.528 238.235C421.622 236.22 421.53 237.152 421.865 234.417C422.2 231.681 421.652 229.89 419.603 229.89C417.555 229.89 420.143 230.706 419.603 233.029C419.063 235.353 416.493 238.468 420.01 240.796C423.528 243.124 424.414 242.145 424.855 246.155C425.295 250.166 427.107 252.595 424.855 253.974C422.603 255.352 423.202 254.623 420.378 251.848C417.555 249.072 416.991 243.498 414.307 246.66C411.624 249.822 410.744 248.112 408.394 245.286C406.044 242.461 404.195 239.79 406.295 236.41C408.394 233.029 409.295 232.038 407.489 229.89C405.684 227.742 403.622 222.059 406.295 219.9C408.967 217.74 409.574 217.268 411.624 218.342C413.673 219.417 414.418 219.071 417.214 220.344C418.844 221.086 418.907 220.531 419.896 219.939ZM280.398 221.632C280.398 220.622 279.655 219.6 276.44 220.318C273.225 221.037 275.64 219.368 270.928 218.966C266.217 218.565 268.612 217.128 271.837 213.529C275.062 209.929 276.444 210.719 274.972 212.212C273.499 213.705 273.582 215.116 275.64 213.529C277.697 211.941 279.882 211.515 282.637 211.247C285.392 210.978 285.642 212.087 285.341 213.529C285.039 214.97 288.471 217.134 290.713 217.395C292.955 217.655 292.171 220.201 290.713 221.632C289.254 223.062 290.607 223.94 292.78 224.246C294.953 224.551 294.324 227.015 296.541 226.56C298.758 226.104 298.481 227.26 297.296 227.962C296.111 228.665 294.828 228.821 293.269 230.729C291.709 232.638 290.605 231.111 290.23 229.368C289.855 227.624 288.681 227.82 287.309 228.454C285.936 229.089 286.397 230.729 288.471 232.009C290.544 233.29 290.015 233.983 289.053 235.911C288.092 237.839 286.31 236.436 283.687 234.864C281.064 233.292 284.181 237.156 285.642 239.036C287.103 240.916 283.041 238.993 280.074 237.926C277.107 236.859 277.724 235.816 276.957 233.811C276.191 231.805 274.673 232.278 273.043 232.812C271.414 233.346 269.94 233.547 269.94 232.278C269.94 231.009 273.425 230.303 275.23 230.433C277.035 230.564 277.395 230.303 277.395 228.821C277.395 227.339 279.677 227.066 281.224 225.821C282.771 224.575 280.398 222.641 280.398 221.632ZM347.963 223.604C346.056 223.907 344.495 224.059 343.281 224.059C341.459 224.059 342.264 225.077 340.601 226.986C338.937 228.895 338.199 229.686 335.21 229.686C332.221 229.686 330.252 229.759 329.703 233.002C329.153 236.246 326.165 236.171 327.193 238.855C328.22 241.539 325.483 245.156 323.149 243.768C320.815 242.38 319.239 241.831 316.506 241.831C313.772 241.831 311.134 239.529 311.997 235.539C312.859 231.549 311.252 232.733 310.007 229.328C308.761 225.922 308.198 225.494 310.939 224.059C313.68 222.624 317.335 219.83 314.438 220.433C311.541 221.035 309.074 221.421 310.007 219.352C310.939 217.283 311.826 217.25 313.132 217.879C314.438 218.508 316.879 216.483 314.438 215.756C311.997 215.028 311.302 215.377 311.649 213.107C311.997 210.838 311.34 205.395 307.72 205.729C304.099 206.063 299.224 206.315 299.669 204.782C300.114 203.249 301.595 203.393 300.632 202.261C299.669 201.129 300.209 200.358 302.55 200.358C304.891 200.358 307.201 200.164 309.07 198.484C310.939 196.804 316.028 194.351 320.087 194.351C324.146 194.351 325.319 194.562 328.855 193.343C332.391 192.124 338.569 192.335 340.601 193.343C342.632 194.351 341.463 195.821 343.966 195.362C346.47 194.903 350.836 192.89 349.948 195.687C349.06 198.484 347.299 199.652 349.948 201.254C352.598 202.856 350.004 203.51 352.135 204.782C354.267 206.053 356.143 206.026 355.205 209.075C354.267 212.125 353.321 212.423 354.717 214.368C356.113 216.313 357.772 219.804 355.205 218.29C352.638 216.777 350.647 215.519 350.647 217.435C350.647 219.352 351.34 219.006 353.029 219.352C354.717 219.698 356.044 219.442 353.774 221.028C352.26 222.085 350.323 222.943 347.963 223.604ZM302.585 273.379C302.603 273.332 302.111 273.704 301.109 274.493C299.607 275.678 297.19 278.13 296.922 277.143C296.655 276.156 297.891 275.964 297.891 275.229C297.891 274.493 297.159 274.645 295.526 275.052C293.893 275.459 288.291 276.165 290.46 273.847C292.628 271.529 292.816 272.401 293.67 270.225C294.523 268.048 295.34 266.885 296.922 266.265C298.505 265.646 298.254 266.396 297.178 267.964C296.102 269.533 295.953 269.679 296.922 269.517C297.891 269.356 297.16 271.381 298.652 270.803C300.145 270.225 303.419 269.623 302.585 270.97C301.75 272.316 302.164 271.995 303.285 271.995C304.032 271.995 303.799 272.456 302.585 273.379ZM263.24 347.094C262.789 347.322 262.583 347.094 261.949 346.873C261.314 346.653 260.904 346.873 260.548 347.557C260.192 348.241 260.02 348.765 259.261 348.022C258.502 347.278 257.428 347.094 255.681 347.094C253.934 347.094 253.116 347.319 253.116 346.25C253.116 345.181 255.344 345.987 256.934 346.25C258.524 346.513 256.934 344.831 256.092 343.737C255.249 342.643 255.945 342.646 256.934 342.997C257.923 343.349 257.74 343.381 259.261 343.381C260.782 343.381 261.287 343.044 262.919 343.915C264.551 344.787 264.084 345.334 265.983 345.544C267.882 345.754 266.5 346.983 265.405 346.873C264.309 346.763 263.691 346.865 263.24 347.094ZM252.25 341.416C252.572 341.416 254.917 342.808 252.573 343.132C250.229 343.457 250.028 342.808 248.514 343.132C247.001 343.457 246.368 343.715 246.888 342.645C247.408 341.575 246.643 342.22 245.592 340.846C244.541 339.472 244.693 339.353 242.27 338.769C239.847 338.185 239.1 335.292 237.385 336.365C235.671 337.439 235.127 338.998 233.774 338.398C232.421 337.798 233.938 336.391 235.838 335.61C237.739 334.83 240.485 334.169 242.27 335.61C244.055 337.052 244.479 336.192 245.995 337.481C247.512 338.769 248.311 337.467 249.575 339.441C250.839 341.416 251.928 341.416 252.25 341.416ZM372.725 230.122C373.558 230.916 373.165 231.863 371.548 232.964C369.122 234.614 370.6 235.821 367.53 235.218C364.461 234.614 362.772 234.27 361.219 234.27C359.666 234.27 361.553 232.018 359.529 232.018C357.505 232.018 357.414 231.42 358.78 230.771C360.146 230.122 356.341 228.528 358.78 228.528C361.219 228.528 360.181 230.052 363.292 228.528C366.403 227.003 366.282 228.528 368.684 228.528C370.285 228.528 371.632 229.059 372.725 230.122ZM407.165 267.056C406.534 266.625 405.546 266.625 404.198 267.056C402.178 267.701 400.06 268.975 399.564 268.338C399.069 267.701 399.69 267.632 400.408 266.296C401.126 264.961 401.177 265.419 399.564 264.708C397.951 263.997 397.837 262.96 399.123 261.554C400.408 260.148 401.659 258.333 399.123 257.607C396.586 256.881 396.516 257.367 395.563 255.252C394.611 253.137 392.053 252.76 392.625 250.574C393.197 248.389 392.004 247.713 395.563 249.144C399.123 250.574 397.388 252.442 399.123 253.343C400.857 254.244 401.341 256.764 403.22 257.607C405.1 258.451 404.256 260.448 405.931 260.448C407.607 260.448 409.827 260.304 409.827 262.669C409.827 265.034 409.472 264.327 410.333 265.311C410.907 265.968 409.851 266.549 407.165 267.056ZM395.357 259.391C395.357 260.36 397.974 262.181 395.357 263.485C392.74 264.789 388.982 265.792 389.68 263.485C390.379 261.178 389.228 261.706 388.768 260.104C388.309 258.502 389.097 259.275 390.408 257.684C391.72 256.093 391.256 255.455 393.307 256.108C395.357 256.762 395.357 258.422 395.357 259.391ZM381.521 201.782C384.075 204.413 384.322 205.157 382.262 204.015C379.172 202.301 379.149 201.049 376.252 201.049C373.354 201.049 369.555 199.701 371.716 198.363C373.878 197.026 374.159 196.443 376.718 197.725C379.276 199.007 378.853 199.509 381.521 200.279C384.188 201.049 388.593 203.274 386.049 202.825C384.352 202.525 382.843 202.178 381.521 201.782Z" fill="url(#paint4_linear_1411:44911)"/>
<path fill-rule="evenodd" clip-rule="evenodd" d="M608 590H616V599C616 601.209 614.209 603 612 603C609.791 603 608 601.209 608 599V590Z" fill="#3C6EBB"/>
<path fill-rule="evenodd" clip-rule="evenodd" d="M482 603H490V612C490 614.209 488.209 616 486 616C483.791 616 482 614.209 482 612V603Z" fill="#3C6EBB"/>
<path fill-rule="evenodd" clip-rule="evenodd" d="M436.434 312.514L605.952 303.654C608.912 303.5 611.869 304.005 614.609 305.133L644.554 317.459L653.916 563.507C654.523 579.472 642.512 593.112 626.598 594.529L455.279 609.784L419.392 600.89C412.7 599.232 408 593.225 408 586.331V342.473C408 326.513 420.496 313.347 436.434 312.514Z" fill="url(#paint5_linear_1411:44911)"/>
<path fill-rule="evenodd" clip-rule="evenodd" d="M473.445 324.248L633.873 315.193C644.901 314.57 654.346 323.006 654.969 334.034C654.99 334.409 655 334.785 655 335.161V564.701C655 580.177 643.229 593.112 627.823 594.568L461.547 610.281C453.299 611.061 445.982 605.006 445.202 596.759C445.158 596.29 445.136 595.819 445.136 595.348V354.2C445.136 338.288 457.559 325.144 473.445 324.248Z" fill="url(#paint6_linear_1411:44911)"/>
<path fill-rule="evenodd" clip-rule="evenodd" d="M490.499 369.122L608.309 362.557C611.784 362.363 615.059 364.191 616.719 367.249L617.956 369.528L614.57 414.016C614.24 418.356 610.852 421.837 606.523 422.285L494.013 433.931L489.439 433.126C485.137 432.368 482 428.63 482 424.262V378.108C482 373.332 485.731 369.387 490.499 369.122Z" fill="url(#paint7_linear_1411:44911)"/>
<path fill-rule="evenodd" clip-rule="evenodd" d="M494.555 372.176L610.555 365.712C614.966 365.466 618.742 368.843 618.988 373.254C618.996 373.403 619 373.551 619 373.699V417.113C619 421.29 615.787 424.764 611.623 425.089L495.623 434.144C491.218 434.488 487.368 431.196 487.024 426.791C487.008 426.584 487 426.376 487 426.168V380.163C487 375.918 490.316 372.412 494.555 372.176Z" fill="url(#paint8_linear_1411:44911)"/>
<path fill-rule="evenodd" clip-rule="evenodd" d="M490.5 318.487L479.5 319.003V227.223C479.5 216.324 488.028 207.331 498.911 206.752L562.911 203.348C574.217 202.746 583.87 211.424 584.471 222.73C584.49 223.093 584.5 223.456 584.5 223.819V313.202L573.5 313.66V223.819C573.5 223.651 573.496 223.482 573.487 223.314C573.208 218.075 568.735 214.054 563.495 214.332L499.495 217.737C494.452 218.005 490.5 222.173 490.5 227.223V318.487Z" fill="url(#paint9_linear_1411:44911)"/>
<path fill-rule="evenodd" clip-rule="evenodd" d="M514.019 220.787C508.777 221.027 504.334 216.972 504.095 211.731C503.856 206.489 507.91 202.046 513.152 201.807L551.042 200.076C556.283 199.837 560.726 203.892 560.965 209.133C561.205 214.374 557.15 218.817 551.909 219.057L514.019 220.787Z" fill="url(#paint10_linear_1411:44911)"/>
<path fill-rule="evenodd" clip-rule="evenodd" d="M479.517 314.837C481.148 315.922 483.117 316.464 485.425 316.464C487.733 316.464 489.433 315.805 490.524 314.486C491.459 315.574 491.551 316.618 490.799 317.618C489.671 319.117 483.449 320.086 479.517 317.997C478.895 317.585 478.633 317.023 478.731 316.31C478.829 315.597 479.091 315.106 479.517 314.837Z" fill="url(#paint11_linear_1411:44911)"/>
<path fill-rule="evenodd" clip-rule="evenodd" d="M573.491 311.351C575.122 312.436 577.091 312.978 579.399 312.978C581.707 312.978 583.406 312.319 584.497 311C585.432 312.088 585.524 313.132 584.772 314.132C583.645 315.631 577.423 316.6 573.491 314.511C572.868 314.099 572.606 313.537 572.705 312.823C572.803 312.11 573.065 311.619 573.491 311.351Z" fill="url(#paint12_linear_1411:44911)"/>
<path d="M508.096 387.6C506.993 387.661 506.05 386.817 505.988 385.714C505.927 384.611 506.772 383.668 507.875 383.607L597.088 378.667C598.191 378.606 599.134 379.451 599.195 380.554C599.256 381.656 598.412 382.6 597.309 382.661L508.096 387.6Z" fill="#CDE0FF"/>
<path fill-rule="evenodd" clip-rule="evenodd" d="M511.118 385C508.477 389.15 507.514 392.299 508.228 394.449C509.301 397.674 513.266 396.902 513.98 394.129C514.456 392.28 513.502 389.237 511.118 385Z" fill="#CDE0FF"/>
<path fill-rule="evenodd" clip-rule="evenodd" d="M490.499 459.122L608.309 452.557C611.784 452.363 615.059 454.191 616.719 457.249L617.956 459.528L614.373 533.789C614.158 538.23 610.733 541.85 606.31 542.307L494.013 553.931L489.439 553.126C485.137 552.368 482 548.63 482 544.262V468.108C482 463.332 485.731 459.387 490.499 459.122Z" fill="url(#paint13_linear_1411:44911)"/>
<path fill-rule="evenodd" clip-rule="evenodd" d="M494.555 462.176L610.555 455.712C614.966 455.466 618.742 458.843 618.988 463.254C618.996 463.403 619 463.551 619 463.699V537.113C619 541.29 615.787 544.764 611.623 545.089L495.623 554.144C491.218 554.488 487.368 551.196 487.024 546.791C487.008 546.584 487 546.376 487 546.168V470.163C487 465.918 490.316 462.412 494.555 462.176Z" fill="url(#paint14_linear_1411:44911)"/>
<path d="M508.096 477.6C506.993 477.661 506.05 476.817 505.988 475.714C505.927 474.611 506.772 473.668 507.875 473.607L597.088 468.667C598.191 468.606 599.134 469.451 599.195 470.554C599.256 471.656 598.412 472.6 597.309 472.661L508.096 477.6Z" fill="#CDE0FF"/>
<path fill-rule="evenodd" clip-rule="evenodd" d="M511.118 475C508.477 479.15 507.514 482.299 508.228 484.449C509.301 487.674 513.266 486.902 513.98 484.129C514.456 482.28 513.502 479.237 511.118 475Z" fill="#CDE0FF"/>
<path fill-rule="evenodd" clip-rule="evenodd" d="M186.133 398.051L444.837 419.775C450.017 420.21 454 424.542 454 429.74V622.379C454 626.663 451.271 630.471 447.215 631.848L417.881 641.808L165 607L149.589 416.472L177.231 400.093C179.914 398.504 183.025 397.79 186.133 398.051Z" fill="url(#paint15_linear_1411:44911)"/>
<path fill-rule="evenodd" clip-rule="evenodd" d="M155.947 415.041L414.947 439.683C420.08 440.171 424 444.482 424 449.638V632.35C424 637.872 419.523 642.35 414 642.35C413.625 642.35 413.25 642.328 412.877 642.286L153.877 613.003C148.821 612.431 145 608.155 145 603.066V424.996C145 419.473 149.477 414.996 155 414.996C155.316 414.996 155.632 415.011 155.947 415.041Z" fill="url(#paint16_linear_1411:44911)"/>
<path fill-rule="evenodd" clip-rule="evenodd" d="M267 411.663L262.982 415.694L251.992 387.208C254.818 380.074 260.373 376 267 376C267.353 376 267.706 376.016 268.057 376.047L334.91 381.957C341.104 382.504 345.854 387.692 345.854 393.91V419.06L341.854 423.055L333.854 417.871V393.91L267 388V411.663Z" fill="url(#paint17_linear_1411:44911)"/>
<path fill-rule="evenodd" clip-rule="evenodd" d="M263 415.663L251 414.499V392C251 385.373 256.373 380 263 380C263.353 380 263.705 380.016 264.057 380.047L330.91 385.957C337.104 386.504 341.854 391.692 341.854 397.91V423.06L329.854 421.871V397.91L263 392V415.663Z" fill="url(#paint18_linear_1411:44911)"/>
<path fill-rule="evenodd" clip-rule="evenodd" d="M185.405 616.572V417.601L213.114 400.297L240.854 402.636L211.72 420.36V619.54L185.405 616.572Z" fill="url(#paint19_linear_1411:44911)"/>
<path fill-rule="evenodd" clip-rule="evenodd" d="M182.405 616.237V417.601L210.172 400.057L237.912 402.396L208.72 420.069V619.205L182.405 616.237Z" fill="url(#paint20_linear_1411:44911)"/>
<path fill-rule="evenodd" clip-rule="evenodd" d="M376.405 638.189V435.601L405.996 416.516L433.877 418.849L402.72 438.544V641.12L376.405 638.189Z" fill="url(#paint21_linear_1411:44911)"/>
<path fill-rule="evenodd" clip-rule="evenodd" d="M372.405 637.746V435.602L402.413 416.209L430.294 418.543L398.72 438.333V640.677L372.405 637.746Z" fill="url(#paint22_linear_1411:44911)"/>
<path fill-rule="evenodd" clip-rule="evenodd" d="M413 540H497C499.761 540 502 542.239 502 545V661C502 663.761 499.761 666 497 666H413C410.239 666 408 663.761 408 661V545C408 542.239 410.239 540 413 540Z" fill="#192A41"/>
<path fill-rule="evenodd" clip-rule="evenodd" d="M418 540H497C499.761 540 502 542.239 502 545V661C502 663.761 499.761 666 497 666H418V540Z" fill="#273F5F"/>
<path d="M428.406 642.999H427.002V634.995H430.53C432.21 634.995 433.134 636.135 433.134 637.503C433.134 638.859 432.198 639.999 430.53 639.999H428.406V642.999ZM430.338 638.763C431.13 638.763 431.694 638.259 431.694 637.503C431.694 636.735 431.13 636.231 430.338 636.231H428.406V638.763H430.338ZM441.402 642.999H439.806L439.218 641.451H435.546L434.958 642.999H433.362L436.506 634.995H438.258L441.402 642.999ZM438.822 640.215L437.382 636.399L435.942 640.215H438.822ZM445.674 643.143C444.198 643.143 443.13 642.615 442.41 641.871L443.202 640.779C443.742 641.367 444.618 641.895 445.734 641.895C446.886 641.895 447.33 641.331 447.33 640.791C447.33 639.111 442.674 640.155 442.674 637.215C442.674 635.883 443.826 634.863 445.59 634.863C446.826 634.863 447.846 635.271 448.578 635.991L447.786 637.035C447.15 636.399 446.298 636.111 445.458 636.111C444.642 636.111 444.114 636.519 444.114 637.107C444.114 638.607 448.77 637.683 448.77 640.659C448.77 641.991 447.822 643.143 445.674 643.143ZM453.582 643.143C452.106 643.143 451.038 642.615 450.318 641.871L451.11 640.779C451.65 641.367 452.526 641.895 453.642 641.895C454.794 641.895 455.238 641.331 455.238 640.791C455.238 639.111 450.582 640.155 450.582 637.215C450.582 635.883 451.734 634.863 453.498 634.863C454.734 634.863 455.754 635.271 456.486 635.991L455.694 637.035C455.058 636.399 454.206 636.111 453.366 636.111C452.55 636.111 452.022 636.519 452.022 637.107C452.022 638.607 456.678 637.683 456.678 640.659C456.678 641.991 455.73 643.143 453.582 643.143ZM460.146 642.999H458.742V634.995H462.27C463.95 634.995 464.874 636.135 464.874 637.503C464.874 638.859 463.938 639.999 462.27 639.999H460.146V642.999ZM462.078 638.763C462.87 638.763 463.434 638.259 463.434 637.503C463.434 636.735 462.87 636.231 462.078 636.231H460.146V638.763H462.078ZM470.574 643.143C468.174 643.143 466.482 641.391 466.482 639.003C466.482 636.615 468.174 634.863 470.574 634.863C472.962 634.863 474.666 636.615 474.666 639.003C474.666 641.391 472.962 643.143 470.574 643.143ZM470.574 641.895C472.182 641.895 473.226 640.647 473.226 639.003C473.226 637.347 472.182 636.111 470.574 636.111C468.954 636.111 467.922 637.347 467.922 639.003C467.922 640.647 468.954 641.895 470.574 641.895ZM482.994 642.999H481.362L479.598 640.011H478.194V642.999H476.79V634.995H480.306C481.89 634.995 482.934 636.015 482.934 637.503C482.934 638.919 481.998 639.699 481.026 639.855L482.994 642.999ZM480.126 638.775C480.918 638.775 481.494 638.271 481.494 637.491C481.494 636.723 480.918 636.231 480.126 636.231H478.194V638.775H480.126ZM488.31 642.999H486.906V636.231H484.482V634.995H490.734V636.231H488.31V642.999Z" fill="white"/>
<path d="M458 617C445.85 617 436 607.15 436 595C436 582.85 445.85 573 458 573C470.15 573 480 582.85 480 595C480 607.15 470.15 617 458 617ZM458 615C469.046 615 478 606.046 478 595C478 583.954 469.046 575 458 575C446.954 575 438 583.954 438 595C438 606.046 446.954 615 458 615Z" fill="white"/>
<path d="M445 554C444.448 554 444 553.552 444 553C444 552.448 444.448 552 445 552H471C471.552 552 472 552.448 472 553C472 553.552 471.552 554 471 554H445Z" fill="white"/>
<path fill-rule="evenodd" clip-rule="evenodd" d="M311.763 369.704C303.815 351.578 297.811 320.529 340.17 296.073C383.119 271.276 407.079 292.928 418.622 308.95C447.059 299.613 468.817 298.897 474.627 308.96C484.016 325.222 448.201 363.477 394.632 394.404C341.063 425.332 290.026 437.222 280.637 420.96C274.562 410.436 287.416 390.702 311.763 369.704Z" fill="url(#paint23_linear_1411:44911)"/>
<path fill-rule="evenodd" clip-rule="evenodd" d="M384.364 372.621C354.71 389.742 324.85 393.54 317.67 381.104C316.228 378.606 314.106 374.931 312.071 370.401C312.071 370.401 329.182 381.081 372.089 356.309C415.346 331.334 418.868 309.295 418.868 309.295C421.63 313.168 423.662 316.687 425.057 319.104C432.237 331.54 414.018 355.5 384.364 372.621Z" fill="#82C5D8"/>
<defs>
<linearGradient id="paint0_linear_1411:44911" x1="329.605" y1="100" x2="271.045" y2="641.492" gradientUnits="userSpaceOnUse">
<stop stop-color="#EEFFFD"/>
<stop offset="1" stop-color="#B7FFF6"/>
</linearGradient>
<linearGradient id="paint1_linear_1411:44911" x1="272.355" y1="350.762" x2="276.945" y2="452.222" gradientUnits="userSpaceOnUse">
<stop stop-color="#C1FFF7"/>
<stop offset="1" stop-color="#62FFEB"/>
</linearGradient>
<linearGradient id="paint2_linear_1411:44911" x1="550.832" y1="294.591" x2="202.835" y2="559.848" gradientUnits="userSpaceOnUse">
<stop stop-color="#C1FFF7"/>
<stop offset="1" stop-color="#93E9DE"/>
</linearGradient>
<linearGradient id="paint3_linear_1411:44911" x1="394.783" y1="220.05" x2="221.836" y2="459.535" gradientUnits="userSpaceOnUse">
<stop stop-color="#13DBBF"/>
<stop offset="1" stop-color="#08B58B"/>
</linearGradient>
<linearGradient id="paint4_linear_1411:44911" x1="520.399" y1="13.3663" x2="331.86" y2="375.041" gradientUnits="userSpaceOnUse">
<stop stop-color="#13DBBF"/>
<stop offset="1" stop-color="#00A87F"/>
</linearGradient>
<linearGradient id="paint5_linear_1411:44911" x1="550.647" y1="314.768" x2="543.172" y2="456.566" gradientUnits="userSpaceOnUse">
<stop stop-color="#5A93EA"/>
<stop offset="1" stop-color="#3768B4"/>
</linearGradient>
<linearGradient id="paint6_linear_1411:44911" x1="557.719" y1="377.71" x2="422.084" y2="655.655" gradientUnits="userSpaceOnUse">
<stop stop-color="#6A9FF1"/>
<stop offset="1" stop-color="#3768B4"/>
</linearGradient>
<linearGradient id="paint7_linear_1411:44911" x1="515.498" y1="406.822" x2="581.621" y2="342.056" gradientUnits="userSpaceOnUse">
<stop stop-color="#4680DB"/>
<stop offset="1" stop-color="#538EE9"/>
</linearGradient>
<linearGradient id="paint8_linear_1411:44911" x1="510.967" y1="418.422" x2="548.488" y2="362.849" gradientUnits="userSpaceOnUse">
<stop stop-color="#6A9FF1"/>
<stop offset="1" stop-color="#92BDFF"/>
</linearGradient>
<linearGradient id="paint9_linear_1411:44911" x1="650.399" y1="149.792" x2="481.644" y2="315.592" gradientUnits="userSpaceOnUse">
<stop stop-color="#77EBFF"/>
<stop offset="1" stop-color="#5A93EB"/>
</linearGradient>
<linearGradient id="paint10_linear_1411:44911" x1="560.975" y1="207.78" x2="515.006" y2="232.291" gradientUnits="userSpaceOnUse">
<stop stop-color="#5A93EA"/>
<stop offset="1" stop-color="#3768B4"/>
</linearGradient>
<linearGradient id="paint11_linear_1411:44911" x1="494.101" y1="314.822" x2="489.3" y2="321.891" gradientUnits="userSpaceOnUse">
<stop stop-color="#6A9FF1"/>
<stop offset="1" stop-color="#3768B4"/>
</linearGradient>
<linearGradient id="paint12_linear_1411:44911" x1="588.075" y1="311.335" x2="583.274" y2="318.404" gradientUnits="userSpaceOnUse">
<stop stop-color="#6A9FF1"/>
<stop offset="1" stop-color="#3768B4"/>
</linearGradient>
<linearGradient id="paint13_linear_1411:44911" x1="515.498" y1="527.83" x2="587.972" y2="427.012" gradientUnits="userSpaceOnUse">
<stop stop-color="#4680DB"/>
<stop offset="1" stop-color="#538EE9"/>
</linearGradient>
<linearGradient id="paint14_linear_1411:44911" x1="510.967" y1="559.928" x2="558.937" y2="457.75" gradientUnits="userSpaceOnUse">
<stop stop-color="#6A9FF1"/>
<stop offset="1" stop-color="#92BDFF"/>
</linearGradient>
<linearGradient id="paint15_linear_1411:44911" x1="157.483" y1="431.234" x2="418.497" y2="616.061" gradientUnits="userSpaceOnUse">
<stop stop-color="#EBA931"/>
<stop offset="1" stop-color="#EA7D18"/>
</linearGradient>
<linearGradient id="paint16_linear_1411:44911" x1="145" y1="438.93" x2="376.754" y2="672.57" gradientUnits="userSpaceOnUse">
<stop stop-color="#F9BB49"/>
<stop offset="1" stop-color="#F08523"/>
</linearGradient>
<linearGradient id="paint17_linear_1411:44911" x1="268.302" y1="399.735" x2="241.017" y2="338.126" gradientUnits="userSpaceOnUse">
<stop stop-color="#DB593D"/>
<stop offset="1" stop-color="#F88461"/>
</linearGradient>
<linearGradient id="paint18_linear_1411:44911" x1="353.263" y1="438.807" x2="293.838" y2="319.293" gradientUnits="userSpaceOnUse">
<stop stop-color="#DB593D"/>
<stop offset="1" stop-color="#F88461"/>
</linearGradient>
<linearGradient id="paint19_linear_1411:44911" x1="213.553" y1="490.932" x2="141.139" y2="395.538" gradientUnits="userSpaceOnUse">
<stop stop-color="#C54327"/>
<stop offset="1" stop-color="#F88461"/>
</linearGradient>
<linearGradient id="paint20_linear_1411:44911" x1="209.893" y1="550.266" x2="128.246" y2="382.278" gradientUnits="userSpaceOnUse">
<stop stop-color="#DB593D"/>
<stop offset="1" stop-color="#F88461"/>
</linearGradient>
<linearGradient id="paint21_linear_1411:44911" x1="405.591" y1="509.367" x2="331.05" y2="412.313" gradientUnits="userSpaceOnUse">
<stop stop-color="#C54327"/>
<stop offset="1" stop-color="#F88461"/>
</linearGradient>
<linearGradient id="paint22_linear_1411:44911" x1="401.062" y1="570.065" x2="316.411" y2="399.007" gradientUnits="userSpaceOnUse">
<stop stop-color="#DB593D"/>
<stop offset="1" stop-color="#F88461"/>
</linearGradient>
<linearGradient id="paint23_linear_1411:44911" x1="389.161" y1="394.546" x2="382.991" y2="335.402" gradientUnits="userSpaceOnUse">
<stop stop-color="#B7D7DF"/>
<stop offset="1" stop-color="#D2EEF6"/>
</linearGradient>
</defs>
</svg>
