<svg width="800" height="800" viewBox="0 0 800 800" fill="none" xmlns="http://www.w3.org/2000/svg">
<path d="M400 700C565.685 700 700 565.685 700 400C700 234.315 565.685 100 400 100C234.315 100 100 234.315 100 400C100 565.685 234.315 700 400 700Z" fill="url(#paint0_linear_1411:44908)"/>
<path fill-rule="evenodd" clip-rule="evenodd" d="M472.141 193.402L449.697 208.353L425.271 213.152L351.761 328.656H547.753L472.141 193.402Z" fill="url(#paint1_linear_1411:44908)"/>
<path fill-rule="evenodd" clip-rule="evenodd" d="M472.141 193.402L449.697 208.353L425.271 213.152L351.761 328.656L507.937 343.407L481.878 287.654L441.691 252.188L461.69 231.322L472.141 193.402Z" fill="url(#paint2_linear_1411:44908)"/>
<path fill-rule="evenodd" clip-rule="evenodd" d="M122.081 286.825L207.339 219.877L292.553 157L306.469 198.841L326.738 232.688L365.566 241.559L550 410.172H100.169C100.057 406.795 100 403.404 100 400C100 359.958 107.845 321.749 122.081 286.825Z" fill="url(#paint3_linear_1411:44908)"/>
<path fill-rule="evenodd" clip-rule="evenodd" d="M122.081 286.825L207.339 219.877L292.553 157L268.98 225.809L216.933 289.716L275.885 335.436L273.147 410.172H100.169C100.057 406.795 100 403.404 100 400C100 359.958 107.845 321.749 122.081 286.825Z" fill="url(#paint4_linear_1411:44908)"/>
<path fill-rule="evenodd" clip-rule="evenodd" d="M683.293 301.034C694.116 332.019 700 365.322 700 400C700 403.156 699.951 406.3 699.855 409.433H340L587.768 235L616.157 275.671H652.008L683.293 301.034Z" fill="url(#paint5_linear_1411:44908)"/>
<path fill-rule="evenodd" clip-rule="evenodd" d="M340 409.433C340 409.433 422.589 351.288 587.768 235L578.5 286.798L549.102 312.24L554.176 355.744L624.623 392.004L653.199 433.243C444.4 417.37 340 409.433 340 409.433Z" fill="url(#paint6_linear_1411:44908)"/>
<path fill-rule="evenodd" clip-rule="evenodd" d="M100.002 398.973C118.562 386.065 137.628 384.28 157.197 393.618C195.924 412.099 260.075 412.099 311.374 396.76C362.673 381.421 397.339 413.297 436.434 405.028C475.529 396.76 537.014 387.738 649.106 401.239C669.415 404.21 686.358 405.916 699.934 406.354C696.552 569.106 563.562 700 400 700C234.315 700 100 565.685 100 400C100 399.658 100.001 399.315 100.002 398.973Z" fill="url(#paint7_linear_1411:44908)"/>
<path fill-rule="evenodd" clip-rule="evenodd" d="M519 427L522.61 418.135H520.481L523.867 411.105H521.962L525.348 402L528.958 411.105H527.477L530.439 418.135H528.258L531.92 427H519Z" fill="url(#paint8_linear_1411:44908)"/>
<path fill-rule="evenodd" clip-rule="evenodd" d="M540 416.195L542.772 409.388H541.137L543.737 403.991H542.274L544.874 397L547.646 403.991H546.508L548.783 409.388H547.108L549.92 416.195H540Z" fill="url(#paint9_linear_1411:44908)"/>
<path fill-rule="evenodd" clip-rule="evenodd" d="M136.317 543.198C166.739 509.366 212.621 510.353 273.961 546.157C368.006 601.052 383.16 567.157 383.16 532.124C383.16 497.09 326.926 416.778 441.188 429.423C555.45 442.068 624.443 470.974 696.72 442.435L685.793 452.101C644.882 461.825 594.906 461.825 535.863 452.101C447.299 437.517 393.559 433.993 407.607 500.72C421.654 567.447 394.383 632.387 314.432 603.024C252.301 580.205 195.185 579.955 167.349 589.418C155.642 575.055 145.238 559.588 136.317 543.197L136.317 543.198Z" fill="url(#paint10_linear_1411:44908)"/>
<path fill-rule="evenodd" clip-rule="evenodd" d="M697.087 441.972C696.466 446.408 695.748 450.812 694.935 455.184C671.852 471.322 627.703 473.825 562.489 462.693C422.837 438.855 425.633 461.814 449.367 560.306C473.102 658.798 356.921 650.148 279.663 628.178C245.243 618.389 224.81 621.925 218.365 638.787C184.841 613.247 156.857 580.808 136.529 543.589C159.358 515.94 209.256 511.533 272.189 552.388C365.89 613.216 409.545 571.447 381.543 493.097C353.542 414.748 442.165 427.001 562.489 448.806C626.473 460.401 671.339 458.123 697.087 441.972Z" fill="url(#paint11_linear_1411:44908)"/>
<path fill-rule="evenodd" clip-rule="evenodd" d="M647.595 569.452H490.948C499.445 530.713 550.16 562.112 569.223 538.2C588.286 514.289 588.342 492.485 637.817 492.485C669.964 492.485 688.815 481.038 694.37 458.143C686.387 498.788 670.196 536.491 647.595 569.452Z" fill="url(#paint12_linear_1411:44908)"/>
<path fill-rule="evenodd" clip-rule="evenodd" d="M100.002 399.02C122.857 382.597 155.557 394.449 171.638 407.911C189.088 422.519 211.272 426.533 264.135 420.573C299.377 416.6 328.562 437.117 351.689 482.124C318.051 469.222 293.177 469.857 277.068 484.032C252.904 505.293 227.229 503.855 179.064 485.958C138.667 470.946 122.941 492.12 117.309 500.67C106.102 469.203 100 435.314 100 399.999C100 399.673 100.001 399.347 100.002 399.02H100.002Z" fill="url(#paint13_linear_1411:44908)"/>
<path fill-rule="evenodd" clip-rule="evenodd" d="M697.514 438.797L589.494 442.775C601.912 417.064 621.198 440.542 638.033 428.27C654.868 415.997 664.714 433.726 676.703 425.542C684.595 420.155 693.435 425.404 698.556 429.623C698.255 432.695 697.908 435.753 697.514 438.797Z" fill="url(#paint14_linear_1411:44908)"/>
<path fill-rule="evenodd" clip-rule="evenodd" d="M217 446L229 485H205L217 446Z" fill="url(#paint15_linear_1411:44908)"/>
<path fill-rule="evenodd" clip-rule="evenodd" d="M346.5 531L355 558H338L346.5 531Z" fill="url(#paint16_linear_1411:44908)"/>
<path fill-rule="evenodd" clip-rule="evenodd" d="M355.5 540L361 558H350L355.5 540Z" fill="url(#paint17_linear_1411:44908)"/>
<path fill-rule="evenodd" clip-rule="evenodd" d="M519.5 528L526 549H513L519.5 528Z" fill="url(#paint18_linear_1411:44908)"/>
<path fill-rule="evenodd" clip-rule="evenodd" d="M533.5 515L544 549H523L533.5 515Z" fill="url(#paint19_linear_1411:44908)"/>
<path fill-rule="evenodd" clip-rule="evenodd" d="M324.5 500L330 518H319L324.5 500Z" fill="url(#paint20_linear_1411:44908)"/>
<path fill-rule="evenodd" clip-rule="evenodd" d="M242 430L259 485H225L242 430Z" fill="url(#paint21_linear_1411:44908)"/>
<path fill-rule="evenodd" clip-rule="evenodd" d="M463 678L472.242 655.304H466.791L475.459 637.308H470.582L479.25 614L488.492 637.308H484.701L492.283 655.304H486.701L496.074 678H463Z" fill="url(#paint22_linear_1411:44908)"/>
<path fill-rule="evenodd" clip-rule="evenodd" d="M504 645.571L510.147 630.474H506.522L512.287 618.504H509.044L514.809 603L520.956 618.504H518.435L523.478 630.474H519.765L526 645.571H504Z" fill="url(#paint23_linear_1411:44908)"/>
<defs>
<linearGradient id="paint0_linear_1411:44908" x1="370.855" y1="168.494" x2="191.013" y2="400" gradientUnits="userSpaceOnUse">
<stop stop-color="#C1FFF7"/>
<stop offset="1" stop-color="#93E9DE"/>
</linearGradient>
<linearGradient id="paint1_linear_1411:44908" x1="455.594" y1="223.958" x2="443.838" y2="299.451" gradientUnits="userSpaceOnUse">
<stop stop-color="#77EBFF"/>
<stop offset="1" stop-color="#4D86DE"/>
</linearGradient>
<linearGradient id="paint2_linear_1411:44908" x1="447.607" y1="201.539" x2="417.729" y2="347.327" gradientUnits="userSpaceOnUse">
<stop stop-color="#77EBFF"/>
<stop offset="1" stop-color="#4D86DE"/>
</linearGradient>
<linearGradient id="paint3_linear_1411:44908" x1="338.402" y1="237.466" x2="319.589" y2="335.96" gradientUnits="userSpaceOnUse">
<stop stop-color="#77EBFF"/>
<stop offset="1" stop-color="#4D86DE"/>
</linearGradient>
<linearGradient id="paint4_linear_1411:44908" x1="214.608" y1="167" x2="165.738" y2="406.06" gradientUnits="userSpaceOnUse">
<stop stop-color="#77EBFF"/>
<stop offset="1" stop-color="#4D86DE"/>
</linearGradient>
<linearGradient id="paint5_linear_1411:44908" x1="530.721" y1="298.647" x2="518.761" y2="352.574" gradientUnits="userSpaceOnUse">
<stop stop-color="#77EBFF"/>
<stop offset="1" stop-color="#4D86DE"/>
</linearGradient>
<linearGradient id="paint6_linear_1411:44908" x1="549.29" y1="288.582" x2="510.835" y2="394.828" gradientUnits="userSpaceOnUse">
<stop stop-color="#77EBFF"/>
<stop offset="1" stop-color="#4D86DE"/>
</linearGradient>
<linearGradient id="paint7_linear_1411:44908" x1="617.198" y1="510.759" x2="502.569" y2="722.04" gradientUnits="userSpaceOnUse">
<stop stop-color="#91F6FF"/>
<stop offset="1" stop-color="#4D86DE"/>
</linearGradient>
<linearGradient id="paint8_linear_1411:44908" x1="525.845" y1="428.461" x2="525.845" y2="406.585" gradientUnits="userSpaceOnUse">
<stop stop-color="#77EBFF" stop-opacity="0"/>
<stop offset="1" stop-color="#4986E5"/>
</linearGradient>
<linearGradient id="paint9_linear_1411:44908" x1="545.255" y1="417.316" x2="545.255" y2="400.52" gradientUnits="userSpaceOnUse">
<stop stop-color="#77EBFF" stop-opacity="0"/>
<stop offset="1" stop-color="#4986E5"/>
</linearGradient>
<linearGradient id="paint10_linear_1411:44908" x1="383.753" y1="509.057" x2="382.741" y2="541.743" gradientUnits="userSpaceOnUse">
<stop stop-color="#91F6FF"/>
<stop offset="1" stop-color="#4D86DE"/>
</linearGradient>
<linearGradient id="paint11_linear_1411:44908" x1="683.955" y1="515.959" x2="357.437" y2="742.651" gradientUnits="userSpaceOnUse">
<stop stop-color="#77EBFF"/>
<stop offset="1" stop-color="#4D86DE"/>
</linearGradient>
<linearGradient id="paint12_linear_1411:44908" x1="614.298" y1="532.942" x2="598.796" y2="481.969" gradientUnits="userSpaceOnUse">
<stop stop-color="#91F6FF" stop-opacity="0"/>
<stop offset="1" stop-color="#4D86DE"/>
</linearGradient>
<linearGradient id="paint13_linear_1411:44908" x1="204.432" y1="449.482" x2="205.967" y2="431.66" gradientUnits="userSpaceOnUse">
<stop stop-color="#91F6FF" stop-opacity="0"/>
<stop offset="1" stop-color="#4D86DE"/>
</linearGradient>
<linearGradient id="paint14_linear_1411:44908" x1="656.63" y1="440.67" x2="656.63" y2="410.111" gradientUnits="userSpaceOnUse">
<stop stop-color="#91F6FF" stop-opacity="0"/>
<stop offset="1" stop-color="#4D86DE"/>
</linearGradient>
<linearGradient id="paint15_linear_1411:44908" x1="217.715" y1="485" x2="217.715" y2="453.152" gradientUnits="userSpaceOnUse">
<stop stop-color="#77EBFF" stop-opacity="0"/>
<stop offset="1" stop-color="#4986E5"/>
</linearGradient>
<linearGradient id="paint16_linear_1411:44908" x1="347.006" y1="558" x2="347.006" y2="535.951" gradientUnits="userSpaceOnUse">
<stop stop-color="#77EBFF" stop-opacity="0"/>
<stop offset="1" stop-color="#4986E5"/>
</linearGradient>
<linearGradient id="paint17_linear_1411:44908" x1="355.828" y1="558" x2="355.828" y2="543.301" gradientUnits="userSpaceOnUse">
<stop stop-color="#77EBFF" stop-opacity="0"/>
<stop offset="1" stop-color="#4986E5"/>
</linearGradient>
<linearGradient id="paint18_linear_1411:44908" x1="519.887" y1="549" x2="519.887" y2="531.851" gradientUnits="userSpaceOnUse">
<stop stop-color="#77EBFF" stop-opacity="0"/>
<stop offset="1" stop-color="#4986E5"/>
</linearGradient>
<linearGradient id="paint19_linear_1411:44908" x1="534.125" y1="549" x2="534.125" y2="521.235" gradientUnits="userSpaceOnUse">
<stop stop-color="#77EBFF" stop-opacity="0"/>
<stop offset="1" stop-color="#4986E5"/>
</linearGradient>
<linearGradient id="paint20_linear_1411:44908" x1="324.828" y1="518" x2="324.828" y2="503.301" gradientUnits="userSpaceOnUse">
<stop stop-color="#77EBFF" stop-opacity="0"/>
<stop offset="1" stop-color="#4986E5"/>
</linearGradient>
<linearGradient id="paint21_linear_1411:44908" x1="243.013" y1="485" x2="243.013" y2="440.086" gradientUnits="userSpaceOnUse">
<stop stop-color="#77EBFF" stop-opacity="0"/>
<stop offset="1" stop-color="#4986E5"/>
</linearGradient>
<linearGradient id="paint22_linear_1411:44908" x1="480.522" y1="699.409" x2="480.522" y2="625.737" gradientUnits="userSpaceOnUse">
<stop stop-color="#77EBFF" stop-opacity="0"/>
<stop offset="1" stop-color="#4986E5"/>
</linearGradient>
<linearGradient id="paint23_linear_1411:44908" x1="515.655" y1="659.811" x2="515.655" y2="610.807" gradientUnits="userSpaceOnUse">
<stop stop-color="#77EBFF" stop-opacity="0"/>
<stop offset="1" stop-color="#4986E5"/>
</linearGradient>
</defs>
</svg>
