<svg width="800" height="800" viewBox="0 0 800 800" fill="none" xmlns="http://www.w3.org/2000/svg">
<path d="M400 700C565.685 700 700 565.685 700 400C700 234.315 565.685 100 400 100C234.315 100 100 234.315 100 400C100 565.685 234.315 700 400 700Z" fill="url(#paint0_linear_1411:44905)"/>
<path fill-rule="evenodd" clip-rule="evenodd" d="M119.021 294.648C161.677 180.933 271.387 100 400 100C491.768 100 573.912 141.204 628.942 206.12L628.68 210.935C582.28 173.245 534.424 173.245 485.111 210.935C411.142 267.469 379.273 318.902 266.925 256.528C188.773 213.138 143.245 236.167 119.021 294.648Z" fill="url(#paint1_linear_1411:44905)"/>
<path opacity="0.5" fill-rule="evenodd" clip-rule="evenodd" d="M409.702 100.154L398.387 192.306L295.842 235.128L207.837 169.614C259.886 126.153 326.889 100 400 100C403.247 100 406.481 100.052 409.702 100.154V100.154Z" fill="url(#paint2_linear_1411:44905)"/>
<path fill-rule="evenodd" clip-rule="evenodd" d="M401.738 100.005L390.377 188.266L288.34 232.284L206.577 170.672C258.803 126.578 326.298 100 400 100C400.58 100 401.159 100.002 401.738 100.005Z" fill="white"/>
<path fill-rule="evenodd" clip-rule="evenodd" d="M302.527 122.066L390.377 188.266L288.34 232.284L302.527 122.066Z" fill="#FFF4F4"/>
<path fill-rule="evenodd" clip-rule="evenodd" d="M401.738 100.005L390.377 188.266L302.527 122.067L339.561 106.091C359.084 102.097 379.297 100 400 100C400.58 100 401.159 100.002 401.738 100.005Z" fill="#F2E9E9"/>
<path fill-rule="evenodd" clip-rule="evenodd" d="M226.277 155.388L291.718 204.701L367.906 171.96L376.956 100.872C380.327 100.616 383.713 100.415 387.114 100.271L377.105 178.891L290.334 216.18L217.882 161.583C220.643 159.471 223.442 157.405 226.277 155.388V155.388Z" fill="url(#paint3_linear_1411:44905)"/>
<path fill-rule="evenodd" clip-rule="evenodd" d="M252.407 138.756L251.586 145.445L295.692 178.681L346.528 157.102L353.092 103.645C356.49 103.112 359.907 102.635 363.342 102.217L355.75 164.051L294.285 190.142L240.957 149.957L241.539 145.216C245.112 142.989 248.736 140.835 252.407 138.756Z" fill="url(#paint4_linear_1411:44905)"/>
<path fill-rule="evenodd" clip-rule="evenodd" d="M324.876 109.483C329.065 108.403 333.289 107.411 337.547 106.51L339.37 107.884L334.486 147.402L297.845 162.99L266.076 139.05L267.073 130.982C270.601 129.236 274.168 127.557 277.772 125.947L276.71 134.542L299.248 151.526L325.268 140.456L328.737 112.392L324.876 109.483L324.876 109.483Z" fill="url(#paint5_linear_1411:44905)"/>
<path d="M303.024 129.067C306.338 129.067 309.024 126.381 309.024 123.067C309.024 119.754 306.338 117.067 303.024 117.067C299.711 117.067 297.024 119.754 297.024 123.067C297.024 126.381 299.711 129.067 303.024 129.067Z" fill="url(#paint6_linear_1411:44905)"/>
<path fill-rule="evenodd" clip-rule="evenodd" d="M113.212 488.321C167.392 600.358 291.102 620.508 350.384 541.088C410.681 460.307 494.61 459.535 588.881 473.026C649.251 481.665 685.839 466.89 698.645 428.699C684.197 580.922 556.004 699.999 400 699.999C265.054 699.999 150.918 610.9 113.212 488.321Z" fill="url(#paint7_linear_1411:44905)"/>
<path fill-rule="evenodd" clip-rule="evenodd" d="M127.202 275L435 275V697.98C423.519 699.314 411.839 700 400 700C234.315 700 100 565.685 100 400C100 355.389 109.737 313.053 127.202 275L127.202 275Z" fill="url(#paint8_linear_1411:44905)"/>
<path fill-rule="evenodd" clip-rule="evenodd" d="M115.353 305H405V699.959C403.337 699.986 401.67 700 400 700C234.315 700 100 565.685 100 400C100 366.797 105.394 334.855 115.353 305H115.353Z" fill="url(#paint9_linear_1411:44905)"/>
<path fill-rule="evenodd" clip-rule="evenodd" d="M405 699.959C403.337 699.986 401.67 700 400 700C355.382 700 313.038 690.259 274.98 672.788C281.262 655.791 277.655 636.249 264.159 614.161C195.598 501.957 257.263 449.162 318.982 430.396C360.127 417.886 388.8 376.087 405 305V699.959V699.959Z" fill="url(#paint10_linear_1411:44905)"/>
<path fill-rule="evenodd" clip-rule="evenodd" d="M303 510C267.101 510 238 480.899 238 445C238 409.101 267.101 380 303 380C338.899 380 368 409.101 368 445C368 480.899 338.899 510 303 510Z" fill="url(#paint11_linear_1411:44905)"/>
<path fill-rule="evenodd" clip-rule="evenodd" d="M303 480C322.33 480 338 464.33 338 445C338 425.67 322.33 410 303 410C283.67 410 268 425.67 268 445C268 464.33 283.67 480 303 480Z" fill="url(#paint12_linear_1411:44905)"/>
<path fill-rule="evenodd" clip-rule="evenodd" d="M169.398 591.905C180.807 581.997 195.703 576 212 576C247.898 576 277 605.101 277 641C277 651.594 274.465 661.596 269.97 670.432C231.035 651.678 196.772 624.762 169.398 591.905Z" fill="url(#paint13_linear_1411:44905)"/>
<path fill-rule="evenodd" clip-rule="evenodd" d="M189.741 613.989C195.791 608.998 203.545 606 212 606C231.33 606 247 621.67 247 641C247 646.391 245.781 651.497 243.604 656.059C224.062 644.097 205.996 629.962 189.741 613.989Z" fill="url(#paint14_linear_1411:44905)"/>
<path opacity="0.5" fill-rule="evenodd" clip-rule="evenodd" d="M561.554 359.105L680.541 375.828L654.841 558.693L535.854 541.971L561.554 359.105Z" fill="url(#paint15_linear_1411:44905)"/>
<path fill-rule="evenodd" clip-rule="evenodd" d="M551.554 349.105L670.541 365.828L644.841 548.693L525.854 531.971L551.554 349.105Z" fill="white"/>
<path d="M145.188 558.416C163.968 549.236 186.828 549.263 206.292 560.5C236.897 578.171 247.696 616.972 230.9 647.836C222.445 642.056 214.302 635.855 206.5 629.264C212.541 613.478 206.395 595.201 191.292 586.481C182.266 581.27 171.883 580.536 162.717 583.59C156.461 575.517 150.608 567.115 145.188 558.416H145.188Z" fill="white"/>
<path d="M206.5 629.263C212.541 613.478 206.396 595.201 191.292 586.481L206.292 560.5C236.898 578.17 247.697 616.972 230.9 647.835C222.446 642.056 214.302 635.855 206.5 629.263Z" fill="#1C2943"/>
<path fill-rule="evenodd" clip-rule="evenodd" d="M545.11 494.932L548.205 494.103C548.922 493.911 549.659 494.336 549.851 495.053L550.502 497.48C550.694 498.196 550.268 498.933 549.551 499.126L546.456 499.955C545.739 500.147 545.002 499.722 544.81 499.005L544.159 496.578C543.967 495.861 544.393 495.124 545.11 494.932Z" fill="url(#paint16_linear_1411:44905)"/>
<path fill-rule="evenodd" clip-rule="evenodd" d="M554.694 492.364L558.802 491.263C559.289 491.132 559.807 491.285 560.145 491.657L562.045 493.749C562.544 494.298 562.503 495.148 561.954 495.647C561.796 495.791 561.605 495.895 561.398 495.951L554.79 497.721C554.073 497.913 553.336 497.488 553.143 496.771C553.088 496.564 553.083 496.347 553.128 496.138L553.728 493.377C553.835 492.885 554.207 492.494 554.694 492.364Z" fill="url(#paint17_linear_1411:44905)"/>
<path fill-rule="evenodd" clip-rule="evenodd" d="M544.006 498.06L570.388 490.991C571.105 490.799 571.842 491.225 572.034 491.942L577.359 511.816C577.551 512.533 577.126 513.27 576.409 513.462L550.027 520.531C549.31 520.723 548.573 520.297 548.381 519.58L543.056 499.706C542.864 498.989 543.289 498.252 544.006 498.06Z" fill="url(#paint18_linear_1411:44905)"/>
<path fill-rule="evenodd" clip-rule="evenodd" d="M544.327 504.45L573.305 496.686L576.088 507.071L547.11 514.836L544.327 504.45Z" fill="url(#paint19_linear_1411:44905)"/>
<path d="M560.502 513.486C564.644 513.486 568.002 510.056 568.002 505.823C568.002 501.591 564.644 498.16 560.502 498.16C556.36 498.16 553.002 501.591 553.002 505.823C553.002 510.056 556.36 513.486 560.502 513.486Z" fill="#CDE0FF"/>
<path d="M560.502 511.845C563.757 511.845 566.395 509.149 566.395 505.824C566.395 502.498 563.757 499.803 560.502 499.803C557.248 499.803 554.609 502.498 554.609 505.824C554.609 509.149 557.248 511.845 560.502 511.845Z" fill="#273F5F"/>
<path d="M560.502 509.929C562.721 509.929 564.52 508.091 564.52 505.824C564.52 503.557 562.721 501.719 560.502 501.719C558.283 501.719 556.484 503.557 556.484 505.824C556.484 508.091 558.283 509.929 560.502 509.929Z" fill="url(#paint20_linear_1411:44905)"/>
<path d="M560.502 508.444C561.918 508.444 563.066 507.271 563.066 505.825C563.066 504.378 561.918 503.205 560.502 503.205C559.086 503.205 557.938 504.378 557.938 505.825C557.938 507.271 559.086 508.444 560.502 508.444Z" fill="#192A41"/>
<path d="M548.456 506.369C549.008 506.369 549.456 505.921 549.456 505.369C549.456 504.817 549.008 504.369 548.456 504.369C547.904 504.369 547.456 504.817 547.456 505.369C547.456 505.921 547.904 506.369 548.456 506.369Z" fill="#CDE0FF"/>
<path d="M263 480C227.101 480 198 450.899 198 415C198 379.101 227.101 350 263 350C298.899 350 328 379.101 328 415C328 450.899 298.899 480 263 480ZM263 450C282.33 450 298 434.33 298 415C298 395.67 282.33 380 263 380C243.67 380 228 395.67 228 415C228 434.33 243.67 450 263 450Z" fill="white"/>
<path d="M198 415H228C228 434.33 243.67 450 263 450V480C227.101 480 198 450.899 198 415Z" fill="#D45445"/>
<path d="M328 415H298C298 395.67 282.33 380 263 380V350C298.899 350 328 379.101 328 415Z" fill="#D45445"/>
<path opacity="0.5" fill-rule="evenodd" clip-rule="evenodd" d="M628.654 235.768L717.793 302.126L704.387 411.306L601.842 454.128L512.703 387.77L526.109 278.59L628.654 235.768Z" fill="url(#paint21_linear_1411:44905)"/>
<path fill-rule="evenodd" clip-rule="evenodd" d="M525.677 265.867L627.714 221.85L715.564 288.049L701.376 398.267L599.339 442.285L511.489 376.085L525.677 265.867Z" fill="white"/>
<path fill-rule="evenodd" clip-rule="evenodd" d="M613.527 332.066L701.377 398.266L599.34 442.284L613.527 332.066Z" fill="#FFF4F4"/>
<path fill-rule="evenodd" clip-rule="evenodd" d="M627.715 221.85L715.565 288.049L613.527 332.067L627.715 221.85Z" fill="#FFF4F4"/>
<path fill-rule="evenodd" clip-rule="evenodd" d="M715.565 288.049L701.377 398.266L613.527 332.067L715.565 288.049Z" fill="#F2E9E9"/>
<path fill-rule="evenodd" clip-rule="evenodd" d="M525.677 265.867L613.527 332.067L511.489 376.085L525.677 265.867Z" fill="#FCF7F7"/>
<path fill-rule="evenodd" clip-rule="evenodd" d="M537.073 365.234L602.718 414.702L678.907 381.96L689.379 299.698L623.734 250.231L547.545 282.972L537.073 365.234ZM625.118 238.752L700.032 295.204L688.105 388.892L601.335 426.18L526.42 369.728L538.347 276.041L625.118 238.752Z" fill="url(#paint22_linear_1411:44905)"/>
<path fill-rule="evenodd" clip-rule="evenodd" d="M569.317 300.629L562.586 355.444L606.692 388.68L657.528 367.102L664.259 312.287L620.153 279.051L569.317 300.629ZM621.56 267.59L674.888 307.775L666.75 374.051L605.285 400.141L551.957 359.956L560.095 293.68L621.56 267.59Z" fill="url(#paint23_linear_1411:44905)"/>
<path fill-rule="evenodd" clip-rule="evenodd" d="M587.71 344.543L610.248 361.527L636.268 350.457L639.737 322.393L617.198 305.41L591.178 316.479L587.71 344.543ZM618.601 293.945L650.37 317.885L645.486 357.403L608.845 372.991L577.076 349.051L581.961 309.533L618.601 293.945Z" fill="url(#paint24_linear_1411:44905)"/>
<path d="M614.024 339.068C617.338 339.068 620.024 336.382 620.024 333.068C620.024 329.755 617.338 327.068 614.024 327.068C610.711 327.068 608.024 329.755 608.024 333.068C608.024 336.382 610.711 339.068 614.024 339.068Z" fill="url(#paint25_linear_1411:44905)"/>
<path fill-rule="evenodd" clip-rule="evenodd" d="M493.593 662.782C489.163 661.179 487.244 658.533 487.833 654.846C488.718 649.315 491.725 643.296 493.417 639.79C495.109 636.283 496.947 631.668 497.797 623.443C498.647 615.218 500.212 606.611 505.537 603.218C510.862 599.826 516.919 605.413 519.433 609.578C521.947 613.744 524.76 619.258 519.506 628.264C514.251 637.27 512.249 640.659 509.189 647.813C506.128 654.966 503.187 662.701 500.579 663.667C498.841 664.31 496.512 664.016 493.593 662.782Z" fill="#E6694A"/>
<path fill-rule="evenodd" clip-rule="evenodd" d="M496.449 641.836C497.209 644.098 497.016 645.431 495.871 645.837C494.725 646.243 493.868 645.483 493.298 643.555C492.477 638.695 492.361 633.038 495.49 626.622C497.576 622.345 502.045 618.167 508.895 614.088C512.813 617.188 515.175 621.679 515.981 627.561C517.19 636.384 513.372 640.519 510.407 644.47C507.442 648.422 505.308 649.066 504.687 647.27C504.066 645.473 506.033 644.083 510.177 640.394C512.94 637.935 514.192 635.407 513.933 632.81C513.066 627.33 510.928 622.804 507.517 619.231C503.272 622.603 499.762 626.126 496.985 629.797C494.208 633.469 494.029 637.482 496.449 641.836Z" fill="#F7AF41"/>
<path fill-rule="evenodd" clip-rule="evenodd" d="M507.817 615.121C508.03 614.264 508.168 613.51 508.23 612.859C508.324 611.882 508.768 611.743 509.027 611.812C509.286 611.881 510.065 611.938 509.298 614.8C508.787 616.708 508.293 616.815 507.817 615.121Z" fill="#F7AF41"/>
<path fill-rule="evenodd" clip-rule="evenodd" d="M484.668 653.503C481.749 654.736 479.42 655.031 477.682 654.387C475.074 653.422 472.132 645.687 469.072 638.533C466.012 631.38 464.009 627.99 458.755 618.984C453.5 609.978 456.313 604.465 458.827 600.299C461.341 596.133 467.398 590.546 472.723 593.939C478.048 597.332 479.614 605.939 480.464 614.164C481.313 622.389 483.152 627.004 484.844 630.51C486.536 634.017 489.543 640.035 490.427 645.567C491.017 649.254 489.097 651.9 484.668 653.503Z" fill="#E6694A"/>
<path fill-rule="evenodd" clip-rule="evenodd" d="M481.813 632.557C484.232 628.202 484.054 624.189 481.277 620.518C478.5 616.846 474.989 613.324 470.744 609.952C467.334 613.525 465.195 618.051 464.329 623.53C464.069 626.128 465.321 628.656 468.084 631.115C472.228 634.804 474.195 636.194 473.574 637.991C472.954 639.787 470.819 639.143 467.854 635.191C464.89 631.239 461.071 627.105 462.28 618.282C463.087 612.4 465.449 607.909 469.366 604.809C476.217 608.887 480.685 613.065 482.771 617.343C485.901 623.759 485.785 629.416 484.963 634.276C484.394 636.203 483.536 636.964 482.391 636.558C481.245 636.152 481.053 634.818 481.813 632.557Z" fill="#F7AF41"/>
<path fill-rule="evenodd" clip-rule="evenodd" d="M470.444 605.841C469.968 607.535 469.474 607.428 468.963 605.521C468.196 602.659 468.975 602.602 469.234 602.533C469.493 602.463 469.937 602.603 470.031 603.58C470.093 604.231 470.231 604.984 470.444 605.841Z" fill="#F7AF41"/>
<defs>
<linearGradient id="paint0_linear_1411:44905" x1="636.229" y1="777.341" x2="289.823" y2="149.179" gradientUnits="userSpaceOnUse">
<stop stop-color="#B7D7DF"/>
<stop offset="1" stop-color="#E4F9FF"/>
</linearGradient>
<linearGradient id="paint1_linear_1411:44905" x1="538.192" y1="211.505" x2="475.871" y2="163.405" gradientUnits="userSpaceOnUse">
<stop stop-color="#B7D7DF"/>
<stop offset="1" stop-color="#E4F9FF"/>
</linearGradient>
<linearGradient id="paint2_linear_1411:44905" x1="261.551" y1="189.307" x2="307.295" y2="85.435" gradientUnits="userSpaceOnUse">
<stop stop-color="#B7D7DF"/>
<stop offset="1" stop-color="#E4F9FF"/>
</linearGradient>
<linearGradient id="paint3_linear_1411:44905" x1="246.393" y1="193.434" x2="273.215" y2="133.275" gradientUnits="userSpaceOnUse">
<stop stop-color="#13DBBF"/>
<stop offset="1" stop-color="#08B58B"/>
</linearGradient>
<linearGradient id="paint4_linear_1411:44905" x1="261.576" y1="175.565" x2="282.123" y2="127.224" gradientUnits="userSpaceOnUse">
<stop stop-color="#13DBBF"/>
<stop offset="1" stop-color="#08B58B"/>
</linearGradient>
<linearGradient id="paint5_linear_1411:44905" x1="278.424" y1="156.467" x2="291.955" y2="122.322" gradientUnits="userSpaceOnUse">
<stop stop-color="#13DBBF"/>
<stop offset="1" stop-color="#08B58B"/>
</linearGradient>
<linearGradient id="paint6_linear_1411:44905" x1="299.046" y1="130.838" x2="302.46" y2="119.659" gradientUnits="userSpaceOnUse">
<stop stop-color="#13DBBF"/>
<stop offset="1" stop-color="#08B58B"/>
</linearGradient>
<linearGradient id="paint7_linear_1411:44905" x1="530.065" y1="564.349" x2="388.434" y2="425.644" gradientUnits="userSpaceOnUse">
<stop stop-color="#B7D7DF"/>
<stop offset="1" stop-color="#E4F9FF"/>
</linearGradient>
<linearGradient id="paint8_linear_1411:44905" x1="293.307" y1="290.465" x2="226.461" y2="536.359" gradientUnits="userSpaceOnUse">
<stop stop-color="#5A93EA"/>
<stop offset="1" stop-color="#3768B4"/>
</linearGradient>
<linearGradient id="paint9_linear_1411:44905" x1="318.345" y1="347.9" x2="187.349" y2="948.669" gradientUnits="userSpaceOnUse">
<stop stop-color="#91F6FF"/>
<stop offset="1" stop-color="#4D86DE"/>
</linearGradient>
<linearGradient id="paint10_linear_1411:44905" x1="329.313" y1="413.334" x2="250.208" y2="942.873" gradientUnits="userSpaceOnUse">
<stop stop-color="#91F6FF"/>
<stop offset="1" stop-color="#4D86DE"/>
</linearGradient>
<linearGradient id="paint11_linear_1411:44905" x1="346.007" y1="368.697" x2="288.675" y2="625.153" gradientUnits="userSpaceOnUse">
<stop stop-color="#91F6FF"/>
<stop offset="1" stop-color="#4D86DE"/>
</linearGradient>
<linearGradient id="paint12_linear_1411:44905" x1="326.157" y1="403.914" x2="295.286" y2="542.005" gradientUnits="userSpaceOnUse">
<stop stop-color="#91F6FF"/>
<stop offset="1" stop-color="#4D86DE"/>
</linearGradient>
<linearGradient id="paint13_linear_1411:44905" x1="223.199" y1="509.223" x2="214.062" y2="724.124" gradientUnits="userSpaceOnUse">
<stop stop-color="#91F6FF"/>
<stop offset="1" stop-color="#4D86DE"/>
</linearGradient>
<linearGradient id="paint14_linear_1411:44905" x1="218.371" y1="571.064" x2="213.545" y2="684.114" gradientUnits="userSpaceOnUse">
<stop stop-color="#91F6FF"/>
<stop offset="1" stop-color="#4D86DE"/>
</linearGradient>
<linearGradient id="paint15_linear_1411:44905" x1="636.101" y1="553.283" x2="610.219" y2="246.295" gradientUnits="userSpaceOnUse">
<stop stop-color="#96BFC9"/>
<stop offset="1" stop-color="#E4F9FF"/>
</linearGradient>
<linearGradient id="paint16_linear_1411:44905" x1="550.548" y1="492.142" x2="544.722" y2="500.016" gradientUnits="userSpaceOnUse">
<stop stop-color="#5A93EA"/>
<stop offset="1" stop-color="#3768B4"/>
</linearGradient>
<linearGradient id="paint17_linear_1411:44905" x1="562.394" y1="491.359" x2="555.51" y2="498.458" gradientUnits="userSpaceOnUse">
<stop stop-color="#5A93EA"/>
<stop offset="1" stop-color="#3768B4"/>
</linearGradient>
<linearGradient id="paint18_linear_1411:44905" x1="573.861" y1="494.765" x2="542.903" y2="526.913" gradientUnits="userSpaceOnUse">
<stop stop-color="#6A9FF1"/>
<stop offset="1" stop-color="#3768B4"/>
</linearGradient>
<linearGradient id="paint19_linear_1411:44905" x1="550.094" y1="511.709" x2="555.651" y2="499.6" gradientUnits="userSpaceOnUse">
<stop stop-color="#6A9FF1"/>
<stop offset="1" stop-color="#92BDFF"/>
</linearGradient>
<linearGradient id="paint20_linear_1411:44905" x1="570.28" y1="493.907" x2="559.749" y2="507.007" gradientUnits="userSpaceOnUse">
<stop stop-color="#5A93EA"/>
<stop offset="1" stop-color="#3768B4"/>
</linearGradient>
<linearGradient id="paint21_linear_1411:44905" x1="572.929" y1="423.358" x2="658.629" y2="113.837" gradientUnits="userSpaceOnUse">
<stop stop-color="#B7D7DF"/>
<stop offset="1" stop-color="#E4F9FF"/>
</linearGradient>
<linearGradient id="paint22_linear_1411:44905" x1="568.805" y1="227.736" x2="638.504" y2="465.057" gradientUnits="userSpaceOnUse">
<stop stop-color="#F9BB49"/>
<stop offset="1" stop-color="#F08523"/>
</linearGradient>
<linearGradient id="paint23_linear_1411:44905" x1="581.892" y1="259.799" x2="631.251" y2="427.659" gradientUnits="userSpaceOnUse">
<stop stop-color="#F9BB49"/>
<stop offset="1" stop-color="#F08523"/>
</linearGradient>
<linearGradient id="paint24_linear_1411:44905" x1="594.931" y1="289.299" x2="624.36" y2="389.398" gradientUnits="userSpaceOnUse">
<stop stop-color="#F9BB49"/>
<stop offset="1" stop-color="#F08523"/>
</linearGradient>
<linearGradient id="paint25_linear_1411:44905" x1="610.446" y1="326.363" x2="615.318" y2="341.731" gradientUnits="userSpaceOnUse">
<stop stop-color="#F9BB49"/>
<stop offset="1" stop-color="#F08523"/>
</linearGradient>
</defs>
</svg>
