<svg width="24" height="24" viewBox="0 0 24 24" fill="none" xmlns="http://www.w3.org/2000/svg">
<path d="M22.2929 7.29289C22.6834 6.90237 23.3166 6.90237 23.7071 7.29289C24.0976 7.68342 24.0976 8.31658 23.7071 8.70711L20.9142 11.5L23.7071 14.2929C24.0976 14.6834 24.0976 15.3166 23.7071 15.7071C23.3166 16.0976 22.6834 16.0976 22.2929 15.7071L19.5 12.9142L16.7071 15.7071C16.3166 16.0976 15.6834 16.0976 15.2929 15.7071C14.9024 15.3166 14.9024 14.6834 15.2929 14.2929L18.0858 11.5L15.2929 8.70711C14.9024 8.31658 14.9024 7.68342 15.2929 7.29289C15.6834 6.90237 16.3166 6.90237 16.7071 7.29289L19.5 10.0858L22.2929 7.29289Z" fill="#777E91"/>
<path fill-rule="evenodd" clip-rule="evenodd" d="M5.82843 9.99995H3C2.44772 9.99995 2 10.4477 2 10.9999V12.9999C2 13.5522 2.44772 13.9999 3 13.9999H5.82843L9.29289 17.4644C9.92286 18.0944 11 17.6482 11 16.7573V7.24259C11 6.35168 9.92286 5.90552 9.29289 6.53548L5.82843 9.99995ZM5 15.9999L7.87868 18.8786C9.76857 20.7685 13 19.43 13 16.7573V7.24259C13 4.56987 9.76858 3.23137 7.87868 5.12127L5 7.99995H3C1.34315 7.99995 0 9.34309 0 10.9999V12.9999C0 14.6568 1.34315 15.9999 3 15.9999H5Z" fill="#777E91"/>
</svg>
