<svg width="24" height="24" viewBox="0 0 24 24" fill="none" xmlns="http://www.w3.org/2000/svg">
<path d="M7 5C6.44772 5 6 5.44772 6 6C6 6.55228 6.44772 7 7 7H21C21.5523 7 22 6.55228 22 6C22 5.44772 21.5523 5 21 5H7Z" fill="#777E91"/>
<path d="M7 17C6.44772 17 6 17.4477 6 18C6 18.5523 6.44772 19 7 19H13C13.5523 19 14 18.5523 14 18C14 17.4477 13.5523 17 13 17H7Z" fill="#777E91"/>
<path d="M6 10C6 9.44772 6.44772 9 7 9H17C17.5523 9 18 9.44772 18 10C18 10.5523 17.5523 11 17 11H7C6.44771 11 6 10.5523 6 10Z" fill="#777E91"/>
<path d="M7 13C6.44772 13 6 13.4477 6 14C6 14.5523 6.44772 15 7 15H19C19.5523 15 20 14.5523 20 14C20 13.4477 19.5523 13 19 13H7Z" fill="#777E91"/>
<path fill-rule="evenodd" clip-rule="evenodd" d="M3 2C3.55228 2 4 2.44772 4 3V21C4 21.5523 3.55228 22 3 22C2.44772 22 2 21.5523 2 21V3C2 2.44772 2.44772 2 3 2Z" fill="#777E91"/>
</svg>
