<svg width="24" height="24" viewBox="0 0 24 24" fill="none" xmlns="http://www.w3.org/2000/svg">
<path d="M12.707 12.7071C13.0976 12.3166 13.0976 11.6834 12.707 11.2929C12.3165 10.9024 11.6834 10.9024 11.2928 11.2929L9.58573 13H5.82837C5.29794 13 4.78923 13.2107 4.41416 13.5858L3.41416 14.5858C2.63311 15.3668 2.63311 16.6332 3.41416 17.4142L6.58573 20.5858C7.36678 21.3668 8.63311 21.3668 9.41416 20.5858L10.4142 19.5858C10.7892 19.2107 10.9999 18.702 10.9999 18.1716V14.4142L12.707 12.7071Z" fill="#777E91"/>
<path d="M17 9.99998L18 8.99998C18.8284 8.17156 18.8284 6.82841 18 5.99998C17.1716 5.17156 15.8284 5.17155 15 5.99998L14 6.99998C13.1716 7.82841 13.1716 9.17156 14 9.99998C14.8284 10.8284 16.1716 10.8284 17 9.99998Z" fill="#777E91"/>
<path fill-rule="evenodd" clip-rule="evenodd" d="M21.7071 2.29289C22.0976 2.68342 22.0976 3.31658 21.7071 3.70711L20.7071 4.70711C20.3166 5.09763 19.6834 5.09763 19.2929 4.70711C18.9024 4.31658 18.9024 3.68342 19.2929 3.29289L20.2929 2.29289C20.6834 1.90237 21.3166 1.90237 21.7071 2.29289Z" fill="#777E91"/>
</svg>
