<svg width="24" height="24" viewBox="0 0 24 24" fill="none" xmlns="http://www.w3.org/2000/svg">
<path d="M21.7071 2.29289C22.0976 2.68342 22.0976 3.31658 21.7071 3.70711L19.5784 5.83583C19.4417 5.53283 19.2488 5.24898 18.9998 5C18.7509 4.75109 18.4671 4.55827 18.1642 4.42154L20.2929 2.29289C20.6834 1.90237 21.3166 1.90237 21.7071 2.29289Z" fill="#777E91"/>
<path d="M12.4214 10.1644L9.29289 13.2929C8.90237 13.6834 8.90237 14.3166 9.29289 14.7071C9.68342 15.0976 10.3166 15.0976 10.7071 14.7071L13.8356 11.5786C13.5326 11.4418 13.2488 11.249 12.9998 11C12.7509 10.7511 12.5581 10.4673 12.4214 10.1644Z" fill="#777E91"/>
<path d="M21.7071 3.70711C22.0976 3.31658 22.0976 2.68342 21.7071 2.29289C21.3166 1.90237 20.6834 1.90237 20.2929 2.29289L17.7929 4.79289C17.4024 5.18342 17.4024 5.81658 17.7929 6.20711C18.1834 6.59763 18.8166 6.59763 19.2071 6.20711L21.7071 3.70711Z" fill="#777E91"/>
<path d="M14.2071 11.2071C14.5976 10.8166 14.5976 10.1834 14.2071 9.79289C13.8166 9.40237 13.1834 9.40237 12.7929 9.79289L9.29289 13.2929C8.90237 13.6834 8.90237 14.3166 9.29289 14.7071C9.68342 15.0976 10.3166 15.0976 10.7071 14.7071L14.2071 11.2071Z" fill="#777E91"/>
<path fill-rule="evenodd" clip-rule="evenodd" d="M15.5858 9.58584L17.5858 7.58584C17.9094 7.26232 17.9094 6.73779 17.5858 6.41427C17.2623 6.09075 16.7378 6.09075 16.4143 6.41427L14.4143 8.41427C14.0908 8.73779 14.0908 9.26232 14.4143 9.58584C14.7378 9.90936 15.2623 9.90936 15.5858 9.58584ZM19.0001 9.00006L17.0001 11.0001C15.8955 12.1046 14.1046 12.1046 13.0001 11.0001C11.8955 9.89549 11.8955 8.10463 13.0001 7.00006L15.0001 5.00006C16.1046 3.89549 17.8955 3.89549 19.0001 5.00006C20.1046 6.10463 20.1046 7.89549 19.0001 9.00006Z" fill="#777E91"/>
<path fill-rule="evenodd" clip-rule="evenodd" d="M5.87872 20.8786C7.05029 22.0502 8.94978 22.0502 10.1214 20.8786L10.9084 20.0916C11.5934 19.4065 11.9055 18.4328 11.7462 17.4771L11.1175 13.7045C11.0472 13.283 10.7169 12.9528 10.2955 12.8825L6.52288 12.2537C5.56721 12.0945 4.59345 12.4065 3.90837 13.0916L3.12135 13.8786C1.94978 15.0502 1.94978 16.9497 3.12136 18.1213L5.87872 20.8786ZM9.37953 15.4424C9.30929 15.021 8.97901 14.6907 8.55754 14.6204L6.19409 14.2265C5.87553 14.1734 5.55094 14.2775 5.32258 14.5058L4.53557 15.2928C4.14505 15.6834 4.14504 16.3165 4.53557 16.707L7.29293 19.4644C7.68345 19.8549 8.31662 19.8549 8.70714 19.4644L9.49415 18.6774C9.72251 18.449 9.82653 18.1244 9.77344 17.8059L9.37953 15.4424Z" fill="#777E91"/>
</svg>
