<svg width="24" height="24" viewBox="0 0 24 24" fill="none" xmlns="http://www.w3.org/2000/svg">
<path fill-rule="evenodd" clip-rule="evenodd" d="M5.50004 3.50004C7.29289 1.70719 10.1189 1.5772 12.0616 3.11008C12.3341 3.32516 12.5784 3.57306 12.8221 3.82034C12.8648 3.86366 12.9074 3.90695 12.9502 3.95004L21.6788 12.6786C22.2436 13.2434 21.951 14.2097 21.1678 14.3663L18.2969 14.9405C18.1033 14.9792 17.9255 15.0743 17.7859 15.2139L12.1214 20.8785C10.9498 22.0501 9.05029 22.0501 7.87872 20.8785L3.12135 16.1212C1.94978 14.9496 1.94978 13.0501 3.12136 11.8785L5.0354 9.96448C3.58196 8.02573 3.73684 5.26324 5.50004 3.50004ZM6.47449 8.52539L10.5254 4.47449C9.39093 3.7881 7.89382 3.93469 6.91425 4.91425C5.93469 5.89382 5.7881 7.39093 6.47449 8.52539ZM9.29293 19.4643L4.53557 14.707C4.14505 14.3164 4.14504 13.6833 4.53557 13.2927L12 5.82828L18.9433 12.7716L17.9047 12.9793C17.3239 13.0955 16.7905 13.3809 16.3717 13.7997L10.7071 19.4643C10.3166 19.8548 9.68345 19.8548 9.29293 19.4643Z" fill="#777E91"/>
<path d="M13.1715 17H6.82861L4.82861 15H15.1715L13.1715 17Z" fill="#777E91"/>
<path d="M22 20.0001C22 21.1047 21.1046 22.0001 20 22.0001C18.8954 22.0001 18 21.1047 18 20.0001C18 18.8592 19.1571 17.7183 19.711 17.2374C19.8788 17.0918 20.1212 17.0918 20.289 17.2374C20.8429 17.7183 22 18.8592 22 20.0001Z" fill="#777E91"/>
</svg>
