<svg width="24" height="24" viewBox="0 0 24 24" fill="none" xmlns="http://www.w3.org/2000/svg">
<path fill-rule="evenodd" clip-rule="evenodd" d="M18 19L6 19C5.44772 19 5 19.4477 5 20C5 20.5523 5.44772 21 6 21L18 21C18.5523 21 19 20.5523 19 20C19 19.4477 18.5523 19 18 19ZM3 20C3 21.6569 4.34315 23 6 23L18 23C19.6569 23 21 21.6569 21 20C21 18.3431 19.6569 17 18 17L6 17C4.34315 17 3 18.3431 3 20Z" fill="#777E91"/>
<path fill-rule="evenodd" clip-rule="evenodd" d="M11.2001 3.4L5.20008 11.4C4.70565 12.0592 5.17603 13 6.00008 13H18.0001C18.8241 13 19.2945 12.0592 18.8001 11.4L12.8001 3.4C12.4001 2.86667 11.6001 2.86667 11.2001 3.4ZM3.60008 10.2C2.11679 12.1777 3.52794 15 6.00008 15H18.0001C20.4722 15 21.8834 12.1777 20.4001 10.2L14.4001 2.2C13.2001 0.6 10.8001 0.6 9.60008 2.2L3.60008 10.2Z" fill="#777E91"/>
</svg>
