<svg width="24" height="24" viewBox="0 0 24 24" fill="none" xmlns="http://www.w3.org/2000/svg">
<path fill-rule="evenodd" clip-rule="evenodd" d="M1 6C1 4.34315 2.34315 3 4 3H18C19.6569 3 21 4.34315 21 6V11C21 11.5523 20.5523 12 20 12C19.4477 12 19 11.5523 19 11V6C19 5.44772 18.5523 5 18 5H4C3.44772 5 3 5.44772 3 6V16C3 16.5523 3.44772 17 4 17H11C11.5523 17 12 17.4477 12 18C12 18.5523 11.5523 19 11 19H4C2.34315 19 1 17.6569 1 16V6Z" fill="#777E91"/>
<path d="M14 15C14 14.4477 14.4477 14 15 14H22C22.5523 14 23 14.4477 23 15V20C23 20.5523 22.5523 21 22 21H15C14.4477 21 14 20.5523 14 20V15Z" fill="#777E91"/>
</svg>
