<svg width="24" height="24" viewBox="0 0 24 24" fill="none" xmlns="http://www.w3.org/2000/svg">
<path d="M6 20C6 19.4477 6.44772 19 7 19H21C21.5523 19 22 19.4477 22 20C22 20.5523 21.5523 21 21 21H7C6.44772 21 6 20.5523 6 20Z" fill="#777E91"/>
<path d="M16.4142 2.4144L20.5857 6.58597C21.3668 7.36702 21.3668 8.63335 20.5857 9.4144L15.8536 14.1465C15.6584 14.3418 15.3418 14.3418 15.1465 14.1465L8.85362 7.85362C8.65835 7.65836 8.65836 7.34177 8.85362 7.14651L13.5857 2.4144C14.3668 1.63335 15.6331 1.63335 16.4142 2.4144Z" fill="#777E91"/>
<path d="M7.35362 9.35362C7.15836 9.15836 6.84177 9.15836 6.64651 9.35362L1.41416 14.586C0.633108 15.367 0.633106 16.6333 1.41415 17.4144L4.12126 20.1215C4.68387 20.6841 5.44693 21.0002 6.24258 21.0002H8.99994L13.6465 16.3536C13.8418 16.1584 13.8418 15.8418 13.6465 15.6465L7.35362 9.35362Z" fill="#777E91"/>
</svg>
