<svg width="24" height="24" viewBox="0 0 24 24" fill="none" xmlns="http://www.w3.org/2000/svg">
<path d="M6 20C6 19.4477 6.44772 19 7 19H21C21.5523 19 22 19.4477 22 20C22 20.5523 21.5523 21 21 21H7C6.44772 21 6 20.5523 6 20Z" fill="#777E91"/>
<path fill-rule="evenodd" clip-rule="evenodd" d="M20.8787 6.87872L17.1214 3.12135C15.9498 1.94978 14.0503 1.94978 12.8787 3.12136L2.12136 13.8787C0.949784 15.0503 0.949781 16.9498 2.12135 18.1214L3.82846 19.8285C4.57861 20.5786 5.59602 21 6.65689 21H9.34318C10.404 21 11.4215 20.5786 12.1716 19.8285L20.8787 11.1214C22.0503 9.94978 22.0503 8.05029 20.8787 6.87872ZM15.7071 4.53557L19.4645 8.29293C19.855 8.68345 19.855 9.31661 19.4645 9.70714L15.0858 14.0858L9.91425 8.91425L14.2929 4.53557C14.6835 4.14504 15.3166 4.14505 15.7071 4.53557ZM8.41425 10.4142L3.53557 15.2929C3.14504 15.6835 3.14505 16.3166 3.53557 16.7071L5.24268 18.4142C5.61775 18.7893 6.12646 19 6.65689 19H9.34318C9.87362 19 10.3823 18.7893 10.7574 18.4142L13.5858 15.5858L8.41425 10.4142Z" fill="#777E91"/>
</svg>
