<svg width="24" height="24" viewBox="0 0 24 24" fill="none" xmlns="http://www.w3.org/2000/svg">
<path d="M1.99976 7C2.55204 7 2.99976 7.44772 2.99976 8V20C2.99976 20.5523 2.55204 21 1.99976 21C1.44747 21 0.999756 20.5523 0.999756 20V8C0.999756 7.44772 1.44747 7 1.99976 7Z" fill="#777E91"/>
<path d="M7.99976 12C7.99976 11.4477 7.55204 11 6.99976 11C6.44747 11 5.99976 11.4477 5.99976 12V20C5.99976 20.5523 6.44747 21 6.99976 21C7.55204 21 7.99976 20.5523 7.99976 20V12Z" fill="#777E91"/>
<path d="M17.9998 13C17.9998 12.4477 17.552 12 16.9998 12C16.4475 12 15.9998 12.4477 15.9998 13V20C15.9998 20.5523 16.4475 21 16.9998 21C17.552 21 17.9998 20.5523 17.9998 20V13Z" fill="#777E91"/>
<path d="M22.9998 15C22.9998 14.4477 22.552 14 21.9998 14C21.4475 14 20.9998 14.4477 20.9998 15V20C20.9998 20.5523 21.4475 21 21.9998 21C22.552 21 22.9998 20.5523 22.9998 20V15Z" fill="#777E91"/>
<path d="M11.9998 13C12.552 13 12.9998 13.4477 12.9998 14V20C12.9998 20.5523 12.552 21 11.9998 21C11.4475 21 10.9998 20.5523 10.9998 20V14C10.9998 13.4477 11.4475 13 11.9998 13Z" fill="#777E91"/>
<path fill-rule="evenodd" clip-rule="evenodd" d="M1.21887 3.37534C0.873856 3.8066 0.943777 4.4359 1.37504 4.78091L6.14361 8.59576C6.37378 8.7799 6.62984 8.92911 6.90352 9.03858L11.0763 10.7077C11.6167 10.9238 12.2082 10.9781 12.7788 10.864L16.6129 10.0972C16.8031 10.0592 17.0003 10.0773 17.1804 10.1493L21.6283 11.9285C22.1411 12.1336 22.7231 11.8842 22.9282 11.3714C23.1333 10.8586 22.8839 10.2767 22.3711 10.0716L17.9231 8.29237C17.3828 8.07623 16.7913 8.02192 16.2206 8.13605L12.3866 8.90286C12.1964 8.9409 11.9992 8.9228 11.8191 8.85075L7.6463 7.18163C7.55507 7.14514 7.46972 7.0954 7.393 7.03402L2.62443 3.21917C2.19317 2.87416 1.56388 2.94408 1.21887 3.37534Z" fill="#777E91"/>
</svg>
