<svg width="24" height="24" viewBox="0 0 24 24" fill="none" xmlns="http://www.w3.org/2000/svg">
<path d="M12.7071 3.29289C12.3166 2.90237 11.6834 2.90237 11.2929 3.29289C10.9024 3.68342 10.9024 4.31658 11.2929 4.70711L12.2929 5.70708L5.51368 12.4863C4.56798 13.432 4.1575 14.7877 4.41978 16.0992L4.99995 19L7.90079 19.5802C9.21223 19.8425 10.568 19.432 11.5137 18.4863L12.2929 17.7071L10.2929 15.7071C9.90237 15.3166 9.90237 14.6834 10.2929 14.2929C10.6834 13.9024 11.3166 13.9024 11.7071 14.2929L13.7071 16.2929L15.2929 14.7071L13.2929 12.7071C12.9024 12.3166 12.9024 11.6834 13.2929 11.2929C13.6834 10.9024 14.3166 10.9024 14.7071 11.2929L16.7071 13.2929L18.2929 11.7071L19.2929 12.7071C19.6834 13.0976 20.3166 13.0976 20.7071 12.7071C21.0976 12.3166 21.0976 11.6834 20.7071 11.2929L12.7071 3.29289Z" fill="#777E91"/>
<path fill-rule="evenodd" clip-rule="evenodd" d="M7 16.9999C7.39052 17.3904 7.39052 18.0236 7 18.4141L3.70711 21.707C3.31658 22.0976 2.68342 22.0976 2.29289 21.707C1.90237 21.3165 1.90237 20.6833 2.29289 20.2928L5.58579 16.9999C5.97631 16.6094 6.60948 16.6094 7 16.9999Z" fill="#777E91"/>
<path d="M17.7071 2.29289C17.3166 1.90237 16.6834 1.90237 16.2929 2.29289C15.9023 2.68342 15.9023 3.31658 16.2929 3.70711L17.5858 5.00005L16 6.5858C15.6095 6.97633 15.6095 7.60949 16 8.00001C16.3906 8.39054 17.0237 8.39054 17.4143 8.00001L19 6.41426L20.2929 7.70711C20.6834 8.09763 21.3166 8.09763 21.7071 7.70711C22.0976 7.31658 22.0976 6.68342 21.7071 6.29289L17.7071 2.29289Z" fill="#777E91"/>
</svg>
