<svg width="24" height="24" viewBox="0 0 24 24" fill="none" xmlns="http://www.w3.org/2000/svg">
<path fill-rule="evenodd" clip-rule="evenodd" d="M12.7071 3.29289C12.3166 2.90237 11.6834 2.90237 11.2929 3.29289C10.9024 3.68342 10.9024 4.31658 11.2929 4.70711L11.5858 5L5.80659 10.7792C4.62447 11.9613 4.11136 13.656 4.43922 15.2953L4.91443 17.6714L2.29289 20.2929C1.90237 20.6834 1.90237 21.3166 2.29289 21.7071C2.68342 22.0976 3.31658 22.0976 3.70711 21.7071L6.32866 19.0856L8.70469 19.5608C10.344 19.8886 12.0387 19.3755 13.2208 18.1934L19 12.4142L19.2929 12.7071C19.6834 13.0976 20.3166 13.0976 20.7071 12.7071C21.0976 12.3166 21.0976 11.6834 20.7071 11.2929L12.7071 3.29289ZM13 6.41424L7.2208 12.1934C6.51153 12.9027 6.20366 13.9195 6.40038 14.9031L6.8498 17.1502L9.09692 17.5996C10.0805 17.7963 11.0973 17.4885 11.8066 16.7792L17.5858 11L13 6.41424Z" fill="#777E91"/>
<path d="M14.7071 11.2929C14.3166 10.9024 13.6834 10.9024 13.2929 11.2929C12.9024 11.6834 12.9024 12.3166 13.2929 12.7071L15.2929 14.7071C15.6834 15.0976 16.3166 15.0976 16.7071 14.7071C17.0976 14.3166 17.0976 13.6834 16.7071 13.2929L14.7071 11.2929Z" fill="#777E91"/>
<path d="M11.7071 14.2929C11.3166 13.9024 10.6834 13.9024 10.2929 14.2929C9.90237 14.6834 9.90237 15.3166 10.2929 15.7071L12.2929 17.7071C12.6834 18.0976 13.3166 18.0976 13.7071 17.7071C14.0976 17.3166 14.0976 16.6834 13.7071 16.2929L11.7071 14.2929Z" fill="#777E91"/>
<path d="M17.7071 2.29289C17.3166 1.90237 16.6834 1.90237 16.2929 2.29289C15.9023 2.68342 15.9023 3.31658 16.2929 3.70711L17.5858 5.00005L16 6.5858C15.6095 6.97633 15.6095 7.60949 16 8.00001C16.3906 8.39054 17.0237 8.39054 17.4143 8.00001L19 6.41426L20.2929 7.70711C20.6834 8.09763 21.3166 8.09763 21.7071 7.70711C22.0976 7.31658 22.0976 6.68342 21.7071 6.29289L17.7071 2.29289Z" fill="#777E91"/>
</svg>
