<svg width="24" height="24" viewBox="0 0 24 24" fill="none" xmlns="http://www.w3.org/2000/svg">
<path fill-rule="evenodd" clip-rule="evenodd" d="M1 20C1 19.4477 1.44772 19 2 19H22C22.5523 19 23 19.4477 23 20C23 20.5523 22.5523 21 22 21H2C1.44772 21 1 20.5523 1 20Z" fill="#777E91"/>
<path d="M20 3C19.4477 3 19 3.44772 19 4V16C19 16.5523 19.4477 17 20 17C20.5523 17 21 16.5523 21 16V4C21 3.44772 20.5523 3 20 3Z" fill="#777E91"/>
<path d="M12 5C11.4477 5 11 5.44771 11 6V16C11 16.5523 11.4477 17 12 17C12.5523 17 13 16.5523 13 16V6C13 5.44772 12.5523 5 12 5Z" fill="#777E91"/>
<path d="M7 12C7 11.4477 7.44772 11 8 11C8.55228 11 9 11.4477 9 12V16C9 16.5523 8.55228 17 8 17C7.44772 17 7 16.5523 7 16V12Z" fill="#777E91"/>
<path d="M3 14C3 13.4477 3.44772 13 4 13C4.55228 13 5 13.4477 5 14V16C5 16.5523 4.55228 17 4 17C3.44772 17 3 16.5523 3 16V14Z" fill="#777E91"/>
<path d="M15 8C15 7.44772 15.4477 7 16 7C16.5523 7 17 7.44772 17 8V16C17 16.5523 16.5523 17 16 17C15.4477 17 15 16.5523 15 16V8Z" fill="#777E91"/>
</svg>
