<svg width="24" height="24" viewBox="0 0 24 24" fill="none" xmlns="http://www.w3.org/2000/svg">
<path d="M21.1666 16.8334L16.8333 21.1668C16.0969 21.9031 14.903 21.9031 14.1666 21.1668C13.7985 20.7986 13.7985 20.2016 14.1666 19.8334L19.8333 14.1668C20.2015 13.7986 20.7985 13.7986 21.1666 14.1668C21.903 14.9031 21.903 16.0971 21.1666 16.8334Z" fill="#777E91"/>
<path d="M9.01363 10.7652C9.03437 10.5878 8.98995 10.4043 8.86371 10.278L2.99556 4.40989C2.74142 4.15576 2.32624 4.28402 2.37707 4.63981L3.54064 12.7848C3.8272 14.7907 5.10684 16.5165 6.94302 17.3734L10.8652 19.2037C11.2463 19.3816 11.6979 19.302 11.9952 19.0047L19.0047 11.9952C19.302 11.6979 19.3816 11.2463 19.2037 10.8652L17.3734 6.94303C16.5165 5.10684 14.7907 3.8272 12.7848 3.54064L4.63981 2.37707C4.28391 2.32623 4.15563 2.74154 4.40984 2.99575L10.2778 8.86374C10.4041 8.98999 10.5877 9.0344 10.765 9.01365C10.8421 9.00463 10.9205 8.99999 11 8.99999C12.1046 8.99999 13 9.89542 13 11C13 12.1046 12.1046 13 11 13C9.89542 13 8.99999 12.1046 8.99999 11C8.99999 10.9205 9.00462 10.8422 9.01363 10.7652Z" fill="#777E91"/>
</svg>
