<svg width="24" height="24" viewBox="0 0 24 24" fill="none" xmlns="http://www.w3.org/2000/svg">
<path fill-rule="evenodd" clip-rule="evenodd" d="M13.2858 3.50476C15.5585 3.80779 17.4598 5.37957 18.1849 7.55476L19.7929 12.3787L21.2929 13.8787C22.4645 15.0503 22.4645 16.9497 21.2929 18.1213L18.1213 21.2929C16.9497 22.4645 15.0503 22.4645 13.8787 21.2929L12.3787 19.7929L7.55476 18.1849C5.37957 17.4598 3.80779 15.5585 3.50476 13.2858L2.34564 4.59242C2.17148 3.28619 3.28619 2.17148 4.59242 2.34564L13.2858 3.50476ZM14.2071 18.7929L15.2929 19.8787C15.6834 20.2692 16.3166 20.2692 16.7071 19.8787L19.8787 16.7071C20.2692 16.3166 20.2692 15.6834 19.8787 15.2929L18.7929 14.2071L14.2071 18.7929ZM12.4598 17.7117L17.7117 12.4598L16.2875 8.18721C15.8042 6.73709 14.5366 5.68923 13.0215 5.48721L4.3281 4.3281L5.48721 13.0215C5.68923 14.5366 6.73709 15.8042 8.18721 16.2875L12.4598 17.7117Z" fill="#777E91"/>
<path d="M10.4819 9.06772L3.80923 2.39502C3.12286 2.57918 2.57918 3.12286 2.39502 3.80923L9.06765 10.4819C9.02344 10.6471 8.99988 10.8208 8.99988 11C8.99988 12.1046 9.89531 13 10.9999 13C12.1044 13 12.9999 12.1046 12.9999 11C12.9999 9.89543 12.1044 9 10.9999 9C10.8208 9 10.6471 9.02355 10.4819 9.06772Z" fill="#777E91"/>
</svg>
