<svg width="24" height="24" viewBox="0 0 24 24" fill="none" xmlns="http://www.w3.org/2000/svg">
<path fill-rule="evenodd" clip-rule="evenodd" d="M7.85358 13.8535C7.65831 13.6582 7.34173 13.6582 7.14647 13.8535L1.70713 19.2928C1.07716 19.9228 1.52333 20.9999 2.41424 20.9999H10C10.5523 20.9999 11 20.5522 11 19.9999V17.207C11 17.0744 10.9473 16.9472 10.8536 16.8535L7.85358 13.8535Z" fill="#777E91"/>
<path fill-rule="evenodd" clip-rule="evenodd" d="M9.3536 12.3537C9.15834 12.1584 9.15834 11.8418 9.3536 11.6466L19 2.00019C19.8444 1.15584 21.1557 1.15587 22 2.00023C22.8215 2.82172 22.7894 4.14777 22 5.00023L12.8527 15.1103C12.6608 15.3224 12.3306 15.3306 12.1284 15.1284L9.3536 12.3537Z" fill="#777E91"/>
</svg>
