<svg width="24" height="24" viewBox="0 0 24 24" fill="none" xmlns="http://www.w3.org/2000/svg">
<path fill-rule="evenodd" clip-rule="evenodd" d="M13 17.9999V15.9999L21 7.99989C22.3807 6.61918 22.3807 4.3806 21 2.99989C19.6193 1.61918 17.3807 1.61918 16 2.99989L2.26776 16.7321C0.69285 18.307 1.80827 20.9999 4.03553 20.9999H10C11.6569 20.9999 13 19.6567 13 17.9999ZM11 16L8.41416 13.4142L3.68198 18.1463C3.36699 18.4613 3.59008 18.9999 4.03553 18.9999H10C10.5523 18.9999 11 18.5522 11 17.9999V16ZM9.91416 11.9142L17.4142 4.4141C18.0139 3.81444 18.9861 3.81444 19.5858 4.4141C20.1854 5.01377 20.1854 5.98601 19.5858 6.58568L12.0857 14.0857L9.91416 11.9142Z" fill="#777E91"/>
</svg>
