<svg width="24" height="24" viewBox="0 0 24 24" fill="none" xmlns="http://www.w3.org/2000/svg">
<path d="M10.4524 21.8809C10.7445 21.9263 11.0001 21.6941 11.0001 21.3985V13.4999C11.0001 13.2238 10.7762 12.9999 10.5001 12.9999H9.4035C9.14649 12.9999 8.9327 13.1951 8.89577 13.4495C8.56929 15.698 7.49463 17.704 5.93245 19.207C5.71132 19.4198 5.7102 19.7806 5.9545 19.9662C7.2445 20.9467 8.7799 21.621 10.4524 21.8809Z" fill="#777E91"/>
<path d="M3.80828 17.7368C3.97037 17.9678 4.29589 18.0028 4.50078 17.8088C5.68103 16.6907 6.52077 15.2169 6.84825 13.5589C6.90652 13.2639 6.67263 12.9999 6.37194 12.9999H2.60154C2.30587 12.9999 2.0737 13.2554 2.11909 13.5476C2.35852 15.0886 2.94982 16.5133 3.80828 17.7368Z" fill="#777E91"/>
<path d="M2.11909 10.4523C2.0737 10.7445 2.30587 10.9999 2.60154 10.9999H6.37194C6.67263 10.9999 6.90652 10.736 6.84825 10.441C6.52077 8.78301 5.68103 7.30914 4.50078 6.19111C4.29589 5.99702 3.97037 6.03203 3.80828 6.26306C2.94982 7.4866 2.35852 8.91125 2.11909 10.4523Z" fill="#777E91"/>
<path d="M5.9545 4.03362C5.7102 4.21931 5.71132 4.58009 5.93245 4.79284C7.49463 6.29584 8.56928 8.30191 8.89577 10.5504C8.9327 10.8048 9.14649 10.9999 9.4035 10.9999H10.5001C10.7762 10.9999 11.0001 10.7761 11.0001 10.4999V2.60141C11.0001 2.30574 10.7445 2.07358 10.4524 2.11897C8.7799 2.37882 7.2445 3.05314 5.9545 4.03362Z" fill="#777E91"/>
<path d="M18.0677 19.207C18.2888 19.4198 18.2899 19.7806 18.0456 19.9662C16.7556 20.9467 15.2202 21.621 13.5477 21.8809C13.2556 21.9263 13.0001 21.6941 13.0001 21.3985V13.4999C13.0001 13.2238 13.2239 12.9999 13.5001 12.9999H14.5966C14.8536 12.9999 15.0674 13.1951 15.1043 13.4495C15.4308 15.698 16.5055 17.704 18.0677 19.207Z" fill="#777E91"/>
<path d="M19.4993 17.8088C19.7042 18.0028 20.0297 17.9678 20.1918 17.7368C21.0503 16.5133 21.6416 15.0886 21.881 13.5476C21.9264 13.2554 21.6943 12.9999 21.3986 12.9999H17.6282C17.3275 12.9999 17.0936 13.2639 17.1519 13.5589C17.4793 15.2169 18.3191 16.6907 19.4993 17.8088Z" fill="#777E91"/>
<path d="M21.3986 10.9999C21.6943 10.9999 21.9264 10.7445 21.881 10.4523C21.6416 8.91125 21.0503 7.4866 20.1918 6.26306C20.0297 6.03203 19.7042 5.99702 19.4993 6.19111C18.3191 7.30914 17.4793 8.78301 17.1519 10.441C17.0936 10.736 17.3275 10.9999 17.6282 10.9999H21.3986Z" fill="#777E91"/>
<path d="M18.0677 4.79284C18.2888 4.58009 18.2899 4.21931 18.0456 4.03362C16.7556 3.05314 15.2202 2.37882 13.5477 2.11897C13.2556 2.07358 13.0001 2.30574 13.0001 2.60141V10.4999C13.0001 10.7761 13.2239 10.9999 13.5001 10.9999H14.5966C14.8536 10.9999 15.0674 10.8048 15.1043 10.5504C15.4308 8.30191 16.5055 6.29584 18.0677 4.79284Z" fill="#777E91"/>
</svg>
