<svg width="24" height="24" viewBox="0 0 24 24" fill="none" xmlns="http://www.w3.org/2000/svg">
<g clip-path="url(#clip0_602:10035)">
<path fill-rule="evenodd" clip-rule="evenodd" d="M9.6709 19.1576C10.0826 19.3802 10.517 19.5617 10.9681 19.6986C12.0697 20.0327 13.2367 20.0901 14.3657 19.8655C15.4948 19.6409 16.551 19.1414 17.4409 18.4111C18.3307 17.6808 19.0267 16.7423 19.4673 15.6788C19.9078 14.6153 20.0792 13.4595 19.9664 12.3139C19.8536 11.1683 19.4599 10.0682 18.8204 9.11101C18.1808 8.15386 17.3151 7.3692 16.2999 6.82655C15.8841 6.60433 15.4486 6.42551 15.0001 6.29179L15.0001 12.5858C15.0001 13.3814 14.684 14.1445 14.1214 14.7071L9.6709 19.1576ZM7.38105 20.0304C6.94963 19.6856 6.95273 19.0474 7.34325 18.6569L12.7072 13.2929C12.8947 13.1054 13.0001 12.851 13.0001 12.5858L13.0001 5C13.0001 4.44771 13.4492 3.99426 13.9981 4.0555C15.1307 4.18187 16.2322 4.52261 17.2427 5.06271C18.548 5.7604 19.6611 6.76924 20.4833 7.99987C21.3056 9.23049 21.8117 10.6449 21.9568 12.1178C22.1018 13.5908 21.8814 15.0768 21.315 16.4441C20.7486 17.8115 19.8537 19.0182 18.7096 19.9571C17.5655 20.896 16.2075 21.5383 14.7559 21.8271C13.3043 22.1158 11.8039 22.0421 10.3875 21.6125C9.29113 21.2799 8.27132 20.7419 7.38105 20.0304Z" fill="#777E91"/>
<path fill-rule="evenodd" clip-rule="evenodd" d="M9 5.29176C8.33309 5.4906 7.69594 5.78884 7.11101 6.17968C5.95987 6.94885 5.06266 8.0421 4.53285 9.32118C4.00303 10.6003 3.86441 12.0077 4.13451 13.3656C4.27175 14.0556 4.51139 14.717 4.84237 15.3292L9 11.1715L9 5.29176ZM10.002 3.05546C10.5509 2.99422 11 3.44768 11 3.99997L11 11.5858C11 11.851 10.8946 12.1053 10.7071 12.2929L5.34315 17.6568C4.95263 18.0473 4.31443 18.0504 3.96962 17.619C3.07318 16.4974 2.45494 15.1735 2.17294 13.7558C1.82567 12.01 2.0039 10.2004 2.68509 8.55582C3.36628 6.91128 4.51983 5.50567 5.99987 4.51674C7.20174 3.71367 8.57508 3.21467 10.002 3.05546Z" fill="#777E91"/>
</g>
<defs>
<clipPath id="clip0_602:10035">
<rect width="24" height="24" fill="white"/>
</clipPath>
</defs>
</svg>
