<svg width="24" height="24" viewBox="0 0 24 24" fill="none" xmlns="http://www.w3.org/2000/svg">
<path d="M3 9C2.44772 9 2 9.44771 2 10V21C2 21.5523 2.44772 22 3 22C3.55228 22 4 21.5523 4 21V10C4 9.44772 3.55228 9 3 9Z" fill="#777E91"/>
<path d="M9 11C8.44772 11 8 11.4477 8 12V21C8 21.5523 8.44772 22 9 22C9.55228 22 10 21.5523 10 21V12C10 11.4477 9.55228 11 9 11Z" fill="#777E91"/>
<path d="M14 14C14 13.4477 14.4477 13 15 13C15.5523 13 16 13.4477 16 14V21C16 21.5523 15.5523 22 15 22C14.4477 22 14 21.5523 14 21V14Z" fill="#777E91"/>
<path d="M21 15C20.4477 15 20 15.4477 20 16V21C20 21.5523 20.4477 22 21 22C21.5523 22 22 21.5523 22 21V16C22 15.4477 21.5523 15 21 15Z" fill="#777E91"/>
<path d="M3 2C2.44772 2 2 2.44772 2 3V6C2 6.55228 2.44772 7 3 7C3.55228 7 4 6.55228 4 6V3C4 2.44772 3.55228 2 3 2Z" fill="#777E91"/>
<path d="M9 2C8.44772 2 8 2.44772 8 3V8C8 8.55228 8.44772 9 9 9C9.55228 9 10 8.55228 10 8V3C10 2.44772 9.55228 2 9 2Z" fill="#777E91"/>
<path d="M14 3C14 2.44772 14.4477 2 15 2C15.5523 2 16 2.44772 16 3V10C16 10.5523 15.5523 11 15 11C14.4477 11 14 10.5523 14 10V3Z" fill="#777E91"/>
<path d="M21 2C20.4477 2 20 2.44772 20 3V12C20 12.5523 20.4477 13 21 13C21.5523 13 22 12.5523 22 12V3C22 2.44772 21.5523 2 21 2Z" fill="#777E91"/>
</svg>
