<svg width="24" height="24" viewBox="0 0 24 24" fill="none" xmlns="http://www.w3.org/2000/svg">
<path d="M11.8536 21.1466C11.5386 21.4616 11.7617 22.0002 12.2072 22.0002H20C21.1045 22.0002 22 21.1048 22 20.0002V16.0002C22 14.8956 21.1045 14.0002 20 14.0002H19.2072C19.0746 14.0002 18.9474 14.0529 18.8536 14.1466L11.8536 21.1466Z" fill="#777E91"/>
<path d="M12 16.793C12 17.2385 12.5386 17.4616 12.8536 17.1466L20.5858 9.4144C21.3668 8.63335 21.3668 7.36702 20.5858 6.58597L17.4142 3.4144C16.6331 2.63335 15.3668 2.63335 14.5858 3.4144L12.1465 5.85368C12.0527 5.94745 12 6.07463 12 6.20724V16.793Z" fill="#777E91"/>
<path fill-rule="evenodd" clip-rule="evenodd" d="M4 2C2.89543 2 2 2.89543 2 4V20C2 21.1046 2.89543 22 4 22H8C9.10457 22 10 21.1046 10 20V4C10 2.89543 9.10457 2 8 2H4ZM6 19C6.55228 19 7 18.5523 7 18C7 17.4477 6.55228 17 6 17C5.44772 17 5 17.4477 5 18C5 18.5523 5.44772 19 6 19Z" fill="#777E91"/>
</svg>
