<svg width="24" height="24" viewBox="0 0 24 24" fill="none" xmlns="http://www.w3.org/2000/svg">
<path d="M7.99951 22L18.9999 22C20.6567 22 21.9999 20.6569 21.9999 19V15C21.9999 13.3432 20.6565 12 18.9996 12L19.8783 11.1214C21.0499 9.94978 21.0499 8.05029 19.8783 6.87872L17.121 4.12136C15.9494 2.94978 14.0499 2.94978 12.8783 4.12135L11.9998 4.99983C11.9998 4.99977 11.9998 4.99989 11.9998 4.99983V7.82826L14.2925 5.53557C14.6831 5.14505 15.3162 5.14504 15.7067 5.53557L18.4641 8.29293C18.8546 8.68345 18.8546 9.31662 18.4641 9.70714L11.9998 16.1714V18.9998L16.9996 14H18.9999C19.5522 14 19.9999 14.4478 19.9999 15V19C19.9999 19.5523 19.5522 20 18.9999 20H11.8291C11.4173 21.1652 10.306 22 8.99984 22L7.99951 22Z" fill="#777E91"/>
<path fill-rule="evenodd" clip-rule="evenodd" d="M9 4H5C4.44771 4 4 4.44772 4 5V19C4 19.5523 4.44772 20 5 20H9C9.55229 20 10 19.5523 10 19V5C10 4.44772 9.55228 4 9 4ZM5 2C3.34315 2 2 3.34315 2 5V19C2 20.6569 3.34315 22 5 22H9C10.6569 22 12 20.6569 12 19V5C12 3.34315 10.6569 2 9 2H5Z" fill="#777E91"/>
<path d="M8 17C8 17.5523 7.55228 18 7 18C6.44772 18 6 17.5523 6 17C6 16.4477 6.44772 16 7 16C7.55228 16 8 16.4477 8 17Z" fill="#777E91"/>
</svg>
