<svg width="24" height="24" viewBox="0 0 24 24" fill="none" xmlns="http://www.w3.org/2000/svg">
<path fill-rule="evenodd" clip-rule="evenodd" d="M2 3C2.55228 3 3 3.44772 3 4V18C3 18.5523 3.44772 19 4 19H22C22.5523 19 23 19.4477 23 20C23 20.5523 22.5523 21 22 21H4C2.34315 21 1 19.6569 1 18V4C1 3.44772 1.44772 3 2 3Z" fill="#777E91"/>
<path fill-rule="evenodd" clip-rule="evenodd" d="M5.50403 5.13168C5.02451 5.40569 4.85792 6.01655 5.13193 6.49607L8.31845 12.0725C9.02795 13.3141 10.5152 13.8823 11.8719 13.4301L14.9934 12.3896C15.3909 12.2571 15.8288 12.3864 16.0905 12.7136L19.2193 16.6246C19.5643 17.0559 20.1936 17.1258 20.6249 16.7808C21.0561 16.4358 21.126 15.8065 20.781 15.3752L17.6522 11.4642C16.8671 10.4828 15.5533 10.0948 14.3609 10.4922L11.2394 11.5328C10.7872 11.6835 10.2914 11.4941 10.0549 11.0802L6.86841 5.50379C6.5944 5.02427 5.98355 4.85767 5.50403 5.13168Z" fill="#777E91"/>
</svg>
