<svg width="24" height="24" viewBox="0 0 24 24" fill="none" xmlns="http://www.w3.org/2000/svg">
<path fill-rule="evenodd" clip-rule="evenodd" d="M2.29289 13.2929C2.68342 12.9024 3.31658 12.9024 3.70711 13.2929L7 16.5858C7.39052 16.9763 7.39052 17.6095 7 18C6.60948 18.3905 5.97631 18.3905 5.58579 18L2.29289 14.7071C1.90237 14.3166 1.90237 13.6834 2.29289 13.2929Z" fill="#777E91"/>
<path d="M21.7348 5.67829C22.1094 5.27246 22.084 4.63981 21.6782 4.2652C21.2724 3.8906 20.6397 3.9159 20.2651 4.32172L8.94342 16.5869C8.56882 16.9927 8.59413 17.6254 8.99995 18C9.40577 18.3746 10.0384 18.3493 10.413 17.9435L17.3158 10.4654C17.5085 10.2568 17.836 10.2502 18.0368 10.451L19.2929 11.7071C19.6834 12.0976 20.3166 12.0976 20.7071 11.7071C21.0976 11.3166 21.0976 10.6834 20.7071 10.2929L19.3662 8.95195C19.1764 8.76219 19.1703 8.45646 19.3523 8.25926L21.7348 5.67829Z" fill="#777E91"/>
<path fill-rule="evenodd" clip-rule="evenodd" d="M5.87871 12.8787L4.12136 11.1214C2.94978 9.94979 2.94978 8.05029 4.12135 6.87872L7.87872 3.12135C9.05029 1.94978 10.9498 1.94978 12.1214 3.12136L13.8787 4.87871C15.0503 6.05029 15.0503 7.94978 13.8787 9.12136L10.1214 12.8787C8.94978 14.0503 7.05029 14.0503 5.87871 12.8787ZM5.53557 9.70714L7.29293 11.4645C7.68345 11.855 8.31662 11.855 8.70714 11.4645L12.4645 7.70714C12.855 7.31662 12.855 6.68345 12.4645 6.29293L10.7071 4.53557C10.3166 4.14504 9.68345 4.14505 9.29293 4.53557L5.53557 8.29293C5.14504 8.68345 5.14504 9.31662 5.53557 9.70714Z" fill="#777E91"/>
<path fill-rule="evenodd" clip-rule="evenodd" d="M8 20C8.55228 20 9 19.5523 9 19C9 18.4477 8.55228 18 8 18C7.44772 18 7 18.4477 7 19C7 19.5523 7.44772 20 8 20ZM8 22C9.65685 22 11 20.6569 11 19C11 17.3431 9.65685 16 8 16C6.34315 16 5 17.3431 5 19C5 20.6569 6.34315 22 8 22Z" fill="#777E91"/>
</svg>
