<svg width="24" height="24" viewBox="0 0 24 24" fill="none" xmlns="http://www.w3.org/2000/svg">
<path d="M21.5975 10.1812H12.0525V14.2725H17.4625C16.5975 17 14.4613 17.9087 12.0088 17.9087C11.0584 17.9099 10.1217 17.6819 9.27828 17.2439C8.43484 16.8059 7.70949 16.1709 7.16377 15.3929C6.61806 14.6148 6.26808 13.7165 6.14353 12.7743C6.01898 11.8322 6.12354 10.8738 6.44834 9.98067C6.77313 9.08751 7.30858 8.28588 8.00924 7.64378C8.70991 7.00168 9.55512 6.53807 10.4732 6.29228C11.3912 6.04649 12.355 6.02577 13.2828 6.23188C14.2105 6.43799 15.0749 6.86485 15.8025 7.47625L18.775 4.645C17.5779 3.54229 16.1298 2.74843 14.5564 2.33233C12.9829 1.91623 11.3317 1.89047 9.74599 2.25728C8.16032 2.62409 6.68814 3.37239 5.45726 4.43721C4.22638 5.50203 3.27401 6.8512 2.68281 8.36757C2.09162 9.88395 1.87947 11.5217 2.0648 13.1387C2.25012 14.7556 2.82731 16.3029 3.74626 17.6462C4.66521 18.9895 5.89814 20.0882 7.33802 20.8469C8.7779 21.6057 10.3812 22.0015 12.0088 22C17.5225 22 22.5088 18.3637 21.5975 10.1812Z" fill="#777E91"/>
</svg>
