<svg width="24" height="24" viewBox="0 0 24 24" fill="none" xmlns="http://www.w3.org/2000/svg">
<path d="M15.0942 21.5121C15.3176 21.4395 15.4513 21.214 15.4161 20.9817C15.0857 18.8034 14.5764 16.7975 13.8852 14.893C13.7853 14.6177 13.4685 14.492 13.21 14.6297C11.3896 15.5993 9.34734 17.1715 6.67192 19.7579C6.44762 19.9748 6.47643 20.3432 6.74165 20.5074C8.26938 21.4537 10.0709 22 12.0001 22C13.08 22 14.1199 21.8288 15.0942 21.5121Z" fill="#777E91"/>
<path d="M17.2301 19.6943C17.2937 20.0486 17.6956 20.2285 17.9838 20.0129C20.0297 18.4827 21.47 16.1873 21.8805 13.551C21.9261 13.2581 21.6924 13.002 21.396 13.0044C19.3143 13.0218 17.6663 13.1056 16.076 13.5092C15.7942 13.5807 15.6462 13.8842 15.7459 14.1574C16.3828 15.9027 16.8782 17.7331 17.2301 19.6943Z" fill="#777E91"/>
<path d="M21.4001 11.0034C21.6952 11.0012 21.9266 10.7462 21.8814 10.4546C21.6639 9.05234 21.155 7.74641 20.4186 6.60061C20.2656 6.36246 19.9417 6.31634 19.7153 6.48631C18.0118 7.76525 16.2678 8.83037 14.34 9.67206C14.0683 9.79069 13.9513 10.1152 14.0871 10.3788C14.2612 10.7168 14.4294 11.0569 14.5916 11.3995C14.6997 11.6278 14.959 11.7424 15.2021 11.6737C17.1678 11.1179 19.1292 11.0205 21.4001 11.0034Z" fill="#777E91"/>
<path d="M18.3286 5.02547C18.5775 4.8414 18.5948 4.47633 18.356 4.27946C16.6281 2.85533 14.4139 2 12 2C11.1377 2 10.3009 2.10914 9.50271 2.31435C9.16463 2.40127 9.04614 2.80812 9.26353 3.08125C10.5113 4.64908 11.6264 6.19951 12.6068 7.77597C12.7355 7.98284 12.9936 8.07037 13.2184 7.97647C15.0402 7.21551 16.693 6.23524 18.3286 5.02547Z" fill="#777E91"/>
<path d="M7.20051 3.70861C7.04512 3.51817 6.77306 3.46955 6.56683 3.60327C4.52675 4.92605 2.99914 6.97212 2.3472 9.37828C2.26332 9.68788 2.50794 9.98103 2.82852 9.97023C5.71377 9.87304 8.13037 9.53893 10.255 8.97722C10.5748 8.89268 10.7157 8.52257 10.5361 8.2448C9.56081 6.73665 8.44957 5.2394 7.20051 3.70861Z" fill="#777E91"/>
<path d="M2.01153 12.4909C1.99857 12.2186 2.21902 11.9964 2.4916 11.9893C6.0123 11.8973 8.94311 11.4666 11.5344 10.6952C11.7633 10.6271 12.01 10.7257 12.122 10.9367C12.325 11.3191 12.5196 11.7039 12.7059 12.0916C12.8244 12.3382 12.7172 12.6322 12.474 12.7575C10.3101 13.8723 8.00686 15.6658 5.09181 18.5041C4.89089 18.6998 4.56698 18.6953 4.38505 18.4819C2.99516 16.8514 2.12018 14.7733 2.01153 12.4909Z" fill="#777E91"/>
</svg>
