<svg width="24" height="24" viewBox="0 0 24 24" fill="none" xmlns="http://www.w3.org/2000/svg">
<path fill-rule="evenodd" clip-rule="evenodd" d="M20 9.23607V8C20 6.89543 19.1046 6 18 6H4C2.89543 6 2 6.89543 2 8V16C2 17.1046 2.89543 18 4 18H18C19.1046 18 20 17.1046 20 16V14.7639L21.4472 14.0403C21.786 13.8709 22 13.5247 22 13.1459V10.8541C22 10.4753 21.786 10.1291 21.4472 9.95967L20 9.23607ZM22 8L22.3416 8.17082C23.358 8.679 24 9.71779 24 10.8541V13.1459C24 14.2822 23.358 15.321 22.3416 15.8292L22 16C22 18.2091 20.2091 20 18 20H4C1.79086 20 0 18.2091 0 16V8C0 5.79086 1.79086 4 4 4H18C20.2091 4 22 5.79086 22 8Z" fill="#777E91"/>
<path d="M5 8C4.44772 8 4 8.44772 4 9V15C4 15.5523 4.44772 16 5 16C5.55228 16 6 15.5523 6 15V9C6 8.44772 5.55228 8 5 8Z" fill="#777E91"/>
<path d="M9 8C8.44772 8 8 8.44772 8 9V15C8 15.5523 8.44772 16 9 16C9.55228 16 10 15.5523 10 15V9C10 8.44772 9.55228 8 9 8Z" fill="#777E91"/>
<path d="M12 9C12 8.44772 12.4477 8 13 8C13.5523 8 14 8.44772 14 9V15C14 15.5523 13.5523 16 13 16C12.4477 16 12 15.5523 12 15V9Z" fill="#777E91"/>
<path d="M17 8C16.4477 8 16 8.44772 16 9V15C16 15.5523 16.4477 16 17 16C17.5523 16 18 15.5523 18 15V9C18 8.44772 17.5523 8 17 8Z" fill="#777E91"/>
</svg>
