<svg width="24" height="24" viewBox="0 0 24 24" fill="none" xmlns="http://www.w3.org/2000/svg">
<path d="M7 0C5.34315 0 4 1.34315 4 3V21C4 22.6569 5.34315 24 7 24C8.65685 24 10 22.6569 10 21V10.1817L8 6.54539V21C8 21.5523 7.55228 22 7 22C6.44772 22 6 21.5523 6 21V3C6 2.55749 6.28742 2.18212 6.68575 2.05037C6.78226 2.01606 6.88839 2 7 2V0Z" fill="#777E91"/>
<path d="M17 24C18.6569 24 20 22.6569 20 21V3C20 1.34315 18.6569 0 17 0C15.3431 0 14 1.34315 14 3V13.8181L16 17.4545V3C16 2.44772 16.4477 2 17 2C17.5523 2 18 2.44772 18 3V21C18 21.4421 17.7131 21.8172 17.3153 21.9493C17.2185 21.9838 17.112 22 17 22V24Z" fill="#777E91"/>
<path fill-rule="evenodd" clip-rule="evenodd" d="M16.2503 21.546C16.4043 21.826 16.6985 22 17.018 22C17.6845 22 18.107 21.2855 17.7858 20.7015L7.74963 2.45395C7.59563 2.17396 7.30142 2 6.98188 2C6.31542 2 5.89295 2.71452 6.21412 3.29848L16.2503 21.546ZM9.50206 1.49011L19.5382 19.7377C20.5925 21.6545 19.2057 24 17.018 24C15.9691 24 15.0034 23.429 14.4979 22.5099L4.46169 4.26232C3.40741 2.34545 4.79422 0 6.98188 0C8.03081 0 8.99656 0.571025 9.50206 1.49011Z" fill="#777E91"/>
</svg>
