<svg width="24" height="24" viewBox="0 0 24 24" fill="none" xmlns="http://www.w3.org/2000/svg">
<path fill-rule="evenodd" clip-rule="evenodd" d="M16.659 10.6783C17.1839 10.0428 17.5483 9.26585 17.6982 8.41477C17.8671 7.45563 18 6.41137 18 5.5V0H6V5.5C6 6.41137 6.13289 7.45563 6.30179 8.41477C6.45166 9.26585 6.81607 10.0428 7.34102 10.6783C7.81255 11.2492 8.4136 11.706 9.10503 12C8.4136 12.294 7.81255 12.7508 7.34102 13.3217C6.81607 13.9572 6.45166 14.7341 6.30179 15.5852C6.13289 16.5444 6 17.5886 6 18.5V24H18V18.5C18 17.5886 17.8671 16.5444 17.6982 15.5852C17.5483 14.7341 17.1839 13.9572 16.659 13.3217C16.1875 12.7508 15.5864 12.294 14.895 12C15.5864 11.706 16.1875 11.2492 16.659 10.6783ZM16 22V18.5C16 17.7568 15.8889 16.8427 15.7285 15.9321C15.5575 14.9606 14.9297 14.1881 14.1124 13.8405L12 12.9423L9.88765 13.8405C9.07025 14.1881 8.44254 14.9606 8.27149 15.9321C8.11114 16.8427 8 17.7568 8 18.5V22H16ZM12 11.0577L14.1124 10.1595C14.9297 9.81191 15.5575 9.03936 15.7285 8.06793C15.8889 7.15732 16 6.24321 16 5.5V2H8V5.5C8 6.24321 8.11114 7.15732 8.27149 8.06793C8.44254 9.03936 9.07025 9.81191 9.88765 10.1595L12 11.0577Z" fill="#777E91"/>
<path d="M4 23C4 22.4477 4.44772 22 5 22H19C19.5523 22 20 22.4477 20 23C20 23.5523 19.5523 24 19 24H5C4.44772 24 4 23.5523 4 23Z" fill="#777E91"/>
<path d="M4 1C4 0.447715 4.44772 0 5 0H19C19.5523 0 20 0.447715 20 1C20 1.55228 19.5523 2 19 2H5C4.44772 2 4 1.55228 4 1Z" fill="#777E91"/>
<path d="M8 21.9998C8 21.3869 8.34626 20.8266 8.89443 20.5526L11.1056 19.447C11.6686 19.1655 12.3314 19.1655 12.8944 19.447L15.1056 20.5526C15.6537 20.8266 16 21.3869 16 21.9998H8Z" fill="#777E91"/>
</svg>
