<svg width="24" height="24" viewBox="0 0 24 24" fill="none" xmlns="http://www.w3.org/2000/svg">
<path d="M18 3C17.4477 3 17 3.44772 17 4C17 4.55228 17.4477 5 18 5H22C22.5523 5 23 4.55228 23 4C23 3.44772 22.5523 3 22 3H18Z" fill="#777E91"/>
<path d="M17 8C17 7.44772 17.4477 7 18 7H22C22.5523 7 23 7.44772 23 8C23 8.55229 22.5523 9 22 9H18C17.4477 9 17 8.55229 17 8Z" fill="#777E91"/>
<path d="M18 11C17.4477 11 17 11.4477 17 12C17 12.5523 17.4477 13 18 13H22C22.5523 13 23 12.5523 23 12C23 11.4477 22.5523 11 22 11H18Z" fill="#777E91"/>
<path d="M17 16C17 15.4477 17.4477 15 18 15H22C22.5523 15 23 15.4477 23 16C23 16.5523 22.5523 17 22 17H18C17.4477 17 17 16.5523 17 16Z" fill="#777E91"/>
<path d="M17 20C17 19.4477 17.4477 19 18 19H22C22.5523 19 23 19.4477 23 20C23 20.5523 22.5523 21 22 21H18C17.4477 21 17 20.5523 17 20Z" fill="#777E91"/>
<path d="M10 11C9.44772 11 9 11.4477 9 12C9 12.5523 9.44772 13 10 13H14C14.5523 13 15 12.5523 15 12C15 11.4477 14.5523 11 14 11H10Z" fill="#777E91"/>
<path d="M9 16C9 15.4477 9.44772 15 10 15H14C14.5523 15 15 15.4477 15 16C15 16.5523 14.5523 17 14 17H10C9.44772 17 9 16.5523 9 16Z" fill="#777E91"/>
<path d="M9 20C9 19.4477 9.44772 19 10 19H14C14.5523 19 15 19.4477 15 20C15 20.5523 14.5523 21 14 21H10C9.44772 21 9 20.5523 9 20Z" fill="#777E91"/>
<path d="M2 7C1.44772 7 1 7.44772 1 8C1 8.55229 1.44772 9 2 9H6C6.55228 9 7 8.55229 7 8C7 7.44772 6.55228 7 6 7H2Z" fill="#777E91"/>
<path d="M1 12C1 11.4477 1.44772 11 2 11H6C6.55228 11 7 11.4477 7 12C7 12.5523 6.55228 13 6 13H2C1.44772 13 1 12.5523 1 12Z" fill="#777E91"/>
<path d="M2 15C1.44772 15 1 15.4477 1 16C1 16.5523 1.44772 17 2 17H6C6.55228 17 7 16.5523 7 16C7 15.4477 6.55228 15 6 15H2Z" fill="#777E91"/>
<path d="M2 19C1.44772 19 1 19.4477 1 20C1 20.5523 1.44772 21 2 21H6C6.55228 21 7 20.5523 7 20C7 19.4477 6.55228 19 6 19H2Z" fill="#777E91"/>
</svg>
