<svg width="24" height="24" viewBox="0 0 24 24" fill="none" xmlns="http://www.w3.org/2000/svg">
<path d="M4.26639 14.9331C4.2631 15.0366 4.26782 15.1419 4.28112 15.2483L4.70933 18.674C4.87545 20.0029 6.00516 21.0002 7.34447 21.0002C8.81114 21.0002 10.0001 19.8113 10.0001 18.3446V15.2829C9.34602 15.124 8.67599 15.0311 8.00011 15.0067V18.3446C8.00011 18.7067 7.70657 19.0002 7.34447 19.0002C7.01381 19.0002 6.7349 18.754 6.69389 18.4259L6.26568 15.0002C8.7426 15.0002 6.2464 15.0002 5 15.0002C4.74941 15.0002 4.50421 14.9772 4.26639 14.9331Z" fill="#777E91"/>
<path fill-rule="evenodd" clip-rule="evenodd" d="M7.63932 8.99987H5C3.89543 8.99987 3 9.8953 3 10.9999C3 12.1044 3.89543 12.9999 5 12.9999H7.63932C9.50226 12.9999 11.3396 13.4336 13.0059 14.2667L18.5528 17.0402C19.2177 17.3726 20 16.8891 20 16.1458V5.85397C20 5.11059 19.2177 4.62709 18.5528 4.95954L13.0059 7.73299C11.3396 8.56613 9.50226 8.99987 7.63932 8.99987ZM5 6.99987C2.79086 6.99987 1 8.79073 1 10.9999C1 13.209 2.79086 14.9999 5 14.9999H7.63932C9.19177 14.9999 10.7229 15.3613 12.1115 16.0556L17.6584 18.829C19.6531 19.8264 22 18.3759 22 16.1458V5.85397C22 3.62382 19.6531 2.17333 17.6584 3.17069L12.1115 5.94414C10.7229 6.63842 9.19177 6.99987 7.63932 6.99987H5Z" fill="#777E91"/>
<path d="M11 15.5817C10.3518 15.3504 9.68156 15.1867 9 15.0931V6.90707C9.68156 6.81346 10.3518 6.64975 11 6.41846V15.5817Z" fill="#777E91"/>
<path d="M22 12.9147C22.5826 12.7088 23 12.1532 23 11.5001V10.5001C23 9.84699 22.5826 9.29137 22 9.08545V12.9147Z" fill="#777E91"/>
</svg>
