<svg width="24" height="24" viewBox="0 0 24 24" fill="none" xmlns="http://www.w3.org/2000/svg">
<path d="M16 4C15.4477 4 15 4.44772 15 5C15 5.55228 15.4477 6 16 6C19.3137 6 22 8.68629 22 12C22 15.3137 19.3137 18 16 18C15.4477 18 15 18.4477 15 19C15 19.5523 15.4477 20 16 20C20.4183 20 24 16.4183 24 12C24 7.58172 20.4183 4 16 4Z" fill="#777E91"/>
<path d="M16 8C15.4477 8 15 8.44772 15 9C15 9.55228 15.4477 10 16 10C17.1046 10 18 10.8954 18 12C18 13.1046 17.1046 14 16 14C15.4477 14 15 14.4477 15 15C15 15.5523 15.4477 16 16 16C18.2091 16 20 14.2091 20 12C20 9.79086 18.2091 8 16 8Z" fill="#777E91"/>
<path fill-rule="evenodd" clip-rule="evenodd" d="M5.82843 9.99995H3C2.44772 9.99995 2 10.4477 2 10.9999V12.9999C2 13.5522 2.44772 13.9999 3 13.9999H5.82843L9.29289 17.4644C9.92286 18.0944 11 17.6482 11 16.7573V7.24259C11 6.35168 9.92286 5.90552 9.29289 6.53548L5.82843 9.99995ZM5 15.9999L7.87868 18.8786C9.76857 20.7685 13 19.43 13 16.7573V7.24259C13 4.56987 9.76858 3.23137 7.87868 5.12127L5 7.99995H3C1.34315 7.99995 0 9.34309 0 10.9999V12.9999C0 14.6568 1.34315 15.9999 3 15.9999H5Z" fill="#777E91"/>
</svg>
