<svg width="24" height="24" viewBox="0 0 24 24" fill="none" xmlns="http://www.w3.org/2000/svg">
<path fill-rule="evenodd" clip-rule="evenodd" d="M13.998 21.9445C13.4491 22.0057 13 21.5523 13 21L13 14C13 13.4477 13.4477 13 14 13L21 13C21.5523 13 22.0058 13.4491 21.9445 13.998C21.8509 14.8372 21.6394 15.6609 21.3149 16.4442C20.8626 17.5361 20.1997 18.5282 19.364 19.364C18.5282 20.1997 17.5361 20.8626 16.4442 21.3149C15.6609 21.6394 14.8373 21.8509 13.998 21.9445Z" fill="#777E91"/>
<path fill-rule="evenodd" clip-rule="evenodd" d="M21.9445 10.0022C22.0058 10.551 21.5523 11.0001 21 11.0001L14 11.0001C13.4477 11.0001 13 10.5524 13 10.0001L13 3.00011C13 2.44782 13.4491 1.99436 13.998 2.0556C14.8373 2.14925 15.6609 2.36074 16.4442 2.68519C17.5361 3.13748 18.5282 3.80042 19.364 4.63614C20.1997 5.47187 20.8626 6.46402 21.3149 7.55595C21.6394 8.33924 21.8509 9.16286 21.9445 10.0022Z" fill="#777E91"/>
<path fill-rule="evenodd" clip-rule="evenodd" d="M10.002 3.05559C10.5509 2.99437 11 3.44784 11 4.00012L11 20.0001C11 20.5524 10.5509 21.0059 10.002 20.9446C7.98222 20.7193 6.08694 19.815 4.63604 18.3641C2.94821 16.6763 2 14.3871 2 12.0001C2 9.61317 2.94821 7.32398 4.63604 5.63616C6.08694 4.18525 7.98222 3.2809 10.002 3.05559Z" fill="#777E91"/>
</svg>
