<svg width="24" height="24" viewBox="0 0 24 24" fill="none" xmlns="http://www.w3.org/2000/svg">
<path fill-rule="evenodd" clip-rule="evenodd" d="M14.9999 19.7082C15.2297 19.6397 15.4563 19.5593 15.6787 19.4672C16.528 19.1154 17.2996 18.5998 17.9496 17.9497C18.5997 17.2997 19.1153 16.5281 19.4671 15.6788C19.5592 15.4564 19.6396 15.2298 19.7081 15L14.9999 15L14.9999 19.7082ZM13.9978 21.9445C13.449 22.0057 12.9999 21.5523 12.9999 21L12.9999 14C12.9999 13.4477 13.4476 13 13.9999 13L20.9999 13C21.5522 13 22.0056 13.4491 21.9444 13.998C21.8508 14.8372 21.6393 15.6609 21.3148 16.4442C20.8625 17.5361 20.1996 18.5282 19.3639 19.364C18.5281 20.1997 17.536 20.8626 16.444 21.3149C15.6608 21.6394 14.8371 21.8509 13.9978 21.9445Z" fill="#777E91"/>
<path fill-rule="evenodd" clip-rule="evenodd" d="M19.7081 9.00011C19.6396 8.77029 19.5592 8.54371 19.4671 8.32132C19.1153 7.47204 18.5997 6.70037 17.9496 6.05036C17.2996 5.40035 16.528 4.88473 15.6787 4.53295C15.4563 4.44083 15.2297 4.36042 14.9999 4.2919L14.9999 9.00011L19.7081 9.00011ZM21.9444 10.0022C22.0056 10.551 21.5522 11.0001 20.9999 11.0001L13.9999 11.0001C13.4476 11.0001 12.9999 10.5524 12.9999 10.0001L12.9999 3.00011C12.9999 2.44782 13.449 1.99436 13.9978 2.0556C14.8371 2.14925 15.6608 2.36074 16.444 2.68519C17.536 3.13748 18.5281 3.80042 19.3639 4.63614C20.1996 5.47187 20.8625 6.46402 21.3148 7.55595C21.6393 8.33924 21.8508 9.16286 21.9444 10.0022Z" fill="#777E91"/>
<path fill-rule="evenodd" clip-rule="evenodd" d="M9 5.29189C7.89589 5.62112 6.87969 6.22094 6.05025 7.05037C4.7375 8.36312 4 10.1436 4 12.0001C4 13.8566 4.7375 15.6371 6.05025 16.9499C6.87969 17.7793 7.89588 18.3791 9 18.7083L9 5.29189ZM10.002 3.05559C10.5509 2.99437 11 3.44784 11 4.00012L11 20.0001C11 20.5524 10.5509 21.0059 10.002 20.9446C7.98222 20.7193 6.08694 19.815 4.63604 18.3641C2.94821 16.6763 2 14.3871 2 12.0001C2 9.61317 2.94821 7.32398 4.63604 5.63616C6.08694 4.18525 7.98222 3.2809 10.002 3.05559Z" fill="#777E91"/>
</svg>
