<svg width="24" height="24" viewBox="0 0 24 24" fill="none" xmlns="http://www.w3.org/2000/svg">
<path fill-rule="evenodd" clip-rule="evenodd" d="M10.5084 11.1597L3.54213 6.66536C2.8767 6.23605 2 6.71375 2 7.50565V16.4943C2 17.2862 2.8767 17.764 3.54213 17.3346L10.5084 12.8403C11.1189 12.4464 11.1189 11.5536 10.5084 11.1597ZM4.62638 4.98476C2.63009 3.69683 0 5.12995 0 7.50565V16.4943C0 18.87 2.63009 20.3032 4.62638 19.0152L11.5926 14.5209C13.4241 13.3393 13.4241 10.6607 11.5926 9.47911L4.62638 4.98476Z" fill="#777E91"/>
<path fill-rule="evenodd" clip-rule="evenodd" d="M21.5084 11.1597L14.5421 6.66536C13.8767 6.23605 13 6.71375 13 7.50565V16.4943C13 17.2862 13.8767 17.764 14.5421 17.3346L21.5084 12.8403C22.1189 12.4464 22.1189 11.5536 21.5084 11.1597ZM15.6264 4.98476C13.6301 3.69683 11 5.12995 11 7.50565V16.4943C11 18.87 13.6301 20.3032 15.6264 19.0152L22.5926 14.5209C24.4241 13.3393 24.4241 10.6607 22.5926 9.47911L15.6264 4.98476Z" fill="#777E91"/>
</svg>
