<svg width="24" height="24" viewBox="0 0 24 24" fill="none" xmlns="http://www.w3.org/2000/svg">
<path d="M13 16C13 15.4477 12.5523 15 12 15C11.4477 15 11 15.4477 11 16V19C11 20.6569 12.3431 22 14 22C15.6569 22 17 20.6569 17 19C17 18.4477 16.5523 18 16 18C15.4477 18 15 18.4477 15 19C15 19.5523 14.5523 20 14 20C13.4477 20 13 19.5523 13 19V16Z" fill="#777E91"/>
<path d="M19.9737 13.3246C20.9706 13.6568 21.9989 12.9068 21.782 11.8786C20.7689 7.07571 16.3845 4 12.0001 4C7.61563 4 3.2312 7.07571 2.21808 11.8786C2.0012 12.9068 3.02951 13.6568 4.02639 13.3246C4.6584 13.1139 5.3417 13.1139 5.97372 13.3246L7.17128 13.7237C7.71255 13.9042 8.29405 13.9265 8.84757 13.7881L11.2724 13.1819C11.7502 13.0625 12.2499 13.0625 12.7277 13.1819L15.1525 13.7881C15.7061 13.9265 16.2876 13.9042 16.8288 13.7237L18.0264 13.3246C18.6584 13.1139 19.3417 13.1139 19.9737 13.3246Z" fill="#777E91"/>
<path d="M11 3C11 2.44772 11.4477 2 12 2C12.5523 2 13 2.44772 13 3V4C13 4.55228 12.5523 5 12 5C11.4477 5 11 4.55228 11 4V3Z" fill="#777E91"/>
</svg>
