<svg width="24" height="24" viewBox="0 0 24 24" fill="none" xmlns="http://www.w3.org/2000/svg">
<path d="M13 14C13 13.4477 12.5523 13 12 13C11.4477 13 11 13.4477 11 14V19C11 20.6569 12.3431 22 14 22C15.6569 22 17 20.6569 17 19C17 18.4477 16.5523 18 16 18C15.4477 18 15 18.4477 15 19C15 19.5523 14.5523 20 14 20C13.4477 20 13 19.5523 13 19V14Z" fill="#777E91"/>
<path fill-rule="evenodd" clip-rule="evenodd" d="M6.60624 12.4272L7.8038 12.8264C7.98423 12.8865 8.17806 12.894 8.36257 12.8478L10.7874 12.2416C11.5836 12.0426 12.4166 12.0426 13.2128 12.2416L15.6377 12.8478C15.8222 12.894 16.016 12.8865 16.1964 12.8264L17.394 12.4272C17.8838 12.2639 18.3922 12.1774 18.9018 12.1675C19.2566 12.1606 19.5424 11.8322 19.4263 11.4969C18.2847 8.19793 15.5446 6 12.0001 6C8.45568 6 5.71552 8.19793 4.5739 11.4969C4.45785 11.8322 4.74364 12.1606 5.09844 12.1675C5.60801 12.1774 6.11646 12.2639 6.60624 12.4272ZM21.828 12.8729C21.9987 13.9098 20.9707 14.6568 19.9738 14.3246C19.3418 14.1139 18.6585 14.1139 18.0265 14.3246L16.8289 14.7237C16.2876 14.9042 15.7061 14.9265 15.1526 14.7881L12.7277 14.1819C12.25 14.0625 11.7502 14.0625 11.2725 14.1819L8.84764 14.7881C8.29412 14.9265 7.71262 14.9042 7.17135 14.7237L5.97379 14.3246C5.34177 14.1139 4.65847 14.1139 4.02645 14.3246C3.02958 14.6568 2.00151 13.9098 2.17228 12.8729C2.99744 7.86317 6.72614 4 12.0001 4C17.2741 4 21.0028 7.86317 21.828 12.8729Z" fill="#777E91"/>
<path d="M11 3C11 2.44772 11.4477 2 12 2C12.5523 2 13 2.44772 13 3V4C13 4.55228 12.5523 5 12 5C11.4477 5 11 4.55228 11 4V3Z" fill="#777E91"/>
</svg>
