<svg width="24" height="24" viewBox="0 0 24 24" fill="none" xmlns="http://www.w3.org/2000/svg">
<path fill-rule="evenodd" clip-rule="evenodd" d="M9 6.2919C8.33309 6.49074 7.69594 6.78899 7.11101 7.17982C5.95987 7.94899 5.06266 9.04224 4.53285 10.3213C4.00303 11.6004 3.86441 13.0079 4.13451 14.3657C4.4046 15.7236 5.07129 16.9709 6.05026 17.9499C7.02922 18.9288 8.27651 19.5955 9.63437 19.8656C10.9922 20.1357 12.3997 19.9971 13.6788 19.4673C14.9579 18.9375 16.0511 18.0402 16.8203 16.8891C17.2111 16.3042 17.5094 15.667 17.7082 15.0001H11.5C10.1193 15.0001 9 13.8808 9 12.5001L9 6.2919ZM10.002 4.0556C10.5509 3.99437 11 4.44783 11 5.00011V12.5001C11 12.7763 11.2239 13.0001 11.5 13.0001H19C19.5523 13.0001 20.0057 13.4492 19.9445 13.9981C19.7853 15.425 19.2863 16.7984 18.4832 18.0002C17.4943 19.4803 16.0887 20.6338 14.4442 21.315C12.7996 21.9962 10.99 22.1744 9.24419 21.8272C7.49836 21.4799 5.89472 20.6227 4.63604 19.3641C3.37737 18.1054 2.5202 16.5018 2.17294 14.7559C1.82567 13.0101 2.0039 11.2005 2.68509 9.55596C3.36628 7.91142 4.51983 6.50582 5.99987 5.51688C7.20174 4.71382 8.57508 4.21481 10.002 4.0556Z" fill="#777E91"/>
<path fill-rule="evenodd" clip-rule="evenodd" d="M19.7082 9.00011C19.6397 8.77029 19.5593 8.54371 19.4672 8.32132C19.1154 7.47204 18.5998 6.70037 17.9497 6.05036C17.2997 5.40035 16.5281 4.88473 15.6788 4.53295C15.4564 4.44083 15.2298 4.36042 15 4.2919V9.00011H19.7082ZM21.9445 10.0022C22.0057 10.551 21.5523 11.0001 21 11.0001H13.5C13.2239 11.0001 13 10.7762 13 10.5001V3.00011C13 2.44782 13.4491 1.99436 13.998 2.0556C14.8372 2.14925 15.6609 2.36074 16.4442 2.68519C17.5361 3.13748 18.5282 3.80042 19.364 4.63614C20.1997 5.47187 20.8626 6.46402 21.3149 7.55595C21.6394 8.33924 21.8509 9.16286 21.9445 10.0022Z" fill="#777E91"/>
</svg>
