<svg width="24" height="24" viewBox="0 0 24 24" fill="none" xmlns="http://www.w3.org/2000/svg">
<path fill-rule="evenodd" clip-rule="evenodd" d="M6 5C6 3.34315 7.34315 2 9 2H15C16.6569 2 18 3.34315 18 5V10H16V5C16 4.44772 15.5523 4 15 4H9C8.44772 4 8 4.44772 8 5V10H6V5Z" fill="#777E91"/>
<path d="M5 12H19C19.5523 12 20 12.4477 20 13V16C20 16.5523 19.5523 17 19 17H18V19H19C20.6569 19 22 17.6569 22 16V13C22 11.3431 20.6569 10 19 10H5C3.34315 10 2 11.3431 2 13V16C2 17.6569 3.34315 19 5 19H6V17H5C4.44772 17 4 16.5523 4 16V13C4 12.4477 4.44772 12 5 12Z" fill="#777E91"/>
<path fill-rule="evenodd" clip-rule="evenodd" d="M16 17H8V19C8 19.5523 8.44772 20 9 20H15C15.5523 20 16 19.5523 16 19V17ZM6 15V19C6 20.6569 7.34315 22 9 22H15C16.6569 22 18 20.6569 18 19V15H6Z" fill="#777E91"/>
</svg>
