<svg width="24" height="24" viewBox="0 0 24 24" fill="none" xmlns="http://www.w3.org/2000/svg">
<path fill-rule="evenodd" clip-rule="evenodd" d="M10.5858 18.5859L18.5858 10.5859C20.0139 9.15781 20.0139 6.84242 18.5858 5.41433C17.1577 3.98624 14.8423 3.98624 13.4142 5.41433L5.41421 13.4143C3.98612 14.8424 3.98612 17.1578 5.41421 18.5859C6.8423 20.014 9.15769 20.014 10.5858 18.5859ZM12 20.0001L20 12.0001C22.2091 9.79097 22.2091 6.20926 20 4.00012C17.7909 1.79098 14.2091 1.79098 12 4.00012L3.99999 12.0001C1.79085 14.2093 1.79086 17.791 4 20.0001C6.20914 22.2093 9.79086 22.2093 12 20.0001Z" fill="#777E91"/>
<path fill-rule="evenodd" clip-rule="evenodd" d="M16 15.9999C15.6095 16.3904 14.9764 16.3904 14.5858 15.9999L8.00005 9.41414C7.60952 9.02361 7.60952 8.39045 8.00005 7.99992C8.39057 7.6094 9.02374 7.6094 9.41426 7.99992L16 14.5857C16.3906 14.9762 16.3906 15.6094 16 15.9999Z" fill="#777E91"/>
</svg>
