<svg width="24" height="24" viewBox="0 0 24 24" fill="none" xmlns="http://www.w3.org/2000/svg">
<path fill-rule="evenodd" clip-rule="evenodd" d="M2.41872 6.18634C1.9693 6.50735 1.86521 7.1319 2.18622 7.58132L7.18622 14.5813C7.47224 14.9817 8.00705 15.1146 8.44717 14.8945L15.6829 11.2766L20.1862 17.5813C20.5072 18.0307 21.1318 18.1348 21.5812 17.8138C22.0306 17.4928 22.1347 16.8683 21.8137 16.4188L16.8137 9.41884C16.5277 9.01842 15.9929 8.88559 15.5527 9.10565L8.31703 12.7235L3.81369 6.41884C3.49268 5.96943 2.86813 5.86534 2.41872 6.18634Z" fill="#777E91"/>
<path d="M3 10C1.34315 10 0 8.65685 0 7C0 5.34315 1.34315 4 3 4C4.65685 4 6 5.34315 6 7C6 8.65685 4.65685 10 3 10Z" fill="#777E91"/>
<path d="M16 13C14.3431 13 13 11.6569 13 10C13 8.34315 14.3431 7 16 7C17.6569 7 19 8.34315 19 10C19 11.6569 17.6569 13 16 13Z" fill="#777E91"/>
<path d="M21 20C19.3431 20 18 18.6569 18 17C18 15.3431 19.3431 14 21 14C22.6569 14 24 15.3431 24 17C24 18.6569 22.6569 20 21 20Z" fill="#777E91"/>
<path d="M5 14C5 15.6569 6.34315 17 8 17C9.65685 17 11 15.6569 11 14C11 12.3431 9.65685 11 8 11C6.34315 11 5 12.3431 5 14Z" fill="#777E91"/>
</svg>
