<svg width="24" height="24" viewBox="0 0 24 24" fill="none" xmlns="http://www.w3.org/2000/svg">
<path fill-rule="evenodd" clip-rule="evenodd" d="M20 18.5C20 17.6716 19.3284 17 18.5 17L7.5 17C4.46243 17 2 14.5376 2 11.5C2 8.46243 4.46243 6 7.5 6L9 6L9 8L7.5 8C5.567 8 4 9.567 4 11.5C4 13.433 5.567 15 7.5 15L18.5 15C20.433 15 22 16.567 22 18.5C22 20.433 20.433 22 18.5 22L3 22C2.44772 22 2 21.5523 2 21C2 20.4477 2.44772 20 3 20L18.5 20C19.3284 20 20 19.3284 20 18.5Z" fill="#777E91"/>
<path fill-rule="evenodd" clip-rule="evenodd" d="M17 4H13C11.8954 4 11 4.89543 11 6V8C11 9.10457 11.8954 10 13 10H17V4ZM13 2C10.7909 2 9 3.79086 9 6V8C9 10.2091 10.7909 12 13 12H18C18.5523 12 19 11.5523 19 11V3C19 2.44772 18.5523 2 18 2H13Z" fill="#777E91"/>
<path d="M21 4H19V6H21C21.5523 6 22 5.55228 22 5C22 4.44772 21.5523 4 21 4Z" fill="#777E91"/>
<path d="M21 8H19V10H21C21.5523 10 22 9.55228 22 9C22 8.44772 21.5523 8 21 8Z" fill="#777E91"/>
</svg>
