<svg width="24" height="24" viewBox="0 0 24 24" fill="none" xmlns="http://www.w3.org/2000/svg">
<path fill-rule="evenodd" clip-rule="evenodd" d="M17.4583 2.36899C19.6551 2.65912 21.341 4.34504 21.6311 6.54184C21.8306 8.05208 22.0001 9.94127 22.0001 12C22.0001 14.0587 21.8306 15.9479 21.6311 17.4582C21.341 19.655 19.6551 21.3409 17.4583 21.631C15.948 21.8305 14.0588 22 12.0001 22C9.94139 22 8.0522 21.8305 6.54196 21.631C4.34516 21.3409 2.65925 19.655 2.36911 17.4582C2.16966 15.9479 2.00012 14.0587 2.00012 12C2.00012 9.94127 2.16966 8.05208 2.36911 6.54184C2.65925 4.34504 4.34517 2.65912 6.54196 2.36899C8.05221 2.16953 9.9414 2 12.0001 2C14.0588 2 15.948 2.16953 17.4583 2.36899ZM14.793 9.79289C15.1835 9.40237 15.8167 9.40237 16.2072 9.79289C16.5978 10.1834 16.5978 10.8166 16.2072 11.2071L12.7072 14.7071C12.3167 15.0976 11.6835 15.0976 11.293 14.7071L7.79302 11.2071C7.40249 10.8166 7.40249 10.1834 7.79302 9.79289C8.18354 9.40237 8.8167 9.40237 9.20723 9.79289L12.0001 12.5858L14.793 9.79289Z" fill="#777E91"/>
</svg>
