<svg width="24" height="24" viewBox="0 0 24 24" fill="none" xmlns="http://www.w3.org/2000/svg">
<path d="M12.7071 8.7072L15.2929 11.293C15.6834 11.6835 15.6834 12.3167 15.2929 12.7072L10.9903 17.0098C10.3333 17.6668 9.5879 18.229 8.77566 18.6803L4.05951 21.3003C3.18034 21.7888 2.21128 20.8197 2.69971 19.9405L5.31979 15.2244C5.77104 14.4122 6.33328 13.6668 6.9903 13.0098L11.2929 8.7072C11.6834 8.31668 12.3165 8.31668 12.7071 8.7072Z" fill="#777E91"/>
<path d="M18.9999 9.00012L19.75 9.75017C20.1642 10.1644 20.1642 10.836 19.75 11.2502C19.3358 11.6644 18.6642 11.6644 18.25 11.2502L12.75 5.75017C12.3358 5.33596 12.3358 4.66439 12.75 4.25017C13.1642 3.83596 13.8358 3.83596 14.25 4.25017L14.9999 5.00012L17 3.00006C18.1046 1.89549 19.8954 1.89549 21 3.00006C22.1046 4.10463 22.1046 5.89549 21 7.00006L18.9999 9.00012Z" fill="#777E91"/>
</svg>
