<svg width="24" height="24" viewBox="0 0 24 24" fill="none" xmlns="http://www.w3.org/2000/svg">
<path fill-rule="evenodd" clip-rule="evenodd" d="M11.9999 6L17.9999 12L11.86 18.1399C11.2897 18.7103 10.6392 19.1943 9.929 19.5767L6.3677 21.4943C5.25912 22.0912 3.89024 21.8903 2.99994 21C2.10964 20.1097 1.90873 18.7408 2.50566 17.6322L4.42328 14.0709C4.80567 13.3608 5.28969 12.7103 5.86002 12.1399L11.9999 6ZM11.9999 8.82843L7.27423 13.5541C6.84154 13.9868 6.47433 14.4804 6.18422 15.0191L4.2666 18.5804C4.08841 18.9114 4.14838 19.32 4.41416 19.5858C4.67993 19.8516 5.08857 19.9115 5.4195 19.7333L8.9808 17.8157C9.51957 17.5256 10.0131 17.1584 10.4458 16.7257L15.1715 12L11.9999 8.82843Z" fill="#777E91"/>
<path fill-rule="evenodd" clip-rule="evenodd" d="M17.9999 12L20.5 9.49996C22.1569 7.84311 22.1569 5.15682 20.5 3.49997C18.8431 1.84311 16.1569 1.84311 14.5 3.49996L11.9999 6.00004L11.25 5.25011C10.8358 4.8359 10.1642 4.8359 9.74999 5.25011C9.33578 5.66433 9.33578 6.3359 9.74999 6.75011L17.25 14.2501C17.6642 14.6643 18.3358 14.6643 18.75 14.2501C19.1642 13.8359 19.1642 13.1643 18.75 12.7501L17.9999 12ZM13.4141 7.41426L16.5857 10.5858L19.0858 8.08575C19.9616 7.20995 19.9616 5.78998 19.0858 4.91418C18.21 4.03837 16.79 4.03837 15.9142 4.91418L13.4141 7.41426Z" fill="#777E91"/>
</svg>
