<svg width="24" height="24" viewBox="0 0 24 24" fill="none" xmlns="http://www.w3.org/2000/svg">
<path d="M9.65689 16.4805L6.64394 20.6986C5.78336 21.9034 4.0469 22.0471 2.99995 21.0002C1.95301 19.9532 2.09672 18.2168 3.30154 17.3562L7.51966 14.3432C7.77108 14.1636 7.80107 13.8013 7.5826 13.5828L5.41417 11.4144C4.63312 10.6333 4.63312 9.367 5.41417 8.58596L6.1464 7.85372C6.34166 7.65846 6.65825 7.65846 6.85351 7.85372L16.1464 17.1466C16.3417 17.3419 16.3417 17.6585 16.1464 17.8537L15.4142 18.586C14.6331 19.367 13.3668 19.367 12.5857 18.586L10.4173 16.4175C10.1988 16.199 9.83648 16.229 9.65689 16.4805Z" fill="#777E91"/>
<path d="M17.6465 15.6464L8.3536 6.3535C8.15834 6.15823 8.15834 5.84165 8.3536 5.64639L11.0858 2.91416C11.8669 2.13311 13.1332 2.13311 13.9143 2.91415L21.0858 10.0857C21.8669 10.8668 21.8669 12.1331 21.0858 12.9142L18.3536 15.6464C18.1583 15.8417 17.8418 15.8417 17.6465 15.6464Z" fill="#777E91"/>
</svg>
