<svg width="24" height="24" viewBox="0 0 24 24" fill="none" xmlns="http://www.w3.org/2000/svg">
<path fill-rule="evenodd" clip-rule="evenodd" d="M6.5 7.50004L16.5 17.5L20.8787 13.1214C22.0503 11.9498 22.0503 10.0503 20.8787 8.87872L15.1213 3.12135C13.9497 1.94978 12.0503 1.94978 10.8787 3.12136L6.5 7.50004ZM9.41423 7.41423L12.2929 4.53557C12.6834 4.14504 13.3166 4.14505 13.7071 4.53557L19.4645 10.2929C19.855 10.6835 19.855 11.3166 19.4645 11.7071L16.5858 14.5858L9.41423 7.41423Z" fill="#777E91"/>
<path fill-rule="evenodd" clip-rule="evenodd" d="M16.1213 17.8787C14.9497 19.0503 13.0502 19.0503 11.8787 17.8787L11.4026 17.4027C11.1892 17.1892 10.8368 17.2121 10.6528 17.4514L8.37119 20.4174C7.1144 22.0513 4.70754 22.2076 3.24998 20.75C1.79242 19.2924 1.94873 16.8856 3.58256 15.6288L6.54862 13.3472C6.78785 13.1632 6.81073 12.8108 6.59731 12.5973L6.1213 12.1213C4.94972 10.9497 4.94972 9.05025 6.1213 7.87868L7.99998 6L18 16L16.1213 17.8787ZM9.06753 16.2319L6.78595 19.198C6.26525 19.8749 5.26807 19.9397 4.66419 19.3358C4.06031 18.7319 4.12507 17.7347 4.80198 17.214L7.76804 14.9324C8.96419 14.0123 9.07863 12.2502 8.01153 11.1831L7.53551 10.7071C7.14499 10.3166 7.14499 9.68342 7.53551 9.29289L7.9142 8.9142L15.0858 16.0858L14.7071 16.4645C14.3166 16.855 13.6834 16.855 13.2929 16.4645L12.8169 15.9885C11.7498 14.9213 9.98765 15.0358 9.06753 16.2319Z" fill="#777E91"/>
</svg>
