<svg width="24" height="24" viewBox="0 0 24 24" fill="none" xmlns="http://www.w3.org/2000/svg">
<path d="M2.6126 9C2.08186 9 1.64358 9.41461 1.61414 9.94453L1.17586 17.8336C1.08032 19.5532 2.44898 21 4.17124 21H7.39806C8.89101 21 10.1568 19.9022 10.3679 18.4243L10.8585 14.9899C10.9397 14.4219 11.4261 14 11.9999 14C12.5737 14 13.0602 14.4219 13.1414 14.9899L13.632 18.4243C13.8431 19.9022 15.1089 21 16.6018 21H19.8287C21.5509 21 22.9196 19.5532 22.824 17.8336L22.3858 9.94453C22.3563 9.41462 21.918 9 21.3873 9L2.6126 9Z" fill="#777E91"/>
<path d="M3.89197 3H20.108C21.1695 3 22.0461 3.82923 22.1049 4.88906L22.1636 5.94453C22.1954 6.51773 21.7392 7 21.1651 7L2.83487 7C2.26079 7 1.80457 6.51773 1.83641 5.94453L1.89505 4.88906C1.95393 3.82923 2.8305 3 3.89197 3Z" fill="#777E91"/>
</svg>
