<svg width="24" height="24" viewBox="0 0 24 24" fill="none" xmlns="http://www.w3.org/2000/svg">
<path fill-rule="evenodd" clip-rule="evenodd" d="M1.82606 6.75049C1.95782 4.64235 3.70602 3 5.81827 3H18.1816C20.2938 3 22.042 4.64235 22.1738 6.75049L22.7988 16.7505C22.9427 19.0533 21.1139 21 18.8066 21H16.5413C14.5859 21 12.9172 19.5863 12.5957 17.6576L12.1779 15.1508C12.1634 15.0638 12.0881 15 11.9999 15C11.9117 15 11.8364 15.0638 11.8219 15.1508L11.4041 17.6576C11.0827 19.5863 9.4139 21 7.45854 21H5.19327C2.88599 21 1.05714 19.0533 1.20106 16.7505L1.82606 6.75049ZM5.81827 5C4.76215 5 3.88805 5.82117 3.82217 6.87524L3.19717 16.8752C3.12521 18.0266 4.03963 19 5.19327 19H7.45854C8.43622 19 9.2706 18.2932 9.43133 17.3288L9.84913 14.822C10.0244 13.7706 10.934 13 11.9999 13C13.0658 13 13.9755 13.7706 14.1507 14.822L14.5685 17.3288C14.7292 18.2932 15.5636 19 16.5413 19H18.8066C19.9602 19 20.8746 18.0266 20.8027 16.8752L20.1777 6.87524C20.1118 5.82117 19.2377 5 18.1816 5H5.81827Z" fill="#777E91"/>
<path d="M1.62305 10L1.74805 8H22.2519L22.3769 10H1.62305Z" fill="#777E91"/>
</svg>
