<svg width="24" height="24" viewBox="0 0 24 24" fill="none" xmlns="http://www.w3.org/2000/svg">
<path fill-rule="evenodd" clip-rule="evenodd" d="M5.77092 8.03706C5.18048 8.01092 4.70966 8.51541 4.75874 9.10439L5.84721 22.1661C5.93359 23.2026 6.80013 24 7.8403 24H16.1598C17.1999 24 18.0665 23.2026 18.1529 22.1661L19.0787 11.056C19.1267 10.4802 18.677 9.98522 18.0998 9.95898C15.1907 9.82673 13.4579 9.39522 11.7575 8.97011L11.7429 8.96647C10.1122 8.55879 8.51042 8.15833 5.77092 8.03706ZM10 14C10.5523 14 11 13.5523 11 13C11 12.4477 10.5523 12 10 12C9.44775 12 9.00004 12.4477 9.00004 13C9.00004 13.5523 9.44775 14 10 14ZM15 18C15 18.5523 14.5523 19 14 19C13.4478 19 13 18.5523 13 18C13 17.4477 13.4478 17 14 17C14.5523 17 15 17.4477 15 18Z" fill="#777E91"/>
<path fill-rule="evenodd" clip-rule="evenodd" d="M4.28875 3.3721C4.06493 1.58155 5.46108 0 7.26558 0H16.8264C18.5815 0 19.9618 1.50008 19.8161 3.24914L19.4966 7.08305C19.4507 7.63342 18.9673 8.04241 18.417 7.99655C17.8666 7.95068 17.4576 7.46733 17.5035 6.91695L17.823 3.08305C17.8715 2.50003 17.4115 2 16.8264 2H7.26558C6.66408 2 6.19869 2.52718 6.2733 3.12404L6.49229 4.87597C6.56079 5.42398 6.17207 5.92378 5.62405 5.99228C5.07603 6.06078 4.57624 5.67205 4.50774 5.12403L4.28875 3.3721Z" fill="#777E91"/>
</svg>
