<svg width="24" height="24" viewBox="0 0 24 24" fill="none" xmlns="http://www.w3.org/2000/svg">
<path fill-rule="evenodd" clip-rule="evenodd" d="M16.7395 2H7.26034C6.6753 2 6.21521 2.50003 6.26379 3.08305L7.76379 21.083C7.80698 21.6013 8.24025 22 8.76034 22H15.2395C15.7596 22 16.1929 21.6013 16.2361 21.083L17.7361 3.08305C17.7847 2.50003 17.3246 2 16.7395 2ZM7.26034 0C5.50522 0 4.12495 1.50008 4.2707 3.24914L5.7707 21.2491C5.90027 22.804 7.20007 24 8.76034 24H15.2395C16.7998 24 18.0996 22.804 18.2292 21.2491L19.7292 3.24914C19.8749 1.50008 18.4947 0 16.7395 0H7.26034Z" fill="#777E91"/>
<path d="M10 14C10.5523 14 11 13.5523 11 13C11 12.4477 10.5523 12 10 12C9.44771 12 9 12.4477 9 13C9 13.5523 9.44771 14 10 14Z" fill="#777E91"/>
<path d="M14 19C14.5523 19 15 18.5523 15 18C15 17.4477 14.5523 17 14 17C13.4477 17 13 17.4477 13 18C13 18.5523 13.4477 19 14 19Z" fill="#777E91"/>
<path d="M17.3272 7.99094C14.9335 7.92386 13.658 7.49868 12.333 7.05699L12.3163 7.05142C10.8518 6.56326 9.32913 6.05898 6.50732 6.00488L6.67436 8.0093C9.06709 8.07652 10.3423 8.50162 11.6671 8.94322L11.6838 8.94879C13.0898 9.41746 14.5495 9.90097 17.1608 9.98672L17.3272 7.99094Z" fill="#777E91"/>
</svg>
