<svg width="24" height="24" viewBox="0 0 24 24" fill="none" xmlns="http://www.w3.org/2000/svg">
<path fill-rule="evenodd" clip-rule="evenodd" d="M11.9999 18C16.1254 18 19.0591 15.4076 20.7772 13.2486C21.3731 12.4998 21.3731 11.5002 20.7772 10.7514C19.0591 8.59239 16.1254 6 11.9999 6C7.87444 6 4.94074 8.59238 3.22268 10.7514C2.62678 11.5002 2.62678 12.4998 3.22268 13.2486C4.94074 15.4076 7.87444 18 11.9999 18ZM22.3422 14.494C23.5181 13.0163 23.5181 10.9837 22.3422 9.506C20.4739 7.15826 17.0265 4 11.9999 4C6.97341 4 3.526 7.15826 1.65772 9.506C0.481768 10.9837 0.481768 13.0163 1.65772 14.494C3.526 16.8417 6.97341 20 11.9999 20C17.0265 20 20.4739 16.8417 22.3422 14.494Z" fill="#777E91"/>
<path fill-rule="evenodd" clip-rule="evenodd" d="M14 12C14 13.1046 13.1046 14 12 14C10.8954 14 10 13.1046 10 12C10 11.9716 10.0006 11.9434 10.0018 11.9153C10.1577 11.9701 10.3253 12 10.5 12C11.3284 12 12 11.3284 12 10.5C12 10.3253 11.9701 10.1577 11.9153 10.0018C11.9434 10.0006 11.9716 10 12 10C13.1046 10 14 10.8954 14 12ZM16 12C16 14.2091 14.2091 16 12 16C9.79086 16 8 14.2091 8 12C8 9.79086 9.79086 8 12 8C14.2091 8 16 9.79086 16 12Z" fill="#777E91"/>
</svg>
