<svg width="24" height="24" viewBox="0 0 24 24" fill="none" xmlns="http://www.w3.org/2000/svg">
<path fill-rule="evenodd" clip-rule="evenodd" d="M15.9999 7V10.7297C15.9999 10.9067 16.0469 11.0806 16.1361 11.2335L20.3681 18.4884C21.5348 20.4884 20.0922 23 17.7768 23H6.22302C3.90765 23 2.46504 20.4884 3.63169 18.4884L7.86369 11.2335C7.9529 11.0806 7.99991 10.9067 7.99991 10.7297V7C7.44767 6.99995 7 6.55226 7 6C7 5.44774 7.44767 5.00005 7.99991 5C7.99988 5 7.99994 5 7.99991 5H15.9999C16.5522 5 17 5.44772 17 6C17 6.55228 16.5522 7 15.9999 7ZM14.4086 12.2413L18.6406 19.4961C19.0295 20.1628 18.5486 21 17.7768 21H6.22302C5.45123 21 4.97036 20.1628 5.35925 19.4961L9.59125 12.2413C9.85889 11.7825 9.99991 11.2608 9.99991 10.7297V7H13.9999V10.7297C13.9999 11.2608 14.1409 11.7825 14.4086 12.2413Z" fill="#777E91"/>
<path d="M5 17C5 16.4477 5.44772 16 6 16H18C18.5523 16 19 16.4477 19 17C19 17.5523 18.5523 18 18 18H6C5.44772 18 5 17.5523 5 17Z" fill="#777E91"/>
<path d="M14 3C14.5523 3 15 2.55228 15 2C15 1.44772 14.5523 1 14 1C13.4477 1 13 1.44772 13 2C13 2.55228 13.4477 3 14 3Z" fill="#777E91"/>
<path d="M10 4C10.5523 4 11 3.55228 11 3C11 2.44772 10.5523 2 10 2C9.44771 2 9 2.44772 9 3C9 3.55228 9.44771 4 10 4Z" fill="#777E91"/>
</svg>
