<svg width="24" height="24" viewBox="0 0 24 24" fill="none" xmlns="http://www.w3.org/2000/svg">
<path d="M7 5C6.44772 5 6 5.44772 6 6C6 6.55228 6.44772 7 7 7H19C19.5523 7 20 6.55228 20 6C20 5.44772 19.5523 5 19 5H7Z" fill="#777E91"/>
<path d="M7 9C6.44772 9 6 9.44771 6 10C6 10.5523 6.44772 11 7 11H13C13.5523 11 14 10.5523 14 10C14 9.44771 13.5523 9 13 9H7Z" fill="#777E91"/>
<path d="M7 13C6.44772 13 6 13.4477 6 14C6 14.5523 6.44772 15 7 15H21C21.5523 15 22 14.5523 22 14C22 13.4477 21.5523 13 21 13H7Z" fill="#777E91"/>
<path d="M6 18C6 17.4477 6.44772 17 7 17H17C17.5523 17 18 17.4477 18 18C18 18.5523 17.5523 19 17 19H7C6.44771 19 6 18.5523 6 18Z" fill="#777E91"/>
<path fill-rule="evenodd" clip-rule="evenodd" d="M3 2C3.55228 2 4 2.44772 4 3V21C4 21.5523 3.55228 22 3 22C2.44772 22 2 21.5523 2 21V3C2 2.44772 2.44772 2 3 2Z" fill="#777E91"/>
</svg>
