<svg width="24" height="24" viewBox="0 0 24 24" fill="none" xmlns="http://www.w3.org/2000/svg">
<g clip-path="url(#clip0_810:14726)">
<path fill-rule="evenodd" clip-rule="evenodd" d="M7 0C5.34315 0 4 1.34314 4 3V23C4 23.4166 4.25828 23.7896 4.64827 23.9361C5.03826 24.0826 5.47824 23.972 5.75258 23.6585L12.155 16.3415C12.3448 16.1245 12.6192 16 12.9075 16H15.3832C16.7978 16 18.0202 15.0118 18.3166 13.6286L20.4594 3.62859C20.8596 1.76105 19.436 0 17.526 0H7ZM6 3C6 2.44772 6.44771 2 7 2H17.526C18.1627 2 18.6372 2.58702 18.5038 3.20953L17.6916 7H12C11.4477 7 11 7.44772 11 8C11 8.55228 11.4477 9 12 9H17.263L16.361 13.2095C16.2622 13.6706 15.8547 14 15.3832 14H12.9075C12.0424 14 11.2195 14.3734 10.6498 15.0245L6 20.3386V3Z" fill="#777E91"/>
</g>
<defs>
<clipPath id="clip0_810:14726">
<rect width="24" height="24" fill="white"/>
</clipPath>
</defs>
</svg>
