<svg width="24" height="24" viewBox="0 0 24 24" fill="none" xmlns="http://www.w3.org/2000/svg">
<path fill-rule="evenodd" clip-rule="evenodd" d="M9.52251 8.93361C9.42147 9.17558 9.19367 9.3408 8.93228 9.36167L4.18301 9.74094C3.56159 9.79057 3.31014 10.5666 3.78437 10.9712L7.39879 14.0554C7.59901 14.2262 7.68647 14.4949 7.62518 14.7509L6.52021 19.3652C6.37527 19.9704 7.03313 20.4497 7.56481 20.1262L11.6362 17.649C11.8597 17.5131 12.1404 17.5131 12.3639 17.649L16.4353 20.1262C16.967 20.4497 17.6248 19.9704 17.4799 19.3652L16.3749 14.7509C16.3137 14.4949 16.4011 14.2262 16.6013 14.0554L20.2158 10.9712C20.69 10.5666 20.4385 9.79057 19.8171 9.74094L15.0678 9.36167C14.8065 9.3408 14.5787 9.17558 14.4776 8.93361L12.646 4.54699C12.4065 3.97327 11.5937 3.97327 11.3541 4.54699L9.52251 8.93361ZM16.0176 7.43115L14.4916 3.77638C13.5676 1.56346 10.4325 1.56348 9.50853 3.77638L7.98251 7.43115L4.0238 7.74729C1.62687 7.9387 0.657026 10.9318 2.48617 12.4926L5.49467 15.0597L4.5752 18.8994C4.01616 21.234 6.55359 23.0826 8.60437 21.8348L12.0001 19.7688L15.3958 21.8348C17.4465 23.0826 19.984 21.2339 19.4249 18.8994L18.5055 15.0597L21.514 12.4926C23.3431 10.9318 22.3732 7.9387 19.9763 7.74729L16.0176 7.43115Z" fill="#777E91"/>
</svg>
