<svg width="24" height="24" viewBox="0 0 24 24" fill="none" xmlns="http://www.w3.org/2000/svg">
<path fill-rule="evenodd" clip-rule="evenodd" d="M14 20L20 14C22.7615 11.2386 22.7614 6.76145 20 4.00002C17.2386 1.2386 12.7614 1.2386 10 4.00003L4.00002 10C1.2386 12.7614 1.2386 17.2386 4.00002 20C6.76145 22.7614 11.2386 22.7614 14 20ZM16.7071 8.70711C17.0976 8.31658 17.0976 7.68342 16.7071 7.29289C16.3166 6.90237 15.6834 6.90237 15.2929 7.29289L13.2929 9.29289C12.9024 9.68342 12.9024 10.3166 13.2929 10.7071C13.6834 11.0976 14.3166 11.0976 14.7071 10.7071L16.7071 8.70711Z" fill="#777E91"/>
</svg>
