<svg width="24" height="24" viewBox="0 0 24 24" fill="none" xmlns="http://www.w3.org/2000/svg">
<path fill-rule="evenodd" clip-rule="evenodd" d="M14.0859 18.0859L18.0859 14.0859C20.3424 11.8294 20.3424 8.17083 18.0859 5.91431C15.8294 3.6578 12.1708 3.65779 9.91431 5.91431L5.91431 9.91431C3.65779 12.1708 3.65779 15.8294 5.91431 18.0859C8.17083 20.3424 11.8294 20.3424 14.0859 18.0859ZM15.5001 19.5001L19.5001 15.5001C22.5377 12.4625 22.5377 7.53766 19.5001 4.5001C16.4625 1.46253 11.5377 1.46253 8.5001 4.5001L4.5001 8.5001C1.46253 11.5377 1.46253 16.4625 4.5001 19.5001C7.53766 22.5377 12.4625 22.5377 15.5001 19.5001Z" fill="#777E91"/>
<path fill-rule="evenodd" clip-rule="evenodd" d="M16.7071 7.29289C17.0976 7.68342 17.0976 8.31658 16.7071 8.70711L14.7071 10.7071C14.3166 11.0976 13.6834 11.0976 13.2929 10.7071C12.9024 10.3166 12.9024 9.68342 13.2929 9.29289L15.2929 7.29289C15.6834 6.90237 16.3166 6.90237 16.7071 7.29289Z" fill="#777E91"/>
</svg>
