<svg width="24" height="24" viewBox="0 0 24 24" fill="none" xmlns="http://www.w3.org/2000/svg">
<path fill-rule="evenodd" clip-rule="evenodd" d="M18 4H6C4.89543 4 4 4.89543 4 6V18C4 19.1046 4.89543 20 6 20H18C19.1046 20 20 19.1046 20 18V6C20 4.89543 19.1046 4 18 4ZM6 2C3.79086 2 2 3.79086 2 6V18C2 20.2091 3.79086 22 6 22H18C20.2091 22 22 20.2091 22 18V6C22 3.79086 20.2091 2 18 2H6Z" fill="#777E91"/>
<path d="M7 6C6.44772 6 6 6.44772 6 7V17C6 17.5523 6.44772 18 7 18H10C10.5523 18 11 17.5523 11 17V7C11 6.44772 10.5523 6 10 6H7Z" fill="#777E91"/>
<path d="M14 6C13.4477 6 13 6.44772 13 7V11C13 11.5523 13.4477 12 14 12H17C17.5523 12 18 11.5523 18 11V7C18 6.44772 17.5523 6 17 6H14Z" fill="#777E91"/>
</svg>
