<svg width="24" height="24" viewBox="0 0 24 24" fill="none" xmlns="http://www.w3.org/2000/svg">
<path d="M18.2929 11.2928L12.7071 5.70705C12.3166 5.31653 12.3166 4.68336 12.7071 4.29284L14.5858 2.41416C15.3668 1.63311 16.6331 1.63311 17.4142 2.41415L21.5858 6.58573C22.3668 7.36678 22.3668 8.63311 21.5858 9.41416L19.7071 11.2928C19.3166 11.6834 18.6834 11.6834 18.2929 11.2928Z" fill="#777E91"/>
<path fill-rule="evenodd" clip-rule="evenodd" d="M3.24271 19.2425L4.75744 20.7572C7.10058 23.1004 10.8996 23.1004 13.2427 20.7572L18.293 15.707C18.6835 15.3164 18.6835 14.6833 18.293 14.2927L9.70718 5.70696C9.31665 5.31643 8.68349 5.31643 8.29297 5.70696L3.24271 10.7572C0.899563 13.1004 0.899568 16.8993 3.24271 19.2425ZM8 16.9999C8.55228 16.9999 9 16.5522 9 15.9999C9 15.4476 8.55228 14.9999 8 14.9999C7.44772 14.9999 7 15.4476 7 15.9999C7 16.5522 7.44772 16.9999 8 16.9999Z" fill="#777E91"/>
</svg>
