<svg width="24" height="24" viewBox="0 0 24 24" fill="none" xmlns="http://www.w3.org/2000/svg">
<path fill-rule="evenodd" clip-rule="evenodd" d="M4.6568 17.8285L6.17152 19.3432C7.73362 20.9053 10.2663 20.9053 11.8284 19.3432L16.4644 14.7071C16.8549 14.3166 16.8549 13.6835 16.4644 13.2929L10.7071 7.53557C10.3165 7.14505 9.68337 7.14504 9.29284 7.53557L4.6568 12.1716C3.09471 13.7337 3.09471 16.2664 4.6568 17.8285ZM3.24259 19.2427L4.75731 20.7574C7.10046 23.1005 10.8994 23.1005 13.2426 20.7574L17.8786 16.1214C19.0502 14.9498 19.0502 13.0503 17.8786 11.8787L12.1213 6.12135C10.9497 4.94978 9.0502 4.94978 7.87863 6.12136L3.24259 10.7574C0.899445 13.1005 0.899441 16.8995 3.24259 19.2427Z" fill="#777E91"/>
<path d="M9 16C9 16.5523 8.55228 17 8 17C7.44772 17 7 16.5523 7 16C7 15.4477 7.44772 15 8 15C8.55228 15 9 15.4477 9 16Z" fill="#777E91"/>
<path d="M11.4076 5.59245C11.6642 5.72886 11.9052 5.90516 12.1214 6.12135L12.9143 6.91422L15.2929 4.53557C15.6834 4.14504 16.3166 4.14505 16.7071 4.53557L19.4645 7.29293C19.855 7.68345 19.855 8.31662 19.4645 8.70714L17.0858 11.0858L17.8788 11.8787C18.0949 12.0949 18.2712 12.3358 18.4076 12.5924L20.8787 10.1214C22.0503 8.94978 22.0503 7.05029 20.8787 5.87872L18.1213 3.12135C16.9498 1.94978 15.0503 1.94978 13.8787 3.12136L11.4076 5.59245Z" fill="#777E91"/>
</svg>
