<svg width="24" height="24" viewBox="0 0 24 24" fill="none" xmlns="http://www.w3.org/2000/svg">
<path fill-rule="evenodd" clip-rule="evenodd" d="M13 18.5C13 20.9853 10.9853 23 8.5 23C6.01472 23 4 20.9853 4 18.5C4 17.0864 4.65183 15.825 5.67134 15C4.65183 14.175 4 12.9136 4 11.5C4 10.0864 4.65183 8.82498 5.67134 8C4.65183 7.17502 4 5.91363 4 4.5C4 2.01472 6.01472 0 8.5 0H15.5C17.9853 0 20 2.01472 20 4.5C20 5.91363 19.3482 7.17502 18.3287 8C19.3482 8.82498 20 10.0864 20 11.5C20 13.9853 17.9853 16 15.5 16C14.5749 16 13.715 15.7209 13 15.2422V18.5ZM11 2H8.5C7.11929 2 6 3.11929 6 4.5C6 5.88071 7.11929 7 8.5 7H11V2ZM8.5 14H11V9H8.5C7.11929 9 6 10.1193 6 11.5C6 12.8807 7.11929 14 8.5 14ZM8.5 16C7.11929 16 6 17.1193 6 18.5C6 19.8807 7.11929 21 8.5 21C9.88071 21 11 19.8807 11 18.5V16H8.5ZM18 11.5C18 10.1193 16.8807 9 15.5 9C14.1193 9 13 10.1193 13 11.5C13 12.8807 14.1193 14 15.5 14C16.8807 14 18 12.8807 18 11.5ZM13 7H15.5C16.8807 7 18 5.88071 18 4.5C18 3.11929 16.8807 2 15.5 2H13V7Z" fill="#777E91"/>
</svg>
