<svg width="24" height="24" viewBox="0 0 24 24" fill="none" xmlns="http://www.w3.org/2000/svg">
<path d="M20 15C20 19.4183 16.4183 23 12 23C7.58172 23 4 19.4183 4 15C4 10.5817 7.58172 7 12 7C16.4183 7 20 10.5817 20 15Z" fill="#777E91"/>
<path d="M6.90202 5.48507C6.58644 4.22278 7.54116 3 8.8423 3H15.1576C16.4588 3 17.4135 4.22278 17.0979 5.48507L17.0298 5.75746C16.8959 6.29326 17.2216 6.83619 17.7574 6.97014C18.2932 7.10409 18.8362 6.77833 18.9701 6.24254L19.0382 5.97014C19.6694 3.44555 17.7599 1 15.1576 1H8.8423C6.24002 1 4.33059 3.44555 4.96173 5.97014L5.02983 6.24254C5.16378 6.77833 5.70671 7.10409 6.24251 6.97014C6.7783 6.83619 7.10406 6.29326 6.97012 5.75746L6.90202 5.48507Z" fill="#777E91"/>
</svg>
