<svg width="24" height="24" viewBox="0 0 24 24" fill="none" xmlns="http://www.w3.org/2000/svg">
<path fill-rule="evenodd" clip-rule="evenodd" d="M12 22C15.866 22 19 18.866 19 15C19 11.134 15.866 8 12 8C8.13401 8 5 11.134 5 15C5 18.866 8.13401 22 12 22ZM12 24C16.9706 24 21 19.9706 21 15C21 10.0294 16.9706 6 12 6C7.02944 6 3 10.0294 3 15C3 19.9706 7.02944 24 12 24Z" fill="#777E91"/>
<path fill-rule="evenodd" clip-rule="evenodd" d="M8.85416 3C7.3674 3 6.4004 4.56462 7.06531 5.89443L7.89449 7.55279C8.14147 8.04676 7.94125 8.64744 7.44727 8.89443C6.95329 9.14142 6.35262 8.94119 6.10563 8.44721L5.27645 6.78885C3.94665 4.12925 5.88063 1 8.85416 1H15.146C18.1195 1 20.0535 4.12925 18.7237 6.78885L17.8945 8.44721C17.6475 8.94119 17.0468 9.14142 16.5528 8.89443C16.0589 8.64744 15.8586 8.04677 16.1056 7.55279L16.9348 5.89443C17.5997 4.56462 16.6327 3 15.146 3H8.85416Z" fill="#777E91"/>
</svg>
