<svg width="24" height="24" viewBox="0 0 24 24" fill="none" xmlns="http://www.w3.org/2000/svg">
<path d="M7 0C7.55228 0 8 0.447715 8 1V3C8 3.55228 7.55228 4 7 4C6.44772 4 6 3.55228 6 3V1C6 0.447715 6.44772 0 7 0Z" fill="#777E91"/>
<path d="M7 12C7.55228 12 8 12.4477 8 13V19C8 19.5523 7.55228 20 7 20C6.44772 20 6 19.5523 6 19V13C6 12.4477 6.44772 12 7 12Z" fill="#777E91"/>
<path d="M17 4C17.5523 4 18 4.44772 18 5V13C18 13.5523 17.5523 14 17 14C16.4477 14 16 13.5523 16 13V5C16 4.44772 16.4477 4 17 4Z" fill="#777E91"/>
<path d="M17 18C17.5523 18 18 18.4477 18 19V23C18 23.5523 17.5523 24 17 24C16.4477 24 16 23.5523 16 23V19C16 18.4477 16.4477 18 17 18Z" fill="#777E91"/>
<path fill-rule="evenodd" clip-rule="evenodd" d="M4 5C4 3.34315 5.34315 2 7 2C8.65685 2 10 3.34315 10 5V11C10 12.6569 8.65685 14 7 14C5.34315 14 4 12.6569 4 11V5ZM8 5V11C8 11.5523 7.55228 12 7 12C6.44772 12 6 11.5523 6 11V5C6 4.44772 6.44772 4 7 4C7.55228 4 8 4.44772 8 5Z" fill="#777E91"/>
<path fill-rule="evenodd" clip-rule="evenodd" d="M14 15C14 13.3431 15.3431 12 17 12C18.6569 12 20 13.3431 20 15V17C20 18.6569 18.6569 20 17 20C15.3431 20 14 18.6569 14 17V15ZM18 15V17C18 17.5523 17.5523 18 17 18C16.4477 18 16 17.5523 16 17V15C16 14.4477 16.4477 14 17 14C17.5523 14 18 14.4477 18 15Z" fill="#777E91"/>
</svg>
