<svg width="24" height="24" viewBox="0 0 24 24" fill="none" xmlns="http://www.w3.org/2000/svg">
<path fill-rule="evenodd" clip-rule="evenodd" d="M17.7422 8H6.25785C5.10421 8 4.18978 8.97336 4.26174 10.1248L4.76174 18.1248C4.82762 19.1788 5.70172 20 6.75785 20H17.2422C18.2984 20 19.1725 19.1788 19.2383 18.1248L19.7383 10.1248C19.8103 8.97336 18.8959 8 17.7422 8ZM6.25785 6C3.95056 6 2.12172 7.94672 2.26564 10.2495L2.76564 18.2495C2.8974 20.3577 4.6456 22 6.75785 22H17.2422C19.3545 22 21.1027 20.3577 21.2345 18.2495L21.7345 10.2495C21.8784 7.94672 20.0495 6 17.7422 6H6.25785Z" fill="#777E91"/>
<path fill-rule="evenodd" clip-rule="evenodd" d="M7 7C7 4.23858 9.23858 2 12 2C14.7614 2 17 4.23858 17 7V9C17 9.55228 16.5523 10 16 10C15.4477 10 15 9.55228 15 9V7C15 5.34315 13.6569 4 12 4C10.3431 4 9 5.34315 9 7V9C9 9.55228 8.55228 10 8 10C7.44772 10 7 9.55228 7 9V7Z" fill="#777E91"/>
</svg>
