<svg width="24" height="24" viewBox="0 0 24 24" fill="none" xmlns="http://www.w3.org/2000/svg">
<path fill-rule="evenodd" clip-rule="evenodd" d="M7 4H5C4.44771 4 4 4.44772 4 5V19C4 19.5523 4.44772 20 5 20H7C7.55229 20 8 19.5523 8 19V5C8 4.44772 7.55228 4 7 4ZM5 2C3.34315 2 2 3.34315 2 5V19C2 20.6569 3.34315 22 5 22H7C8.65685 22 10 20.6569 10 19V5C10 3.34315 8.65685 2 7 2H5Z" fill="#777E91"/>
<path fill-rule="evenodd" clip-rule="evenodd" d="M19 4H17C16.4477 4 16 4.44772 16 5V19C16 19.5523 16.4477 20 17 20H19C19.5523 20 20 19.5523 20 19V5C20 4.44772 19.5523 4 19 4ZM17 2C15.3431 2 14 3.34315 14 5V19C14 20.6569 15.3431 22 17 22H19C20.6569 22 22 20.6569 22 19V5C22 3.34315 20.6569 2 19 2H17Z" fill="#777E91"/>
</svg>
