<svg width="24" height="24" viewBox="0 0 24 24" fill="none" xmlns="http://www.w3.org/2000/svg">
<path fill-rule="evenodd" clip-rule="evenodd" d="M18 17C19.6569 17 21 18.3431 21 20C21 21.6569 19.6569 23 18 23L8 23C7.44771 23 7 22.5523 7 22C7 21.4477 7.44771 21 8 21L18 21C18.5523 21 19 20.5523 19 20C19 19.4477 18.5523 19 18 19L8 19C7.44771 19 7 18.5523 7 18C7 17.4477 7.44771 17 8 17L18 17Z" fill="#777E91"/>
<path fill-rule="evenodd" clip-rule="evenodd" d="M9 9C10.6569 9 12 10.3431 12 12C12 13.6569 10.6569 15 9 15L8 15C7.44772 15 7 14.5523 7 14C7 13.4477 7.44772 13 8 13L9 13C9.55228 13 10 12.5523 10 12C10 11.4477 9.55228 11 9 11L8 11C7.44771 11 7 10.5523 7 10C7 9.44772 7.44771 9 8 9L9 9Z" fill="#777E91"/>
<path fill-rule="evenodd" clip-rule="evenodd" d="M13 1C14.6569 1 16 2.34315 16 4C16 5.65685 14.6569 7 13 7L8 7C7.44772 7 7 6.55228 7 6C7 5.44771 7.44772 5 8 5L13 5C13.5523 5 14 4.55228 14 4C14 3.44771 13.5523 3 13 3L8 3C7.44772 3 7 2.55228 7 2C7 1.44771 7.44772 1 8 1L13 1Z" fill="#777E91"/>
<path fill-rule="evenodd" clip-rule="evenodd" d="M4 1C4.55228 1 5 1.44772 5 2V22C5 22.5523 4.55228 23 4 23C3.44772 23 3 22.5523 3 22V2C3 1.44772 3.44772 1 4 1Z" fill="#777E91"/>
</svg>
