<svg width="24" height="24" viewBox="0 0 24 24" fill="none" xmlns="http://www.w3.org/2000/svg">
<path fill-rule="evenodd" clip-rule="evenodd" d="M19 10H5V18C5 19.1046 5.89543 20 7 20H17C18.1046 20 19 19.1046 19 18V10ZM3 8V18C3 20.2091 4.79086 22 7 22H17C19.2091 22 21 20.2091 21 18V8H3Z" fill="#777E91"/>
<path d="M9 13C9 12.4477 9.44772 12 10 12H14C14.5523 12 15 12.4477 15 13C15 13.5523 14.5523 14 14 14H10C9.44772 14 9 13.5523 9 13Z" fill="#777E91"/>
<path fill-rule="evenodd" clip-rule="evenodd" d="M19 4H5C4.44772 4 4 4.44772 4 5V7C4 7.55229 4.44772 8 5 8H19C19.5523 8 20 7.55228 20 7V5C20 4.44771 19.5523 4 19 4ZM5 2C3.34315 2 2 3.34315 2 5V7C2 8.65685 3.34315 10 5 10H19C20.6569 10 22 8.65685 22 7V5C22 3.34315 20.6569 2 19 2H5Z" fill="#777E91"/>
</svg>
