<svg width="24" height="24" viewBox="0 0 24 24" fill="none" xmlns="http://www.w3.org/2000/svg">
<path d="M20 18.8003V8.96639L21.4855 9.85771C21.9591 10.1419 22.5734 9.98829 22.8575 9.51471C23.1417 9.04113 22.9881 8.42687 22.5145 8.14272L17.4926 5.12957L13.6514 2.81528L13.6513 2.81521C13.3721 2.64699 13.1578 2.51789 12.9762 2.42081C12.9338 2.3971 12.8908 2.37505 12.8472 2.35465C12.696 2.28089 12.565 2.2318 12.4304 2.20213C12.1469 2.13965 11.8531 2.13965 11.5696 2.20214C11.4346 2.23188 11.3033 2.28115 11.1516 2.35523C11.1088 2.37529 11.0666 2.39695 11.0249 2.42021C10.8431 2.51736 10.6285 2.64664 10.3487 2.81522L10.3486 2.81526L6.50169 5.13303L1.48553 8.14272C1.01195 8.42687 0.858388 9.04113 1.14254 9.51471C1.42668 9.98829 2.04094 10.1419 2.51452 9.85771L4 8.96642V18.8003C4 19.9204 4 20.4804 4.21799 20.9083C4.40973 21.2846 4.71569 21.5906 5.09202 21.7823C5.51984 22.0003 6.0799 22.0003 7.2 22.0003L9 22.0002V16.0002C9 14.3434 10.3431 13.0002 12 13.0002C13.6569 13.0002 15 14.3434 15 16.0002V22.0002L16.8 22.0003C17.9201 22.0003 18.4802 22.0003 18.908 21.7823C19.2843 21.5906 19.5903 21.2846 19.782 20.9083C20 20.4804 20 19.9204 20 18.8003Z" fill="#777E91"/>
</svg>
