<svg width="24" height="24" viewBox="0 0 24 24" fill="none" xmlns="http://www.w3.org/2000/svg">
<path fill-rule="evenodd" clip-rule="evenodd" d="M14.0001 13.6972C14.0001 13.4998 14.0585 13.3068 14.168 13.1425L19.2266 5.5547C19.6696 4.89015 19.1932 4 18.3945 4H5.60563C4.80693 4 4.33054 4.89015 4.77358 5.5547L9.83213 13.1425C9.94164 13.3068 10.0001 13.4998 10.0001 13.6972V19.5873C10.0001 20.3727 10.864 20.8515 11.5301 20.4353L13.5301 19.1853C13.8225 19.0025 14.0001 18.682 14.0001 18.3373V13.6972ZM16.0001 14.3028C16.0001 14.1054 16.0585 13.9123 16.168 13.7481L20.8907 6.6641C22.2198 4.67044 20.7906 2 18.3945 2H5.60563C3.20955 2 1.78037 4.67043 3.10948 6.6641L7.83213 13.7481C7.94164 13.9123 8.00008 14.1054 8.00008 14.3028V19.5873C8.00008 21.9436 10.5919 23.3801 12.5901 22.1313L14.5901 20.8813C15.4672 20.333 16.0001 19.3716 16.0001 18.3373V14.3028Z" fill="#777E91"/>
</svg>
