<svg width="24" height="24" viewBox="0 0 24 24" fill="none" xmlns="http://www.w3.org/2000/svg">
<path fill-rule="evenodd" clip-rule="evenodd" d="M0 7C0 5.34315 1.34315 4 3 4H11C12.6569 4 14 5.34315 14 7V16C14 17.1046 13.1046 18 12 18H8V16H11.5C11.7761 16 12 15.7761 12 15.5V7C12 6.44772 11.5523 6 11 6H3C2.44772 6 2 6.44772 2 7V15C2 15.5523 2.44772 16 3 16H4V18H3C1.34315 18 0 16.6569 0 15V7Z" fill="#777E91"/>
<path fill-rule="evenodd" clip-rule="evenodd" d="M12 7H18.2251C18.9729 7 19.6938 7.27929 20.2464 7.78313L23.0213 10.3132C23.6447 10.8816 24 11.6863 24 12.5301V15C24 16.6569 22.6569 18 21 18H20V16H21C21.5523 16 22 15.5523 22 15V12.5301C22 12.2488 21.8816 11.9806 21.6738 11.7911L18.8989 9.26104C18.7147 9.0931 18.4744 9 18.2251 9H15C14.4477 9 14 9.44772 14 10V15.5C14 15.7761 14.2239 16 14.5 16H16V18H12V7Z" fill="#777E91"/>
<path fill-rule="evenodd" clip-rule="evenodd" d="M6 18C6.55228 18 7 17.5523 7 17C7 16.4477 6.55228 16 6 16C5.44772 16 5 16.4477 5 17C5 17.5523 5.44772 18 6 18ZM6 20C7.65685 20 9 18.6569 9 17C9 15.3431 7.65685 14 6 14C4.34315 14 3 15.3431 3 17C3 18.6569 4.34315 20 6 20Z" fill="#777E91"/>
<path fill-rule="evenodd" clip-rule="evenodd" d="M18 18C18.5523 18 19 17.5523 19 17C19 16.4477 18.5523 16 18 16C17.4477 16 17 16.4477 17 17C17 17.5523 17.4477 18 18 18ZM18 20C19.6569 20 21 18.6569 21 17C21 15.3431 19.6569 14 18 14C16.3431 14 15 15.3431 15 17C15 18.6569 16.3431 20 18 20Z" fill="#777E91"/>
</svg>
